<svg width="124" height="124" viewBox="0 0 124 124" fill="none" xmlns="http://www.w3.org/2000/svg">
    <path d="M121.417 36.1666V98.1666C121.408 101.016 119.1 103.325 116.25 103.333H80.0834L69.75 113.667V103.333H33.5834C30.7336 103.325 28.4253 101.016 28.4168 98.1666V82.6666H46.5V93L56.8334 82.6666H90.4168C93.2667 82.6581 95.575 80.3498 95.5834 77.5V31H116.25C119.1 31.0085 121.408 33.3168 121.417 36.1666Z" fill="#EADBD6"/>
    <path d="M95.5834 31V77.5C95.575 80.3498 93.2667 82.6581 90.4169 82.6665H56.8334L46.5 93V82.6665H7.75001C4.90019 82.6581 2.5919 80.3498 2.58342 77.5V15.5C2.5919 12.6501 4.90019 10.3419 7.75001 10.3334H90.4166C93.2664 10.3419 95.5747 12.6501 95.5832 15.5L95.5834 31Z" fill="#97CEED"/>
    <path d="M69.75 116.25C68.3233 116.25 67.1666 115.093 67.1666 113.667V105.917H33.5834C29.3032 105.917 25.8334 102.447 25.8334 98.1666V90.4166H31V98.1666C31 99.5934 32.1567 100.75 33.5834 100.75H69.75C71.1767 100.75 72.3334 101.907 72.3334 103.333V107.431L78.2571 101.507C78.7415 101.022 79.3985 100.75 80.0834 100.75H116.25C117.677 100.75 118.833 99.5934 118.833 98.1666V36.1666C118.833 34.7399 117.677 33.5832 116.25 33.5832H103.333V28.4166H116.25C120.53 28.4166 124 31.8864 124 36.1666V98.1666C124 102.447 120.53 105.917 116.25 105.917H81.1529L71.5766 115.493C71.092 115.978 70.4352 116.25 69.75 116.25Z" fill="#2F2E41"/>
    <path d="M46.5 95.5834C45.0733 95.5834 43.9166 94.4267 43.9166 93V85.25H7.75C3.46982 85.25 0 81.7802 0 77.5V15.5C0 11.2198 3.46982 7.75 7.75 7.75H90.4166C94.6968 7.75 98.1666 11.2198 98.1666 15.5V77.5C98.1666 81.7802 94.6968 85.25 90.4166 85.25H57.9029L48.3266 94.8263C47.842 95.311 47.1852 95.5832 46.5 95.5834ZM7.75 12.9166C6.32327 12.9166 5.16659 14.0733 5.16659 15.5V77.5C5.16659 78.9267 6.32327 80.0834 7.75 80.0834H46.5C47.9267 80.0834 49.0834 81.2401 49.0834 82.6668V86.7639L55.0071 80.8402C55.4915 80.3556 56.1485 80.0834 56.8334 80.0834H90.4168C91.8436 80.0834 93.0002 78.9267 93.0002 77.5V15.5C93.0002 14.0733 91.8436 12.9166 90.4168 12.9166H7.75Z" fill="#2F2E41"/>
    <path d="M12.9166 28.4166H41.3332V33.5832H12.9166V28.4166Z" fill="#2F2E41"/>
    <path d="M12.9166 43.9166H85.25V49.0832H12.9166V43.9166Z" fill="#2F2E41"/>
    <path d="M12.9166 59.4166H85.25V64.5832H12.9166V59.4166Z" fill="#2F2E41"/>
    <path d="M80.0834 28.4166H85.25V33.5832H80.0834V28.4166Z" fill="#2F2E41"/>
    <path d="M69.75 28.4166H74.9166V33.5832H69.75V28.4166Z" fill="#2F2E41"/>
</svg>
