<svg width="124" height="124" viewBox="0 0 124 124" fill="none" xmlns="http://www.w3.org/2000/svg">
    <path d="M114.317 68.8829C113.877 68.2127 113.309 67.6358 112.645 67.1851C111.982 66.7345 111.236 66.419 110.451 66.2566C109.666 66.0942 108.856 66.0882 108.068 66.2388C107.281 66.3894 106.53 66.6937 105.86 67.1343L105.349 67.4685L112.055 77.6767L112.566 77.3425C113.237 76.9025 113.815 76.3345 114.266 75.671C114.717 75.0075 115.033 74.2616 115.196 73.4758C115.359 72.6901 115.365 71.88 115.214 71.0919C115.063 70.3037 114.759 69.5531 114.317 68.8829Z" fill="#B1E8FF"/>
    <path d="M81.3363 14.0469H15.9457C14.9983 14.0375 14.0585 14.2164 13.1808 14.573C12.3031 14.9297 11.5049 15.4571 10.8326 16.1247C10.1604 16.7922 9.62732 17.5866 9.26445 18.4618C8.90158 19.337 8.7161 20.2755 8.71878 21.2229V108.653C8.71878 112.663 11.9326 116.008 15.9457 116.008H81.3363C83.2763 115.988 85.1306 115.206 86.4977 113.829C87.8647 112.452 88.6346 110.593 88.6407 108.653V21.2229C88.6407 17.2099 85.3469 14.0469 81.3363 14.0469ZM25.2093 28.2851C24.4137 28.2851 23.6359 28.0492 22.9744 27.6071C22.3129 27.1651 21.7973 26.5368 21.4928 25.8018C21.1883 25.0667 21.1087 24.2579 21.2639 23.4776C21.4191 22.6972 21.8022 21.9804 22.3648 21.4179C22.9274 20.8553 23.6442 20.4721 24.4245 20.3169C25.2049 20.1617 26.0137 20.2414 26.7488 20.5458C27.4838 20.8503 28.1121 21.3659 28.5541 22.0274C28.9961 22.689 29.2321 23.4667 29.2321 24.2624C29.2321 24.7906 29.1281 25.3138 28.926 25.8019C28.7238 26.29 28.4275 26.7334 28.054 27.107C27.6804 27.4806 27.2369 27.7769 26.7488 27.979C26.2607 28.1811 25.7376 28.2852 25.2093 28.2851ZM40.3509 28.2851C39.5553 28.2851 38.7775 28.0492 38.116 27.6071C37.4544 27.1651 36.9388 26.5368 36.6344 25.8018C36.3299 25.0667 36.2502 24.2579 36.4054 23.4776C36.5607 22.6972 36.9438 21.9804 37.5064 21.4179C38.069 20.8553 38.7858 20.4721 39.5661 20.3169C40.3464 20.1617 41.1553 20.2414 41.8903 20.5458C42.6254 20.8503 43.2536 21.3659 43.6957 22.0274C44.1377 22.689 44.3736 23.4667 44.3736 24.2624C44.3737 24.7906 44.2697 25.3138 44.0675 25.8019C43.8654 26.29 43.5691 26.7334 43.1955 27.107C42.822 27.4806 42.3785 27.7769 41.8904 27.979C41.4023 28.1811 40.8792 28.2852 40.3509 28.2851ZM55.4949 28.2851C54.6993 28.2851 53.9215 28.0492 53.26 27.6071C52.5984 27.1651 52.0828 26.5368 51.7784 25.8018C51.4739 25.0667 51.3942 24.2579 51.5494 23.4776C51.7047 22.6972 52.0878 21.9804 52.6504 21.4179C53.213 20.8553 53.9297 20.4721 54.7101 20.3169C55.4904 20.1617 56.2992 20.2414 57.0343 20.5458C57.7694 20.8503 58.3976 21.3659 58.8397 22.0274C59.2817 22.689 59.5176 23.4667 59.5176 24.2624C59.5179 24.7907 59.4141 25.314 59.212 25.8022C59.01 26.2904 58.7137 26.734 58.3401 27.1076C57.9665 27.4812 57.5229 27.7775 57.0347 27.9795C56.5465 28.1816 56.0232 28.2854 55.4949 28.2851ZM70.6364 28.2851C69.8408 28.2851 69.0631 28.0492 68.4015 27.6071C67.74 27.1651 67.2244 26.5368 66.9199 25.8018C66.6154 25.0667 66.5358 24.2579 66.691 23.4776C66.8462 22.6972 67.2293 21.9804 67.7919 21.4179C68.3545 20.8553 69.0713 20.4721 69.8516 20.3169C70.632 20.1617 71.4408 20.2414 72.1759 20.5458C72.9109 20.8503 73.5392 21.3659 73.9812 22.0274C74.4232 22.689 74.6592 23.4667 74.6592 24.2624C74.6592 24.7906 74.5552 25.3138 74.3531 25.8019C74.1509 26.29 73.8546 26.7334 73.4811 27.107C73.1075 27.4806 72.664 27.7769 72.1759 27.979C71.6879 28.1811 71.1647 28.2852 70.6364 28.2851Z" fill="#CAE6EE"/>
    <path d="M88.6019 93.08L73.0195 103.312L69.6652 98.2095L108.703 72.574L112.055 77.6769L88.6019 93.08Z" fill="#B8B0C8"/>
    <path d="M108.703 72.5738L69.6652 98.2094L66.3109 93.1041L88.6019 78.4663L105.349 67.4685L108.703 72.5738Z" fill="#B8B0C8"/>
    <path d="M66.3109 93.1042L66.156 93.3948L60.7382 103.634L73.0195 103.312L66.3109 93.1042Z" fill="#C79A83"/>
    <path d="M26.2047 39.4524C27.868 39.4522 29.4941 39.9452 30.8772 40.8691C32.2604 41.793 33.3385 43.1063 33.9752 44.6429C34.612 46.1795 34.7788 47.8705 34.4545 49.5019C34.1303 51.1333 33.3295 52.6319 32.1535 53.8083C30.9775 54.9846 29.4791 55.7858 27.8478 56.1105C26.2165 56.4352 24.5255 56.2689 22.9887 55.6326C21.4519 54.9963 20.1383 53.9186 19.214 52.5357C18.2897 51.1528 17.7962 49.5269 17.796 47.8636C17.7959 45.6332 18.6817 43.4941 20.2586 41.9168C21.8355 40.3394 23.9743 39.453 26.2047 39.4524Z" fill="#EADBD6"/>
    <path d="M26.2047 63.6712C27.868 63.6709 29.4941 64.1639 30.8772 65.0878C32.2604 66.0117 33.3385 67.325 33.9752 68.8617C34.612 70.3983 34.7788 72.0892 34.4545 73.7206C34.1303 75.3521 33.3295 76.8507 32.1535 78.027C30.9775 79.2033 29.4791 80.0045 27.8478 80.3293C26.2165 80.654 24.5255 80.4877 22.9887 79.8514C21.4519 79.2151 20.1383 78.1373 19.214 76.7545C18.2897 75.3716 17.7962 73.7457 17.796 72.0823C17.7959 69.852 18.6817 67.7129 20.2586 66.1355C21.8355 64.5582 23.9743 63.6717 26.2047 63.6712Z" fill="#EADBD6"/>
    <path d="M26.2047 87.8899C27.868 87.8897 29.4941 88.3827 30.8772 89.3066C32.2604 90.2305 33.3385 91.5438 33.9752 93.0804C34.612 94.617 34.7788 96.308 34.4545 97.9394C34.1303 99.5708 33.3295 101.069 32.1535 102.246C30.9775 103.422 29.4791 104.223 27.8478 104.548C26.2165 104.873 24.5255 104.706 22.9887 104.07C21.4519 103.434 20.1383 102.356 19.214 100.973C18.2897 99.5903 17.7962 97.9644 17.796 96.3011C17.7959 94.0707 18.6817 91.9316 20.2586 90.3543C21.8355 88.7769 23.9743 87.8905 26.2047 87.8899Z" fill="#EADBD6"/>
    <path d="M15.9844 108.653V21.2229C15.9817 20.2755 16.1672 19.337 16.5301 18.4618C16.8929 17.5866 17.426 16.7922 18.0983 16.1247C18.7705 15.4571 19.5687 14.9297 20.4464 14.573C21.3241 14.2164 22.2639 14.0375 23.2113 14.0469H15.9457C14.9983 14.0375 14.0585 14.2164 13.1808 14.573C12.3031 14.9297 11.5049 15.4571 10.8326 16.1247C10.1604 16.7922 9.62732 17.5866 9.26445 18.4618C8.90158 19.337 8.7161 20.2755 8.71878 21.2229V108.653C8.71878 112.663 11.9326 116.008 15.9457 116.008H23.2113C19.1982 116.008 15.9844 112.663 15.9844 108.653Z" fill="#AAC8CE"/>
    <path d="M43.1578 46.5H79.486C79.8714 46.5 80.241 46.3469 80.5135 46.0744C80.786 45.8019 80.9391 45.4323 80.9391 45.0469C80.9391 44.6615 80.786 44.2919 80.5135 44.0194C80.241 43.7468 79.8714 43.5938 79.486 43.5938H43.1578C42.7724 43.5938 42.4028 43.7468 42.1303 44.0194C41.8578 44.2919 41.7047 44.6615 41.7047 45.0469C41.7047 45.4323 41.8578 45.8019 42.1303 46.0744C42.4028 46.3469 42.7724 46.5 43.1578 46.5Z" fill="#2F2E41"/>
    <path d="M28.4846 44.7779L25.256 47.8646L23.9465 46.555C23.8123 46.4171 23.6519 46.3072 23.4749 46.2318C23.2978 46.1563 23.1075 46.1168 22.915 46.1155C22.7225 46.1142 22.5317 46.1512 22.3536 46.2242C22.1755 46.2973 22.0137 46.405 21.8776 46.5411C21.7415 46.6772 21.6338 46.839 21.5608 47.0171C21.4877 47.1952 21.4508 47.386 21.4521 47.5785C21.4534 47.771 21.493 47.9613 21.5685 48.1384C21.6439 48.3155 21.7538 48.4758 21.8918 48.61L24.2059 50.9244C24.4744 51.1929 24.8374 51.3456 25.2171 51.3498C25.5968 51.3541 25.9631 51.2095 26.2376 50.9471L30.4931 46.8784C30.6323 46.7468 30.7442 46.589 30.8222 46.4141C30.9003 46.2391 30.943 46.0505 30.9478 45.859C30.9527 45.6675 30.9197 45.4769 30.8506 45.2982C30.7815 45.1195 30.6778 44.9563 30.5454 44.8178C30.4131 44.6794 30.2546 44.5685 30.0792 44.4915C29.9038 44.4145 29.7149 44.3729 29.5233 44.3692C29.3318 44.3655 29.1414 44.3997 28.9632 44.4698C28.7849 44.54 28.6223 44.6447 28.4846 44.7779Z" fill="#2F2E41"/>
    <path d="M26.2047 37.9993C24.2541 37.9993 22.3473 38.5777 20.7255 39.6614C19.1036 40.7451 17.8395 42.2854 17.0931 44.0875C16.3466 45.8897 16.1513 47.8727 16.5319 49.7858C16.9124 51.6989 17.8518 53.4562 19.2311 54.8355C20.6104 56.2147 22.3677 57.154 24.2808 57.5345C26.1939 57.915 28.1769 57.7197 29.979 56.9732C31.7811 56.2267 33.3214 54.9626 34.4051 53.3407C35.4887 51.7188 36.0671 49.812 36.0671 47.8614C36.0641 45.2467 35.0241 42.7399 33.1752 40.891C31.3263 39.0421 28.8194 38.0022 26.2047 37.9993ZM26.2047 54.8175C24.8289 54.8175 23.484 54.4095 22.3401 53.6452C21.1962 52.8808 20.3046 51.7945 19.7781 50.5234C19.2516 49.2523 19.1139 47.8537 19.3823 46.5043C19.6507 45.155 20.3132 43.9155 21.286 42.9427C22.2588 41.9699 23.4983 41.3074 24.8476 41.039C26.197 40.7705 27.5956 40.9083 28.8667 41.4348C30.1378 41.9613 31.2242 42.8529 31.9885 43.9968C32.7529 45.1407 33.1608 46.4856 33.1608 47.8614C33.159 49.7058 32.4256 51.4742 31.1215 52.7785C29.8174 54.0828 28.0491 54.8164 26.2047 54.8185V54.8175Z" fill="#2F2E41"/>
    <path d="M43.1578 70.7188H79.486C79.8714 70.7188 80.241 70.5657 80.5135 70.2931C80.786 70.0206 80.9391 69.651 80.9391 69.2656C80.9391 68.8802 80.786 68.5106 80.5135 68.2381C80.241 67.9656 79.8714 67.8125 79.486 67.8125H43.1578C42.7724 67.8125 42.4028 67.9656 42.1303 68.2381C41.8578 68.5106 41.7047 68.8802 41.7047 69.2656C41.7047 69.651 41.8578 70.0206 42.1303 70.2931C42.4028 70.5657 42.7724 70.7188 43.1578 70.7188Z" fill="#2F2E41"/>
    <path d="M28.4846 68.9966L25.256 72.0833L23.9465 70.7738C23.8123 70.6359 23.6519 70.526 23.4749 70.4505C23.2978 70.3751 23.1075 70.3355 22.915 70.3342C22.7225 70.333 22.5317 70.3699 22.3536 70.443C22.1755 70.516 22.0137 70.6238 21.8776 70.7599C21.7415 70.896 21.6338 71.0578 21.5608 71.2359C21.4877 71.414 21.4508 71.6048 21.4521 71.7973C21.4534 71.9898 21.493 72.1801 21.5685 72.3571C21.6439 72.5342 21.7538 72.6945 21.8918 72.8288L24.2059 75.1431C24.4744 75.4116 24.8374 75.5643 25.2171 75.5686C25.5968 75.5729 25.9631 75.4283 26.2376 75.1659L30.4931 71.0971C30.6323 70.9656 30.7442 70.8078 30.8222 70.6328C30.9003 70.4579 30.943 70.2692 30.9478 70.0777C30.9527 69.8862 30.9197 69.6957 30.8506 69.517C30.7815 69.3383 30.6778 69.175 30.5454 69.0366C30.4131 68.8981 30.2546 68.7872 30.0792 68.7102C29.9038 68.6332 29.7149 68.5917 29.5233 68.588C29.3318 68.5843 29.1414 68.6185 28.9632 68.6886C28.7849 68.7587 28.6223 68.8634 28.4846 68.9966Z" fill="#2F2E41"/>
    <path d="M26.2047 62.218C24.2541 62.218 22.3473 62.7965 20.7255 63.8802C19.1036 64.9639 17.8395 66.5042 17.0931 68.3063C16.3466 70.1084 16.1513 72.0914 16.5319 74.0045C16.9124 75.9177 17.8518 77.675 19.2311 79.0542C20.6104 80.4335 22.3677 81.3728 24.2808 81.7533C26.1939 82.1338 28.1769 81.9385 29.979 81.192C31.7811 80.4455 33.3214 79.1814 34.4051 77.5595C35.4887 75.9376 36.0671 74.0308 36.0671 72.0802C36.0641 69.4654 35.0241 66.9586 33.1752 65.1098C31.3263 63.2609 28.8194 62.2209 26.2047 62.218ZM26.2047 79.0363C24.8289 79.0363 23.484 78.6283 22.3401 77.864C21.1962 77.0996 20.3046 76.0132 19.7781 74.7421C19.2516 73.4711 19.1139 72.0724 19.3823 70.7231C19.6507 69.3737 20.3132 68.1343 21.286 67.1614C22.2588 66.1886 23.4983 65.5261 24.8476 65.2577C26.197 64.9893 27.5956 65.1271 28.8667 65.6535C30.1378 66.18 31.2242 67.0716 31.9885 68.2155C32.7529 69.3595 33.1608 70.7044 33.1608 72.0802C33.159 73.9246 32.4256 75.6929 31.1215 76.9972C29.8174 78.3015 28.0491 79.0352 26.2047 79.0372V79.0363Z" fill="#2F2E41"/>
    <path d="M28.4846 93.2154L25.256 96.3021L23.9465 94.9925C23.8123 94.8546 23.6519 94.7447 23.4749 94.6693C23.2978 94.5938 23.1075 94.5543 22.915 94.553C22.7225 94.5517 22.5317 94.5887 22.3536 94.6617C22.1755 94.7348 22.0137 94.8425 21.8776 94.9786C21.7415 95.1147 21.6338 95.2765 21.5608 95.4546C21.4877 95.6327 21.4508 95.8236 21.4521 96.016C21.4534 96.2085 21.493 96.3988 21.5685 96.5759C21.6439 96.753 21.7538 96.9133 21.8918 97.0475L24.2059 99.3619C24.4744 99.6304 24.8374 99.7831 25.2171 99.7874C25.5968 99.7916 25.9631 99.6471 26.2376 99.3846L30.4931 95.3159C30.6323 95.1843 30.7442 95.0265 30.8222 94.8516C30.9003 94.6766 30.943 94.488 30.9478 94.2965C30.9527 94.105 30.9197 93.9144 30.8506 93.7357C30.7815 93.557 30.6778 93.3938 30.5454 93.2553C30.4131 93.1169 30.2546 93.006 30.0792 92.929C29.9038 92.852 29.7149 92.8104 29.5233 92.8067C29.3318 92.803 29.1414 92.8372 28.9632 92.9073C28.7849 92.9775 28.6223 93.0822 28.4846 93.2154Z" fill="#2F2E41"/>
    <path d="M26.2047 86.4368C24.2541 86.4368 22.3473 87.0152 20.7255 88.0989C19.1036 89.1826 17.8395 90.7229 17.0931 92.525C16.3466 94.3272 16.1513 96.3102 16.5319 98.2233C16.9124 100.136 17.8518 101.894 19.2311 103.273C20.6104 104.652 22.3677 105.592 24.2808 105.972C26.1939 106.353 28.1769 106.157 29.979 105.411C31.7811 104.664 33.3214 103.4 34.4051 101.778C35.4887 100.156 36.0671 98.2495 36.0671 96.2989C36.0641 93.6842 35.0241 91.1774 33.1752 89.3285C31.3263 87.4796 28.8194 86.4397 26.2047 86.4368ZM26.2047 103.255C24.8289 103.255 23.484 102.847 22.3401 102.083C21.1962 101.318 20.3046 100.232 19.7781 98.9609C19.2516 97.6898 19.1139 96.2912 19.3823 94.9418C19.6507 93.5925 20.3132 92.353 21.286 91.3802C22.2588 90.4074 23.4983 89.7449 24.8476 89.4765C26.197 89.2081 27.5956 89.3458 28.8667 89.8723C30.1378 90.3988 31.2242 91.2904 31.9885 92.4343C32.7529 93.5782 33.1608 94.9231 33.1608 96.2989C33.159 98.1433 32.4256 99.9117 31.1215 101.216C29.8174 102.52 28.0491 103.254 26.2047 103.256V103.255Z" fill="#2F2E41"/>
    <path d="M43.1578 51.3438H62.5328C62.9182 51.3438 63.2878 51.1907 63.5604 50.9181C63.8329 50.6456 63.986 50.276 63.986 49.8906C63.986 49.5052 63.8329 49.1356 63.5604 48.8631C63.2878 48.5906 62.9182 48.4375 62.5328 48.4375H43.1578C42.7724 48.4375 42.4028 48.5906 42.1303 48.8631C41.8578 49.1356 41.7047 49.5052 41.7047 49.8906C41.7047 50.276 41.8578 50.6456 42.1303 50.9181C42.4028 51.1907 42.7724 51.3438 43.1578 51.3438Z" fill="#2F2E41"/>
    <path d="M43.1578 75.5625H62.5328C62.9182 75.5625 63.2878 75.4094 63.5604 75.1369C63.8329 74.8644 63.986 74.4948 63.986 74.1094C63.986 73.724 63.8329 73.3544 63.5604 73.0819C63.2878 72.8093 62.9182 72.6562 62.5328 72.6562H43.1578C42.7724 72.6562 42.4028 72.8093 42.1303 73.0819C41.8578 73.3544 41.7047 73.724 41.7047 74.1094C41.7047 74.4948 41.8578 74.8644 42.1303 75.1369C42.4028 75.4094 42.7724 75.5625 43.1578 75.5625Z" fill="#2F2E41"/>
    <path d="M14.2891 22.7898C13.9037 22.7898 13.5341 22.9429 13.2615 23.2154C12.989 23.4879 12.8359 23.8575 12.8359 24.2429V25.7687C12.8359 26.1541 12.989 26.5237 13.2615 26.7962C13.5341 27.0687 13.9037 27.2218 14.2891 27.2218C14.6745 27.2218 15.0441 27.0687 15.3166 26.7962C15.5891 26.5237 15.7422 26.1541 15.7422 25.7687V24.2429C15.7422 23.8575 15.5891 23.4879 15.3166 23.2154C15.0441 22.9429 14.6745 22.7898 14.2891 22.7898Z" fill="#2F2E41"/>
    <path d="M14.2891 28.9149C13.9037 28.9149 13.5341 29.068 13.2615 29.3405C12.989 29.613 12.8359 29.9827 12.8359 30.368V44.4149C12.8359 44.8003 12.989 45.1699 13.2615 45.4424C13.5341 45.715 13.9037 45.8681 14.2891 45.8681C14.6745 45.8681 15.0441 45.715 15.3166 45.4424C15.5891 45.1699 15.7422 44.8003 15.7422 44.4149V30.368C15.7422 29.9827 15.5891 29.613 15.3166 29.3405C15.0441 29.068 14.6745 28.9149 14.2891 28.9149Z" fill="#2F2E41"/>
    <path d="M110.745 64.8336C109.773 64.6297 108.77 64.6206 107.794 64.8068C106.819 64.993 105.89 65.3709 105.061 65.9186L90.0938 75.748V21.2217C90.0938 16.4143 86.1429 12.5938 81.3353 12.5938H72.1719V8.08301C72.1719 7.69762 72.0188 7.32801 71.7463 7.05549C71.4738 6.78298 71.1041 6.62988 70.7188 6.62988C70.3334 6.62988 69.9638 6.78298 69.6912 7.05549C69.4187 7.32801 69.2656 7.69762 69.2656 8.08301V12.5938H56.9141V8.08301C56.9141 7.69762 56.761 7.32801 56.4885 7.05549C56.2159 6.78298 55.8463 6.62988 55.4609 6.62988C55.0756 6.62988 54.7059 6.78298 54.4334 7.05549C54.1609 7.32801 54.0078 7.69762 54.0078 8.08301V12.5938H41.8984V8.08301C41.8984 7.69762 41.7453 7.32801 41.4728 7.05549C41.2003 6.78298 40.8307 6.62988 40.4453 6.62988C40.0599 6.62988 39.6903 6.78298 39.4178 7.05549C39.1453 7.32801 38.9922 7.69762 38.9922 8.08301V12.5938H26.6406V8.08301C26.6406 7.69762 26.4875 7.32801 26.215 7.05549C25.9425 6.78298 25.5729 6.62988 25.1875 6.62988C24.8021 6.62988 24.4325 6.78298 24.16 7.05549C23.8875 7.32801 23.7344 7.69762 23.7344 8.08301V12.5938H15.9447C14.807 12.5856 13.6789 12.8029 12.6256 13.233C11.5723 13.663 10.6145 14.2975 9.80765 15.0996C9.00078 15.9017 8.36073 16.8557 7.92443 17.9064C7.48813 18.9572 7.26423 20.0839 7.26563 21.2217V108.651C7.26563 113.459 11.137 117.461 15.9447 117.461H81.3353C86.1429 117.461 90.0938 113.459 90.0938 108.651V93.838L113.365 78.5559C114.614 77.7349 115.593 76.5616 116.176 75.1846C116.759 73.8075 116.92 72.2885 116.64 70.8196C116.359 69.3508 115.65 67.9981 114.601 66.9325C113.551 65.867 112.21 65.1366 110.745 64.8336ZM70.6367 21.6937C71.1449 21.6937 71.6417 21.8444 72.0643 22.1268C72.4868 22.4091 72.8162 22.8104 73.0107 23.28C73.2051 23.7495 73.256 24.2662 73.1569 24.7646C73.0577 25.2631 72.813 25.7209 72.4536 26.0803C72.0943 26.4397 71.6364 26.6844 71.138 26.7835C70.6395 26.8827 70.1228 26.8318 69.6533 26.6373C69.1838 26.4428 68.7825 26.1135 68.5001 25.6909C68.2177 25.2683 68.067 24.7715 68.067 24.2633C68.0677 23.582 68.3387 22.9288 68.8204 22.4471C69.3022 21.9654 69.9554 21.6944 70.6367 21.6937ZM55.4944 21.6937C56.0026 21.6938 56.4994 21.8445 56.9219 22.1269C57.3444 22.4093 57.6738 22.8106 57.8682 23.2801C58.0627 23.7497 58.1135 24.2663 58.0143 24.7648C57.9152 25.2632 57.6704 25.721 57.311 26.0804C56.9516 26.4397 56.4938 26.6844 55.9953 26.7836C55.4969 26.8827 54.9802 26.8318 54.5107 26.6373C54.0412 26.4428 53.6399 26.1135 53.3576 25.6909C53.0752 25.2683 52.9245 24.7715 52.9245 24.2633C52.9253 23.582 53.1963 22.9288 53.6781 22.4471C54.1599 21.9654 54.8131 21.6944 55.4944 21.6937ZM40.3516 21.6937C40.8598 21.6938 41.3565 21.8447 41.779 22.1271C42.2015 22.4096 42.5307 22.8109 42.7251 23.2805C42.9195 23.75 42.9702 24.2667 42.871 24.7651C42.7718 25.2635 42.527 25.7213 42.1676 26.0806C41.8082 26.4399 41.3503 26.6845 40.8519 26.7836C40.3535 26.8827 39.8368 26.8318 39.3674 26.6373C38.8979 26.4427 38.4966 26.1134 38.2143 25.6908C37.9319 25.2683 37.7813 24.7715 37.7813 24.2633C37.782 23.5819 38.0531 22.9287 38.535 22.4469C39.0169 21.9652 39.6702 21.6943 40.3516 21.6937ZM25.2093 21.6937C25.7175 21.6938 26.2143 21.8445 26.6368 22.1269C27.0594 22.4093 27.3887 22.8106 27.5831 23.2801C27.7776 23.7497 27.8284 24.2663 27.7293 24.7648C27.6301 25.2632 27.3853 25.721 27.026 26.0804C26.6666 26.4397 26.2087 26.6844 25.7103 26.7836C25.2118 26.8827 24.6952 26.8318 24.2257 26.6373C23.7561 26.4428 23.3548 26.1135 23.0725 25.6909C22.7902 25.2683 22.6395 24.7715 22.6395 24.2633C22.6402 23.582 22.9112 22.9288 23.393 22.4471C23.8748 21.9654 24.528 21.6944 25.2093 21.6937ZM87.1875 108.651C87.1803 110.206 86.563 111.696 85.4685 112.8C84.374 113.904 82.8898 114.534 81.3353 114.555H15.9447C12.7391 114.555 10.1719 111.856 10.1719 108.651V21.2217C10.1701 20.4655 10.3185 19.7164 10.6086 19.0181C10.8987 18.3198 11.3247 17.686 11.8618 17.1537C12.3989 16.6213 13.0364 16.201 13.7373 15.9171C14.4382 15.6333 15.1885 15.4915 15.9447 15.5H23.7344V18.9846C21.5547 19.623 19.7225 21.747 19.7225 24.2643C19.7225 24.9832 19.8642 25.6951 20.1393 26.3593C20.4144 27.0236 20.8177 27.6271 21.326 28.1354C21.8344 28.6438 22.4379 29.0471 23.1021 29.3222C23.7664 29.5973 24.4783 29.7389 25.1972 29.7389C25.9161 29.7389 26.628 29.5973 27.2923 29.3222C27.9565 29.0471 28.56 28.6438 29.0684 28.1354C29.5767 27.6271 29.98 27.0236 30.2551 26.3593C30.5302 25.6951 30.6718 24.9832 30.6718 24.2643C30.6891 23.0597 30.301 21.8843 29.5699 20.9268C28.8388 19.9693 27.8072 19.2853 26.6406 18.9846V15.5H38.9922V18.9846C37.8216 19.2835 36.7849 19.9659 36.0474 20.9228C35.3099 21.8798 34.9142 23.0562 34.9234 24.2643C34.9234 25.7181 35.501 27.1124 36.529 28.1404C37.557 29.1684 38.9513 29.746 40.4051 29.746C41.8589 29.746 43.2532 29.1684 44.2812 28.1404C45.3093 27.1124 45.8868 25.7181 45.8868 24.2643C45.8661 23.0755 45.4689 21.9238 44.7522 20.9751C44.0355 20.0264 43.0363 19.3294 41.8984 18.9846V15.5H54.0078V18.9846C51.8281 19.623 50.0018 21.747 50.0018 24.2643C50.0018 25.7159 50.5785 27.1081 51.6049 28.1346C52.6314 29.1611 54.0236 29.7377 55.4752 29.7377C56.9269 29.7377 58.3191 29.1611 59.3455 28.1346C60.372 27.1081 60.9487 25.7159 60.9487 24.2643C60.9651 23.0594 60.5763 21.884 59.8446 20.9266C59.113 19.9691 58.0809 19.2852 56.9141 18.9846V15.5H69.2656V18.9846C68.0955 19.2836 67.0593 19.9661 66.3227 20.9232C65.586 21.8802 65.1915 23.0566 65.202 24.2643C65.202 25.7179 65.7794 27.112 66.8073 28.1399C67.8352 29.1678 69.2293 29.7452 70.6829 29.7452C72.1365 29.7452 73.5306 29.1678 74.5585 28.1399C75.5864 27.112 76.1639 25.7179 76.1639 24.2643C76.1639 21.748 74.3516 19.624 72.1719 18.9846V15.5H81.3353C84.5402 15.5 87.1875 18.0168 87.1875 21.2217V77.6564L81.7293 81.2408C81.5617 81.351 81.4186 81.4947 81.3093 81.6629C81.1999 81.8311 81.1265 82.0201 81.0938 82.218C81.061 82.416 81.0696 82.6185 81.119 82.813C81.1684 83.0074 81.2576 83.1896 81.3808 83.3479C81.6052 83.6358 81.9298 83.8287 82.2899 83.8883C82.6501 83.9478 83.0195 83.8696 83.3246 83.6692L104.932 69.4797L106.69 72.1549L70.0813 96.1969L68.3233 93.5214L75.2014 89.0054C75.5236 88.7938 75.7485 88.463 75.8267 88.0856C75.9049 87.7082 75.83 87.3152 75.6184 86.993C75.4069 86.6709 75.076 86.4459 74.6987 86.3677C74.3213 86.2895 73.9283 86.3644 73.6061 86.576L65.5197 91.8859C65.5049 91.8959 65.4914 91.9082 65.4764 91.9186C65.4396 91.9448 65.4037 91.9709 65.3683 92.0005C65.3567 92.0102 65.3466 92.0213 65.3357 92.0315H43.1578C42.7724 92.0315 42.4028 92.1846 42.1303 92.4571C41.8578 92.7296 41.7047 93.0992 41.7047 93.4846C41.7047 93.87 41.8578 94.2396 42.1303 94.5121C42.4028 94.7846 42.7724 94.9377 43.1578 94.9377H63.6977L62.6687 96.882C62.6239 96.8779 62.5788 96.8752 62.5328 96.8752H43.1578C42.7724 96.8752 42.4028 97.0283 42.1303 97.3008C41.8578 97.5734 41.7047 97.943 41.7047 98.3284C41.7047 98.7138 41.8578 99.0834 42.1303 99.3559C42.4028 99.6284 42.7724 99.7815 43.1578 99.7815H61.1342L59.4541 102.955C59.3369 103.177 59.279 103.425 59.2859 103.675C59.2927 103.925 59.3642 104.17 59.4934 104.384C59.6225 104.599 59.805 104.777 60.023 104.9C60.241 105.023 60.4872 105.088 60.7377 105.088H60.776L73.0566 104.766C73.0864 104.766 73.1157 104.761 73.1452 104.758C73.1748 104.756 73.2084 104.754 73.2399 104.749C73.2784 104.743 73.3157 104.733 73.353 104.725C73.3806 104.718 73.4085 104.714 73.4361 104.706C73.4995 104.687 73.5616 104.663 73.6219 104.636C73.6366 104.629 73.6504 104.62 73.665 104.611C73.712 104.589 73.7578 104.563 73.802 104.535C73.8069 104.532 73.812 104.531 73.8163 104.527L87.1875 95.7467V108.651ZM70.3702 101.929L63.1853 102.117L66.4456 95.9564L70.3702 101.929ZM73.4351 101.301L73.3235 101.131L71.6766 98.6263L108.285 74.5855L110.043 77.2605L73.4351 101.301ZM112.43 75.6L107.404 67.9496C108.023 67.6891 108.691 67.5648 109.363 67.585C110.034 67.6052 110.694 67.7695 111.296 68.0668C111.645 68.2348 111.969 68.4507 112.259 68.7084C112.748 69.1337 113.144 69.6564 113.42 70.2432C113.697 70.8299 113.848 71.4679 113.864 72.1163C113.88 72.7647 113.761 73.4094 113.514 74.0092C113.267 74.609 112.898 75.1508 112.43 75.6Z" fill="#2F2E41"/>
</svg>
