<svg width="124" height="124" viewBox="0 0 124 124" fill="none" xmlns="http://www.w3.org/2000/svg">
    <path d="M89.125 84.2272V108.5H3.875V84.2272C3.87498 82.788 4.27576 81.3771 5.03242 80.1528C5.78908 78.9285 6.87173 77.939 8.15905 77.2954L27.125 67.8125H65.875L84.841 77.2954C86.1283 77.939 87.2109 78.9285 87.9676 80.1528C88.7242 81.3771 89.125 82.788 89.125 84.2272Z" fill="#E9EEF2"/>
    <path d="M36.8125 50.375H56.1875V71.6875H36.8125V50.375Z" fill="#E0B999"/>
    <path d="M29.0625 15.5H63.9375V38.75C63.9375 42.8609 62.3045 46.8033 59.3977 49.7102C56.4908 52.617 52.5484 54.25 48.4375 54.25H44.5625C40.4516 54.25 36.5092 52.617 33.6023 49.7102C30.6955 46.8033 29.0625 42.8609 29.0625 38.75V15.5Z" fill="#F0C6A4"/>
    <path d="M38.75 19.375C38.75 19.375 44.5625 29.0625 56.1875 29.0625C67.8125 29.0625 71.6875 13.5625 71.6875 13.5625C71.6875 13.5625 65.875 15.5 60.0625 9.68749C54.25 3.87499 46.5 5.81249 46.5 5.81249C46.5 5.81249 42.625 5.81249 38.75 9.68749C36.8125 7.74999 21.6017 6.77931 29.0625 27.125L38.75 19.375Z" fill="#A0616A"/>
    <path d="M17.4375 108.5V96.875C17.4375 96.3611 17.6416 95.8683 18.005 95.505C18.3683 95.1416 18.8611 94.9375 19.375 94.9375C19.8889 94.9375 20.3817 95.1416 20.745 95.505C21.1084 95.8683 21.3125 96.3611 21.3125 96.875V108.5H17.4375Z" fill="#EADBD6"/>
    <path d="M71.6875 108.5V96.875C71.6875 96.3611 71.8916 95.8683 72.255 95.505C72.6183 95.1416 73.1111 94.9375 73.625 94.9375C74.1389 94.9375 74.6317 95.1416 74.995 95.505C75.3584 95.8683 75.5625 96.3611 75.5625 96.875V108.5H71.6875Z" fill="#EADBD6"/>
    <path d="M38.75 75.5625L42.625 83.3125H50.375L54.25 75.5625L46.5 71.6875L38.75 75.5625Z" fill="#01A0DA"/>
    <path d="M36.8125 62L46.5 71.6875L34.875 81.375L27.125 67.8125L36.8125 62Z" fill="#EADBD6"/>
    <path d="M56.1875 62L46.5 71.6875L58.125 81.375L65.875 67.8125L56.1875 62Z" fill="#EADBD6"/>
    <path d="M54.25 89.125V108.5H38.75V89.125L42.625 83.3125H50.375L54.25 89.125Z" fill="#01A0DA"/>
    <path d="M98.8125 96.875L93 118.188L87.1875 112.375L77.5 114.312L87.1875 87.1875L98.8125 96.875Z" fill="#01A0DA"/>
    <path d="M98.8125 96.875L104.625 118.188L110.438 112.375L120.125 114.312L110.438 87.1875L98.8125 96.875Z" fill="#01A0DA"/>
    <path d="M98.8125 96.875C110.583 96.875 120.125 87.3331 120.125 75.5625C120.125 63.7919 110.583 54.25 98.8125 54.25C87.0419 54.25 77.5 63.7919 77.5 75.5625C77.5 87.3331 87.0419 96.875 98.8125 96.875Z" fill="#01A0DA"/>
    <path d="M98.8125 89.125C106.303 89.125 112.375 83.0529 112.375 75.5625C112.375 68.0721 106.303 62 98.8125 62C91.3221 62 85.25 68.0721 85.25 75.5625C85.25 83.0529 91.3221 89.125 98.8125 89.125Z" fill="#EADBD6"/>
    <path d="M114.475 92.7306C117.177 90.265 119.26 87.1962 120.553 83.7739C121.846 80.3516 122.313 76.6725 121.916 73.0357C121.519 69.3989 120.269 65.9071 118.268 62.8444C116.267 59.7817 113.572 57.2344 110.401 55.4099C107.23 53.5853 103.673 52.535 100.02 52.3442C96.3661 52.1535 92.7193 52.8278 89.3756 54.3122C86.0319 55.7967 83.0857 58.0493 80.7768 60.8871C78.4679 63.7248 76.8613 67.0674 76.0878 70.6431L58.125 60.8496V53.2407C60.5085 51.6486 62.4627 49.4933 63.8145 46.9658C65.1663 44.4382 65.874 41.6163 65.875 38.7499V27.2252C67.4605 25.803 68.8298 24.1571 69.9399 22.3393C71.5361 19.756 72.7574 16.9591 73.5671 14.0323C73.6536 13.6967 73.6482 13.3441 73.5513 13.0114C73.4545 12.6786 73.2699 12.3781 73.0168 12.1414C72.7637 11.9047 72.4516 11.7405 72.1131 11.6661C71.7747 11.5916 71.4224 11.6097 71.0934 11.7184C70.8982 11.7785 66.2603 13.1452 61.4325 8.31739C55.4067 2.29177 47.6559 3.58432 46.2442 3.88415C45.2972 3.95647 44.3634 4.1496 43.4654 4.45886C41.6248 5.0912 39.9212 6.06767 38.4453 7.33629C36.1031 6.485 32.348 6.49396 29.4328 8.35614C26.0216 10.5358 22.8785 15.6218 27.125 27.4567V38.7499C27.126 41.6163 27.8337 44.4382 29.1855 46.9658C30.5373 49.4933 32.4915 51.6486 34.875 53.2407V60.8374L7.2678 75.5748C5.66131 76.377 4.31098 77.6123 3.36914 79.1411C2.4273 80.6699 1.93144 82.4315 1.93749 84.2272V108.5C1.93749 109.014 2.14162 109.507 2.50497 109.87C2.86833 110.233 3.36114 110.437 3.87499 110.437H76.8267L75.6753 113.661C75.5601 113.984 75.5326 114.331 75.5955 114.668C75.6585 115.005 75.8098 115.319 76.0338 115.579C76.2579 115.838 76.5468 116.034 76.871 116.145C77.1952 116.256 77.5431 116.279 77.8792 116.212L86.5496 114.478L91.6287 119.557C91.8687 119.797 92.1675 119.97 92.4952 120.058C92.8229 120.147 93.168 120.147 93.496 120.06C93.824 119.973 94.1234 119.801 94.3642 119.562C94.605 119.323 94.7787 119.025 94.868 118.697L98.8125 104.239L102.756 118.697C102.845 119.025 103.019 119.323 103.26 119.562C103.5 119.801 103.8 119.973 104.128 120.06C104.456 120.147 104.801 120.147 105.129 120.058C105.456 119.97 105.755 119.797 105.995 119.557L111.074 114.478L119.744 116.212C120.081 116.279 120.429 116.256 120.753 116.145C121.077 116.034 121.366 115.838 121.59 115.579C121.814 115.319 121.965 115.005 122.028 114.668C122.091 114.331 122.064 113.984 121.948 113.661L114.475 92.7306ZM98.8125 56.1874C102.644 56.1874 106.39 57.3238 109.577 59.4527C112.763 61.5817 115.246 64.6076 116.713 68.148C118.179 71.6883 118.563 75.5839 117.815 79.3423C117.068 83.1007 115.222 86.553 112.513 89.2626C109.803 91.9723 106.351 93.8176 102.592 94.5652C98.834 95.3127 94.9383 94.9291 91.398 93.4626C87.8577 91.9962 84.8317 89.5128 82.7028 86.3266C80.5738 83.1404 79.4375 79.3945 79.4375 75.5624C79.4433 70.4257 81.4865 65.5009 85.1187 61.8687C88.751 58.2364 93.6757 56.1933 98.8125 56.1874ZM52.3125 106.562H40.6875V89.7115L43.6618 85.2499H49.3382L52.3125 89.7115V106.562ZM36.4579 64.3855L43.6298 71.5571L35.4102 78.4067L29.5159 68.0912L36.4579 64.3855ZM49.1776 81.3749H43.8224L42.081 77.892L46.5 74.2096L50.9189 77.892L49.1776 81.3749ZM49.3702 71.5571L56.5324 64.3949L63.4432 68.1631L57.5898 78.4077L49.3702 71.5571ZM31.1533 11.8788C33.5042 10.0624 36.8205 10.7146 37.4238 11.0999C37.7907 11.4444 38.2772 11.6326 38.7805 11.6247C39.2837 11.6168 39.7641 11.4134 40.12 11.0575C43.3189 7.85869 46.3922 7.75285 46.5 7.74995C46.6559 7.75184 46.8114 7.73303 46.9623 7.694C47.2372 7.62764 53.76 6.12511 58.6924 11.0575C62.4517 14.8165 66.2618 15.7295 68.8919 15.8044C68.2708 17.3912 67.5052 18.9177 66.6049 20.3645C63.7762 24.8501 60.2713 27.1249 56.1875 27.1249C45.85 27.1249 40.6284 18.7348 40.4087 18.3737C40.2662 18.1374 40.0747 17.9343 39.8473 17.778C39.6199 17.6216 39.3616 17.5157 39.0899 17.4672C38.8182 17.4188 38.5393 17.4289 38.2718 17.497C38.0044 17.5651 37.7545 17.6895 37.5391 17.862L30.0249 23.8738C28.2989 18.001 28.6791 13.7891 31.1533 11.8788ZM31 38.7499V28.0562L38.3698 22.1601C40.8035 25.1962 46.6976 30.9999 56.1875 30.9999C58.1919 31.0068 60.1743 30.5821 62 29.7549V38.7499C61.9959 42.3457 60.5657 45.793 58.0231 48.3355C55.4805 50.8781 52.0332 52.3083 48.4375 52.3124H44.5625C40.9668 52.3083 37.5195 50.8781 34.9769 48.3355C32.4343 45.793 31.0041 42.3457 31 38.7499ZM44.5625 56.1874H48.4375C50.4178 56.1882 52.3837 55.8501 54.25 55.1877V61.1976L46.5 68.9476L38.75 61.1976V55.1877C40.6163 55.8501 42.5821 56.1882 44.5625 56.1874ZM5.81249 84.2272C5.80881 83.147 6.10789 82.0873 6.67581 81.1684C7.24372 80.2495 8.05776 79.5082 9.02559 79.0284C9.04109 79.0206 9.05635 79.0126 9.07137 79.0042L26.0971 69.9163L33.1932 82.3357C33.3337 82.5815 33.5263 82.7936 33.7575 82.957C33.9887 83.1203 34.253 83.231 34.5316 83.2813C34.8102 83.3316 35.0964 83.3201 35.3702 83.2479C35.6439 83.1756 35.8985 83.0442 36.116 82.8629L39.0222 80.4411L40.3886 83.1737L37.1373 88.0506C36.9253 88.3688 36.8123 88.7426 36.8125 89.1249V106.562H21.3125V96.8749C21.3125 96.3611 21.1084 95.8683 20.745 95.5049C20.3817 95.1416 19.8888 94.9374 19.375 94.9374C18.8611 94.9374 18.3683 95.1416 18.005 95.5049C17.6416 95.8683 17.4375 96.3611 17.4375 96.8749V106.562H5.81249V84.2272ZM75.5625 106.562V96.8749C75.5625 96.3611 75.3584 95.8683 74.995 95.5049C74.6317 95.1416 74.1388 94.9374 73.625 94.9374C73.1111 94.9374 72.6183 95.1416 72.255 95.5049C71.8916 95.8683 71.6875 96.3611 71.6875 96.8749V106.562H56.1875V89.1249C56.1876 88.7424 56.0743 88.3684 55.862 88.0501L52.6106 83.1732L53.977 80.4406L56.8833 82.8625C57.1008 83.0437 57.3553 83.1751 57.6291 83.2474C57.9028 83.3197 58.1891 83.3311 58.4677 83.2808C58.7463 83.2305 59.0105 83.1198 59.2417 82.9565C59.473 82.7931 59.6656 82.581 59.806 82.3352L66.8447 70.0176L75.5758 74.7785C75.5673 75.0386 75.5613 75.2994 75.5613 75.5615C75.56 78.7939 76.2343 81.9909 77.541 84.9474C78.8478 87.9039 80.758 90.5547 83.1492 92.7297L78.2106 106.562H75.5625ZM92.0092 114.458L88.5575 111.006C88.332 110.781 88.0542 110.614 87.749 110.522C87.4437 110.429 87.1203 110.414 86.8075 110.476L80.4755 111.743L86.3824 95.2034C89.3809 97.1104 92.7789 98.2998 96.3121 98.679L92.0092 114.458ZM110.817 110.476C110.505 110.414 110.181 110.429 109.876 110.522C109.571 110.614 109.293 110.781 109.067 111.006L105.616 114.458L101.312 98.679C104.846 98.2998 108.244 97.1104 111.242 95.2034L117.149 111.743L110.817 110.476Z" fill="#2F2E41"/>
    <path d="M98.8125 91.0625C101.878 91.0625 104.875 90.1534 107.424 88.4503C109.973 86.7471 111.959 84.3263 113.133 81.4941C114.306 78.6618 114.613 75.5453 114.015 72.5386C113.417 69.5319 111.94 66.77 109.773 64.6023C107.605 62.4346 104.843 60.9584 101.836 60.3603C98.8297 59.7622 95.7132 60.0692 92.8809 61.2423C90.0487 62.4155 87.6279 64.4022 85.9247 66.9511C84.2216 69.5001 83.3125 72.4969 83.3125 75.5625C83.3171 79.6719 84.9516 83.6117 87.8574 86.5175C90.7633 89.4234 94.7031 91.0579 98.8125 91.0625ZM98.8125 63.9375C101.112 63.9375 103.359 64.6193 105.271 65.8966C107.183 67.174 108.673 68.9896 109.553 71.1138C110.432 73.238 110.663 75.5754 110.214 77.8304C109.766 80.0854 108.658 82.1568 107.033 83.7826C105.407 85.4084 103.335 86.5156 101.08 86.9641C98.8254 87.4127 96.488 87.1824 94.3638 86.3026C92.2396 85.4227 90.424 83.9327 89.1467 82.021C87.8693 80.1093 87.1875 77.8617 87.1875 75.5625C87.191 72.4804 88.4169 69.5256 90.5963 67.3463C92.7756 65.1669 95.7304 63.941 98.8125 63.9375Z" fill="#2F2E41"/>
    <path d="M96.3075 73.0576L96.875 72.4899V79.4375C96.3611 79.4375 95.8683 79.6416 95.505 80.005C95.1416 80.3683 94.9375 80.8611 94.9375 81.375C94.9375 81.8889 95.1416 82.3817 95.505 82.745C95.8683 83.1084 96.3611 83.3125 96.875 83.3125H100.75C101.264 83.3125 101.757 83.1084 102.12 82.745C102.483 82.3817 102.687 81.8889 102.687 81.375C102.687 80.8611 102.483 80.3683 102.12 80.005C101.757 79.6416 101.264 79.4375 100.75 79.4375V69.75C100.75 69.2361 100.546 68.7433 100.183 68.38C99.8192 68.0166 99.3263 67.8125 98.8125 67.8125H96.875C96.6206 67.8125 96.3686 67.8626 96.1335 67.96C95.8985 68.0573 95.6849 68.2 95.5049 68.3799L93.5674 70.3174C93.3875 70.4974 93.2448 70.711 93.1474 70.946C93.0501 71.1811 92.9999 71.4331 92.9999 71.6875C92.9999 71.9419 93.0501 72.1939 93.1474 72.429C93.2448 72.664 93.3875 72.8776 93.5674 73.0576C93.7474 73.2375 93.9609 73.3802 94.196 73.4776C94.4311 73.5749 94.683 73.6251 94.9375 73.6251C95.1919 73.6251 95.4439 73.5749 95.679 73.4776C95.914 73.3802 96.1276 73.2375 96.3075 73.0576Z" fill="#2F2E41"/>
</svg>
