<svg width="117" height="117" viewBox="0 0 117 117" fill="none" xmlns="http://www.w3.org/2000/svg">
    <path d="M111.703 73.8274H97.252C96.6235 73.8274 96.1094 74.3416 96.1094 74.97V77.5693C96.1094 77.9414 96.2922 78.27 96.5696 78.4793C96.7609 78.3353 96.9956 78.2464 97.252 78.2464H111.703C111.959 78.2464 112.194 78.3353 112.385 78.4793C112.663 78.2702 112.845 77.9414 112.845 77.5693V74.97C112.845 74.3416 112.331 73.8274 111.703 73.8274Z" fill="white"/>
    <path d="M112.8 82.289C112.827 82.1926 112.845 82.0929 112.845 81.9883V79.3889C112.845 78.7605 112.331 78.2463 111.703 78.2463H97.252C96.6235 78.2463 96.1094 78.7605 96.1094 79.3889V81.9883C96.1094 82.0929 96.1281 82.1928 96.1549 82.289H112.8Z" fill="#B1E8FF"/>
    <path d="M93.6684 97.5532V102.297C93.6684 102.926 94.1825 103.44 94.8109 103.44H96.869C97.4974 103.44 98.0115 102.926 98.0115 102.297V97.5532H93.6684Z" fill="#FFAF68"/>
    <path d="M110.943 102.296C110.943 102.925 111.457 103.439 112.085 103.439H114.143C114.772 103.439 115.286 102.925 115.286 102.296V97.5522H110.943V102.296Z" fill="#FFAF68"/>
    <path d="M115.286 92.7041H93.6684V97.5509H115.286V92.7041Z" fill="#01A0DA"/>
    <path d="M114.124 82.2889H94.8306C94.1914 82.2889 93.6684 82.812 93.6684 83.4521V92.7042H115.286V83.4521C115.286 82.8122 114.763 82.2889 114.124 82.2889Z" fill="#01A0DA"/>
    <path d="M17.3173 102.276V98.072H4.59772C3.96931 98.072 3.45515 98.5862 3.45515 99.2146V102.313C3.45515 102.941 3.96931 103.455 4.59772 103.455H17.401C17.6021 103.455 17.7885 103.398 17.9531 103.306C17.5781 103.112 17.3173 102.725 17.3173 102.276Z" fill="#5DA2D5"/>
    <g opacity="0.1">
        <path opacity="0.1" d="M8.45506 102.313V99.2146C8.45506 98.5862 8.96922 98.072 9.59764 98.072H4.59772C3.96931 98.072 3.45515 98.5862 3.45515 99.2146V102.313C3.45515 102.941 3.96931 103.455 4.59772 103.455H9.59764C8.96922 103.455 8.45506 102.941 8.45506 102.313Z" fill="#2F2E41"/>
    </g>
    <path d="M20.2853 52.7527C20.2853 53.3811 19.7711 53.8953 19.1427 53.8953H2.85644C2.22803 53.8953 1.71387 53.3811 1.71387 52.7527V32.0109C1.71387 31.3824 2.22803 30.8683 2.85644 30.8683H19.1427C19.7711 30.8683 20.2853 31.3824 20.2853 32.0109V52.7527Z" fill="#01A0DA"/>
    <g opacity="0.1">
        <path opacity="0.1" d="M6.62694 52.7527V32.0109C6.62694 31.3824 7.1411 30.8683 7.76952 30.8683H2.85644C2.22803 30.8683 1.71387 31.3824 1.71387 32.0109V52.7527C1.71387 53.3811 2.22803 53.8953 2.85644 53.8953H7.76952C7.1411 53.8953 6.62694 53.3811 6.62694 52.7527Z" fill="#2F2E41"/>
    </g>
    <path d="M82.6738 61.267H27.7381C26.4813 61.267 25.4529 62.2953 25.4529 63.5521V77.2473C26.6234 77.365 27.545 78.3606 27.545 79.5612V85.8253H82.8669V79.5612C82.8669 78.3606 83.7885 77.365 84.959 77.2473V63.5521C84.959 62.2953 83.9307 61.267 82.6738 61.267Z" fill="#EADBD6"/>
    <path opacity="0.1" d="M27.545 85.8253H30.7113C30.5102 85.4852 30.3925 85.0908 30.3925 84.6692V63.5521C30.3925 62.2953 31.4208 61.267 32.6777 61.267H27.7381C26.4813 61.267 25.4529 62.2953 25.4529 63.5521V77.2473C26.6234 77.365 27.545 78.3606 27.545 79.5612V85.8253Z" fill="#2F2E41"/>
    <path d="M35.205 85.8253H46.3838C46.7867 85.6482 47.0705 85.246 47.0705 84.7796V74.5044C47.0705 73.876 46.5563 73.3618 45.9279 73.3618H35.6609C35.0325 73.3618 34.5184 73.876 34.5184 74.5044V84.7796C34.5184 85.246 34.8022 85.6482 35.205 85.8253Z" fill="#5DA2D5"/>
    <path d="M64.9579 85.8253H76.1367C76.5396 85.6482 76.8234 85.246 76.8234 84.7796V74.5044C76.8234 73.876 76.3092 73.3618 75.6808 73.3618H65.4138C64.7854 73.3618 64.2713 73.876 64.2713 74.5044V84.7796C64.2713 85.246 64.5551 85.6482 64.9579 85.8253Z" fill="#5DA2D5"/>
    <path d="M82.8665 85.8258H27.5452V97.5829H82.8665V85.8258Z" fill="#01A0DA"/>
    <path d="M25.2203 77.2354H19.6418C18.3633 77.2354 17.3173 78.2819 17.3173 79.5612V102.276C17.3173 102.915 17.8402 103.439 18.4796 103.439H26.3828C27.0219 103.439 27.545 102.915 27.545 102.276V79.5612C27.545 78.2819 26.4988 77.2354 25.2203 77.2354Z" fill="#EADBD6"/>
    <g opacity="0.1">
        <path opacity="0.1" d="M22.2215 102.276V79.5612C22.2215 78.2819 23.2674 77.2354 24.546 77.2354H19.6418C18.3633 77.2354 17.3173 78.2819 17.3173 79.5612V102.276C17.3173 102.915 17.8402 103.439 18.4796 103.439H23.3837C22.7443 103.439 22.2215 102.915 22.2215 102.276Z" fill="#2F2E41"/>
    </g>
    <path d="M90.7701 77.2354H85.1914C83.9128 77.2354 82.8669 78.2819 82.8669 79.5612V102.276C82.8669 102.915 83.39 103.439 84.0291 103.439H91.9324C92.5715 103.439 93.0946 102.915 93.0946 102.276V79.5612C93.0946 78.2819 92.0484 77.2354 90.7701 77.2354Z" fill="#EADBD6"/>
    <g opacity="0.1">
        <path opacity="0.1" d="M86.6073 102.276V79.5612C86.6073 78.2819 87.6532 77.2354 88.9317 77.2354H85.1914C83.9128 77.2354 82.8669 78.2819 82.8669 79.5612V102.276C82.8669 102.915 83.39 103.439 84.0291 103.439H87.7695C87.1303 103.439 86.6073 102.915 86.6073 102.276Z" fill="#2F2E41"/>
    </g>
    <path d="M80.8848 18.8104H29.5271C28.8608 18.8104 28.3158 19.3559 28.3158 20.0227V48.3849C28.3158 49.0517 28.8608 49.5971 29.5271 49.5971H80.8848C81.5509 49.5971 82.0961 49.0517 82.0961 48.3849V20.0227C82.0961 19.3559 81.5509 18.8104 80.8848 18.8104Z" fill="#01A0DA"/>
    <path d="M77.2496 23.6582H33.1598V44.7479H77.2496V23.6582Z" fill="#97CEED"/>
    <path d="M75.4146 44.7482C75.7916 44.7482 75.9315 44.49 75.7249 44.1744L68.6702 33.3865C68.4641 33.0709 68.1261 33.0709 67.92 33.3865L60.8659 44.1744C60.6598 44.49 60.7992 44.7482 61.1763 44.7482H75.4146Z" fill="#5DA2D5"/>
    <g opacity="0.1">
        <path opacity="0.1" d="M37.0185 23.6582H33.1598V44.7479H37.0185V23.6582Z" fill="#2F2E41"/>
    </g>
    <path d="M93.6544 61.2421C93.3877 61.2421 93.1526 61.0671 93.074 60.8095C92.1211 57.7138 91.4664 57.0516 88.4057 56.0873C88.1516 56.0071 87.9783 55.7694 87.9783 55.4993C87.9783 55.2303 88.1516 54.9918 88.4057 54.9118C91.4664 53.9481 92.1211 53.2861 93.074 50.1895C93.1526 49.9329 93.3877 49.757 93.6544 49.757C93.9213 49.757 94.1562 49.9329 94.2358 50.1895C95.1891 53.2861 95.8425 53.9481 98.9032 54.9118C99.1575 54.992 99.3305 55.2306 99.3305 55.4993C99.3305 55.7696 99.1575 56.0073 98.9032 56.0873C95.8427 57.0516 95.1891 57.7138 94.2358 60.8095C94.1562 61.0671 93.9213 61.2421 93.6544 61.2421Z" fill="#EADBD6"/>
    <path d="M102.03 36.7909C101.735 36.7909 101.474 36.5972 101.388 36.3117C100.333 32.8836 99.6073 32.15 96.2179 31.0819C95.9364 30.9933 95.7449 30.7305 95.7449 30.4311C95.7449 30.1334 95.9364 29.8692 96.2179 29.7805C99.6073 28.7132 100.333 27.9801 101.388 24.5505C101.475 24.2662 101.735 24.0718 102.03 24.0718C102.326 24.0718 102.586 24.2662 102.674 24.5505C103.73 27.9801 104.454 28.7132 107.843 29.7805C108.124 29.8692 108.316 30.1334 108.316 30.4311C108.316 30.7305 108.124 30.9933 107.843 31.0819C104.454 32.15 103.73 32.8836 102.674 36.3117C102.586 36.5972 102.326 36.7909 102.03 36.7909Z" fill="#EADBD6"/>
    <path d="M17.5957 23.0483C17.3749 23.0483 17.1805 22.9032 17.1151 22.6904C16.3267 20.1285 15.7849 19.5805 13.252 18.7823C13.0418 18.7163 12.8985 18.5195 12.8985 18.2958C12.8985 18.0735 13.0418 17.8758 13.252 17.8098C15.7849 17.0123 16.3267 16.4645 17.1151 13.9017C17.1802 13.6892 17.3749 13.5443 17.5957 13.5443C17.8164 13.5443 18.0106 13.6894 18.0765 13.9017C18.8653 16.4645 19.4062 17.012 21.9388 17.8098C22.1493 17.8758 22.2921 18.0735 22.2921 18.2958C22.2921 18.5195 22.1493 18.7163 21.9388 18.7823C19.4062 19.5803 18.8653 20.1285 18.0765 22.6904C18.0106 22.9034 17.8164 23.0483 17.5957 23.0483Z" fill="#EADBD6"/>
    <path d="M55.4986 28.2696C55.2922 27.9541 54.9547 27.9541 54.7484 28.2696L44.3475 44.1745C44.1414 44.4901 44.2808 44.7483 44.6578 44.7483H65.5887C65.9657 44.7483 66.1056 44.4901 65.899 44.1745L55.4986 28.2696Z" fill="#5DA2D5"/>
    <path d="M42.6437 33.154C42.4373 32.8385 42.0998 32.8385 41.8935 33.154L34.6868 44.1744C34.4804 44.49 34.62 44.7482 34.9971 44.7482H49.5398C49.9169 44.7482 50.0565 44.49 49.8501 44.1744L42.6437 33.154Z" fill="#5DA2D5"/>
    <path d="M102.269 89.9829H106.686C107.632 89.9829 108.399 89.2158 108.399 88.269C108.399 87.3223 107.632 86.5552 106.686 86.5552H102.269C101.322 86.5552 100.555 87.3223 100.555 88.269C100.555 89.2155 101.322 89.9829 102.269 89.9829Z" fill="#2F2E41"/>
    <path d="M114.559 80.6119V74.9699C114.559 73.3947 113.278 72.1134 111.703 72.1134H97.252C95.677 72.1134 94.3955 73.3947 94.3955 74.9699C94.3955 74.9699 94.3887 77.7358 94.3955 77.8176C93.7433 76.4619 92.372 75.5215 90.7701 75.5215H86.6728V63.5521C86.6728 61.3472 84.8788 59.5531 82.6738 59.5531H27.7381C25.5331 59.5531 23.7391 61.3472 23.7391 63.5521V75.5215H19.6418C17.4151 75.5215 15.6035 77.3339 15.6035 79.5612V96.3585H12.7134V55.6092H19.1427C20.7179 55.6092 21.9992 54.3279 21.9992 52.7527V46.1601C21.9992 45.2133 21.232 44.4462 20.2853 44.4462C19.3386 44.4462 18.5714 45.2133 18.5714 46.1601V52.1814H3.42773V32.5821H18.5714V37.705C18.5714 38.6517 19.3386 39.4189 20.2853 39.4189C21.232 39.4189 21.9992 38.6517 21.9992 37.705V32.0109C21.9992 30.4357 20.7179 29.1544 19.1427 29.1544H2.85644C1.28128 29.1544 0 30.4357 0 32.0109V52.7527C0 54.3279 1.28128 55.6092 2.85644 55.6092H9.28571V96.3585H4.59773C3.02257 96.3585 1.74129 97.6397 1.74129 99.2149V102.313C1.74129 103.888 3.02257 105.169 4.59773 105.169L26.3828 105.153C27.9684 105.153 29.2589 103.862 29.2589 102.276V99.2962H67.1835C68.1302 99.2962 68.8973 98.5291 68.8973 97.5824C68.8973 96.6356 68.1302 95.8685 67.1835 95.8685H29.2589V87.5394H81.1531V95.8685H76.3241C75.3773 95.8685 74.6102 96.6356 74.6102 97.5824C74.6102 98.5291 75.3773 99.2962 76.3241 99.2962H81.1531V102.276C81.1531 103.862 82.4433 105.153 84.0291 105.153H96.8692C98.4441 105.153 99.7256 103.871 99.7256 102.296V99.2663H109.229V102.296C109.229 103.871 110.51 105.153 112.086 105.153H114.144C115.719 105.153 117 103.871 117 102.296V97.5524V92.4314V83.4524C117 82.0141 115.939 80.8231 114.559 80.6119ZM15.6035 101.741H5.16901V99.7859H15.6035V101.741ZM25.8311 101.725H19.0312V79.5612C19.0312 79.2296 19.3109 78.9493 19.6418 78.9493H25.2203C25.5514 78.9493 25.8311 79.2296 25.8311 79.5612V101.725ZM45.3564 84.1114H36.232V75.0757H45.3564V84.1114ZM75.1095 84.1114H65.9851V75.0757H75.1095V84.1114ZM78.5372 84.1114V74.5044C78.5372 72.9292 77.2557 71.648 75.6808 71.648H65.4138C63.8387 71.648 62.5574 72.9292 62.5574 74.5044V84.1114H56.9197V74.2674C56.9197 73.3207 56.1524 72.5536 55.2058 72.5536C54.2591 72.5536 53.492 73.3207 53.492 74.2674V84.1114H48.7841V74.5044C48.7841 72.9292 47.5028 71.648 45.9277 71.648H35.6607C34.0856 71.648 32.8043 72.9292 32.8043 74.5044V84.1114H29.2586V79.5612C29.2586 78.0395 28.4124 76.7125 27.1666 76.024V63.5523C27.1666 63.2427 27.4282 62.9811 27.7379 62.9811H53.4917V66.7264C53.4917 67.6732 54.2589 68.4403 55.2056 68.4403C56.1521 68.4403 56.9195 67.6732 56.9195 66.7264V62.9808H82.6736C82.9832 62.9808 83.2449 63.2425 83.2449 63.5521V76.0236C81.999 76.7123 81.1528 78.0393 81.1528 79.561V84.1112L78.5372 84.1114ZM91.3807 101.725H84.5808V79.5612C84.5808 79.2296 84.8605 78.9493 85.1914 78.9493H90.7701C91.101 78.9493 91.3807 79.2296 91.3807 79.5612V101.725ZM97.8232 75.5412H111.132V76.5325H97.8232V75.5412ZM97.8232 79.9602H111.132V80.5751H97.8232V79.9602ZM96.2977 101.725H95.3822V99.2661H96.2977V101.725ZM113.572 101.725H112.657V99.2661H113.572V101.725ZM113.572 95.8386H95.3822V94.4184H113.572V95.8386ZM113.572 90.9906H95.3822V84.0031H113.572V90.9906Z" fill="#2F2E41"/>
    <path d="M29.5271 51.311H80.8848C82.4979 51.311 83.81 49.9984 83.81 48.3849V20.0227C83.81 18.4091 82.4979 17.0966 80.8848 17.0966H29.5271C27.914 17.0966 26.6019 18.4091 26.6019 20.0227V48.3849C26.6019 49.9984 27.914 51.311 29.5271 51.311ZM30.0296 20.5243H80.3823V47.8833H30.0296V20.5243Z" fill="#2F2E41"/>
    <path d="M87.8906 57.7221C90.4157 58.5175 90.6474 58.7527 91.4346 61.3098C91.7351 62.2944 92.627 62.956 93.6544 62.956C94.6789 62.956 95.5708 62.2965 95.8738 61.3141C96.6626 58.7522 96.8946 58.5173 99.418 57.7221C100.391 57.4156 101.044 56.5226 101.044 55.4993C101.044 54.4763 100.391 53.5834 99.4178 53.277C96.8945 52.4827 96.6626 52.2478 95.8731 49.6827C95.5694 48.7021 94.678 48.0431 93.6544 48.0431C92.6282 48.0431 91.7363 48.7042 91.436 49.6854C90.6476 52.2473 90.4157 52.4822 87.8904 53.2772C86.9178 53.5839 86.2645 54.4769 86.2645 55.4995C86.2645 56.5224 86.9178 57.4154 87.8906 57.7221ZM93.6549 53.3309C94.1962 54.2914 94.8594 54.9555 95.818 55.4998C94.8594 56.0441 94.1962 56.7082 93.6549 57.6684C93.1135 56.7079 92.4506 56.0441 91.4911 55.4998C92.4502 54.9555 93.1133 54.2914 93.6549 53.3309Z" fill="#2F2E41"/>
    <path d="M95.7028 32.7168C98.5563 33.6162 98.8591 33.9224 99.748 36.8106C100.056 37.8241 100.973 38.5048 102.03 38.5048C103.084 38.5048 104.001 37.8261 104.312 36.8163C105.203 33.922 105.506 33.6155 108.357 32.717C109.358 32.4023 110.03 31.4839 110.03 30.4314C110.03 29.3791 109.358 28.4607 108.358 28.1462C105.506 27.2479 105.203 26.9415 104.311 24.0446C103.999 23.0362 103.083 22.3584 102.03 22.3584C100.974 22.3584 100.057 23.0385 99.7498 24.0469C98.8593 26.941 98.5565 27.2477 95.7035 28.146C94.7031 28.4607 94.031 29.3791 94.031 30.4314C94.0308 31.4837 94.7031 32.4023 95.7028 32.7168ZM102.031 27.6538C102.692 28.9517 103.505 29.7669 104.801 30.4316C103.505 31.0966 102.692 31.9119 102.031 33.2092C101.37 31.9117 100.557 31.0968 99.2606 30.4316C100.556 29.7671 101.37 28.9515 102.031 27.6538Z" fill="#2F2E41"/>
    <path d="M12.737 20.4171C14.7271 21.0442 14.8551 21.174 15.4762 23.192C15.7637 24.131 16.6153 24.7621 17.5954 24.7621C18.5728 24.7621 19.4243 24.133 19.7142 23.1947C20.3367 21.1735 20.4645 21.044 22.4518 20.4176C23.3812 20.126 24.0058 19.2732 24.0058 18.2961C24.0058 17.3192 23.3814 16.4666 22.4534 16.1754C20.4645 15.5491 20.3363 15.419 19.7133 13.3949C19.4238 12.4591 18.5726 11.8304 17.5957 11.8304C16.616 11.8304 15.7643 12.4609 15.4771 13.3978C14.8553 15.4186 14.7273 15.5482 12.7384 16.1745C11.8092 16.4666 11.1847 17.3189 11.1847 18.2956C11.1847 19.273 11.8092 20.1253 12.737 20.4171ZM17.5959 17.0573C17.9362 17.5559 18.3345 17.9549 18.8326 18.2963C18.3345 18.6377 17.9359 19.0369 17.5959 19.5355C17.2556 19.0369 16.8571 18.6379 16.3589 18.2965C16.8573 17.9549 17.2556 17.5559 17.5959 17.0573Z" fill="#2F2E41"/>
    <path d="M77.2512 21.9451H33.1608C32.214 21.9451 31.4469 22.7122 31.4469 23.6589V44.7484C31.4469 45.6951 32.214 46.4622 33.1608 46.4622H77.2509C78.1977 46.4622 78.9648 45.6951 78.9648 44.7484V23.6589C78.965 22.7124 78.1977 21.9451 77.2512 21.9451ZM37.4802 43.0345L42.2687 35.712L47.057 43.0345H37.4802ZM51.1527 43.0345L49.1468 39.9672L55.1236 30.8275L63.1061 43.0345H51.1527ZM67.2013 43.0345L65.4301 40.3257L68.295 35.9444L72.9315 43.0343L67.2013 43.0345ZM75.5373 40.7562L70.1048 32.4492C69.6903 31.8149 69.0139 31.436 68.295 31.436C67.5763 31.436 66.8997 31.8146 66.4854 32.4488L63.3823 37.1946L56.9327 27.3316C56.5182 26.6977 55.8418 26.3193 55.1233 26.3193C54.4051 26.3193 53.7285 26.6975 53.3137 27.3319L47.0988 36.8358L44.0778 32.2161C43.6633 31.5822 42.9869 31.2036 42.2685 31.2036C41.55 31.2036 40.8736 31.582 40.4588 32.2164L34.8744 40.756V25.373H75.5368L75.5373 40.7562Z" fill="#2F2E41"/>
</svg>
