<svg width="117" height="117" viewBox="0 0 117 117" fill="none" xmlns="http://www.w3.org/2000/svg">
    <path d="M15.9454 106.923V96.5645C15.747 96.5405 15.5461 96.5238 15.3414 96.5238C12.5768 96.5238 10.3353 98.7651 10.3353 101.53V101.55C9.42376 100.596 8.1427 100 6.71996 100C3.95515 100 1.71387 102.242 1.71387 105.006V108.065H17.0879C16.4595 108.065 15.9454 107.551 15.9454 106.923Z" fill="#5DA2D5"/>
    <path d="M65.264 68.8845C64.6356 68.8845 63.7588 68.5202 63.3153 68.0748L40.0848 44.745L16.7534 68.0764C16.3089 68.5209 15.9453 69.3986 15.9453 70.027V106.923C15.9453 107.551 16.4595 108.065 17.0879 108.065H81.7775V100.499C81.7775 98.3502 83.5197 96.608 85.6689 96.608C87.8178 96.608 89.5601 98.3502 89.5601 100.499V102.144C90.249 101.527 91.1565 101.148 92.1544 101.148C93.0511 101.148 93.8744 101.454 94.5323 101.964V100.715C94.5323 98.5661 96.2745 96.8239 98.4237 96.8239C100.316 96.8239 101.891 98.1752 102.241 99.9651C102.91 99.4208 103.763 99.0938 104.693 99.0938C106.842 99.0938 108.584 100.836 108.584 102.985V103C109.104 102.457 109.778 102.065 110.537 101.894V70.027C110.537 69.6831 110.426 69.2659 110.254 68.8845H65.264Z" fill="#EADBD6"/>
    <path d="M87.731 90.5148C87.731 90.8919 87.4225 91.2004 87.0455 91.2004H81.2371C80.86 91.2004 80.5515 90.8919 80.5515 90.5148V75.0107C80.5515 74.6337 80.86 74.3252 81.2371 74.3252H87.0455C87.4225 74.3252 87.731 74.6337 87.731 75.0107V90.5148Z" fill="white"/>
    <path d="M87.731 90.5148C87.731 90.8919 87.4225 91.2004 87.0455 91.2004H81.2371C80.86 91.2004 80.5515 90.8919 80.5515 90.5148V75.0107C80.5515 74.6337 80.86 74.3252 81.2371 74.3252H87.0455C87.4225 74.3252 87.731 74.6337 87.731 75.0107V90.5148Z" fill="#5DA2D5"/>
    <path d="M103.143 90.5148C103.143 90.8919 102.834 91.2004 102.457 91.2004H96.6488C96.2718 91.2004 95.9633 90.8919 95.9633 90.5148V75.0107C95.9633 74.6337 96.2718 74.3252 96.6488 74.3252H102.457C102.834 74.3252 103.143 74.6337 103.143 75.0107V90.5148Z" fill="white"/>
    <path d="M103.143 90.5148C103.143 90.8919 102.834 91.2004 102.457 91.2004H96.6488C96.2718 91.2004 95.9633 90.8919 95.9633 90.5148V75.0107C95.9633 74.6337 96.2718 74.3252 96.6488 74.3252H102.457C102.834 74.3252 103.143 74.6337 103.143 75.0107V90.5148Z" fill="#5DA2D5"/>
    <path d="M65.264 68.8845C64.6356 68.8845 63.7588 68.5202 63.3152 68.0748L40.0848 44.745L16.7534 68.0764C16.3089 68.5209 15.9453 69.3986 15.9453 70.027V106.923C15.9453 107.551 16.4595 108.065 17.0879 108.065H70.1963C70.8247 108.065 71.3389 107.551 71.3389 106.923V70.027C71.3389 69.6831 71.2278 69.2659 71.0562 68.8845H65.264Z" fill="#EADBD6"/>
    <path opacity="0.1" d="M40.0848 44.745L16.7534 68.0764C16.3089 68.5209 15.9453 69.3986 15.9453 70.027V106.923C15.9453 107.551 16.4595 108.065 17.0879 108.065H22.166V71.192C22.166 70.5636 22.5296 69.6859 22.974 69.2414L43.7699 48.4456L40.0848 44.745Z" fill="#2F2E41"/>
    <path d="M46.545 74.3252H32.9869C32.3585 74.3252 31.8443 74.8394 31.8443 75.4678V108.065H47.6876V75.4678C47.6876 74.8394 47.1734 74.3252 46.545 74.3252Z" fill="#CB7C52"/>
    <g opacity="0.1">
        <path opacity="0.1" d="M37.9336 74.3252H32.9869C32.3585 74.3252 31.8443 74.8394 31.8443 75.4678V108.065H36.791V75.4678C36.791 74.8394 37.3052 74.3252 37.9336 74.3252Z" fill="#2F2E41"/>
    </g>
    <path d="M114.029 68.8844C114.658 68.8844 114.807 68.522 114.362 68.0789L88.1099 41.9847C87.6641 41.5416 86.7854 41.1794 86.157 41.1794L37.6852 41.1874C37.0568 41.1874 36.9053 41.5519 37.3488 41.9973L63.3153 68.0748C63.7586 68.5202 64.6356 68.8844 65.2641 68.8844H114.029Z" fill="#5DA2D5"/>
    <path d="M114.029 68.8844C114.658 68.8844 114.807 68.522 114.362 68.0789L88.1099 41.9847C87.6641 41.5416 86.7854 41.1794 86.157 41.1794L37.6852 41.1874C37.0568 41.1874 36.9053 41.5519 37.3488 41.9973L63.3153 68.0748C63.7586 68.5202 64.6356 68.8844 65.2641 68.8844H114.029Z" fill="#5DA2D5"/>
    <path d="M114.029 68.8844C114.658 68.8844 114.807 68.522 114.362 68.0789L88.1099 41.9847C87.6641 41.5416 86.7854 41.1794 86.157 41.1794L37.6852 41.1874C37.0568 41.1874 36.9053 41.5519 37.3488 41.9973L63.3153 68.0748C63.7586 68.5202 64.6356 68.8844 65.2641 68.8844H114.029Z" fill="#5DA2D5"/>
    <path d="M19.2847 87.2687C18.9588 87.2687 18.6709 87.0569 18.574 86.7456C17.4081 83.0012 16.6076 82.2004 12.8631 81.0348C12.5519 80.9377 12.3398 80.6497 12.3398 80.3239C12.3398 79.998 12.5517 79.7103 12.8631 79.6134C16.6076 78.4473 17.4083 77.6466 18.574 73.9023C18.6709 73.5913 18.9588 73.3793 19.2847 73.3793C19.6105 73.3793 19.8985 73.5913 19.9951 73.9023C21.1615 77.6466 21.9617 78.4475 25.7064 79.6134C26.0174 79.7103 26.2293 79.9982 26.2293 80.3239C26.2293 80.65 26.0172 80.9379 25.7064 81.0348C21.9617 82.2007 21.1612 83.0012 19.9951 86.7456C19.8985 87.0569 19.6105 87.2687 19.2847 87.2687Z" fill="#B8B0C8"/>
    <path d="M16.6106 44.8129C16.2849 44.8129 15.9968 44.6011 15.9001 44.2898C14.7342 40.5454 13.9337 39.7446 10.1891 38.5787C9.87805 38.4821 9.66599 38.1939 9.66599 37.8681C9.66599 37.5422 9.87805 37.2545 10.1891 37.1578C13.9337 35.9915 14.7342 35.191 15.9001 31.4465C15.9968 31.1355 16.2849 30.9237 16.6106 30.9237C16.9367 30.9237 17.2244 31.1355 17.3213 31.4465C18.4874 35.191 19.2879 35.9917 23.0323 37.1578C23.3436 37.2547 23.5554 37.5424 23.5554 37.8681C23.5554 38.1937 23.3436 38.4823 23.0323 38.5787C19.2879 39.7449 18.4874 40.5456 17.3213 44.2898C17.2246 44.6011 16.9367 44.8129 16.6106 44.8129Z" fill="#01A0DA"/>
    <path d="M61.2687 101.258C60.9995 101.258 60.7616 101.083 60.6814 100.826C59.718 97.7311 59.0562 97.0693 55.9616 96.1056C55.7043 96.0257 55.5293 95.7878 55.5293 95.5186C55.5293 95.2494 55.7043 95.0111 55.9616 94.9315C59.0562 93.9677 59.718 93.3061 60.6814 90.2115C60.7616 89.9545 60.9995 89.7794 61.2687 89.7794C61.5381 89.7794 61.7762 89.9545 61.856 90.2115C62.8196 93.3061 63.4812 93.9679 66.5757 94.9315C66.8328 95.0113 67.0081 95.2494 67.0081 95.5186C67.0081 95.7878 66.8328 96.0259 66.5757 96.1056C63.4812 97.0695 62.8196 97.7311 61.856 100.826C61.776 101.083 61.5381 101.258 61.2687 101.258Z" fill="#B8B0C8"/>
    <path d="M107.328 49.4695C107.059 49.4695 106.821 49.294 106.741 49.0372C105.778 45.9426 105.116 45.2808 102.021 44.3172C101.764 44.237 101.589 43.9991 101.589 43.7301C101.589 43.4607 101.764 43.2226 102.021 43.1428C105.116 42.179 105.778 41.5174 106.741 38.4228C106.821 38.166 107.059 37.9907 107.328 37.9907C107.598 37.9907 107.836 38.166 107.916 38.4228C108.879 41.5174 109.541 42.1792 112.636 43.1428C112.893 43.2228 113.068 43.4609 113.068 43.7301C113.068 43.9993 112.893 44.2372 112.636 44.3172C109.541 45.2811 108.879 45.9426 107.916 49.0372C107.836 49.2942 107.598 49.4695 107.328 49.4695Z" fill="#01A0DA"/>
    <path d="M115.286 108.065V105.688C115.286 103.539 113.544 101.796 111.395 101.796C110.289 101.796 109.293 102.26 108.584 103.001V102.985C108.584 100.836 106.842 99.0939 104.693 99.0939C103.763 99.0939 102.911 99.4209 102.241 99.9653C101.891 98.1753 100.316 96.8241 98.424 96.8241C96.2748 96.8241 94.5326 98.5663 94.5326 100.715V101.964C93.8747 101.454 93.0513 101.148 92.1546 101.148C91.1567 101.148 90.2493 101.527 89.5603 102.144V100.5C89.5603 98.3504 87.8181 96.6082 85.6691 96.6082C83.5199 96.6082 81.7777 98.3504 81.7777 100.5V108.065L115.286 108.065Z" fill="#5DA2D5"/>
    <path d="M58.2715 77.7209H53.9297C53.5526 77.7209 53.2441 78.0297 53.2441 78.4065V83.6624C53.2441 84.0394 53.5526 84.3479 53.9297 84.3479H58.2715C58.6485 84.3479 58.957 84.0394 58.957 83.6624V78.4065C58.957 78.0297 58.6485 77.7209 58.2715 77.7209Z" fill="white"/>
    <path d="M88.8926 29.0441C94.4456 29.0441 98.9473 24.5424 98.9473 18.9894C98.9473 13.4363 94.4456 8.93469 88.8926 8.93469C83.3395 8.93469 78.8379 13.4363 78.8379 18.9894C78.8379 24.5424 83.3395 29.0441 88.8926 29.0441Z" fill="#EADBD6"/>
    <path d="M37.3486 41.9972C36.9053 41.5519 37.0566 41.1874 37.685 41.1874L36.3335 41.1876C35.7716 41.2093 34.9885 41.5569 34.5584 41.9844L8.30656 68.0786C7.86095 68.5217 8.0104 68.8841 8.63882 68.8841H14.8028C15.4312 68.8841 16.3089 68.5206 16.7534 68.0761L40.0849 44.7447L37.3486 41.9972Z" fill="#5DA2D5"/>
    <g opacity="0.1">
        <path opacity="0.1" d="M83.4082 18.9891C83.4082 14.2225 86.7263 10.2336 91.1777 9.19838C90.4433 9.02768 89.6789 8.93445 88.8926 8.93445C83.3394 8.93445 78.8379 13.436 78.8379 18.9891C78.8379 24.5423 83.3394 29.0438 88.8926 29.0438C89.6789 29.0438 90.4433 28.9506 91.1777 28.7799C86.7263 27.7447 83.4082 23.7557 83.4082 18.9891Z" fill="#2F2E41"/>
    </g>
    <path d="M81.2371 72.6113C79.914 72.6113 78.8376 73.6876 78.8376 75.0107V90.5148C78.8376 91.8379 79.9142 92.9143 81.2371 92.9143H87.0455C88.3686 92.9143 89.4449 91.8379 89.4449 90.5148V75.0107C89.4449 73.6876 88.3686 72.6113 87.0455 72.6113H81.2371ZM86.0172 89.4865H82.2654V76.0391H86.0172V89.4865Z" fill="#2F2E41"/>
    <path d="M96.6488 72.6113C95.3257 72.6113 94.2494 73.6876 94.2494 75.0107V90.5148C94.2494 91.8379 95.3257 92.9143 96.6488 92.9143H102.457C103.78 92.9143 104.857 91.8379 104.857 90.5148V75.0107C104.857 73.6876 103.78 72.6113 102.457 72.6113H96.6488ZM101.429 89.4865H97.6772V76.0391H101.429V89.4865Z" fill="#2F2E41"/>
    <path d="M9.67945 40.2149C12.8812 41.2119 13.2669 41.5974 14.2635 44.7982C14.5848 45.832 15.5281 46.5267 16.6106 46.5267C17.6928 46.5267 18.6361 45.8323 18.9576 44.7994C19.9549 41.5976 20.3404 41.2119 23.5407 40.2153C24.5748 39.8943 25.2695 38.951 25.2695 37.8678C25.2695 36.7858 24.5752 35.8427 23.5421 35.5212C20.3404 34.5239 19.9549 34.1384 18.9576 30.9367C18.6359 29.9036 17.6928 29.2094 16.6106 29.2094C15.5281 29.2094 14.5848 29.9038 14.2637 30.9367C13.2667 34.1384 12.8812 34.5239 9.67945 35.5212C8.64633 35.8429 7.95187 36.786 7.95187 37.868C7.9521 38.9507 8.64679 39.8943 9.67945 40.2149ZM16.6108 34.4337C17.401 36.1076 18.3715 37.0781 20.0451 37.8683C18.3715 38.6582 17.401 39.629 16.6108 41.3029C15.8206 39.6292 14.8503 38.6587 13.1762 37.8685C14.8503 37.0778 15.8206 36.1073 16.6108 34.4337Z" fill="#2F2E41"/>
    <path d="M63.4926 89.7026C63.1882 88.7232 62.2945 88.0653 61.2687 88.0653C60.244 88.0653 59.3505 88.7225 59.045 89.7017C58.2477 92.2622 58.0128 92.4974 55.4546 93.2942C54.4743 93.5979 53.8157 94.4916 53.8157 95.5183C53.8157 96.5441 54.4738 97.4379 55.4521 97.7418C58.0128 98.5393 58.2477 98.7745 59.0455 101.336C59.3508 102.314 60.2443 102.972 61.2689 102.972C62.2947 102.972 63.1885 102.313 63.4926 101.335C64.2901 98.7742 64.5251 98.5393 67.0844 97.742C68.0641 97.4376 68.7222 96.5439 68.7222 95.5181C68.7222 94.4914 68.0634 93.5977 67.0856 93.2947C64.5248 92.4976 64.2897 92.2625 63.4926 89.7026ZM61.2687 97.7148C60.7196 96.7395 60.048 96.0679 59.0727 95.5188C60.0482 94.9697 60.7198 94.2981 61.2687 93.3225C61.8178 94.2976 62.4894 94.9694 63.465 95.5186C62.4894 96.0675 61.8181 96.7393 61.2687 97.7148Z" fill="#2F2E41"/>
    <path d="M99.8751 43.7304C99.8751 44.7553 100.533 45.6488 101.512 45.9538C104.072 46.7514 104.307 46.9865 105.105 49.5479C105.41 50.5264 106.304 51.1839 107.329 51.1839C108.354 51.1839 109.248 50.526 109.552 49.5475C110.35 46.9867 110.585 46.7516 113.145 45.9541C114.124 45.649 114.782 44.7555 114.782 43.7306C114.782 42.7046 114.124 41.8109 113.145 41.5069C110.585 40.7094 110.35 40.4743 109.552 37.9142C109.248 36.9352 108.354 36.2773 107.329 36.2773C106.304 36.2773 105.41 36.9346 105.105 37.9137C104.307 40.4743 104.072 40.7094 101.513 41.5065C100.533 41.8104 99.8751 42.7041 99.8751 43.7304ZM107.329 41.5339C107.878 42.5092 108.549 43.181 109.525 43.7302C108.549 44.2793 107.878 44.9509 107.329 45.9264C106.779 44.9511 106.108 44.2793 105.132 43.7302C106.108 43.1808 106.779 42.5094 107.329 41.5339Z" fill="#2F2E41"/>
    <path d="M112.251 100.148V87.293C112.251 86.3465 111.484 85.5791 110.537 85.5791C109.591 85.5791 108.823 86.3465 108.823 87.293V99.2025C107.798 98.0837 106.326 97.3799 104.693 97.3799C104.148 97.3799 103.609 97.4603 103.092 97.6146C102.077 96.0908 100.344 95.1098 98.424 95.1098C95.7538 95.1098 93.5138 96.9864 92.9535 99.49C92.3738 99.4075 91.7678 99.4162 91.188 99.5179C90.7228 96.8934 88.4248 94.8939 85.6689 94.8939C82.5782 94.8939 80.0637 97.4085 80.0637 100.499V106.351H73.0528V70.5983H108.823V78.1524C108.823 79.0989 109.59 79.8662 110.537 79.8662C111.483 79.8662 112.251 79.0989 112.251 78.1524V70.5986H114.029C115.043 70.5986 115.848 70.1136 116.183 69.3015C116.518 68.4894 116.288 67.578 115.57 66.8635L89.3181 40.7693C88.5459 40.0017 87.2461 39.4656 86.1572 39.4656C86.157 39.4656 86.1568 39.4656 86.1566 39.4656C86.1566 39.4656 36.3948 39.4697 36.3907 39.4697C35.3694 39.4697 34.121 40.003 33.3503 40.7693L24.6139 49.4531C23.9425 50.1203 23.9393 51.2056 24.6066 51.8767C25.2738 52.5483 26.359 52.5515 27.0302 51.884L35.9464 43.0197L37.6628 44.7434L15.542 66.8641C15.4088 66.9923 14.987 67.1674 14.8028 67.1706H11.6516L21.3175 57.5629C21.9889 56.8956 21.9921 55.8104 21.3249 55.1392C20.6578 54.4679 19.5726 54.4647 18.9012 55.1319L7.09838 66.8639C6.3797 67.5783 6.15096 68.4896 6.48573 69.3017C6.82073 70.1139 7.62557 70.5986 8.63903 70.5986H14.2317V77.3117C13.7381 77.5301 13.1291 77.7356 12.354 77.9771C11.3204 78.2986 10.626 79.2419 10.626 80.3242C10.626 81.406 11.32 82.3493 12.3536 82.6715C13.1287 82.9128 13.7379 83.1185 14.2315 83.3369V94.9053C11.9966 95.2787 10.1308 96.7567 9.22015 98.7659C8.43657 98.4514 7.59197 98.2869 6.71973 98.2869C3.01458 98.2862 0 101.301 0 105.006V108.066C0 109.012 0.767355 109.779 1.71387 109.779H115.286C116.233 109.779 117 109.012 117 108.066V105.688C117 102.888 114.937 100.561 112.251 100.148ZM14.2315 106.351H3.42773V105.006C3.42773 103.191 4.90463 101.714 6.71996 101.714C7.62351 101.714 8.46765 102.076 9.09652 102.734C9.58052 103.24 10.3239 103.391 10.9733 103.13C11.6232 102.87 12.0492 102.23 12.0492 101.53C12.0492 100.104 12.9616 98.8911 14.2315 98.4343V106.351ZM111.017 67.1706H65.2647C65.0808 67.1669 64.6612 66.9928 64.5296 66.8655L60.622 62.9412H106.762L111.017 67.1706ZM96.5245 52.7652H90.2637C89.3172 52.7652 88.5498 53.5325 88.5498 54.4791C88.5498 55.4256 89.3172 56.1929 90.2637 56.1929H99.9731L103.314 59.5133H57.2089L53.9027 56.1929H80.666C81.6125 56.1929 82.3799 55.4256 82.3799 54.4791C82.3799 53.5325 81.6125 52.7652 80.666 52.7652H50.4894L47.183 49.4446H93.1839L96.5245 52.7652ZM86.1566 42.8931C86.3428 42.8963 86.7678 43.0716 86.9017 43.2L89.7356 46.0169H43.7699L40.6669 42.9006L86.1566 42.8931ZM45.9737 106.351H33.5582V76.0391H45.9737V106.351ZM69.6253 106.351H49.4014V75.4678C49.4014 73.8926 48.1201 72.6113 46.545 72.6113H32.9869C31.4118 72.6113 30.1305 73.8926 30.1305 75.4678V106.351H17.6592V88.3709C18.0964 88.7562 18.6677 88.9826 19.2847 88.9826C20.3676 88.9826 21.3109 88.2879 21.6315 87.2553C22.6288 84.0533 23.0145 83.6678 26.2171 82.6706C27.2496 82.3484 27.9433 81.4051 27.9433 80.3235C27.9433 79.2415 27.2491 78.2984 26.216 77.9766C23.0143 76.9796 22.6288 76.5941 21.6317 73.3935C21.3105 72.3597 20.3674 71.665 19.2847 71.665C18.6677 71.665 18.0966 71.8913 17.6592 72.2768V70.0275C17.6627 69.8424 17.8375 69.4208 17.9652 69.288L40.0816 47.1718L62.1007 69.2839C62.8713 70.0577 64.172 70.5981 65.2638 70.5981H69.6251V106.351H69.6253ZM15.8501 80.3239C17.5242 79.5337 18.4945 78.5635 19.2847 76.8894C20.0751 78.5635 21.0454 79.5337 22.7193 80.3239C21.0456 81.1142 20.0751 82.0844 19.2847 83.7585C18.4947 82.0842 17.5242 81.1142 15.8501 80.3239ZM113.572 106.351H83.4914V100.499C83.4914 99.2988 84.4681 98.3218 85.6689 98.3218C86.8693 98.3218 87.8462 99.2988 87.8462 100.499V102.144C87.8462 102.821 88.2438 103.434 88.8613 103.709C89.4785 103.985 90.2006 103.872 90.704 103.42C91.1058 103.06 91.6208 102.862 92.1542 102.862C92.6375 102.862 93.0968 103.02 93.4823 103.319C93.9992 103.719 94.6992 103.79 95.2867 103.503C95.874 103.215 96.2462 102.618 96.2462 101.964V100.716C96.2462 99.5149 97.2231 98.538 98.4237 98.538C99.4621 98.538 100.36 99.2766 100.559 100.294C100.674 100.885 101.091 101.372 101.657 101.577C102.224 101.782 102.856 101.675 103.323 101.295C103.714 100.976 104.188 100.808 104.693 100.808C105.894 100.808 106.871 101.785 106.871 103.001C106.871 103.701 107.297 104.331 107.946 104.592C108.596 104.853 109.339 104.692 109.823 104.186C110.24 103.75 110.798 103.511 111.395 103.511C112.596 103.511 113.572 104.487 113.572 105.688V106.351H113.572Z" fill="#2F2E41"/>
    <path d="M43.1746 93.0989C44.1211 93.0989 44.8885 92.3315 44.8885 91.385V88.9744C44.8885 88.0279 44.1211 87.2605 43.1746 87.2605C42.2281 87.2605 41.4607 88.0279 41.4607 88.9744V91.385C41.4607 92.3315 42.2281 93.0989 43.1746 93.0989Z" fill="#2F2E41"/>
    <path d="M58.2715 86.0618C59.5946 86.0618 60.6709 84.9855 60.6709 83.6624V78.4065C60.6709 77.0834 59.5946 76.0071 58.2715 76.0071H53.9297C52.6066 76.0071 51.5303 77.0834 51.5303 78.4065V83.6624C51.5303 84.9855 52.6066 86.0618 53.9297 86.0618H58.2715ZM54.958 79.4348H57.2432V82.634H54.958V79.4348Z" fill="#2F2E41"/>
    <path d="M88.8926 30.7577C95.3817 30.7577 100.661 25.4783 100.661 18.9891C100.661 12.5 95.3817 7.22058 88.8926 7.22058C82.4034 7.22058 77.124 12.5 77.124 18.9891C77.124 25.4783 82.4034 30.7577 88.8926 30.7577ZM88.8926 10.6483C93.4917 10.6483 97.2334 14.39 97.2334 18.9891C97.2334 23.5882 93.4917 27.33 88.8926 27.33C84.2935 27.33 80.5518 23.5882 80.5518 18.9891C80.5518 14.39 84.2935 10.6483 88.8926 10.6483Z" fill="#2F2E41"/>
</svg>
