<svg width="117" height="117" viewBox="0 0 117 117" fill="none" xmlns="http://www.w3.org/2000/svg">
    <path d="M17.3016 83.9766L18.6018 103.767C18.643 104.394 19.1909 104.907 19.8194 104.907H37.6296C38.258 104.907 38.8058 104.394 38.8471 103.767L40.1476 83.9766H17.3016Z" fill="#EADBD6"/>
    <path d="M45.8239 33.4541L26.8962 61.3259H31.4661C32.5205 61.3259 33.4117 62.0508 33.6719 63.0258L46.0632 44.7793V34.2619C46.0632 33.7359 46.1914 33.2393 46.413 32.7976C46.1932 32.9845 45.9942 33.2035 45.8239 33.4541Z" fill="#5DA2D5"/>
    <path opacity="0.1" d="M23.5885 103.768L22.2882 83.9768H17.3016L18.6018 103.768C18.643 104.395 19.1909 104.908 19.8194 104.908H24.806C24.1776 104.908 23.6296 104.395 23.5885 103.768Z" fill="#2F2E41"/>
    <path d="M42.4307 82.834C42.4307 83.4624 41.9165 83.9766 41.2881 83.9766H16.1606C15.5322 83.9766 15.018 83.4624 15.018 82.834V80.4131C15.018 79.7847 15.5322 79.2705 16.1606 79.2705H41.2881C41.9165 79.2705 42.4307 79.7847 42.4307 80.4131V82.834Z" fill="#EADBD6"/>
    <g opacity="0.1">
        <path opacity="0.1" d="M21.2519 82.834V80.4131C21.2519 79.7847 21.7661 79.2705 22.3945 79.2705H16.1606C15.5322 79.2705 15.018 79.7847 15.018 80.4131V82.834C15.018 83.4624 15.5322 83.9766 16.1606 83.9766H22.3945C21.7661 83.9766 21.2519 83.4624 21.2519 82.834Z" fill="#2F2E41"/>
    </g>
    <path d="M33.7515 65.8279C33.7515 67.0847 32.7232 68.1131 31.4663 68.1131H25.9827C24.7258 68.1131 23.6975 67.0847 23.6975 65.8279V63.6111C23.6975 62.3542 24.7258 61.3259 25.9827 61.3259H31.4663C32.7232 61.3259 33.7515 62.3542 33.7515 63.6111V65.8279Z" fill="#FFCFAB"/>
    <path d="M92.3174 43.911H94.8162C95.1944 43.911 95.5509 44.0056 95.866 44.1699V20.5638C95.866 19.9354 95.3519 19.4213 94.7235 19.4213H92.41C91.7816 19.4213 91.2674 19.9354 91.2674 20.5638V44.1699C91.5825 44.0056 91.9392 43.911 92.3174 43.911Z" fill="#EADBD6"/>
    <path d="M91.3216 83.7717H95.8121C95.8306 83.7717 95.8478 83.7764 95.866 83.7771V53.7235C95.5511 53.8878 95.1944 53.9824 94.8162 53.9824H92.3174C91.9392 53.9824 91.5825 53.8878 91.2676 53.7235V83.7774C91.2859 83.7762 91.3031 83.7717 91.3216 83.7717Z" fill="#EADBD6"/>
    <path d="M96.9547 89.8197V84.9142C96.9547 84.2858 96.4405 83.7716 95.8121 83.7716H91.3215C90.6931 83.7716 90.179 84.2858 90.179 84.9142V89.8197H96.9547Z" fill="#78A7AF"/>
    <path d="M93.5669 115.286C93.4102 115.286 93.2532 115.252 93.1074 115.184C88.349 112.976 85.1519 107.071 85.1519 100.492C85.1519 96.7512 86.1836 93.135 88.0572 90.3089C88.2597 90.0032 88.6015 89.8195 88.9674 89.8195H98.1658C98.5319 89.8195 98.8735 90.0032 99.076 90.3089C100.95 93.1348 101.981 96.751 101.981 100.492C101.981 107.071 98.7844 112.976 94.026 115.184C93.8807 115.252 93.7239 115.286 93.5669 115.286Z" fill="#EADBD6"/>
    <g opacity="0.1">
        <path opacity="0.1" d="M90.1154 100.492C90.1154 96.7512 91.1472 93.135 93.0208 90.3089C93.2233 90.0032 93.5651 89.8195 93.931 89.8195H88.9676C88.6015 89.8195 88.2597 90.0032 88.0574 90.3089C86.1838 93.1348 85.1521 96.751 85.1521 100.492C85.1521 107.071 88.349 112.976 93.1076 115.184C93.2534 115.252 93.4104 115.286 93.5672 115.286C93.7242 115.286 93.8812 115.252 94.0269 115.184C94.7379 114.854 95.4131 114.44 96.0491 113.955C92.4292 111.194 90.1154 106.088 90.1154 100.492Z" fill="#2F2E41"/>
    </g>
    <path d="M70.6868 72.5417H47.1562C47.1226 72.5417 47.0908 72.5348 47.0579 72.5316V110.064H54.8437C55.1343 110.064 55.3976 110.178 55.5998 110.358V77.0519H62.243V110.324C62.4395 110.164 62.6861 110.065 62.9571 110.065H70.7847V72.5316C70.752 72.5348 70.7204 72.5417 70.6868 72.5417Z" fill="#08375E"/>
    <path d="M43.305 114.143C43.305 114.772 43.8192 115.286 44.4476 115.286H54.8436C55.4721 115.286 55.9862 114.772 55.9862 114.143V111.207C55.9862 110.578 55.4721 110.064 54.8436 110.064H44.4476C43.8192 110.064 43.305 110.578 43.305 111.207V114.143Z" fill="#78A7AF"/>
    <path d="M61.8148 114.143C61.8148 114.772 62.3289 115.286 62.9573 115.286H73.3534C73.9818 115.286 74.496 114.772 74.496 114.143V111.207C74.496 110.578 73.9818 110.064 73.3534 110.064H62.9573C62.3289 110.064 61.8148 110.578 61.8148 111.207V114.143Z" fill="#78A7AF"/>
    <path d="M90.0322 51.697V46.1962C90.0322 46.0123 90.0566 45.8342 90.0982 45.6626H79.4284C79.2735 45.6306 78.991 45.4693 78.8845 45.3523L71.7156 33.2579C71.6475 33.1432 71.5732 33.0342 71.4939 32.9309C71.676 33.3386 71.7795 33.7885 71.7795 34.262V46.2312L73.2672 48.7407C74.466 50.7629 77.04 52.2304 79.3877 52.2304H90.0982C90.0566 52.059 90.0322 51.881 90.0322 51.697Z" fill="#5DA2D5"/>
    <path d="M68.5011 30.9778H66.4351C65.2603 31.7838 63.8394 32.2561 62.3078 32.2561H55.5344C54.0031 32.2561 52.5822 31.784 51.4072 30.9778H49.3414C47.5382 30.9778 46.0629 32.4558 46.0629 34.2622V71.4474C46.0629 72.0495 46.5545 72.542 47.1557 72.542H70.6864C71.2876 72.542 71.7791 72.0495 71.7791 71.4474V34.2622C71.7796 32.4556 70.3043 30.9778 68.5011 30.9778Z" fill="#5DA2D5"/>
    <path d="M92.3174 53.9821C91.0605 53.9821 90.0322 52.9538 90.0322 51.697V46.1962C90.0322 44.9393 91.0605 43.911 92.3174 43.911H94.8162C96.073 43.911 97.1013 44.9393 97.1013 46.1962V51.697C97.1013 52.9538 96.073 53.9821 94.8162 53.9821H92.3174Z" fill="#FFCFAB"/>
    <path d="M66.4278 30.983C65.2543 31.786 63.8362 32.2559 62.3079 32.2559H55.5344C54.0063 32.2559 52.5882 31.7858 51.4148 30.983C51.0729 31.0102 50.8889 31.2872 51.0057 31.6258L53.6403 39.2749C53.7632 39.6314 54.0797 39.7029 54.3439 39.4338L58.4407 35.2638C58.7049 34.9946 59.1358 34.9962 59.3982 35.267L63.4312 39.4308C63.6936 39.7016 64.0108 39.6321 64.1362 39.2763L66.832 31.6247C66.9513 31.2865 66.7694 31.01 66.4278 30.983Z" fill="#08375E"/>
    <path d="M48.2197 13.036C47.9978 13.0051 47.7727 12.9836 47.5423 12.9836C44.8491 12.9836 42.6656 15.171 42.6656 17.8698C42.6656 20.5683 44.8491 22.7559 47.5423 22.7559C47.7727 22.7559 47.9978 22.7342 48.2197 22.7035V13.036Z" fill="#FFAF68"/>
    <path d="M70.3006 12.9827C70.07 12.9827 69.8452 13.0044 69.6233 13.035V22.7023C69.8452 22.7332 70.0703 22.7547 70.3006 22.7547C72.9939 22.7547 75.1773 20.5671 75.1773 17.8685C75.1771 15.1702 72.9939 12.9827 70.3006 12.9827Z" fill="#FFAF68"/>
    <path d="M69.6231 5.16193C69.6231 3.26549 68.0843 1.71387 66.2031 1.71387H51.6396C49.7587 1.71387 48.2197 3.26549 48.2197 5.16193V12.5923H69.6231V5.16193Z" fill="#5DA2D5"/>
    <path d="M48.2197 24.9264C48.2197 28.9745 51.4947 32.2558 55.5347 32.2558H62.3081C66.3482 32.2558 69.6233 28.9745 69.6233 24.9264V12.592H48.2199V24.9264H48.2197Z" fill="#FFCFAB"/>
    <path opacity="0.1" d="M53.244 24.9264V12.592H48.2197V24.9264C48.2197 28.9745 51.4947 32.2558 55.5347 32.2558H60.559C56.5191 32.2558 53.244 28.9745 53.244 24.9264Z" fill="#2F2E41"/>
    <path d="M67.4287 49.8357C67.4287 50.2125 67.1202 50.5212 66.7431 50.5212H63.5158C63.1388 50.5212 62.8303 50.2125 62.8303 49.8357V45.4598C62.8303 45.083 63.1388 44.7743 63.5158 44.7743H66.7434C67.1204 44.7743 67.4289 45.083 67.4289 45.4598L67.4287 49.8357Z" fill="#08375E"/>
    <path d="M55.0128 49.8357C55.0128 50.2125 54.7043 50.5212 54.3272 50.5212H51.0997C50.7226 50.5212 50.4141 50.2125 50.4141 49.8357V45.4598C50.4141 45.083 50.7226 44.7743 51.0997 44.7743H54.3272C54.7043 44.7743 55.0128 45.083 55.0128 45.4598V49.8357Z" fill="#08375E"/>
    <g opacity="0.1">
        <path opacity="0.1" d="M56.664 1.71387H51.6396C49.7587 1.71387 48.2197 3.26549 48.2197 5.16193V12.5923H53.244V5.16193C53.244 3.26549 54.7828 1.71387 56.664 1.71387Z" fill="#2F2E41"/>
    </g>
    <path d="M100.505 89.3627C100.078 88.7181 99.413 88.2914 98.6685 88.1564V84.9142C98.6685 84.0065 98.2416 83.1983 97.5799 82.6747V54.5806C98.3394 53.8523 98.8152 52.8302 98.8152 51.6972V46.1964C98.8152 45.0634 98.3394 44.041 97.5799 43.313V34.2773C97.5799 33.3305 96.8125 32.5634 95.866 32.5634C94.9195 32.5634 94.1521 33.3305 94.1521 34.2773V42.1972H92.9812V21.1351H94.1521V26.9641C94.1521 27.9108 94.9195 28.678 95.866 28.678C96.8125 28.678 97.5799 27.9108 97.5799 26.9641V20.5639C97.5799 18.9887 96.2986 17.7074 94.7234 17.7074H92.4099C90.8348 17.7074 89.5535 18.9887 89.5535 20.5639V43.3128C89.3522 43.5059 89.1696 43.7179 89.0119 43.9487H80.0447C80.0447 43.9487 73.0593 32.1761 72.9893 32.076C72.405 30.8786 71.3564 29.9487 70.0799 29.5214C70.8772 28.1736 71.3367 26.6031 71.3367 24.9264V24.3865C74.4799 23.8872 76.8908 21.155 76.8908 17.869C76.8908 16.5573 76.505 15.3347 75.8437 14.3062H77.5181C78.4646 14.3062 79.2319 13.5391 79.2319 12.5923C79.2319 11.6456 78.4646 10.8785 77.5181 10.8785H71.3367V10.2686V5.16193C71.3369 2.31577 69.034 0 66.2031 0H51.6396C48.8088 0 46.5058 2.31577 46.5058 5.16193V10.2686V11.3513C43.3626 11.8508 40.9517 14.5827 40.9517 17.8687C40.9517 21.155 43.3626 23.8869 46.5058 24.3862V24.9262C46.5058 26.6031 46.9653 28.1736 47.7626 29.5212C46.6063 29.9083 45.6377 30.7076 45.0312 31.7449C44.8008 31.9718 25.9883 59.6116 25.9883 59.6116H25.9824C23.7774 59.6116 21.9834 61.4057 21.9834 63.6106V65.2004C19.3287 67.2353 17.6121 70.4375 17.6121 74.0364V77.5562H16.1606C14.5854 77.5562 13.3041 78.8377 13.3041 80.4127V82.8336C13.3041 84.2492 14.3405 85.4245 15.6937 85.6484L16.8916 103.879C16.9926 105.417 18.2785 106.621 19.8193 106.621H37.6296C39.1702 106.621 40.4563 105.416 40.5573 103.879L40.8592 99.2867C40.9211 98.342 40.2059 97.5262 39.2614 97.464C38.3181 97.3989 37.5009 98.1169 37.4388 99.0616L37.1673 103.193H20.2816L19.1317 85.6895H38.3172L37.949 91.2927C37.8871 92.2374 38.6024 93.0532 39.5468 93.1154C40.4894 93.1819 41.3073 92.4621 41.3692 91.5178L41.755 85.6482C43.108 85.4242 44.1445 84.249 44.1445 82.8333V80.4124C44.1445 78.8375 42.8633 77.556 41.2881 77.556H39.8368V74.0362C39.8368 70.4373 38.12 67.2349 35.4653 65.2002V63.6104C35.4653 63.5556 35.4594 63.5021 35.4571 63.4479L44.3495 50.3531V71.4464C44.3495 72.304 44.7366 73.0718 45.344 73.5874V108.35H44.4476C42.8724 108.35 41.5911 109.632 41.5911 111.207V114.143C41.5911 115.718 42.8724 117 44.4476 117H54.8436C56.4188 117 57.7001 115.718 57.7001 114.143V111.207C57.7001 110.687 57.5579 110.2 57.3137 109.779V78.7658H60.5291V109.71C60.2592 110.146 60.1006 110.658 60.1006 111.207V114.144C60.1006 115.719 61.3819 117 62.9571 117H73.3534C74.9285 117 76.2098 115.719 76.2098 114.144V111.207C76.2098 109.632 74.9285 108.351 73.3534 108.351H72.4987V73.5881C73.1061 73.0725 73.4932 72.3047 73.4932 71.4471V64.2128C73.4932 63.266 72.7259 62.4989 71.7793 62.4989C70.8328 62.4989 70.0655 63.266 70.0655 64.2128V70.8278H60.6351V39.0069L62.2009 40.6231C62.6298 41.0658 63.1856 41.3094 63.766 41.3094H63.7662C64.66 41.3094 65.4399 40.7347 65.7532 39.8455L68.2737 32.6914H68.5013C69.3639 32.6914 70.0659 33.3959 70.0659 34.262V57.1299C70.0659 58.0767 70.8333 58.8438 71.7798 58.8438C72.7263 58.8438 73.4937 58.0767 73.4937 57.1299V51.6284C75.1223 53.0514 77.2943 53.9444 79.388 53.9444H89.0124C89.17 54.1755 89.3526 54.3875 89.5539 54.5804V82.6745C88.8922 83.198 88.4653 84.0063 88.4653 84.914V88.1561C87.7206 88.2912 87.0554 88.7178 86.629 89.3618C84.5714 92.4652 83.4382 96.4179 83.4382 100.492C83.4382 107.725 87.0339 114.255 92.3862 116.739C92.7538 116.91 93.1622 117 93.5671 117C93.9775 117 94.3749 116.912 94.7483 116.739C100.1 114.254 103.696 107.725 103.696 100.492C103.696 96.4181 102.562 92.4652 100.505 89.3627ZM95.3877 46.1962V51.697C95.3877 52.0066 95.1261 52.2683 94.8164 52.2683H92.3176C92.008 52.2683 91.7463 52.0066 91.7463 51.697V46.1962C91.7463 45.8865 92.008 45.6249 92.3176 45.6249H94.8164C95.1261 45.6249 95.3877 45.8865 95.3877 46.1962ZM94.1524 55.696V82.0575H92.9814V55.696H94.1524ZM91.8928 85.4855H95.2408V88.1059H91.8928V85.4855ZM67.9092 14.306V24.9264C67.9092 28.0228 65.3965 30.542 62.3078 30.542H55.5344C52.446 30.542 49.9333 28.0228 49.9333 24.9264V14.306H67.9092ZM47.7773 70.8278V34.2622C47.7773 33.3961 48.479 32.6916 49.3419 32.6916H49.5606L52.0206 39.8334C52.33 40.7308 53.1113 41.3107 54.0111 41.3107C54.5865 41.3107 55.1396 41.0704 55.5671 40.6348L57.2078 38.9646V70.8281H47.7773V70.8278ZM54.5822 36.7459L53.5491 33.7469C54.1885 33.8913 54.8523 33.9699 55.5344 33.9699H57.3189C57.2853 34.0008 57.2506 34.03 57.2184 34.0627L54.5822 36.7459ZM71.3369 20.8625V14.8752C72.5728 15.3071 73.4633 16.4842 73.4633 17.869C73.4633 19.2538 72.5728 20.4306 71.3369 20.8625ZM49.9335 5.16193C49.9335 4.20559 50.6988 3.42773 51.6396 3.42773H66.2031C67.1439 3.42773 67.9092 4.20559 67.9092 5.16193V10.8785H49.9335V5.16193ZM44.3795 17.8687C44.3795 16.4839 45.2702 15.3069 46.5058 14.875V20.8623C45.27 20.4306 44.3795 19.2535 44.3795 17.8687ZM25.4111 63.6111C25.4111 63.3015 25.6728 63.0398 25.9824 63.0398H31.4661C31.7757 63.0398 32.0374 63.3015 32.0374 63.6111V65.8279C32.0374 66.1376 31.7757 66.3992 31.4661 66.3992H25.9824C25.6728 66.3992 25.4111 66.1376 25.4111 65.8279V63.6111ZM40.7168 82.2627H16.7319V80.9844H40.7168V82.2627ZM36.4091 77.5569H21.0398V74.0371C21.0398 71.9631 21.8652 70.0806 23.2007 68.6953C23.9212 69.3946 24.9015 69.8272 25.9824 69.8272H31.4661C32.5469 69.8272 33.5273 69.3941 34.2478 68.6953C35.5835 70.0808 36.4091 71.9631 36.4091 74.0371V77.5569ZM33.5264 60.1902C32.9238 59.826 32.2204 59.6123 31.4663 59.6123H30.132L44.3495 38.676V44.2527L33.5264 60.1902ZM54.2723 113.572H45.0188V111.778H54.2723V113.572ZM72.7821 111.778V113.572H63.5286V111.778H72.7821ZM69.071 74.2556V108.35H63.9568V77.0519C63.9568 76.1052 63.1895 75.338 62.243 75.338H55.5998C54.6533 75.338 53.8859 76.1052 53.8859 77.0519V108.35H48.7718V74.2556H69.071ZM63.2125 36.7409L60.6292 34.0739C60.5935 34.0371 60.5551 34.0037 60.5174 33.9697H62.3081C62.9801 33.9697 63.6346 33.8934 64.2651 33.7533L63.2125 36.7409ZM74.7414 47.8671L73.4934 45.7615V39.6184L77.4102 46.2261C77.4694 46.326 77.5386 46.4197 77.6165 46.5056C77.9685 46.8922 78.5713 47.2359 79.0827 47.3413C79.1963 47.3648 79.3121 47.3765 79.4284 47.3765H88.3186V50.5167H79.3878C77.6344 50.5167 75.6369 49.3776 74.7414 47.8671ZM93.5669 113.503C89.5471 111.473 86.8657 106.292 86.8657 100.492C86.8657 97.2488 87.7096 94.1231 89.2477 91.6312V100.99C89.2477 101.937 90.0151 102.704 90.9616 102.704C91.9081 102.704 92.6755 101.937 92.6755 100.99V91.5334H94.0756V98.5835C94.0756 99.5303 94.8429 100.297 95.7894 100.297C96.736 100.297 97.5033 99.5303 97.5033 98.5835V91.5334H97.8271C99.4029 94.0399 100.268 97.2065 100.268 100.492C100.268 106.292 97.5863 111.474 93.5669 113.503Z" fill="#2F2E41"/>
    <path d="M54.4271 21.483C55.3736 21.483 56.1409 20.7159 56.1409 19.7691V17.869C56.1409 16.9223 55.3736 16.1552 54.4271 16.1552C53.4806 16.1552 52.7132 16.9223 52.7132 17.869V19.7691C52.7132 20.7156 53.4806 21.483 54.4271 21.483Z" fill="#2F2E41"/>
    <path d="M63.4157 21.483C64.3622 21.483 65.1296 20.7159 65.1296 19.7691V17.869C65.1296 16.9223 64.3622 16.1552 63.4157 16.1552C62.4692 16.1552 61.7018 16.9223 61.7018 17.869V19.7691C61.7018 20.7156 62.4692 21.483 63.4157 21.483Z" fill="#2F2E41"/>
    <path d="M66.7431 43.0604H63.5158C62.1927 43.0604 61.1164 44.1367 61.1164 45.4598V49.8357C61.1164 51.1588 62.1927 52.2351 63.5158 52.2351H66.7434C68.0665 52.2351 69.1428 51.1588 69.1428 49.8357V45.4598C69.1425 44.1367 68.0662 43.0604 66.7431 43.0604ZM65.7148 48.8074H64.5439V46.4882H65.7148V48.8074Z" fill="#2F2E41"/>
    <path d="M54.3272 43.0604H51.0997C49.7768 43.0604 48.7003 44.1367 48.7003 45.4598V49.8357C48.7003 51.1588 49.7768 52.2351 51.0997 52.2351H54.3272C55.6503 52.2351 56.7266 51.1588 56.7266 49.8357V45.4598C56.7266 44.1367 55.6501 43.0604 54.3272 43.0604ZM53.2989 48.8074H52.128V46.4882H53.2989V48.8074Z" fill="#2F2E41"/>
    <path d="M54.624 25.4082C55.1048 27.3983 56.8719 28.7882 58.9215 28.7882C60.9713 28.7882 62.7386 27.3979 63.2189 25.4073C63.4411 24.4873 62.8753 23.5611 61.955 23.339C61.0353 23.1178 60.1091 23.6829 59.887 24.6029C59.7793 25.0487 59.3824 25.3602 58.9215 25.3602C58.4606 25.3602 58.0636 25.049 57.9558 24.6029C57.7334 23.6833 56.8079 23.1159 55.8875 23.3397C54.9675 23.5618 54.4017 24.488 54.624 25.4082Z" fill="#2F2E41"/>
</svg>
