<svg width="61" height="61" viewBox="0 0 61 61" fill="none" xmlns="http://www.w3.org/2000/svg">
    <path fill-rule="evenodd" clip-rule="evenodd" d="M27.5 29H15.5C14.6716 29 14 29.6716 14 30.5C14 31.3284 14.6716 32 15.5 32H27.5C28.3284 32 29 32.6716 29 33.5V45.5C29 46.3284 29.6716 47 30.5 47C31.3284 47 32 46.3284 32 45.5V33.5C32 32.6716 32.6716 32 33.5 32H45.5C46.3284 32 47 31.3284 47 30.5C47 29.6716 46.3284 29 45.5 29H33.5C32.6716 29 32 28.3284 32 27.5V15.5C32 14.6716 31.3284 14 30.5 14C29.6716 14 29 14.6716 29 15.5V27.5C29 28.3284 28.3284 29 27.5 29Z" fill="black"/>
    <path d="M30.5 58C45.6878 58 58 45.6878 58 30.5C58 15.3122 45.6878 3 30.5 3C15.3122 3 3 15.3122 3 30.5C3 45.6878 15.3122 58 30.5 58ZM30.5 61C13.6553 61 0 47.3447 0 30.5C0 13.6553 13.6553 0 30.5 0C47.3447 0 61 13.6553 61 30.5C61 47.3447 47.3447 61 30.5 61Z" fill="black"/>
</svg>
