<svg width="117" height="117" viewBox="0 0 117 117" fill="none" xmlns="http://www.w3.org/2000/svg">
    <path d="M97.5752 1.71387H19.4243C16.7518 1.71387 14.5653 3.9003 14.5653 6.57279V98.6986H102.434V6.57279C102.434 3.9003 100.248 1.71387 97.5752 1.71387Z" fill="#ABCCD3"/>
    <path d="M14.5653 98.6989V112.298C14.5653 113.941 15.9104 115.286 17.5541 115.286H99.4457C101.089 115.286 102.434 113.941 102.434 112.298V98.6989H14.5653Z" fill="#78A7AF"/>
    <path d="M91.7472 105.423H75.01C74.1881 105.423 73.5156 106.096 73.5156 106.918V115.286H93.2412V106.918C93.2412 106.096 92.5689 105.423 91.7472 105.423Z" fill="#ABCCD3"/>
    <path d="M44.7516 27.4694V1.71387H19.4243C16.7518 1.71387 14.5653 3.9003 14.5653 6.57279V38.4075H31.2575C34.7051 33.6809 39.3515 29.8853 44.7516 27.4694Z" fill="#EADBD6"/>
    <path d="M79.4377 31.8394C81.823 33.7335 83.945 35.944 85.7418 38.4076H102.434V31.8394H79.4377Z" fill="#EADBD6"/>
    <path d="M37.5618 31.8394H14.5653V38.4076H31.2575C33.0543 35.9442 35.1763 33.7335 37.5618 31.8394Z" fill="#EADBD6"/>
    <g opacity="0.1">
        <path opacity="0.1" d="M19.5331 112.297V6.57279C19.5331 3.9003 21.7195 1.71387 24.392 1.71387H19.4241C16.7516 1.71387 14.5651 3.9003 14.5651 6.57279V112.297C14.5651 113.941 15.9102 115.286 17.5539 115.286H22.5218C20.8781 115.286 19.5331 113.941 19.5331 112.297Z" fill="#2F2E41"/>
    </g>
    <path d="M95.6921 17.3775C95.6921 17.7545 95.3836 18.063 95.0065 18.063H73.0654C72.6883 18.063 72.3798 17.7545 72.3798 17.3775V9.4834C72.3798 9.10635 72.6883 8.79785 73.0654 8.79785H95.0065C95.3836 8.79785 95.6921 9.10635 95.6921 9.4834V17.3775Z" fill="#5DA2D5"/>
    <path d="M58.7991 18.0628C61.3576 18.0628 63.4316 15.9888 63.4316 13.4303C63.4316 10.8719 61.3576 8.79785 58.7991 8.79785C56.2407 8.79785 54.1667 10.8719 54.1667 13.4303C54.1667 15.9888 56.2407 18.0628 58.7991 18.0628Z" fill="#5DA2D5"/>
    <path d="M21.5305 9.30762V13.4789C21.5305 15.3907 23.0947 16.9549 25.0065 16.9549H34.0443C35.956 16.9549 37.5204 15.3907 37.5204 13.4789V9.30762H21.5305Z" fill="#78A7AF"/>
    <path d="M58.4998 91.9432C77.1113 91.9432 92.199 76.8556 92.199 58.244C92.199 39.6324 77.1113 24.5448 58.4998 24.5448C39.8882 24.5448 24.8006 39.6324 24.8006 58.244C24.8006 76.8556 39.8882 91.9432 58.4998 91.9432Z" fill="#EADBD6"/>
    <path d="M58.4998 91.9432C77.1113 91.9432 92.199 76.8556 92.199 58.244C92.199 39.6324 77.1113 24.5448 58.4998 24.5448C39.8882 24.5448 24.8006 39.6324 24.8006 58.244C24.8006 76.8556 39.8882 91.9432 58.4998 91.9432Z" fill="#78A7AF"/>
    <g opacity="0.1">
        <path opacity="0.1" d="M29.7203 58.2442C29.7203 40.46 43.4966 25.8949 60.9595 24.6349C60.1471 24.5764 59.3272 24.545 58.4995 24.545C39.8879 24.545 24.8001 39.6328 24.8001 58.2442C24.8001 76.8559 39.8876 91.9437 58.4995 91.9437C59.327 91.9437 60.1471 91.9124 60.9595 91.8539C43.4966 90.5938 29.7203 76.0285 29.7203 58.2442Z" fill="#2F2E41"/>
    </g>
    <path d="M78.4426 74.1099C74.9739 69.7557 72.8958 64.2442 72.8958 58.2443C72.8958 52.2446 74.9741 46.733 78.4426 42.3787C78.4444 42.378 78.4462 42.3775 78.448 42.3768C73.7779 36.5134 66.5783 32.7543 58.4998 32.7543C44.4221 32.7543 33.0098 44.1666 33.0098 58.244C33.0098 72.3217 44.4221 83.734 58.4998 83.734C66.5771 83.734 73.776 79.9761 78.4462 74.114C78.4448 74.1128 78.4437 74.1115 78.4426 74.1099Z" fill="#5DA2D5"/>
    <path d="M72.8958 58.2443C72.8958 64.2442 74.9741 69.7558 78.4426 74.1099C81.9114 69.7558 83.9898 64.2442 83.9898 58.2443C83.9898 52.2446 81.9114 46.733 78.4426 42.3787C74.9739 46.7333 72.8958 52.2446 72.8958 58.2443Z" fill="#EADBD6"/>
    <path d="M56.6991 53.9906C58.9578 53.9906 60.7888 52.1596 60.7888 49.9009C60.7888 47.6422 58.9578 45.8112 56.6991 45.8112C54.4404 45.8112 52.6093 47.6422 52.6093 49.9009C52.6093 52.1596 54.4404 53.9906 56.6991 53.9906Z" fill="white"/>
    <path d="M63.2438 66.7519C64.9603 66.7519 66.3518 65.3603 66.3518 63.6438C66.3518 61.9273 64.9603 60.5358 63.2438 60.5358C61.5272 60.5358 60.1357 61.9273 60.1357 63.6438C60.1357 65.3603 61.5272 66.7519 63.2438 66.7519Z" fill="white"/>
    <path d="M59.9419 72.9673C57.9817 72.9673 56.2238 73.8133 54.9973 75.154C54.1486 74.1083 53.1162 73.2184 51.9501 72.5313C53.5259 71.3039 54.5437 69.3938 54.5437 67.2414C54.5437 63.5371 51.5408 60.5342 47.8361 60.5342C47.4122 60.5342 46.9984 60.5783 46.5957 60.6537C46.6585 60.2413 46.691 59.8192 46.691 59.3891C46.691 54.7816 42.9557 51.046 38.3479 51.046C36.6153 51.046 35.0063 51.5746 33.6725 52.4788C33.2435 54.3323 33.0098 56.2603 33.0098 58.244C33.0098 72.3217 44.4221 83.734 58.4998 83.734C61.0957 83.734 63.5998 83.3433 65.9597 82.6221C66.3968 81.7313 66.6491 80.7334 66.6491 79.6742C66.6491 75.9705 63.6462 72.9673 59.9419 72.9673Z" fill="white"/>
    <path d="M29.5494 92.1278C29.5494 92.5049 29.2409 92.8134 28.8638 92.8134H23.9183C23.5412 92.8134 23.2327 92.5049 23.2327 92.1278V85.9675C23.2327 85.5905 23.5412 85.282 23.9183 85.282H28.8638C29.2409 85.282 29.5494 85.5905 29.5494 85.9675V92.1278Z" fill="white"/>
    <path d="M23.2327 108.93H37.8776C38.8241 108.93 39.5915 108.163 39.5915 107.217C39.5915 106.27 38.8241 105.503 37.8776 105.503H23.2327C22.2862 105.503 21.5189 106.27 21.5189 107.217C21.5189 108.163 22.286 108.93 23.2327 108.93Z" fill="#2F2E41"/>
    <path d="M62.5038 49.9014C62.5038 46.7013 59.9003 44.098 56.7004 44.098C53.5003 44.098 50.8966 46.7015 50.8966 49.9014C50.8966 53.1015 53.5003 55.705 56.7004 55.705C59.9003 55.705 62.5038 53.1015 62.5038 49.9014ZM56.7004 52.2773C55.3904 52.2773 54.3243 51.2115 54.3243 49.9014C54.3243 48.5916 55.3904 47.5258 56.7004 47.5258C58.0103 47.5258 59.0761 48.5916 59.0761 49.9014C59.0761 51.2115 58.0103 52.2773 56.7004 52.2773Z" fill="#2F2E41"/>
    <path d="M63.2438 58.8206C60.585 58.8206 58.4218 60.9837 58.4218 63.6429C58.4218 66.3017 60.585 68.4651 63.2438 68.4651C65.9025 68.4651 68.0657 66.3019 68.0657 63.6429C68.0657 60.9839 65.9028 58.8206 63.2438 58.8206ZM63.2438 65.0371C62.475 65.0371 61.8496 64.4116 61.8496 63.6427C61.8496 62.8737 62.475 62.2481 63.2438 62.2481C64.0125 62.2481 64.6379 62.8737 64.6379 63.6427C64.6379 64.4116 64.0127 65.0371 63.2438 65.0371Z" fill="#2F2E41"/>
    <path d="M23.9183 83.5682C22.5952 83.5682 21.5189 84.6445 21.5189 85.9677V92.128C21.5189 93.4511 22.5952 94.5274 23.9183 94.5274H28.8638C30.1869 94.5274 31.2632 93.4511 31.2632 92.128V85.9677C31.2632 84.6445 30.1869 83.5682 28.8638 83.5682H23.9183ZM27.8355 91.0996H24.9466V86.996H27.8355V91.0996Z" fill="#2F2E41"/>
    <path d="M95.0065 7.08398H73.0654C71.7425 7.08398 70.6659 8.16029 70.6659 9.4834V17.3775C70.6659 18.7006 71.7425 19.7769 73.0654 19.7769H95.0065C96.3296 19.7769 97.4059 18.7006 97.4059 17.3775V9.4834C97.4059 8.16029 96.3294 7.08398 95.0065 7.08398ZM93.9782 16.3491H74.0937V10.5117H93.9782V16.3491Z" fill="#2F2E41"/>
    <path d="M58.7987 7.08398C55.2992 7.08398 52.4521 9.93083 52.4521 13.4303C52.4521 16.9298 55.299 19.7767 58.7987 19.7767C62.2982 19.7767 65.1448 16.9298 65.1448 13.4303C65.145 9.93083 62.2982 7.08398 58.7987 7.08398ZM58.7987 16.3491C57.1892 16.3491 55.8798 15.04 55.8798 13.4305C55.8798 11.8211 57.1892 10.5119 58.7987 10.5119C60.4079 10.5119 61.717 11.8211 61.717 13.4305C61.7173 15.0398 60.4079 16.3491 58.7987 16.3491Z" fill="#2F2E41"/>
    <path d="M37.5204 7.59375H21.5305C20.584 7.59375 19.8167 8.36111 19.8167 9.30762V13.4789C19.8167 16.3406 22.1448 18.6688 25.0065 18.6688H34.0443C36.906 18.6688 39.2343 16.3406 39.2343 13.4789V9.30762C39.2343 8.36111 38.467 7.59375 37.5204 7.59375ZM35.8066 13.4789C35.8066 14.4506 35.0159 15.241 34.0443 15.241H25.0065C24.0348 15.241 23.2444 14.4506 23.2444 13.4789V11.0215H35.8066V13.4789Z" fill="#2F2E41"/>
    <path d="M97.5753 0H19.4243C15.8 0 12.8515 2.94854 12.8515 6.57279V30.1254V40.1214V112.297C12.8515 114.89 14.9609 117 17.5541 117H99.4457C102.039 117 104.148 114.891 104.148 112.297V89.5781C104.148 88.6316 103.381 87.8643 102.434 87.8643C101.488 87.8643 100.721 88.6316 100.721 89.5781V96.985H16.2792V40.1214H28.0868C24.9134 45.4266 23.0865 51.6258 23.0865 58.2443C23.0865 77.7714 38.9729 93.6576 58.4998 93.6576C78.0266 93.6576 93.9128 77.7712 93.9128 58.2443C93.9128 51.6258 92.0859 45.4266 88.9125 40.1214H100.72V81.8086C100.72 82.7551 101.488 83.5225 102.434 83.5225C103.381 83.5225 104.148 82.7551 104.148 81.8086V40.1214V30.1254V6.57279C104.148 2.94854 101.2 0 97.5753 0ZM91.5274 113.572H75.2294V107.137H91.5274V113.572ZM100.72 100.413V112.298C100.72 113.001 100.148 113.572 99.4454 113.572H94.9551V106.918C94.9551 105.149 93.5159 103.71 91.747 103.71H75.01C73.2409 103.71 71.8017 105.149 71.8017 106.918V113.572H17.5539C16.851 113.572 16.279 113.001 16.279 112.297V100.413H100.72V100.413ZM16.2792 36.6937V33.5532H33.1405C32.1741 34.5454 31.2653 35.5941 30.4195 36.6937H16.2792ZM90.4851 58.2443C90.4851 75.8811 76.1364 90.2299 58.4998 90.2299C40.8629 90.2299 26.5142 75.8811 26.5142 58.2443C26.5142 40.6075 40.8627 26.259 58.4998 26.259C76.1366 26.259 90.4851 40.6077 90.4851 58.2443ZM100.72 36.6937H86.58C85.7343 35.5941 84.8255 34.5456 83.8591 33.5532H100.721L100.72 36.6937ZM100.72 30.1254H80.0001C74.0345 25.5531 66.5796 22.8312 58.4998 22.8312C54.2766 22.8312 50.2243 23.5757 46.4654 24.9379V16.2246C46.4654 15.2781 45.6981 14.5107 44.7516 14.5107C43.8051 14.5107 43.0377 15.2781 43.0377 16.2246V26.3897C40.8954 27.4338 38.8742 28.6885 36.9994 30.1254H16.2792V6.57279C16.2792 4.83882 17.6901 3.42773 19.4243 3.42773H43.0377V8.68359C43.0377 9.63011 43.8051 10.3975 44.7516 10.3975C45.6981 10.3975 46.4654 9.63011 46.4654 8.68359V3.42773H97.5753C99.3095 3.42773 100.72 4.83882 100.72 6.57279V30.1254Z" fill="#2F2E41"/>
    <path d="M74.806 36.4677C70.0716 32.9172 64.4329 31.0406 58.4998 31.0406C43.4995 31.0406 31.2959 43.2441 31.2959 58.2443C31.2959 73.2445 43.4995 85.4482 58.4998 85.4482C73.5 85.4482 85.7036 73.2445 85.7036 58.2443C85.7036 57.2978 84.9363 56.5304 83.9898 56.5304C83.0433 56.5304 82.2759 57.2978 82.2759 58.2443C82.2759 63.0093 80.866 67.4505 78.4428 71.1749C75.9314 67.3287 74.6097 62.9037 74.6097 58.2443C74.6097 53.5842 75.9321 49.1585 78.4444 45.3117C79.6391 47.1483 80.5824 49.1448 81.2263 51.235C81.5049 52.1395 82.4635 52.647 83.3687 52.3685C84.2731 52.0899 84.7807 51.1306 84.5019 50.2259C82.8264 44.7861 79.3829 39.9 74.806 36.4677ZM34.7236 58.2443C34.7236 56.6431 34.8838 55.0787 35.1871 53.5654C36.1537 53.0394 37.2334 52.7604 38.3481 52.7604C42.0035 52.7604 44.9774 55.7343 44.9774 59.3896C44.9774 59.728 44.952 60.0665 44.9017 60.3958C44.8179 60.9447 45.0055 61.5004 45.4047 61.8864C45.8039 62.2723 46.3654 62.4417 46.9115 62.3388C47.2353 62.2781 47.5379 62.2486 47.8361 62.2486C50.5895 62.2486 52.8298 64.4885 52.8298 67.2419C52.8298 68.7878 52.1253 70.2231 50.8971 71.1794C50.4492 71.5281 50.2031 72.0759 50.2398 72.6424C50.2766 73.2089 50.5913 73.7203 51.0801 74.0084C52.0714 74.5925 52.9416 75.3414 53.6667 76.2346C53.9809 76.6217 54.4482 76.8528 54.9468 76.8676C55.4399 76.8827 55.9253 76.6793 56.2619 76.3112C57.2233 75.2603 58.5302 74.6817 59.9419 74.6817C62.6951 74.6817 64.935 76.9216 64.935 79.6749C64.935 80.1966 64.8516 80.7076 64.69 81.2017C62.7154 81.7348 60.6405 82.0209 58.4995 82.0209C45.3896 82.0204 34.7236 71.3545 34.7236 58.2443ZM71.1819 58.2443C71.1819 63.9855 72.9319 69.4171 76.2502 74.0443C74.0644 76.4972 71.3791 78.4956 68.3559 79.879C68.3575 79.8107 68.3627 79.743 68.3627 79.6745C68.3627 75.0313 64.5851 71.2535 59.9419 71.2535C58.2105 71.2535 56.5268 71.796 55.1223 72.7783C54.9438 72.6108 54.761 72.4488 54.5734 72.2918C55.6598 70.852 56.2573 69.0944 56.2573 67.2416C56.2573 62.7844 52.7761 59.125 48.3898 58.8387C48.103 53.5485 43.7084 49.3326 38.3479 49.3326C37.6809 49.3326 37.022 49.4001 36.3781 49.528C39.862 40.7171 48.4647 34.4684 58.4995 34.4684C63.6855 34.4684 68.613 36.108 72.7493 39.2099C74.0242 40.166 75.1972 41.2519 76.2529 42.4399C72.9328 47.0685 71.1819 52.5017 71.1819 58.2443Z" fill="#2F2E41"/>
    <path d="M36.2067 20.8875H22.8445C21.898 20.8875 21.1306 21.6548 21.1306 22.6013C21.1306 23.5478 21.898 24.3152 22.8445 24.3152H36.2067C37.1532 24.3152 37.9206 23.5478 37.9206 22.6013C37.9206 21.6548 37.1532 20.8875 36.2067 20.8875Z" fill="#2F2E41"/>
</svg>
