<svg width="117" height="117" viewBox="0 0 117 117" fill="none" xmlns="http://www.w3.org/2000/svg">
    <path d="M63.4279 12.4809C63.4291 12.4841 63.4291 12.4868 63.4302 12.49L65.7204 19.05H76.2616L78.3914 12.4978C78.3934 12.4921 78.3934 12.4866 78.3953 12.4809C78.3955 12.4809 63.4279 12.4809 63.4279 12.4809Z" fill="#01A0DA"/>
    <path d="M70.9087 25.5019C74.8508 25.5019 78.5834 26.1196 81.9078 27.219L81.2369 20.1876C81.177 19.5621 80.614 19.0502 79.9855 19.0502H61.8318C61.2034 19.0502 60.6403 19.5621 60.5804 20.1876L59.9095 27.219C63.234 26.1198 66.9665 25.5019 70.9087 25.5019Z" fill="#EADBD6"/>
    <path opacity="0.1" d="M64.8905 25.9957L65.4451 20.1876C65.505 19.5621 66.068 19.0502 66.6964 19.0502H61.8318C61.2034 19.0502 60.6403 19.5621 60.5804 20.1876L59.9095 27.219C61.4851 26.698 63.1526 26.2857 64.8905 25.9957Z" fill="#2F2E41"/>
    <path d="M96.0565 42.194C96.0602 42.3072 96.0631 42.4196 96.0631 42.5329C96.0631 33.1421 84.7788 25.5019 70.9086 25.5019C57.2061 25.5019 46.029 32.9593 45.7611 42.194H96.0565Z" fill="#D7F7FF"/>
    <path d="M89.4099 56.0224C88.9266 55.2656 89.0984 54.2818 89.8089 53.7325C93.8417 50.6155 96.0631 46.638 96.0631 42.5327C96.0631 42.4193 96.0599 42.3069 96.0565 42.1938H45.7611C45.7575 42.3069 45.755 42.4193 45.755 42.5327C45.755 46.638 47.9755 50.6155 52.0083 53.7325C52.7192 54.2816 52.8911 55.2656 52.4073 56.022C46.7054 64.9425 43.2109 77.4476 42.6138 90.818C45.0505 91.7737 46.7758 94.1381 46.7758 96.9064C46.7758 97.1278 46.7641 97.3465 46.7426 97.5624C46.9595 97.5407 47.1786 97.5291 47.4014 97.5291C50.4939 97.5291 53.08 99.6629 53.7759 102.532C54.7461 100.848 56.5658 99.7098 58.6547 99.7098C61.7629 99.7098 64.2819 102.221 64.2819 105.317H67.0947C69.8574 105.317 72.0966 107.549 72.0966 110.302C72.0966 113.055 69.8574 115.286 67.0947 115.286H94.1827C95.8291 115.286 97.248 114.13 97.5748 112.522C98.7169 106.906 99.2957 100.986 99.2957 94.9244C99.2953 80.0303 95.6925 65.8506 89.4099 56.0224Z" fill="#5DA2D5"/>
    <path opacity="0.1" d="M52.0083 53.7327C52.7192 54.2818 52.8911 55.2658 52.4073 56.0222C46.7054 64.9428 43.2109 77.4478 42.6138 90.8183C45.0505 91.7739 46.7758 94.1384 46.7758 96.9066C46.7758 97.1281 46.7641 97.3467 46.7426 97.5627C46.9595 97.541 47.1786 97.5293 47.4014 97.5293C47.4579 97.5293 47.5127 97.535 47.5687 97.5364C47.5447 96.669 47.5312 95.7988 47.5312 94.9247C47.5312 80.0303 51.1345 65.8507 57.4168 56.0222C57.9006 55.2658 57.7287 54.2821 57.0178 53.7327C52.985 50.6158 50.7645 46.6382 50.7645 42.5329C50.7645 33.7145 60.7152 26.4399 73.4133 25.5862C72.5895 25.5307 71.7539 25.5019 70.9086 25.5019C57.0388 25.5019 45.755 33.1421 45.755 42.5329C45.7552 46.6382 47.9752 50.6158 52.0083 53.7327Z" fill="#2F2E41"/>
    <path d="M83.1617 62.3957C79.5036 55.9355 74.923 52.0784 70.9089 52.0784C66.8948 52.0784 62.3142 55.9355 58.6561 62.3957C53.9023 70.7927 51.1759 82.6495 51.1759 94.9247C51.1759 96.2245 51.2081 97.5133 51.2659 98.7925C52.4976 99.692 53.406 101.006 53.7762 102.532C54.7464 100.848 56.5661 99.7098 58.655 99.7098C61.7632 99.7098 64.2822 102.221 64.2822 105.317H67.095C68.416 105.317 69.6166 105.829 70.5108 106.662H89.8149C90.3652 102.867 90.6423 98.9424 90.6423 94.9247C90.6417 82.6495 87.9157 70.7927 83.1617 62.3957Z" fill="#EADBD6"/>
    <path opacity="0.1" d="M53.7759 102.532C54.3413 101.551 55.1961 100.757 56.2231 100.264C56.1123 98.5046 56.0535 96.7247 56.0535 94.9247C56.0535 82.6495 58.7802 70.7927 63.5338 62.3957C66.4677 57.2143 69.9948 53.7098 73.3476 52.5247C72.5201 52.2322 71.7032 52.0787 70.9086 52.0787C66.8945 52.0787 62.3139 55.9358 58.6559 62.3959C53.9021 70.793 51.1756 82.6497 51.1756 94.9249C51.1756 96.2247 51.2078 97.5135 51.2657 98.7928C52.4969 99.692 53.4055 101.006 53.7759 102.532Z" fill="#2F2E41"/>
    <path d="M57.1794 65.2563H84.6378C84.1696 64.2654 83.6783 63.3088 83.1614 62.3957C79.5038 55.9355 74.9232 52.0784 70.9086 52.0784C66.8945 52.0784 62.3139 55.9355 58.6558 62.3957C58.1392 63.3088 57.6478 64.2654 57.1794 65.2563Z" fill="white"/>
    <path d="M78.2604 7.22498L74.2488 2.57857C73.8382 2.10303 72.9879 1.71387 72.3595 1.71387H69.2014C68.573 1.71387 67.7325 2.11103 67.3335 2.59662L63.5465 7.20693C63.4814 7.28645 63.4332 7.363 63.3987 7.43636H78.4067C78.3708 7.36849 78.3233 7.2981 78.2604 7.22498Z" fill="#01A0DA"/>
    <path d="M81.4855 11.3382C81.4855 11.9667 80.9713 12.4808 80.3429 12.4808H61.4748C60.8464 12.4808 60.3322 11.9667 60.3322 11.3382V8.57892C60.3322 7.9505 60.8464 7.43634 61.4748 7.43634H80.3429C80.9713 7.43634 81.4855 7.9505 81.4855 8.57892V11.3382Z" fill="#EADBD6"/>
    <path d="M71.4561 84.652C71.155 84.8789 70.6621 84.8789 70.3609 84.652L62.5833 78.7977C62.2822 78.5708 62.2822 78.1999 62.5833 77.973L70.3609 72.1186C70.6621 71.8919 71.155 71.8919 71.4561 72.1186L79.2337 77.973C79.5349 78.1999 79.5349 78.5708 79.2337 78.7977L71.4561 84.652Z" fill="white"/>
    <path d="M31.0121 67.4989C36.6858 67.4989 41.2852 62.8448 41.2852 57.1037C41.2852 51.3626 36.6858 46.7086 31.0121 46.7086C25.3384 46.7086 20.7389 51.3626 20.7389 57.1037C20.7389 62.8448 25.3384 67.4989 31.0121 67.4989Z" fill="#B1E8FF"/>
    <g opacity="0.1">
        <path opacity="0.1" d="M25.6139 57.1031C25.6139 52.2117 28.9527 48.1117 33.4497 47.0043C32.6681 46.8119 31.8526 46.7075 31.0125 46.7075C25.3385 46.7075 20.7396 51.3616 20.7396 57.1031C20.7396 62.8443 25.3385 67.4983 31.0125 67.4983C31.8526 67.4983 32.6681 67.3938 33.4497 67.2014C28.9527 66.0938 25.6139 61.9942 25.6139 57.1031Z" fill="#2F2E41"/>
    </g>
    <path d="M34.1197 40.1198C37.5348 40.1198 40.3033 37.3178 40.3033 33.8614C40.3033 30.405 37.5348 27.6031 34.1197 27.6031C30.7045 27.6031 27.936 30.405 27.936 33.8614C27.936 37.3178 30.7045 40.1198 34.1197 40.1198Z" fill="#D7F7FF"/>
    <g opacity="0.1">
        <path opacity="0.1" d="M31.7349 33.8612C31.7349 31.0756 33.5338 28.7157 36.02 27.9047C35.4215 27.7096 34.7838 27.6028 34.1208 27.6028C30.7048 27.6028 27.9363 30.4049 27.9363 33.8614C27.9363 37.3177 30.7048 40.1198 34.1208 40.1198C34.7835 40.1198 35.4213 40.0131 36.02 39.8179C33.5335 39.006 31.7349 36.6468 31.7349 33.8612Z" fill="#2F2E41"/>
    </g>
    <path d="M67.0942 105.317H64.2814C64.2814 102.221 61.7625 99.7099 58.6542 99.7099C56.5654 99.7099 54.7457 100.847 53.7754 102.532C53.0796 99.663 50.4937 97.5291 47.401 97.5291C47.1782 97.5291 46.959 97.5408 46.7422 97.5625C46.7637 97.3465 46.7753 97.1279 46.7753 96.9064C46.7753 93.2929 43.8368 90.364 40.2107 90.364C36.5853 90.364 33.6462 93.2927 33.6462 96.9064C33.6462 97.4475 33.7198 97.9706 33.8438 98.4736C33.7778 98.4718 33.7127 98.4638 33.6462 98.4638C30.0212 98.4638 27.0816 101.393 27.0816 105.006C27.0816 105.111 27.0924 105.214 27.0981 105.317H22.7064C19.9437 105.317 17.7045 107.549 17.7045 110.302C17.7045 113.055 19.9437 115.286 22.7064 115.286H67.0942C69.857 115.286 72.0962 113.055 72.0962 110.302C72.0962 107.549 69.857 105.317 67.0942 105.317Z" fill="#D7F7FF"/>
    <g opacity="0.1">
        <path opacity="0.1" d="M22.623 114.073C22.623 111.32 24.8623 109.088 27.625 109.088H32.0173C32.0116 108.984 32.0009 108.881 32.0009 108.776C32.0009 105.163 34.9403 102.234 38.5654 102.234C38.6319 102.234 38.6971 102.242 38.7631 102.244C38.639 101.741 38.5654 101.218 38.5654 100.677C38.5654 97.0634 41.5044 94.1345 45.13 94.1345C45.4938 94.1345 45.8501 94.1654 46.1979 94.222C45.1698 91.9479 42.8773 90.364 40.2117 90.364C36.5863 90.364 33.6471 93.2927 33.6471 96.9064C33.6471 97.4475 33.7207 97.9706 33.8448 98.4736C33.7787 98.4718 33.7136 98.4638 33.6471 98.4638C30.0221 98.4638 27.0825 101.393 27.0825 105.006C27.0825 105.111 27.0933 105.214 27.099 105.317H22.7064C19.9437 105.317 17.7045 107.549 17.7045 110.302C17.7045 113.055 19.9437 115.286 22.7064 115.286H22.7729C22.6754 114.898 22.623 114.491 22.623 114.073Z" fill="#2F2E41"/>
    </g>
    <path d="M99.2953 93.2108C98.3485 93.2108 97.5814 93.978 97.5814 94.9247C97.5814 100.872 97.014 106.677 95.8947 112.181C95.7309 112.987 95.0106 113.572 94.1822 113.572H72.952C73.4975 112.604 73.8101 111.489 73.8101 110.302C73.8101 109.633 73.71 108.987 73.526 108.377H89.8142C90.6658 108.377 91.3882 107.751 91.5102 106.909C92.0712 103.041 92.3555 99.0092 92.3555 94.9249C92.3555 82.3618 89.548 70.1977 84.6527 61.5516C80.6272 54.4425 75.6174 50.3651 70.9086 50.3651C66.1996 50.3651 61.1901 54.4425 57.1643 61.5516C52.2691 70.1986 49.4615 82.3625 49.4615 94.9249C49.4615 95.31 49.4663 95.6939 49.4716 96.078C49.1299 95.9905 48.7814 95.9217 48.4257 95.8781C48.1002 93.278 46.5568 91.0514 44.3857 89.7813C45.1067 77.1295 48.4643 65.3728 53.8508 56.9461C54.8165 55.437 54.4745 53.4727 53.0561 52.3769C49.9181 49.9519 48.0091 46.9869 47.5683 43.9084H76.5523C77.499 43.9084 78.2661 43.1412 78.2661 42.1945C78.2661 41.2478 77.499 40.4806 76.5523 40.4806H47.6837C48.3512 37.2871 50.5671 34.302 54.0917 31.9154C58.5674 28.8851 64.5399 27.2162 70.9088 27.2162C77.278 27.2162 83.2507 28.8853 87.7267 31.9154C91.2513 34.3018 93.4672 37.2871 94.1349 40.4806H86.8359C85.8892 40.4806 85.1221 41.2478 85.1221 42.1945C85.1221 43.1412 85.8892 43.9084 86.8359 43.9084H94.2494C93.8084 46.9867 91.8991 49.9515 88.7605 52.3774C87.3432 53.4727 87.0014 55.4367 87.9655 56.9461C92.837 64.5671 96.113 75.077 97.1902 86.54C97.2789 87.4824 98.1097 88.1744 99.0569 88.0862C99.9991 87.9975 100.691 87.1618 100.603 86.2194C99.4756 74.2237 96.0133 63.172 90.8567 55.0894C95.3191 51.6404 97.7768 47.1816 97.7768 42.5336C97.7768 37.4055 94.8897 32.6265 89.648 29.0772C87.7998 27.8259 85.7324 26.7832 83.5092 25.9614L82.9425 20.0248C82.7983 18.5173 81.4994 17.3366 79.9853 17.3366H78.6206L79.6416 14.1952H80.3427C81.9178 14.1952 83.1991 12.9139 83.1991 11.3387V8.57893C83.1991 7.00378 81.9178 5.72249 80.3427 5.72249H79.227L75.5461 1.45862C74.8046 0.599854 73.4943 0 72.3595 0H69.2014C68.0519 0 66.7393 0.62042 66.009 1.50866L62.5477 5.72226H61.4746C59.8994 5.72226 58.6181 7.00355 58.6181 8.5787V11.338C58.6181 12.9132 59.8994 14.1945 61.4746 14.1945H62.2099L63.3066 17.3359H61.8317C60.3176 17.3359 59.0185 18.5166 58.8745 20.0244L58.3078 25.961C56.0848 26.7827 54.0177 27.8252 52.1697 29.0766C46.928 32.6256 44.0411 37.4046 44.0411 42.5329C44.0411 47.1814 46.4983 51.6402 50.9633 55.099C45.3983 63.8054 41.8832 75.7984 41.0195 88.6897C40.7535 88.6638 40.4838 88.6499 40.2112 88.6499C35.6464 88.6499 31.9328 92.3537 31.9328 96.9062C31.9328 96.9132 31.9328 96.9206 31.9328 96.9276C28.6387 97.6219 26.0613 100.275 25.4877 103.604H22.7064C19.0034 103.604 15.9906 106.608 15.9906 110.302C15.9908 113.995 19.0034 117 22.7064 117H29.707C30.6538 117 31.4209 116.233 31.4209 115.286C31.4209 114.339 30.6538 113.572 29.707 113.572H22.7064C20.8934 113.572 19.4183 112.105 19.4183 110.302C19.4183 108.499 20.8934 107.031 22.7064 107.031H27.0987C27.5699 107.031 28.0201 106.837 28.3439 106.495C28.6677 106.153 28.8361 105.692 28.8099 105.222L28.8019 105.098C28.7996 105.067 28.7966 105.036 28.7962 105.006C28.7962 102.351 30.9607 100.189 33.6254 100.178C33.6254 100.178 33.823 100.185 33.8356 100.185C35.8902 100.266 37.709 101.657 38.2972 103.627C38.5193 104.371 39.2007 104.851 39.9388 104.851C40.1011 104.851 40.2663 104.828 40.4297 104.779C41.3366 104.509 41.8524 103.554 41.5816 102.647C40.7114 99.7324 38.2725 97.5567 35.3614 96.9327C35.3614 96.9238 35.3605 96.9151 35.3605 96.9064C35.3605 94.244 37.5364 92.0779 40.2112 92.0779C42.886 92.0779 45.0619 94.2437 45.0619 96.9064C45.0619 97.0645 45.0537 97.2284 45.0375 97.3934C44.9865 97.9045 45.1679 98.4116 45.5313 98.7747C45.8948 99.1383 46.4021 99.3182 46.9131 99.2679C47.0779 99.2514 47.2424 99.2432 47.4017 99.2432C49.448 99.2432 51.2341 100.507 51.9343 102.377C51.5296 103.298 51.3141 104.298 51.3141 105.318C51.3141 106.264 52.0812 107.031 53.028 107.031C53.9747 107.031 54.7418 106.264 54.7418 105.318C54.7418 104.646 54.9185 103.99 55.2448 103.412C55.2496 103.404 55.2562 103.396 55.261 103.388C55.9587 102.176 57.2589 101.424 58.6547 101.424C60.8123 101.424 62.568 103.171 62.568 105.318C62.568 106.264 63.3352 107.031 64.2819 107.031H67.0947C68.9077 107.031 70.3828 108.499 70.3828 110.302C70.3828 112.106 68.9073 113.572 67.0942 113.572H39.7617C38.815 113.572 38.0478 114.339 38.0478 115.286C38.0478 116.233 38.815 117 39.7617 117H94.1822C96.634 117 98.767 115.26 99.2537 112.863C100.418 107.136 101.009 101.101 101.009 94.9245C101.009 93.978 100.242 93.2108 99.2953 93.2108ZM68.6532 3.69007C68.7501 3.58587 69.0668 3.43642 69.2014 3.42773H72.3547C72.5073 3.43528 72.8494 3.59204 72.9515 3.69853L74.6988 5.72249H66.9836L68.6532 3.69007ZM62.0461 10.767V9.15022H79.7716V10.767H62.0461ZM76.0377 14.1947L75.0164 17.3361H66.9375L65.8406 14.1947C65.8408 14.1947 76.0377 14.1947 76.0377 14.1947ZM62.247 20.7638H79.57L79.9622 24.8721C77.0929 24.1607 74.04 23.7878 70.9086 23.7878C67.7773 23.7878 64.7241 24.1607 61.8551 24.8721L62.247 20.7638ZM60.1471 63.2401C63.4469 57.4125 67.5705 53.7924 70.9086 53.7924C74.2465 53.7924 78.3701 57.4125 81.6701 63.2401C81.7265 63.3397 81.7809 63.4421 81.8367 63.5424H59.9803C60.0363 63.4421 60.0907 63.3397 60.1471 63.2401ZM67.0942 103.604H65.7924C65.0168 100.39 62.1108 97.996 58.6545 97.996C57.0514 97.996 55.516 98.5247 54.2661 99.4562C53.8881 98.8945 53.4425 98.3867 52.9448 97.9386C52.9084 96.9386 52.8895 95.9336 52.8895 94.9247C52.8895 84.665 54.8282 74.7296 58.2781 66.9704H83.5396C86.9893 74.7292 88.928 84.6646 88.928 94.9247C88.928 98.3298 88.7225 101.695 88.3163 104.949H71.1262C70.0023 104.104 68.6061 103.604 67.0942 103.604Z" fill="#2F2E41"/>
    <path d="M80.2645 76.6036L72.4868 70.7493C72.046 70.4175 71.4854 70.2347 70.9086 70.2347C70.3319 70.2347 69.7711 70.4175 69.3303 70.7493L61.5523 76.6041C60.9748 77.039 60.6435 77.6882 60.6435 78.3854C60.6435 79.0826 60.9746 79.7318 61.5525 80.1671L69.3296 86.021C69.7706 86.3533 70.3314 86.5363 70.9084 86.5363C71.4854 86.5363 72.0462 86.3533 72.4868 86.0215L80.2647 80.1667C80.8422 79.7318 81.1736 79.0826 81.1736 78.3854C81.1738 77.6882 80.8424 77.039 80.2645 76.6036ZM70.9086 82.9191L64.8854 78.3851L70.9086 73.8512L76.9319 78.3851L70.9086 82.9191Z" fill="#2F2E41"/>
    <path d="M76.6108 90.5832H65.2065C64.2597 90.5832 63.4926 91.3503 63.4926 92.2971C63.4926 93.2438 64.2597 94.0109 65.2065 94.0109H76.6108C77.5575 94.0109 78.3246 93.2438 78.3246 92.2971C78.3246 91.3505 77.5575 90.5832 76.6108 90.5832Z" fill="#2F2E41"/>
    <path d="M73.8055 96.7826H68.0115C67.065 96.7826 66.2976 97.5497 66.2976 98.4965C66.2976 99.4432 67.065 100.21 68.0115 100.21H73.8055C74.7523 100.21 75.5194 99.4432 75.5194 98.4965C75.5194 97.5499 74.7523 96.7826 73.8055 96.7826Z" fill="#2F2E41"/>
    <path d="M31.0128 69.2121C37.6226 69.2121 43 63.7799 43 57.1031C43 50.4259 37.6226 44.9936 31.0128 44.9936C24.4032 44.9936 19.026 50.4261 19.026 57.1031C19.0257 63.7799 24.4029 69.2121 31.0128 69.2121ZM31.0128 48.4213C35.7325 48.4213 39.5723 52.3159 39.5723 57.1031C39.5723 61.89 35.7325 65.7844 31.0128 65.7844C26.2935 65.7844 22.4537 61.89 22.4537 57.1031C22.4535 52.3159 26.2932 48.4213 31.0128 48.4213Z" fill="#2F2E41"/>
    <path d="M34.1206 41.8332C38.4756 41.8332 42.0188 38.2569 42.0188 33.8609C42.0188 29.465 38.4756 25.8885 34.1206 25.8885C29.7653 25.8885 26.2222 29.4648 26.2222 33.8609C26.2222 38.2569 29.7658 41.8332 34.1206 41.8332ZM34.1206 29.3165C36.5856 29.3165 38.591 31.3553 38.591 33.8612C38.591 36.3671 36.5858 38.4057 34.1206 38.4057C31.6554 38.4057 29.6499 36.3671 29.6499 33.8612C29.6499 31.3553 31.6554 29.3165 34.1206 29.3165Z" fill="#2F2E41"/>
</svg>
