<svg width="117" height="117" viewBox="0 0 117 117" fill="none" xmlns="http://www.w3.org/2000/svg">
    <path d="M19.6777 63.5444C19.6777 62.916 20.1919 62.4019 20.8203 62.4019L24.8545 62.4019C26.1582 60.5804 26.9278 58.351 26.9278 55.9404C26.9278 49.8001 21.9501 44.8224 15.8099 44.8224C9.66942 44.8224 4.69189 49.8001 4.69189 55.9404C4.69189 62.0808 9.66942 67.0583 15.8099 67.0583C17.1702 67.0583 18.473 66.8131 19.6777 66.3659L19.6777 63.5444Z" fill="#B1E8FF"/>
    <path opacity="0.1" d="M9.59768 55.9402C9.59768 50.6432 13.3033 46.2143 18.2628 45.0969C17.4735 44.9191 16.6533 44.822 15.8101 44.822C9.66967 44.822 4.69214 49.7997 4.69214 55.9399C4.69214 62.0804 9.66966 67.0579 15.8101 67.0579C16.6533 67.0579 17.4735 66.961 18.2628 66.783C13.3033 65.666 9.59768 61.2376 9.59768 55.9402Z" fill="#2F2E41"/>
    <path d="M98.0938 91.2785L90.5877 71.2496L22.954 71.2496L20.2275 78.5248C22.3379 79.1135 23.8868 81.0483 23.8868 83.3467C23.8868 83.5161 23.8778 83.6836 23.8614 83.8488C24.0268 83.8323 24.1941 83.8234 24.3637 83.8234C26.7224 83.8234 28.695 85.4564 29.2253 87.6524C29.9655 86.3629 31.3531 85.4925 32.9467 85.4925C35.3169 85.4925 37.2382 87.4139 37.2382 89.784L39.384 89.784C41.0524 89.784 42.4671 90.8569 42.985 92.3489L71.7756 92.3489C72.4041 92.3489 73.1753 91.9035 73.4895 91.3594L75.2941 88.2338C75.6083 87.6897 76.1225 87.6897 76.4367 88.2338L78.241 91.3594C78.5552 91.9035 79.3265 92.3489 79.9549 92.3489L97.352 92.3489C97.9804 92.3487 98.3141 91.8672 98.0938 91.2785Z" fill="#FFCFAB"/>
    <path d="M41.4571 62.4019L41.4571 56.7386C41.4571 56.1102 41.9712 55.596 42.5996 55.596L70.9418 55.596C71.5702 55.596 72.0844 56.1102 72.0844 56.7386L72.0844 62.4019L78.8905 62.4019L78.8905 49.9325C78.8905 49.3041 78.3763 48.7899 77.7479 48.7899L35.7938 48.7899C35.1653 48.7899 34.6512 49.3041 34.6512 49.9325L34.6512 62.4019L41.4571 62.4019Z" fill="#B8B0C8"/>
    <path opacity="0.1" d="M40.4473 48.7899L35.7938 48.7899C35.1653 48.7899 34.6512 49.3041 34.6512 49.9325L34.6512 62.4019L39.3047 62.4019L39.3047 49.9325C39.3047 49.3041 39.8188 48.7899 40.4473 48.7899Z" fill="#2F2E41"/>
    <path d="M93.8638 70.1073C93.8638 70.7357 93.3496 71.2498 92.7212 71.2498L20.8203 71.2498C20.1919 71.2498 19.6777 70.7357 19.6777 70.1072L19.6777 63.5445C19.6777 62.9161 20.1919 62.4019 20.8203 62.4019L92.7212 62.4019C93.3496 62.4019 93.8638 62.9161 93.8638 63.5445L93.8638 70.1073Z" fill="#B8B0C8"/>
    <g opacity="0.1">
        <path opacity="0.1" d="M27.1934 70.1072L27.1934 63.5445C27.1934 62.9161 27.7076 62.4019 28.336 62.4019L20.8203 62.4019C20.1919 62.4019 19.6777 62.9161 19.6777 63.5445L19.6777 70.1072C19.6777 70.7357 20.1919 71.2498 20.8203 71.2498L28.336 71.2498C27.7075 71.2498 27.1934 70.7357 27.1934 70.1072Z" fill="#2F2E41"/>
    </g>
    <path d="M104.169 59.4511C110.309 59.4511 115.287 54.4734 115.287 48.3331C115.287 42.1928 110.309 37.2152 104.169 37.2152C98.0285 37.2151 93.0508 42.1928 93.0508 48.3331C93.0508 54.4734 98.0285 59.4511 104.169 59.4511Z" fill="#B1E8FF"/>
    <g opacity="0.1">
        <path opacity="0.1" d="M98.4903 48.3333C98.4903 43.1314 102.063 38.7654 106.888 37.5518C106.018 37.3328 105.107 37.2152 104.168 37.2152C98.028 37.2151 93.0502 42.1927 93.0502 48.3331C93.0502 54.4733 98.028 59.4508 104.168 59.4508C105.107 59.4508 106.018 59.3332 106.888 59.1142C102.063 57.9013 98.4903 53.535 98.4903 48.3333Z" fill="#2F2E41"/>
    </g>
    <path d="M78.9339 34.5819C84.0645 34.5819 88.2237 30.4227 88.2237 25.2921C88.2237 20.1615 84.0645 16.0023 78.9339 16.0023C73.8033 16.0023 69.644 20.1615 69.644 25.2921C69.644 30.4227 73.8032 34.5819 78.9339 34.5819Z" fill="#D7F7FF"/>
    <g opacity="0.1">
        <path opacity="0.1" d="M74.6547 25.2928C74.6547 21.0305 77.5262 17.4413 81.4391 16.3474C80.6418 16.1243 79.8022 16.0027 78.9336 16.0027C73.8032 16.0027 69.6438 20.1622 69.6438 25.2928C69.6438 30.4232 73.8032 34.5824 78.9336 34.5824C79.8022 34.5824 80.6418 34.4606 81.4391 34.2378C77.5262 33.1437 74.6547 29.5544 74.6547 25.2928Z" fill="#2F2E41"/>
    </g>
    <path d="M39.3837 89.7838L37.238 89.7838C37.238 87.4136 35.3166 85.4923 32.9465 85.4923C31.353 85.4923 29.9655 86.3629 29.2251 87.6522C28.6947 85.4564 26.7221 83.8232 24.3634 83.8232C24.1939 83.8232 24.0263 83.8321 23.8611 83.8486C23.8778 83.6831 23.8865 83.5158 23.8865 83.3465C23.8865 80.581 21.645 78.3397 18.8797 78.3397C16.1147 78.3397 13.8729 80.5812 13.8729 83.3465C13.8729 83.7608 13.9287 84.1612 14.0238 84.546C13.9733 84.5446 13.9239 84.5387 13.8729 84.5387C11.1077 84.5387 8.86616 86.7802 8.86616 89.5452C8.86616 89.6257 8.87439 89.704 8.87827 89.7838L5.52823 89.7838C3.42155 89.7838 1.71362 91.4917 1.71362 93.5982C1.71362 95.7053 3.42155 97.4128 5.52823 97.4128L39.3835 97.4128C41.4904 97.4128 43.1984 95.7051 43.1984 93.5982C43.1986 91.4917 41.4907 89.7838 39.3837 89.7838Z" fill="#B1E8FF"/>
    <path d="M104.605 83.746C106.781 83.746 108.544 81.9824 108.544 79.8068C108.544 77.6313 106.781 75.8677 104.605 75.8677C102.43 75.8677 100.666 77.6313 100.666 79.8068C100.666 81.9824 102.43 83.746 104.605 83.746Z" fill="#D7F7FF"/>
    <path d="M104.168 61.1652C111.244 61.1652 117 55.4089 117 48.3336C117 41.2581 111.244 35.5018 104.168 35.5018C97.0927 35.5018 91.3364 41.2581 91.3364 48.3336C91.3364 55.4089 97.0927 61.1652 104.168 61.1652ZM104.168 38.9293C109.354 38.9293 113.572 43.1479 113.572 48.3334C113.572 53.5186 109.354 57.7373 104.168 57.7373C98.9827 57.7373 94.7641 53.5186 94.7641 48.3334C94.7641 43.1481 98.9827 38.9293 104.168 38.9293Z" fill="#2F2E41"/>
    <path d="M78.9339 36.2963C85.0014 36.2963 89.9376 31.3601 89.9376 25.2928C89.9376 19.2253 85.0014 14.2889 78.9339 14.2889C72.8663 14.2889 67.9302 19.2253 67.9302 25.2928C67.9302 31.3599 72.8663 36.2963 78.9339 36.2963ZM78.9339 17.7164C83.1114 17.7164 86.5099 21.1151 86.5099 25.2926C86.5099 29.4699 83.1114 32.8683 78.9339 32.8683C74.7564 32.8683 71.3579 29.4699 71.3579 25.2926C71.3579 21.1151 74.7564 17.7164 78.9339 17.7164Z" fill="#2F2E41"/>
    <path d="M115.286 90.6348L99.6826 90.6348L97.52 84.8636C97.1879 83.9772 96.1998 83.528 95.3137 83.8602C94.4272 84.1925 93.978 85.1801 94.3102 86.0665L96.0223 90.6348L87.7507 90.6348L87.7507 79.4172C87.7507 78.4707 86.9833 77.7033 86.0368 77.7033C85.0903 77.7033 84.323 78.4707 84.323 79.4172L84.323 90.6348L79.9782 90.6348C79.9023 90.6179 79.7661 90.5393 79.7138 90.4821L77.9209 87.3766C77.8215 87.2048 77.7054 87.051 77.5792 86.9107L77.5792 79.4172C77.5792 78.4707 76.8119 77.7033 75.8654 77.7033C74.9189 77.7033 74.1515 78.4707 74.1515 79.4172L74.1515 86.9107C74.0254 87.051 73.909 87.2048 73.8099 87.3768L72.0169 90.4821C71.9644 90.5395 71.8284 90.6181 71.7525 90.6348L62.5685 90.6348L62.5685 79.4172C62.5685 78.4707 61.8011 77.7033 60.8546 77.7033C59.9081 77.7033 59.1408 78.4707 59.1408 79.4172L59.1408 90.6348L52.3596 90.6348L52.3596 79.4172C52.3596 78.4707 51.5922 77.7033 50.6457 77.7033C49.6992 77.7033 48.9318 78.4707 48.9318 79.4172L48.9318 90.6348L44.0478 90.6348C43.5708 89.8868 42.9193 89.2612 42.1506 88.8149L42.1506 79.4172C42.1506 78.4707 41.3833 77.7033 40.4368 77.7033C39.4902 77.7033 38.7229 78.4707 38.7229 79.4172L38.7229 88.0699L38.7035 88.0699C37.964 85.5908 35.6633 83.7784 32.9472 83.7784C32.6069 83.7784 32.2712 83.8108 31.9417 83.8675L31.9417 79.4172C31.9417 78.4707 31.1743 77.7033 30.2278 77.7033C29.2813 77.7033 28.5139 78.4707 28.5139 79.4172L28.5139 83.5412C27.6506 82.863 26.6212 82.3956 25.5044 82.2053C25.1721 80.27 24.0085 78.6162 22.3966 77.6224L24.1427 72.9634L61.4707 72.9634C62.4172 72.9634 63.1846 72.1961 63.1846 71.2496C63.1846 70.3031 62.4172 69.5357 61.4707 69.5357L21.3916 69.5357L21.3916 64.1155L92.1499 64.1156L92.1499 69.5357L71.2969 69.5357C70.3504 69.5357 69.583 70.3031 69.583 71.2496C69.583 72.1961 70.3504 72.9634 71.2969 72.9634L89.3997 72.9634L91.1412 77.6108C91.3992 78.2991 92.0523 78.7236 92.7463 78.7236C92.9462 78.7236 93.1494 78.6884 93.3475 78.6142C94.2339 78.2819 94.6832 77.2943 94.3509 76.4079L93.0523 72.9424C94.4718 72.7777 95.5776 71.5697 95.5776 70.1068L95.5776 63.544C95.5776 61.9689 94.2963 60.6876 92.7211 60.6876L80.6043 60.6876L80.6043 49.932C80.6043 48.3569 79.323 47.0756 77.7479 47.0756L54.6152 47.0756C53.6687 47.0756 52.9014 47.8429 52.9014 48.7895C52.9014 49.736 53.6687 50.5033 54.6152 50.5033L77.1766 50.5033L77.1766 60.6876L73.7982 60.6876L73.7982 56.7381C73.7982 55.163 72.5169 53.8817 70.9418 53.8817L42.5997 53.8817C41.0245 53.8817 39.7432 55.163 39.7432 56.7381L39.7432 60.6876L36.3648 60.6876L36.3648 50.5033L45.2461 50.5033C46.1926 50.5033 46.96 49.736 46.96 48.7895C46.96 47.8429 46.1926 47.0756 45.2461 47.0756L35.7938 47.0756C34.2186 47.0756 32.9373 48.3569 32.9373 49.932L32.9373 60.6876L27.7269 60.6876C28.3154 59.2182 28.6417 57.617 28.6417 55.9399C28.6417 48.8644 22.8854 43.1081 15.8099 43.1081C8.73433 43.1081 2.97802 48.8644 2.97801 55.9399C2.97801 63.0155 8.73432 68.7718 15.8099 68.7718C16.5441 68.7718 17.2632 68.7073 17.9638 68.588L17.9638 70.1068C17.9638 71.5695 19.0696 72.7776 20.4892 72.9424L19.1069 76.6307C19.0312 76.6281 18.9558 76.6256 18.8797 76.6256C15.2754 76.6256 12.3245 79.4782 12.1659 83.0442C9.75258 83.6783 7.8655 85.6239 7.31546 88.0697L5.52847 88.0697C2.48007 88.0699 -8.29501e-06 90.55 -8.82796e-06 93.5982C-9.36092e-06 96.6463 2.48007 99.1266 5.52847 99.1266L39.3837 99.1266C42.2758 99.1266 44.6547 96.894 44.8914 94.0623L71.7754 94.0623C73.0107 94.0623 74.3558 93.2858 74.9735 92.2159L75.8649 90.6718L76.7563 92.2159C77.374 93.2858 78.7191 94.0623 79.9544 94.0623L115.286 94.0623C116.233 94.0623 117 93.2949 117 92.3484C117 91.4019 116.233 90.6348 115.286 90.6348ZM43.1709 57.3099L70.3705 57.3099L70.3705 60.688L43.1709 60.688L43.1709 57.3099ZM17.9638 63.5445L17.9638 65.0913C17.2717 65.2549 16.5514 65.3445 15.8099 65.3445C10.6244 65.3445 6.40575 61.1259 6.40575 55.9404C6.40575 50.7549 10.6244 46.5363 15.8099 46.5363C20.9953 46.5363 25.214 50.7549 25.214 55.9404C25.214 57.6716 24.7423 59.2939 23.9222 60.688L20.8203 60.688C19.2454 60.688 17.9638 61.9696 17.9638 63.5445ZM39.3837 95.6991L5.52847 95.6991C4.37012 95.6991 3.42773 94.7567 3.42773 93.5984C3.42773 92.44 4.37013 91.4979 5.52847 91.4979L8.87851 91.4979C9.34765 91.4979 9.79623 91.3057 10.1198 90.9659C10.4434 90.6261 10.6134 90.1686 10.5906 89.7001L10.5906 89.5454C10.5906 87.739 12.0425 86.2676 13.8458 86.2528C13.8899 86.2557 14.168 86.2669 14.168 86.2669C15.4936 86.3878 16.6464 87.3142 17.0301 88.6037C17.3 89.5107 18.2543 90.0274 19.1617 89.7575C20.0689 89.4876 20.5854 88.5333 20.3155 87.6259C19.6432 85.3666 17.8151 83.6557 15.6017 83.0581C15.7484 81.3771 17.1615 80.0534 18.88 80.0534C20.6957 80.0534 22.1729 81.5305 22.1729 83.3463C22.1729 83.4546 22.1672 83.5659 22.156 83.6769C22.1045 84.1886 22.2855 84.6963 22.6489 85.0599C23.0122 85.4237 23.5195 85.6058 24.0314 85.554C24.144 85.5428 24.2558 85.5371 24.3634 85.5371C25.8869 85.5371 27.2011 86.5722 27.559 88.0546C27.7237 88.7367 28.2877 89.2495 28.9824 89.3487C29.6785 89.449 30.3622 89.114 30.7114 88.5055C31.1716 87.7041 32.0278 87.2061 32.9462 87.2061C34.3676 87.2061 35.5239 88.3626 35.5239 89.7838C35.5239 90.7303 36.2913 91.4976 37.2378 91.4976L39.3835 91.4976C40.5419 91.4976 41.4845 92.4401 41.4845 93.5982C41.4847 94.7565 40.5421 95.6991 39.3837 95.6991Z" fill="#2F2E41"/>
    <path d="M98.3165 99.2834L50.9192 99.2834C49.9727 99.2834 49.2053 100.051 49.2053 100.997C49.2053 101.944 49.9727 102.711 50.9192 102.711L98.3165 102.711C99.2631 102.711 100.03 101.944 100.03 100.997C100.03 100.051 99.2631 99.2834 98.3165 99.2834Z" fill="#2F2E41"/>
    <path d="M98.9527 79.8063C98.9527 82.9235 101.489 85.4594 104.606 85.4594C107.723 85.4594 110.259 82.9233 110.259 79.8063C110.259 76.6892 107.723 74.1533 104.606 74.1533C101.489 74.1533 98.9527 76.6894 98.9527 79.8063ZM106.831 79.8063C106.831 81.0335 105.833 82.0316 104.606 82.0316C103.379 82.0316 102.381 81.0332 102.381 79.8063C102.381 78.5794 103.379 77.5811 104.606 77.5811C105.833 77.5811 106.831 78.5792 106.831 79.8063Z" fill="#2F2E41"/>
</svg>
