<svg width="21" height="21" viewBox="0 0 21 21" fill="none" xmlns="http://www.w3.org/2000/svg">
    <g clip-path="url(#clip0)">
        <path d="M20.3955 15.7427L17.3603 12.7062C16.9526 12.3007 16.4068 12.0772 15.8235 12.0772C15.2166 12.0772 14.6434 12.3162 14.2101 12.7498L13.0286 13.931C12.1106 13.4207 10.8903 12.7189 9.62344 11.452C8.35804 10.1862 7.6561 8.96949 7.1432 8.04646L8.32581 6.86471C9.20506 5.98364 9.22304 4.57012 8.36603 3.71389L5.33144 0.679213C4.92496 0.271601 4.37913 0.0471191 3.79438 0.0471191C3.20095 0.0471191 2.63957 0.275597 2.20876 0.691462C1.94814 0.901349 0.640256 2.0559 0.152807 4.43694C-0.529674 7.76968 1.0384 10.9763 5.56522 15.5049C10.6221 20.5602 14.9391 20.9531 16.1418 20.9531C16.3921 20.9531 16.5432 20.9377 16.5835 20.933C18.9419 20.6565 19.7863 19.6092 20.4028 18.8444C21.2017 17.8533 21.1989 16.5491 20.3955 15.7427ZM19.3883 18.0265C18.8088 18.7453 18.2615 19.4241 16.4319 19.6386C16.431 19.6387 16.3309 19.6499 16.1418 19.6499C15.0657 19.6499 11.1893 19.2845 6.48669 14.5834C2.31214 10.4072 0.846929 7.5432 1.42942 4.69826C1.85458 2.62145 2.98333 1.73873 3.0272 1.70519L3.06612 1.67644L3.10026 1.64221C3.28869 1.45395 3.53515 1.35023 3.7943 1.35023C4.03025 1.35023 4.24847 1.43866 4.40936 1.60007L7.44465 4.63545C7.79388 4.98433 7.77529 5.57142 7.40373 5.94376L6.06631 7.28006L6.04433 7.30308C5.69579 7.68697 5.7368 8.20578 5.92879 8.54364C6.48278 9.54338 7.24162 10.9126 8.7018 12.3732C10.1571 13.8285 11.5243 14.5868 12.5213 15.1397C12.6211 15.1957 12.8272 15.2897 13.0851 15.2897C13.3897 15.2897 13.6693 15.1608 13.8764 14.9258L15.1315 13.671C15.3189 13.4835 15.5646 13.3802 15.8234 13.3802C16.0598 13.3802 16.2792 13.4689 16.4397 13.6286L19.4729 16.6631C19.8582 17.0498 19.6992 17.641 19.3883 18.0265Z" fill="#2F2E41"/>
        <path d="M12.7224 3.23981C13.842 3.36864 15.1602 4.04678 16.0807 4.96738C17.0098 5.8965 17.6896 7.2281 17.8124 8.3598C17.8486 8.69366 18.1309 8.94108 18.4593 8.94108C18.4828 8.94108 18.5066 8.93977 18.5304 8.93725C18.8881 8.89842 19.1466 8.57699 19.1078 8.21924C18.9526 6.78869 18.1457 5.18961 17.0022 4.046C15.8693 2.91308 14.2866 2.10819 12.8714 1.9453C12.5141 1.90387 12.1908 2.16067 12.1497 2.51806C12.1085 2.87546 12.3649 3.19863 12.7224 3.23981Z" fill="#2F2E41"/>
        <path d="M12.1137 5.96918C12.7192 6.03894 13.5571 6.48808 14.1061 7.03703C14.6597 7.59077 15.1098 8.43674 15.176 9.04877C15.2123 9.38271 15.4946 9.63013 15.823 9.63013C15.8464 9.63013 15.8702 9.62882 15.894 9.6263C16.2517 9.58747 16.5103 9.26604 16.4715 8.90829C16.3582 7.86338 15.6645 6.75269 15.0274 6.11556C14.396 5.48408 13.2962 4.79369 12.2626 4.67459C11.9048 4.63297 11.582 4.88986 11.5408 5.24726C11.4997 5.60474 11.7562 5.928 12.1137 5.96918Z" fill="#2F2E41"/>
    </g>
    <defs>
        <clipPath id="clip0">
            <rect width="21" height="21" fill="white"/>
        </clipPath>
    </defs>
</svg>
