<svg width="21" height="21" viewBox="0 0 21 21" fill="none" xmlns="http://www.w3.org/2000/svg">
    <path d="M18.346 2.80859H2.65399C1.19061 2.80859 0 3.9992 0 5.46258V15.537C0 17.0004 1.19061 18.191 2.65399 18.191H18.346C19.8094 18.191 21 17.0004 21 15.537V5.46258C21 3.9992 19.8094 2.80859 18.346 2.80859ZM17.9314 4.52055L10.5 10.2612L3.06862 4.52055H17.9314ZM18.346 16.4791H2.65399C2.13458 16.4791 1.71196 16.0565 1.71196 15.5371V5.63583L9.97671 12.0203C10.1308 12.1393 10.3155 12.1988 10.5 12.1988C10.6845 12.1988 10.8692 12.1393 11.0233 12.0203L19.288 5.63583V15.537C19.288 16.0565 18.8654 16.4791 18.346 16.4791Z" fill="#1D1D1B"/>
</svg>
