<svg width="116" height="116" viewBox="0 0 116 116" fill="none" xmlns="http://www.w3.org/2000/svg">
    <path d="M106.942 64.4389C106.53 63.8119 105.999 63.2722 105.378 62.8507C104.757 62.4291 104.06 62.134 103.325 61.9821C102.59 61.8302 101.833 61.8245 101.096 61.9654C100.359 62.1063 99.6573 62.3909 99.0305 62.8031L98.5524 63.1158L104.826 72.6654L105.304 72.3528C105.932 71.9411 106.472 71.4098 106.894 70.7891C107.316 70.1684 107.612 69.4706 107.764 68.7355C107.916 68.0005 107.922 67.2426 107.781 66.5054C107.64 65.7681 107.355 65.0659 106.942 64.4389Z" fill="#B1E8FF"/>
    <path d="M76.0888 13.1406H14.9169C14.0306 13.1318 13.1515 13.2991 12.3304 13.6328C11.5093 13.9665 10.7626 14.4599 10.1337 15.0843C9.50483 15.7088 9.00618 16.452 8.66672 17.2707C8.32726 18.0894 8.15375 18.9673 8.15625 19.8536V101.643C8.15625 105.395 11.1627 108.523 14.9169 108.523H76.0888C77.9036 108.505 79.6382 107.773 80.9171 106.485C82.196 105.197 82.9162 103.458 82.9219 101.643V19.8536C82.9219 16.0995 79.8406 13.1406 76.0888 13.1406ZM23.5829 26.4602C22.8386 26.4602 22.111 26.2395 21.4922 25.826C20.8733 25.4125 20.391 24.8247 20.1061 24.1371C19.8213 23.4495 19.7468 22.6928 19.892 21.9628C20.0372 21.2328 20.3956 20.5623 20.9219 20.036C21.4482 19.5097 22.1187 19.1513 22.8487 19.0061C23.5787 18.8609 24.3354 18.9354 25.023 19.2202C25.7106 19.5051 26.2984 19.9874 26.7119 20.6063C27.1254 21.2251 27.3461 21.9527 27.3461 22.697C27.3462 23.1912 27.2489 23.6806 27.0598 24.1372C26.8707 24.5938 26.5935 25.0087 26.244 25.3581C25.8946 25.7076 25.4797 25.9848 25.0231 26.1739C24.5665 26.363 24.0771 26.4603 23.5829 26.4602ZM37.7476 26.4602C37.0033 26.4602 36.2757 26.2395 35.6569 25.826C35.038 25.4125 34.5557 24.8247 34.2708 24.1371C33.986 23.4495 33.9115 22.6928 34.0567 21.9628C34.2019 21.2328 34.5603 20.5623 35.0866 20.036C35.6129 19.5097 36.2834 19.1513 37.0134 19.0061C37.7434 18.8609 38.5001 18.9354 39.1877 19.2202C39.8753 19.5051 40.4631 19.9874 40.8766 20.6063C41.2901 21.2251 41.5108 21.9527 41.5108 22.697C41.5108 23.1912 41.4135 23.6806 41.2244 24.1372C41.0354 24.5938 40.7582 25.0087 40.4087 25.3581C40.0592 25.7076 39.6444 25.9848 39.1878 26.1739C38.7312 26.363 38.2418 26.4603 37.7476 26.4602ZM51.9145 26.4602C51.1702 26.4602 50.4427 26.2395 49.8238 25.826C49.205 25.4125 48.7226 24.8247 48.4378 24.1371C48.153 23.4495 48.0784 22.6928 48.2236 21.9628C48.3688 21.2328 48.7273 20.5623 49.2535 20.036C49.7798 19.5097 50.4504 19.1513 51.1804 19.0061C51.9104 18.8609 52.667 18.9354 53.3546 19.2202C54.0423 19.5051 54.63 19.9874 55.0435 20.6063C55.457 21.2251 55.6777 21.9527 55.6777 22.697C55.678 23.1913 55.5809 23.6808 55.3919 24.1375C55.2029 24.5942 54.9257 25.0091 54.5762 25.3586C54.2267 25.7081 53.8117 25.9853 53.355 26.1743C52.8983 26.3634 52.4088 26.4605 51.9145 26.4602ZM66.0792 26.4602C65.3349 26.4602 64.6073 26.2395 63.9885 25.826C63.3696 25.4125 62.8873 24.8247 62.6025 24.1371C62.3176 23.4495 62.2431 22.6928 62.3883 21.9628C62.5335 21.2328 62.8919 20.5623 63.4182 20.036C63.9445 19.5097 64.6151 19.1513 65.3451 19.0061C66.075 18.8609 66.8317 18.9354 67.5193 19.2202C68.207 19.5051 68.7947 19.9874 69.2082 20.6063C69.6217 21.2251 69.8424 21.9527 69.8424 22.697C69.8425 23.1912 69.7452 23.6806 69.5561 24.1372C69.367 24.5938 69.0898 25.0087 68.7403 25.3581C68.3909 25.7076 67.976 25.9848 67.5194 26.1739C67.0628 26.363 66.5734 26.4603 66.0792 26.4602Z" fill="#CAE6EE"/>
    <path d="M82.8856 87.0748L68.3086 96.647L65.1707 91.8734L101.69 67.8917L104.826 72.6654L82.8856 87.0748Z" fill="#B8B0C8"/>
    <path d="M101.69 67.8918L65.1707 91.8734L62.0328 87.0975L82.8856 73.404L98.5524 63.1158L101.69 67.8918Z" fill="#B8B0C8"/>
    <path d="M62.0328 87.0974L61.8878 87.3693L56.8196 96.9483L68.3086 96.647L62.0328 87.0974Z" fill="#C79A83"/>
    <path d="M24.5141 36.907C26.0701 36.9068 27.5912 37.368 28.8851 38.2322C30.179 39.0965 31.1876 40.3251 31.7833 41.7626C32.3789 43.2001 32.535 44.7819 32.2316 46.3081C31.9283 47.8343 31.1792 49.2362 30.0791 50.3367C28.979 51.4371 27.5772 52.1866 26.0512 52.4904C24.5251 52.7942 22.9432 52.6386 21.5055 52.0433C20.0679 51.4481 18.839 50.4399 17.9743 49.1462C17.1097 47.8525 16.648 46.3315 16.6478 44.7755C16.6478 42.689 17.4764 40.6879 18.9516 39.2124C20.4267 37.7368 22.4276 36.9075 24.5141 36.907Z" fill="#EADBD6"/>
    <path d="M24.5141 59.5632C26.0701 59.563 27.5912 60.0242 28.8851 60.8885C30.179 61.7528 31.1876 62.9814 31.7833 64.4189C32.3789 65.8563 32.535 67.4382 32.2316 68.9644C31.9283 70.4905 31.1792 71.8925 30.0791 72.9929C28.979 74.0933 27.5772 74.8428 26.0512 75.1466C24.5251 75.4504 22.9432 75.2948 21.5055 74.6996C20.0679 74.1043 18.839 73.0961 17.9743 71.8024C17.1097 70.5088 16.648 68.9878 16.6478 67.4318C16.6478 65.3453 17.4764 63.3442 18.9516 61.8686C20.4267 60.393 22.4276 59.5638 24.5141 59.5632Z" fill="#EADBD6"/>
    <path d="M24.5141 82.2195C26.0701 82.2193 27.5912 82.6805 28.8851 83.5448C30.179 84.409 31.1876 85.6376 31.7833 87.0751C32.3789 88.5126 32.535 90.0944 32.2316 91.6206C31.9283 93.1468 31.1792 94.5487 30.0791 95.6492C28.979 96.7496 27.5772 97.4991 26.0512 97.8029C24.5251 98.1067 22.9432 97.9511 21.5055 97.3558C20.0679 96.7606 18.839 95.7524 17.9743 94.4587C17.1097 93.165 16.648 91.644 16.6478 90.088C16.6478 88.0015 17.4764 86.0004 18.9516 84.5249C20.4267 83.0493 22.4276 82.22 24.5141 82.2195Z" fill="#EADBD6"/>
    <path d="M14.9531 101.643V19.8536C14.9506 18.9673 15.1241 18.0894 15.4636 17.2707C15.8031 16.452 16.3017 15.7088 16.9306 15.0843C17.5595 14.4599 18.3062 13.9665 19.1273 13.6328C19.9483 13.2991 20.8275 13.1318 21.7137 13.1406H14.9169C14.0306 13.1318 13.1515 13.2991 12.3304 13.6328C11.5093 13.9665 10.7626 14.4599 10.1337 15.0843C9.50483 15.7088 9.00618 16.452 8.66672 17.2707C8.32726 18.0894 8.15375 18.9673 8.15625 19.8536V101.643C8.15625 105.395 11.1627 108.523 14.9169 108.523H21.7137C17.9596 108.523 14.9531 105.395 14.9531 101.643Z" fill="#AAC8CE"/>
    <path d="M40.3734 43.5H74.3578C74.7183 43.5 75.0641 43.3568 75.319 43.1018C75.574 42.8469 75.7172 42.5012 75.7172 42.1406C75.7172 41.7801 75.574 41.4343 75.319 41.1794C75.0641 40.9245 74.7183 40.7812 74.3578 40.7812H40.3734C40.0129 40.7812 39.6672 40.9245 39.4122 41.1794C39.1573 41.4343 39.0141 41.7801 39.0141 42.1406C39.0141 42.5012 39.1573 42.8469 39.4122 43.1018C39.6672 43.3568 40.0129 43.5 40.3734 43.5Z" fill="#2F2E41"/>
    <path d="M26.6469 41.8889L23.6266 44.7764L22.4016 43.5514C22.276 43.4224 22.126 43.3196 21.9604 43.249C21.7947 43.1784 21.6167 43.1414 21.4366 43.1402C21.2566 43.139 21.078 43.1736 20.9115 43.2419C20.7449 43.3103 20.5935 43.4111 20.4662 43.5384C20.3389 43.6657 20.2381 43.8171 20.1698 43.9837C20.1015 44.1503 20.0669 44.3288 20.0681 44.5089C20.0694 44.6889 20.1064 44.8669 20.177 45.0326C20.2476 45.1982 20.3504 45.3482 20.4794 45.4738L22.6442 47.6388C22.8954 47.89 23.235 48.0329 23.5902 48.0369C23.9454 48.0408 24.2881 47.9056 24.5449 47.6601L28.5258 43.8539C28.6561 43.7308 28.7607 43.5832 28.8337 43.4195C28.9067 43.2559 28.9467 43.0794 28.9512 42.9003C28.9558 42.7211 28.9249 42.5428 28.8603 42.3757C28.7957 42.2085 28.6986 42.0558 28.5748 41.9263C28.4509 41.7967 28.3027 41.693 28.1386 41.621C27.9745 41.5489 27.7978 41.5101 27.6186 41.5066C27.4395 41.5031 27.2614 41.5351 27.0946 41.6007C26.9278 41.6663 26.7757 41.7643 26.6469 41.8889Z" fill="#2F2E41"/>
    <path d="M24.5141 35.5476C22.6893 35.5476 20.9055 36.0887 19.3883 37.1025C17.8711 38.1163 16.6885 39.5572 15.9903 41.2431C15.292 42.9289 15.1093 44.784 15.4653 46.5737C15.8213 48.3634 16.7 50.0073 17.9903 51.2976C19.2806 52.5879 20.9246 53.4665 22.7143 53.8225C24.504 54.1785 26.359 53.9957 28.0449 53.2974C29.7307 52.5991 31.1716 51.4165 32.1854 49.8993C33.1991 48.382 33.7402 46.5982 33.7401 44.7735C33.7374 42.3274 32.7645 39.9824 31.0348 38.2528C29.3052 36.5232 26.9601 35.5503 24.5141 35.5476ZM24.5141 51.2808C23.227 51.2808 21.9689 50.8991 20.8988 50.1841C19.8287 49.4691 18.9946 48.4528 18.5021 47.2637C18.0095 46.0746 17.8807 44.7662 18.1318 43.5039C18.3829 42.2416 19.0026 41.0821 19.9127 40.1721C20.8228 39.262 21.9822 38.6423 23.2445 38.3912C24.5068 38.1401 25.8153 38.2689 27.0043 38.7615C28.1934 39.254 29.2097 40.0881 29.9247 41.1582C30.6397 42.2283 31.0214 43.4864 31.0214 44.7735C31.0197 46.4989 30.3336 48.1532 29.1136 49.3733C27.8937 50.5934 26.2395 51.2798 24.5141 51.2817V51.2808Z" fill="#2F2E41"/>
    <path d="M40.3734 66.1562H74.3578C74.7183 66.1562 75.0641 66.013 75.319 65.7581C75.574 65.5032 75.7172 65.1574 75.7172 64.7969C75.7172 64.4363 75.574 64.0906 75.319 63.8357C75.0641 63.5807 74.7183 63.4375 74.3578 63.4375H40.3734C40.0129 63.4375 39.6672 63.5807 39.4122 63.8357C39.1573 64.0906 39.0141 64.4363 39.0141 64.7969C39.0141 65.1574 39.1573 65.5032 39.4122 65.7581C39.6672 66.013 40.0129 66.1562 40.3734 66.1562Z" fill="#2F2E41"/>
    <path d="M26.6469 64.5451L23.6266 67.4327L22.4016 66.2077C22.276 66.0786 22.126 65.9758 21.9604 65.9052C21.7947 65.8346 21.6167 65.7977 21.4366 65.7965C21.2566 65.7953 21.078 65.8298 20.9115 65.8982C20.7449 65.9665 20.5935 66.0673 20.4662 66.1946C20.3389 66.322 20.2381 66.4733 20.1698 66.6399C20.1015 66.8065 20.0669 66.985 20.0681 67.1651C20.0694 67.3452 20.1064 67.5232 20.177 67.6888C20.2476 67.8545 20.3504 68.0045 20.4794 68.13L22.6442 70.2951C22.8954 70.5463 23.235 70.6891 23.5902 70.6931C23.9454 70.6971 24.2881 70.5619 24.5449 70.3164L28.5258 66.5101C28.6561 66.3871 28.7607 66.2394 28.8337 66.0758C28.9067 65.9121 28.9467 65.7356 28.9512 65.5565C28.9558 65.3774 28.9249 65.1991 28.8603 65.0319C28.7957 64.8648 28.6986 64.712 28.5748 64.5825C28.4509 64.453 28.3027 64.3492 28.1386 64.2772C27.9745 64.2052 27.7978 64.1663 27.6186 64.1629C27.4395 64.1594 27.2614 64.1914 27.0946 64.257C26.9278 64.3226 26.7757 64.4205 26.6469 64.5451Z" fill="#2F2E41"/>
    <path d="M24.5141 58.2039C22.6893 58.2039 20.9055 58.745 19.3883 59.7588C17.8711 60.7725 16.6885 62.2135 15.9903 63.8993C15.292 65.5852 15.1093 67.4403 15.4653 69.2299C15.8213 71.0196 16.7 72.6636 17.9903 73.9538C19.2806 75.2441 20.9246 76.1228 22.7143 76.4788C24.504 76.8347 26.359 76.652 28.0449 75.9537C29.7307 75.2553 31.1716 74.0728 32.1854 72.5555C33.1991 71.0383 33.7402 69.2545 33.7401 67.4297C33.7374 64.9837 32.7645 62.6386 31.0348 60.909C29.3052 59.1794 26.9601 58.2066 24.5141 58.2039ZM24.5141 73.937C23.227 73.937 21.9689 73.5554 20.8988 72.8404C19.8287 72.1253 18.9946 71.109 18.5021 69.92C18.0095 68.7309 17.8807 67.4225 18.1318 66.1602C18.3829 64.8979 19.0026 63.7384 19.9127 62.8283C20.8228 61.9183 21.9822 61.2985 23.2445 61.0474C24.5068 60.7963 25.8153 60.9252 27.0043 61.4177C28.1934 61.9102 29.2097 62.7443 29.9247 63.8144C30.6397 64.8846 31.0214 66.1427 31.0214 67.4297C31.0197 69.1551 30.3336 70.8094 29.1136 72.0296C27.8937 73.2497 26.2395 73.936 24.5141 73.9379V73.937Z" fill="#2F2E41"/>
    <path d="M26.6469 87.2014L23.6266 90.0889L22.4016 88.8639C22.276 88.7349 22.126 88.6321 21.9604 88.5615C21.7947 88.4909 21.6167 88.4539 21.4366 88.4527C21.2566 88.4515 21.078 88.4861 20.9115 88.5544C20.7449 88.6228 20.5935 88.7236 20.4662 88.8509C20.3389 88.9782 20.2381 89.1296 20.1698 89.2962C20.1015 89.4628 20.0669 89.6413 20.0681 89.8214C20.0694 90.0014 20.1064 90.1794 20.177 90.3451C20.2476 90.5107 20.3504 90.6607 20.4794 90.7863L22.6442 92.9513C22.8954 93.2025 23.235 93.3454 23.5902 93.3494C23.9454 93.3534 24.2881 93.2181 24.5449 92.9726L28.5258 89.1664C28.6561 89.0433 28.7607 88.8957 28.8337 88.732C28.9067 88.5684 28.9467 88.3919 28.9512 88.2128C28.9558 88.0336 28.9249 87.8553 28.8603 87.6882C28.7957 87.521 28.6986 87.3683 28.5748 87.2388C28.4509 87.1092 28.3027 87.0055 28.1386 86.9335C27.9745 86.8614 27.7978 86.8226 27.6186 86.8191C27.4395 86.8156 27.2614 86.8476 27.0946 86.9132C26.9278 86.9788 26.7757 87.0768 26.6469 87.2014Z" fill="#2F2E41"/>
    <path d="M24.5141 80.8601C22.6893 80.8601 20.9055 81.4012 19.3883 82.415C17.8711 83.4288 16.6885 84.8697 15.9903 86.5556C15.292 88.2414 15.1093 90.0965 15.4653 91.8862C15.8213 93.6759 16.7 95.3198 17.9903 96.6101C19.2806 97.9004 20.9246 98.7791 22.7143 99.135C24.504 99.491 26.359 99.3082 28.0449 98.6099C29.7307 97.9116 31.1716 96.729 32.1854 95.2118C33.1991 93.6945 33.7402 91.9107 33.7401 90.086C33.7374 87.6399 32.7645 85.2949 31.0348 83.5653C29.3052 81.8357 26.9601 80.8628 24.5141 80.8601ZM24.5141 96.5933C23.227 96.5933 21.9689 96.2116 20.8988 95.4966C19.8287 94.7816 18.9946 93.7653 18.5021 92.5762C18.0095 91.3871 17.8807 90.0787 18.1318 88.8164C18.3829 87.5541 19.0026 86.3947 19.9127 85.4846C20.8228 84.5745 21.9822 83.9548 23.2445 83.7037C24.5068 83.4526 25.8153 83.5814 27.0043 84.074C28.1934 84.5665 29.2097 85.4006 29.9247 86.4707C30.6397 87.5408 31.0214 88.7989 31.0214 90.086C31.0197 91.8114 30.3336 93.4657 29.1136 94.6858C27.8937 95.9059 26.2395 96.5923 24.5141 96.5942V96.5933Z" fill="#2F2E41"/>
    <path d="M40.3734 48.0312H58.4984C58.859 48.0312 59.2047 47.888 59.4597 47.6331C59.7146 47.3782 59.8578 47.0324 59.8578 46.6719C59.8578 46.3113 59.7146 45.9656 59.4597 45.7107C59.2047 45.4557 58.859 45.3125 58.4984 45.3125H40.3734C40.0129 45.3125 39.6672 45.4557 39.4122 45.7107C39.1573 45.9656 39.0141 46.3113 39.0141 46.6719C39.0141 47.0324 39.1573 47.3782 39.4122 47.6331C39.6672 47.888 40.0129 48.0312 40.3734 48.0312Z" fill="#2F2E41"/>
    <path d="M40.3734 70.6875H58.4984C58.859 70.6875 59.2047 70.5443 59.4597 70.2893C59.7146 70.0344 59.8578 69.6887 59.8578 69.3281C59.8578 68.9676 59.7146 68.6218 59.4597 68.3669C59.2047 68.112 58.859 67.9688 58.4984 67.9688H40.3734C40.0129 67.9688 39.6672 68.112 39.4122 68.3669C39.1573 68.6218 39.0141 68.9676 39.0141 69.3281C39.0141 69.6887 39.1573 70.0344 39.4122 70.2893C39.6672 70.5443 40.0129 70.6875 40.3734 70.6875Z" fill="#2F2E41"/>
    <path d="M13.3672 21.3196C13.0067 21.3196 12.6609 21.4628 12.406 21.7177C12.151 21.9727 12.0078 22.3184 12.0078 22.679V24.1063C12.0078 24.4668 12.151 24.8126 12.406 25.0675C12.6609 25.3225 13.0067 25.4657 13.3672 25.4657C13.7277 25.4657 14.0735 25.3225 14.3284 25.0675C14.5833 24.8126 14.7266 24.4668 14.7266 24.1063V22.679C14.7266 22.3184 14.5833 21.9727 14.3284 21.7177C14.0735 21.4628 13.7277 21.3196 13.3672 21.3196Z" fill="#2F2E41"/>
    <path d="M13.3672 27.0496C13.0067 27.0496 12.6609 27.1928 12.406 27.4477C12.151 27.7026 12.0078 28.0484 12.0078 28.4089V41.5496C12.0078 41.9101 12.151 42.2559 12.406 42.5108C12.6609 42.7657 13.0067 42.9089 13.3672 42.9089C13.7277 42.9089 14.0735 42.7657 14.3284 42.5108C14.5833 42.2559 14.7266 41.9101 14.7266 41.5496V28.4089C14.7266 28.0484 14.5833 27.7026 14.3284 27.4477C14.0735 27.1928 13.7277 27.0496 13.3672 27.0496Z" fill="#2F2E41"/>
    <path d="M103.6 60.6508C102.691 60.46 101.753 60.4515 100.84 60.6257C99.9272 60.7999 99.0581 61.1534 98.2828 61.6658L84.2813 70.861V19.8525C84.2813 15.3553 80.5853 11.7812 76.0878 11.7812H67.5156V7.56152C67.5156 7.20099 67.3724 6.85523 67.1175 6.6003C66.8625 6.34537 66.5168 6.20215 66.1563 6.20215C65.7957 6.20215 65.45 6.34537 65.195 6.6003C64.9401 6.85523 64.7969 7.20099 64.7969 7.56152V11.7812H53.2422V7.56152C53.2422 7.20099 53.099 6.85523 52.844 6.6003C52.5891 6.34537 52.2433 6.20215 51.8828 6.20215C51.5223 6.20215 51.1765 6.34537 50.9216 6.6003C50.6667 6.85523 50.5234 7.20099 50.5234 7.56152V11.7812H39.1953V7.56152C39.1953 7.20099 39.0521 6.85523 38.7972 6.6003C38.5422 6.34537 38.1965 6.20215 37.8359 6.20215C37.4754 6.20215 37.1296 6.34537 36.8747 6.6003C36.6198 6.85523 36.4766 7.20099 36.4766 7.56152V11.7812H24.9219V7.56152C24.9219 7.20099 24.7787 6.85523 24.5237 6.6003C24.2688 6.34537 23.923 6.20215 23.5625 6.20215C23.202 6.20215 22.8562 6.34537 22.6013 6.6003C22.3463 6.85523 22.2031 7.20099 22.2031 7.56152V11.7812H14.916C13.8517 11.7737 12.7964 11.9769 11.811 12.3792C10.8257 12.7816 9.92972 13.375 9.1749 14.1254C8.42008 14.8758 7.82132 15.7682 7.41317 16.7512C7.00502 17.7341 6.79556 18.7882 6.79688 19.8525V101.642C6.79688 106.139 10.4185 109.883 14.916 109.883H76.0878C80.5853 109.883 84.2813 106.139 84.2813 101.642V87.7839L106.051 73.4878C107.22 72.7197 108.135 71.6222 108.68 70.334C109.226 69.0457 109.377 67.6247 109.115 66.2506C108.852 64.8765 108.188 63.6111 107.207 62.6143C106.225 61.6175 104.97 60.9342 103.6 60.6508ZM66.0795 20.2941C66.5549 20.2941 67.0196 20.4351 67.4149 20.6992C67.8103 20.9634 68.1184 21.3388 68.3003 21.778C68.4822 22.2173 68.5298 22.7006 68.4371 23.1669C68.3443 23.6332 68.1154 24.0615 67.7792 24.3977C67.443 24.7339 67.0147 24.9628 66.5484 25.0556C66.0821 25.1483 65.5988 25.1007 65.1595 24.9188C64.7203 24.7368 64.3449 24.4287 64.0807 24.0334C63.8166 23.6381 63.6756 23.1734 63.6756 22.6979C63.6763 22.0606 63.9297 21.4496 64.3804 20.9989C64.8311 20.5482 65.4421 20.2948 66.0795 20.2941ZM51.9141 20.2941C52.3895 20.2942 52.8542 20.4352 53.2495 20.6993C53.6448 20.9635 53.9529 21.3389 54.1348 21.7782C54.3167 22.2174 54.3642 22.7008 54.2715 23.167C54.1787 23.6333 53.9497 24.0616 53.6135 24.3978C53.2773 24.7339 52.849 24.9629 52.3827 25.0556C51.9164 25.1483 51.4331 25.1007 50.9939 24.9188C50.5547 24.7368 50.1793 24.4287 49.9151 24.0334C49.651 23.6381 49.51 23.1734 49.51 22.6979C49.5107 22.0606 49.7643 21.4495 50.215 20.9989C50.6657 20.5482 51.2767 20.2948 51.9141 20.2941ZM37.7483 20.2941C38.2237 20.2942 38.6884 20.4353 39.0836 20.6996C39.4788 20.9638 39.7868 21.3392 39.9686 21.7785C40.1505 22.2178 40.198 22.7011 40.1051 23.1673C40.0123 23.6336 39.7833 24.0618 39.4471 24.3979C39.1109 24.7341 38.6826 24.9629 38.2163 25.0556C37.75 25.1483 37.2667 25.1007 36.8275 24.9187C36.3883 24.7368 36.0129 24.4287 35.7488 24.0334C35.4847 23.6381 35.3438 23.1733 35.3438 22.6979C35.3445 22.0605 35.5981 21.4494 36.0489 20.9987C36.4996 20.5481 37.1108 20.2946 37.7483 20.2941ZM23.5829 20.2941C24.0583 20.2942 24.5231 20.4352 24.9183 20.6993C25.3136 20.9635 25.6217 21.3389 25.8036 21.7782C25.9855 22.2174 26.0331 22.7008 25.9403 23.167C25.8475 23.6333 25.6185 24.0616 25.2824 24.3978C24.9462 24.7339 24.5178 24.9629 24.0515 25.0556C23.5853 25.1483 23.1019 25.1007 22.6627 24.9188C22.2235 24.7368 21.8481 24.4287 21.5839 24.0334C21.3198 23.6381 21.1788 23.1734 21.1788 22.6979C21.1796 22.0606 21.4331 21.4495 21.8838 20.9989C22.3345 20.5482 22.9455 20.2948 23.5829 20.2941ZM81.5625 101.642C81.5557 103.096 80.9783 104.489 79.9544 105.522C78.9305 106.555 77.542 107.145 76.0878 107.164H14.916C11.9172 107.164 9.51563 104.64 9.51563 101.642V19.8525C9.51393 19.1451 9.65281 18.4444 9.9242 17.7911C10.1956 17.1378 10.5941 16.545 11.0965 16.047C11.5989 15.549 12.1953 15.1558 12.851 14.8902C13.5067 14.6247 14.2086 14.492 14.916 14.5H22.2031V17.7598C20.1641 18.357 18.4501 20.344 18.4501 22.6988C18.4501 23.3714 18.5826 24.0374 18.84 24.6587C19.0973 25.2801 19.4746 25.8447 19.9502 26.3203C20.4257 26.7958 20.9903 27.1731 21.6117 27.4304C22.233 27.6878 22.899 27.8203 23.5716 27.8203C24.2441 27.8203 24.9101 27.6878 25.5315 27.4304C26.1528 27.1731 26.7174 26.7958 27.193 26.3203C27.6685 25.8447 28.0458 25.2801 28.3032 24.6587C28.5605 24.0374 28.693 23.3714 28.693 22.6988C28.7091 21.572 28.3461 20.4724 27.6622 19.5767C26.9783 18.681 26.0132 18.0411 24.9219 17.7598V14.5H36.4766V17.7598C35.3815 18.0394 34.4117 18.6778 33.7218 19.573C33.0319 20.4682 32.6617 21.5687 32.6703 22.6988C32.6703 24.0589 33.2106 25.3632 34.1723 26.3249C35.134 27.2866 36.4383 27.8269 37.7983 27.8269C39.1584 27.8269 40.4627 27.2866 41.4244 26.3249C42.3861 25.3632 42.9263 24.0589 42.9263 22.6988C42.907 21.5867 42.5354 20.5094 41.865 19.6219C41.1945 18.7343 40.2598 18.0824 39.1953 17.7598V14.5H50.5234V17.7598C48.4844 18.357 46.7759 20.344 46.7759 22.6988C46.7759 24.0568 47.3153 25.3592 48.2756 26.3195C49.2358 27.2797 50.5382 27.8192 51.8962 27.8192C53.2542 27.8192 54.5565 27.2797 55.5168 26.3195C56.477 25.3592 57.0165 24.0568 57.0165 22.6988C57.0318 21.5717 56.6681 20.4721 55.9837 19.5765C55.2992 18.6808 54.3338 18.041 53.2422 17.7598V14.5H64.7969V17.7598C63.7022 18.0395 62.7329 18.678 62.0438 19.5733C61.3547 20.4686 60.9856 21.5691 60.9954 22.6988C60.9954 24.0587 61.5356 25.3629 62.4971 26.3244C63.4587 27.286 64.7629 27.8262 66.1227 27.8262C67.4826 27.8262 68.7867 27.286 69.7483 26.3244C70.7099 25.3629 71.2501 24.0587 71.2501 22.6988C71.2501 20.3449 69.5547 18.3579 67.5156 17.7598V14.5H76.0878C79.0859 14.5 81.5625 16.8544 81.5625 19.8525V72.6464L76.4565 75.9995C76.2996 76.1026 76.1658 76.237 76.0635 76.3943C75.9612 76.5517 75.8925 76.7285 75.8619 76.9137C75.8313 77.0988 75.8393 77.2883 75.8855 77.4702C75.9318 77.6521 76.0151 77.8225 76.1304 77.9706C76.3404 78.2399 76.644 78.4204 76.9809 78.4761C77.3178 78.5318 77.6634 78.4587 77.9488 78.2712L98.1623 64.9972L99.8064 67.4998L65.5599 89.9906L63.9153 87.4878L70.3497 83.2631C70.6511 83.0652 70.8615 82.7557 70.9347 82.4026C71.0078 82.0496 70.9377 81.6819 70.7398 81.3806C70.5419 81.0792 70.2324 80.8688 69.8794 80.7956C69.5263 80.7225 69.1587 80.7925 68.8573 80.9904L61.2926 85.9578C61.2788 85.9671 61.2661 85.9787 61.2521 85.9884C61.2176 86.0129 61.1841 86.0373 61.151 86.065C61.1402 86.074 61.1306 86.0845 61.1204 86.094H40.3734C40.0129 86.094 39.6671 86.2372 39.4122 86.4921C39.1573 86.7471 39.0141 87.0928 39.0141 87.4534C39.0141 87.8139 39.1573 88.1596 39.4122 88.4146C39.6671 88.6695 40.0129 88.8127 40.3734 88.8127H59.5882L58.6255 90.6316C58.5836 90.6277 58.5415 90.6252 58.4984 90.6252H40.3734C40.0129 90.6252 39.6671 90.7684 39.4122 91.0234C39.1573 91.2783 39.0141 91.6241 39.0141 91.9846C39.0141 92.3451 39.1573 92.6909 39.4122 92.9458C39.6671 93.2008 40.0129 93.344 40.3734 93.344H57.19L55.6184 96.3131C55.5088 96.5202 55.4545 96.7521 55.461 96.9863C55.4674 97.2206 55.5343 97.4492 55.6551 97.65C55.7759 97.8507 55.9466 98.0169 56.1505 98.1322C56.3545 98.2476 56.5848 98.3083 56.8192 98.3084H56.855L68.3433 98.0073C68.3711 98.0073 68.3985 98.0019 68.4262 97.9996C68.4538 97.9973 68.4853 97.9958 68.5148 97.9912C68.5508 97.9858 68.5857 97.9765 68.6206 97.9686C68.6464 97.9624 68.6725 97.9582 68.6983 97.9504C68.7576 97.9326 68.8157 97.9108 68.8721 97.885C68.8859 97.8789 68.8988 97.8702 68.9124 97.8623C68.9564 97.8409 68.9992 97.8172 69.0406 97.7912C69.0451 97.7882 69.0499 97.7866 69.054 97.7837L81.5625 89.5694V101.642ZM65.8302 95.3529L59.1088 95.5289L62.1588 89.7656L65.8302 95.3529ZM68.6974 94.7654L68.5929 94.6068L67.0523 92.2633L101.299 69.7735L102.943 72.2759L68.6974 94.7654ZM105.177 70.7226L100.474 63.5657C101.054 63.3221 101.679 63.2057 102.307 63.2247C102.935 63.2436 103.552 63.3973 104.116 63.6754C104.442 63.8326 104.745 64.0346 105.016 64.2756C105.474 64.6734 105.844 65.1624 106.103 65.7113C106.361 66.2603 106.503 66.857 106.518 67.4636C106.533 68.0702 106.422 68.6733 106.191 69.2344C105.96 69.7955 105.615 70.3024 105.177 70.7226Z" fill="#2F2E41"/>
</svg>
