<svg width="101" height="101" viewBox="0 0 101 101" fill="none" xmlns="http://www.w3.org/2000/svg">
    <path d="M91.1367 99.0273H9.86328C5.50549 99.0273 1.97266 95.4945 1.97266 91.1367V9.86328C1.97266 5.50549 5.50549 1.97266 9.86328 1.97266H91.1367C95.4945 1.97266 99.0273 5.50549 99.0273 9.86328V91.1367C99.0273 95.4945 95.4945 99.0273 91.1367 99.0273Z" fill="#01A0DA"/>
    <path d="M72.9883 12.2305H28.0117C19.2959 12.2305 12.2305 19.2959 12.2305 28.0117V72.9883C12.2305 81.7041 19.2959 88.7695 28.0117 88.7695H72.9883C81.7041 88.7695 88.7695 81.7041 88.7695 72.9883V28.0117C88.7695 19.2959 81.7041 12.2305 72.9883 12.2305ZM80.0898 72.9883C80.0898 76.9042 76.9042 80.0898 72.9883 80.0898H28.0117C24.0958 80.0898 20.9102 76.9042 20.9102 72.9883V28.0117C20.9102 24.0958 24.0958 20.9102 28.0117 20.9102H72.9883C76.9042 20.9102 80.0898 24.0958 80.0898 28.0117V72.9883Z" fill="white"/>
    <path d="M65.0977 46.1602H54.8398V35.9023C54.8398 33.5056 52.8968 31.5625 50.5 31.5625C48.1032 31.5625 46.1602 33.5056 46.1602 35.9023V46.1602H35.9023C33.5056 46.1602 31.5625 48.1032 31.5625 50.5C31.5625 52.8968 33.5056 54.8398 35.9023 54.8398H46.1602V65.0977C46.1602 67.4944 48.1032 69.4375 50.5 69.4375C52.8968 69.4375 54.8398 67.4944 54.8398 65.0977V54.8398H65.0977C67.4944 54.8398 69.4375 52.8968 69.4375 50.5C69.4375 48.1032 67.4944 46.1602 65.0977 46.1602Z" fill="white"/>
    <path d="M91.1367 0H9.86328C4.42467 0 0 4.42467 0 9.86328V91.1367C0 96.5753 4.42467 101 9.86328 101H91.1367C96.5753 101 101 96.5753 101 91.1367V9.86328C101 4.42467 96.5753 0 91.1367 0ZM97.0547 91.1367C97.0547 94.3999 94.3999 97.0547 91.1367 97.0547H9.86328C6.60011 97.0547 3.94531 94.3999 3.94531 91.1367V9.86328C3.94531 6.60011 6.60011 3.94531 9.86328 3.94531H91.1367C94.3999 3.94531 97.0547 6.60011 97.0547 9.86328V91.1367Z" fill="#2F2E41"/>
    <path d="M72.9883 10.2578H28.0117C18.2222 10.2578 10.2578 18.2222 10.2578 28.0117V72.9883C10.2578 82.7778 18.2222 90.7422 28.0117 90.7422H72.9883C82.7778 90.7422 90.7422 82.7778 90.7422 72.9883V28.0117C90.7422 18.2222 82.7778 10.2578 72.9883 10.2578ZM86.7969 72.9883C86.7969 80.6023 80.6023 86.7969 72.9883 86.7969H28.0117C20.3977 86.7969 14.2031 80.6023 14.2031 72.9883V28.0117C14.2031 20.3977 20.3977 14.2031 28.0117 14.2031H72.9883C80.6023 14.2031 86.7969 20.3977 86.7969 28.0117V72.9883Z" fill="#2F2E41"/>
    <path d="M72.9883 18.9375H59.402C58.3127 18.9375 57.4294 19.8209 57.4294 20.9102C57.4294 21.9995 58.3127 22.8828 59.402 22.8828H72.9883C75.8165 22.8828 78.1172 25.1835 78.1172 28.0117V72.9883C78.1172 75.8165 75.8165 78.1172 72.9883 78.1172H28.0117C25.1837 78.1172 22.8828 75.8165 22.8828 72.9883V28.0117C22.8828 25.1835 25.1837 22.8828 28.0117 22.8828H41.6481C42.7376 22.8828 43.6208 21.9995 43.6208 20.9102C43.6208 19.8209 42.7376 18.9375 41.6481 18.9375H28.0117C23.0083 18.9375 18.9375 23.0083 18.9375 28.0117V72.9883C18.9375 77.9917 23.0083 82.0625 28.0117 82.0625H72.9883C77.9917 82.0625 82.0625 77.9917 82.0625 72.9883V28.0117C82.0625 23.0083 77.9917 18.9375 72.9883 18.9375Z" fill="#2F2E41"/>
    <path d="M29.5898 50.5C29.5898 53.9808 32.4216 56.8125 35.9023 56.8125H44.1875V65.0977C44.1875 68.5784 47.0192 71.4102 50.5 71.4102C53.9808 71.4102 56.8125 68.5784 56.8125 65.0977V56.8125H65.0977C68.5784 56.8125 71.4102 53.9808 71.4102 50.5C71.4102 47.0192 68.5784 44.1875 65.0977 44.1875H56.8125V35.9023C56.8125 32.4216 53.9808 29.5898 50.5 29.5898C47.0192 29.5898 44.1875 32.4216 44.1875 35.9023V44.1875H35.9023C32.4216 44.1875 29.5898 47.0192 29.5898 50.5ZM46.1602 48.1328C47.2497 48.1328 48.1328 47.2495 48.1328 46.1602V35.9023C48.1328 34.597 49.1947 33.5352 50.5 33.5352C51.8053 33.5352 52.8672 34.597 52.8672 35.9023V46.1602C52.8672 47.2495 53.7505 48.1328 54.8398 48.1328H65.0977C66.403 48.1328 67.4648 49.1947 67.4648 50.5C67.4648 51.8053 66.403 52.8672 65.0977 52.8672H54.8398C53.7505 52.8672 52.8672 53.7505 52.8672 54.8398V65.0977C52.8672 66.403 51.8053 67.4648 50.5 67.4648C49.1947 67.4648 48.1328 66.403 48.1328 65.0977V54.8398C48.1328 53.7505 47.2497 52.8672 46.1602 52.8672H35.9023C34.597 52.8672 33.5352 51.8053 33.5352 50.5C33.5352 49.1947 34.597 48.1328 35.9023 48.1328H46.1602Z" fill="#2F2E41"/>
    <path d="M50.5256 22.8832C51.6151 22.8832 52.4983 22 52.4983 20.9105C52.4983 19.8211 51.6151 18.9379 50.5256 18.9379C49.4362 18.9379 48.553 19.8211 48.553 20.9105C48.553 22 49.4362 22.8832 50.5256 22.8832Z" fill="#2F2E41"/>
</svg>
