<svg width="552" height="321" viewBox="0 0 552 321" fill="none" xmlns="http://www.w3.org/2000/svg">
    <g clip-path="url(#clip0)">
        <path opacity="0.1" d="M552.005 108.127C552.066 60.1739 513.629 20.5998 465.761 19.3681C446.502 18.8589 427.602 24.6436 411.922 35.8465C396.241 47.0493 384.635 63.0602 378.86 81.4551C366.636 79.4693 354.133 80.0469 342.144 83.1512C298.784 94.438 253.261 94.438 209.902 83.1512C197.912 80.0469 185.409 79.4693 173.185 81.4551C167.41 63.0602 155.804 47.0493 140.124 35.8465C124.444 24.6436 105.544 18.8589 86.2848 19.3681C38.3712 20.5998 -0.0403475 60.179 0.0403491 108.127C0.0558572 123.894 4.27264 139.371 12.256 152.964C20.2393 166.556 31.7003 177.771 45.4574 185.453C36.6981 199.503 32.0632 215.736 32.0819 232.296C32.0819 280.931 71.704 320.788 120.298 320.995C137.803 321.101 154.943 315.987 169.533 306.306C185.595 316.918 204.672 322.009 223.881 320.807C243.09 319.606 261.386 312.179 276.003 299.648C290.623 312.188 308.926 319.621 328.144 320.823C347.361 322.024 366.446 316.928 382.512 306.306C397.1 315.994 414.24 321.115 431.747 321.015C480.341 320.808 519.979 280.951 519.964 232.317C519.982 215.756 515.347 199.524 506.588 185.474C520.348 177.79 531.811 166.571 539.795 152.975C547.778 139.379 551.993 123.897 552.005 108.127Z" fill="#5D5FEF"/>
        <path d="M215.722 142.644C215.722 142.644 189.496 140.791 183.444 142.81C177.391 144.829 165.287 171.582 165.287 171.582L204.122 173.097L220.766 169.563L215.722 142.644Z" fill="#2F2E41"/>
        <path d="M345.341 321L346.854 257.252L393.255 256.389V321H345.341Z" fill="#08375E"/>
        <path d="M255.763 185.781C258.86 190.001 259.359 195.529 259.747 200.748C260.5 210.843 261.25 220.939 261.997 231.034C262.501 237.813 263.005 244.663 261.825 251.377C261.762 251.911 261.59 252.426 261.321 252.891C260.786 253.689 259.808 254.007 258.849 254.224C249.6 256.389 239.941 254.264 230.681 252.139C228.977 239.368 231.735 226.365 236.133 214.281C238.816 206.906 242.1 199.779 245.408 192.672C246.765 189.769 248.041 184.509 250.255 182.238C252.757 179.628 254.098 183.52 255.763 185.781Z" fill="#2F2E41"/>
        <path opacity="0.1" d="M255.763 185.781C258.86 190.001 259.359 195.529 259.747 200.748C260.5 210.843 261.25 220.939 261.997 231.034C262.501 237.813 263.005 244.663 261.825 251.377C261.762 251.911 261.59 252.426 261.321 252.891C260.786 253.689 259.808 254.007 258.849 254.224C249.6 256.389 239.941 254.264 230.681 252.139C228.977 239.368 231.735 226.365 236.133 214.281C238.816 206.906 242.1 199.779 245.408 192.672C246.765 189.769 248.041 184.509 250.255 182.238C252.757 179.628 254.098 183.52 255.763 185.781Z" fill="#2F2E41"/>
        <path d="M286.866 235.709C288.939 233.558 291.073 231.367 293.756 230.055C297.09 228.42 300.933 228.314 304.599 227.703C307.479 227.198 310.319 226.411 313.239 226.259C316.159 226.108 319.291 226.724 321.415 228.712C323.936 231.034 324.582 234.664 325.096 238.035C326.332 246.177 327.28 255.127 322.872 262.078C319.891 266.782 314.732 269.866 309.285 270.987C305.906 271.684 302.426 271.684 298.976 271.679L266.596 271.643C265.996 271.643 266.41 262.224 266.551 261.351C266.989 258.478 268.112 255.753 269.824 253.406C274.641 247.041 281.313 241.473 286.866 235.709Z" fill="#FBBEBE"/>
        <path opacity="0.1" d="M286.866 235.709C288.939 233.558 291.073 231.367 293.756 230.055C297.09 228.42 300.933 228.314 304.599 227.703C307.479 227.198 310.319 226.411 313.239 226.259C316.159 226.108 319.291 226.724 321.415 228.712C323.936 231.034 324.582 234.664 325.096 238.035C326.332 246.177 327.28 255.127 322.872 262.078C319.891 266.782 314.732 269.866 309.285 270.987C305.906 271.684 302.426 271.684 298.976 271.679L266.596 271.643C265.996 271.643 266.41 262.224 266.551 261.351C266.989 258.478 268.112 255.753 269.824 253.406C274.641 247.041 281.313 241.473 286.866 235.709Z" fill="#2F2E41"/>
        <path d="M157.439 117.869L151.165 126.102C146.666 132.013 141.426 138.378 134.087 139.494C133.634 141.039 135.147 142.401 136.488 143.285C155.568 155.813 177.805 163.834 200.602 164.859C203.537 164.995 207.158 164.581 208.278 161.855C209.287 159.387 207.441 156.702 205.474 154.9C202.523 152.189 198.736 149.549 198.448 145.551C198.256 142.866 199.769 140.403 200.647 137.853C201.842 134.381 201.868 130.63 201.883 126.96C201.883 125.638 201.883 124.27 201.378 123.048C200.887 122.032 200.202 121.121 199.361 120.368C192.517 113.599 183.282 110.273 174.562 106.694C171.637 105.487 166.26 101.555 163.698 104.932C162.498 106.512 162.513 109.475 161.63 111.363C160.464 113.673 159.06 115.853 157.439 117.869Z" fill="#FBBEBE"/>
        <path opacity="0.1" d="M157.439 117.869L151.165 126.102C146.666 132.013 141.426 138.378 134.087 139.494C133.634 141.039 135.147 142.401 136.488 143.285C155.568 155.813 177.805 163.834 200.602 164.859C203.537 164.995 207.158 164.581 208.278 161.855C209.287 159.387 207.441 156.702 205.474 154.9C202.523 152.189 198.736 149.549 198.448 145.551C198.256 142.866 199.769 140.403 200.647 137.853C201.842 134.381 201.868 130.63 201.883 126.96C201.883 125.638 201.883 124.27 201.378 123.048C200.887 122.032 200.202 121.121 199.361 120.368C192.517 113.599 183.282 110.273 174.562 106.694C171.637 105.487 166.26 101.555 163.698 104.932C162.498 106.512 162.513 109.475 161.63 111.363C160.464 113.673 159.06 115.853 157.439 117.869Z" fill="#2F2E41"/>
        <path d="M197.818 131.458C221.216 131.458 240.183 112.474 240.183 89.057C240.183 65.6397 221.216 46.6561 197.818 46.6561C174.42 46.6561 155.452 65.6397 155.452 89.057C155.452 112.474 174.42 131.458 197.818 131.458Z" fill="#FBBEBE"/>
        <path d="M186.651 157.469C180.599 158.766 174.325 156.934 168.389 155.122C159.845 152.512 150.64 149.423 145.657 141.998C144.497 140.266 143.524 138.262 141.713 137.238C137.805 135.022 133.28 138.6 130.017 141.685C114.1 156.727 92.6952 166.509 81.2463 185.176C74.715 195.832 72.0822 208.451 71.3963 220.939C71.0483 227.269 71.1845 233.735 73.0758 239.782C78.7649 257.954 98.7474 268.62 104.966 286.615C108.744 297.543 106.015 308.103 104.411 319.556L255.899 319.869C252.901 298.301 251.692 276.521 252.283 254.754C252.409 250.074 252.621 245.355 253.771 240.812C254.709 237.112 256.292 233.503 256.328 229.707C256.439 222.726 251.526 216.179 252.56 209.274C253.594 202.368 260.342 196.654 259.086 189.85C257.573 181.774 255.838 173.081 252.439 165.621C250.674 161.724 248.687 157.832 245.696 154.768C242.705 151.704 238.922 149.65 235.029 147.964C225.759 143.963 215.755 141.951 205.66 142.058C204.748 142.009 203.836 142.159 202.987 142.497C200.501 143.689 200.521 147.136 199.774 149.796C198.332 154.945 191.73 159.114 186.651 157.469Z" fill="#2F2E41"/>
        <path d="M243.637 214.514L242.722 214.941L249.325 229.125L250.239 228.699L243.637 214.514Z" fill="#D0D2D5"/>
        <path d="M249.988 221.572L244.502 224.13L265.162 268.513L270.648 265.955L249.988 221.572Z" fill="#01A0DA"/>
        <path d="M81.7457 252.563C79.8745 265.556 85.8158 278.221 88.6705 291.037C90.7837 300.521 91.1922 310.304 91.2225 320.021C91.51 319.93 91.4595 320.117 91.7268 320.021H195.261C211.834 305.221 228.871 290.204 250.664 285.893C253.791 285.277 256.978 284.883 259.994 283.874C271.514 279.987 277.99 268.044 283.033 256.975C284.824 253.042 286.564 248.328 284.37 244.598C283.59 243.378 282.575 242.326 281.384 241.503C278.002 239.026 274.074 237.4 269.931 236.762C265.788 236.124 261.553 236.493 257.584 237.839C243.028 242.922 235.896 259.594 222.834 267.757C216.781 271.527 209.746 273.309 203.244 276.206C193.536 280.553 185.088 287.417 175.308 291.577C162.059 297.205 147.181 297.548 133.447 301.859C138.415 296.15 140.125 288.099 139.222 280.583C138.319 273.067 135.046 266.025 131.041 259.605C127.45 253.85 122.845 248.197 116.415 246.097C105.027 242.387 93.5072 250.438 81.7457 252.563Z" fill="#FBBEBE"/>
        <path d="M158.226 108.506C162.548 105.159 163.38 102.333 164.455 96.9719C165.125 93.6151 165.196 89.7991 167.637 87.3812C172.595 82.5152 182.203 87.9516 187.458 83.4086C190.736 80.5819 190.57 75.196 193.626 72.132C195.871 69.8757 199.316 69.4113 202.498 69.27C207.299 69.0583 212.108 69.305 216.862 70.0069C220.256 70.5117 223.635 71.2386 227.065 71.2133C233.924 71.1629 240.36 68.114 246.538 65.1308C246.05 65.1025 245.578 64.9438 245.172 64.6713C244.766 64.3988 244.44 64.0224 244.228 63.5812C246.62 62.3177 249.095 61.2198 251.637 60.2951C250.971 58.2457 246.503 59.8812 246.276 57.7309C246.282 57.1719 246.489 56.6339 246.861 56.2166L251.219 49.9978C247.078 51.0578 242.897 48.1907 240.289 44.7986C237.682 41.4065 235.932 37.3431 232.87 34.3549C226.742 28.3834 217.19 28.2219 208.661 28.4339L192.86 28.8226C185.527 29.0043 178.113 29.2011 171.011 31.0486C167.783 31.8865 164.601 33.0677 161.887 35.0363C158.478 37.4844 155.966 40.9876 152.738 43.6679C148.416 47.2568 142.788 49.4173 139.57 54.0208C137.556 56.9396 136.736 60.5201 137.28 64.0254C137.91 67.9424 140.205 71.4102 141.133 75.2717C142.717 81.8994 140.125 88.9712 141.638 95.6241C142.752 100.611 146.02 104.801 149.203 108.799C149.934 109.717 150.812 110.717 151.982 110.767C152.702 110.72 153.405 110.529 154.05 110.207" fill="#2F2E41"/>
        <path d="M480.76 274.309V284.909L458.569 312.671L225.053 306.109V294.499L287.608 271.679L480.76 274.309Z" fill="#08375E"/>
        <path opacity="0.1" d="M480.76 274.308V284.909L458.569 312.671L225.053 306.109V295.509L457.055 301.061L480.76 274.308Z" fill="#2F2E41"/>
        <path d="M480.76 265.223V274.309L457.055 301.061L285.575 296.958V285.918L341.558 265.223H480.76Z" fill="#EADBD6"/>
        <path opacity="0.1" d="M480.76 265.223V274.309L457.055 301.061L285.575 296.958V285.918L457.055 290.461L480.76 265.223Z" fill="#2F2E41"/>
        <path d="M345.089 274.308L346.602 162.754L393.002 161.239V274.308H345.089Z" fill="#08375E"/>
        <path d="M174.123 231.11L179.696 234.644L176.312 228.485C177.27 227.719 178.455 227.295 179.681 227.279H179.772C180.159 227.288 180.546 227.26 180.927 227.193L182.818 228.394L182.006 226.921C183.346 226.449 184.502 225.566 185.31 224.397L188.689 226.542L186.555 222.655C188.532 220.278 191.195 218.824 194.121 218.824C197.651 218.824 200.768 220.914 202.785 224.175C203.383 225.15 204.228 225.95 205.234 226.493C206.24 227.037 207.372 227.304 208.515 227.269H208.707C212.585 227.269 215.732 231.676 215.732 237.107C215.732 242.538 212.585 246.94 208.707 246.94C207.854 246.939 207.014 246.729 206.26 246.329C204.939 245.686 203.494 245.339 202.025 245.31C200.555 245.281 199.098 245.572 197.752 246.163C196.615 246.67 195.384 246.932 194.138 246.932C192.893 246.932 191.662 246.67 190.525 246.163C189.189 245.584 187.745 245.3 186.29 245.329C184.835 245.358 183.404 245.699 182.092 246.329C181.344 246.719 180.514 246.923 179.671 246.925C175.792 246.925 172.645 242.523 172.645 237.092C172.629 235.005 173.137 232.948 174.123 231.11Z" fill="#01A0DA"/>
        <path opacity="0.1" d="M184.604 245.501C186.631 245.116 188.728 245.344 190.626 246.157C191.764 246.665 192.996 246.927 194.242 246.927C195.488 246.927 196.72 246.665 197.858 246.157C199.203 245.567 200.66 245.276 202.128 245.305C203.596 245.334 205.041 245.681 206.361 246.324C207.116 246.721 207.955 246.931 208.807 246.935C212.257 246.935 215.122 243.457 215.722 238.858C215.033 238.356 214.447 237.726 213.997 237.001C211.98 233.74 208.843 231.645 205.332 231.645C201.822 231.645 198.72 233.715 196.698 236.94C196.095 237.914 195.252 238.716 194.249 239.267C193.246 239.819 192.118 240.103 190.974 240.09H190.883C188.139 240.09 185.758 242.271 184.604 245.501Z" fill="#2F2E41"/>
        <path opacity="0.1" d="M78.5682 200.516C76.8938 207.27 75.2143 214.044 74.372 220.949C73.2395 230.275 73.6484 239.725 75.5824 248.918C76.1524 251.619 76.8534 254.32 76.8433 257.081C76.8332 259.842 76.0011 262.729 73.9584 264.577C86.7993 256.147 104.119 255.062 117.913 261.82C124.641 265.117 131.324 270.28 138.722 269.109C139.403 264.955 135.374 261.033 136.317 256.909C137.008 253.911 140.15 252.003 141.017 249.05C142.132 245.279 139.232 241.64 137.946 237.945C137.38 236.099 136.997 234.202 136.801 232.281C135.722 224.432 134.279 216.563 131.329 209.208C128.378 201.853 123.819 194.989 117.414 190.324C113.54 187.503 109.112 185.585 104.608 184.02C101.052 182.788 95.8776 180.33 92.0345 180.991C83.758 182.475 80.2628 193.712 78.5682 200.516Z" fill="#2F2E41"/>
        <path d="M77.0552 199.002C75.3807 205.755 73.7012 212.529 72.8589 219.435C71.7264 228.761 72.1354 238.211 74.0694 247.404C74.6393 250.105 75.3404 252.805 75.3303 255.566C75.3202 258.327 74.488 261.215 72.4454 263.062C85.2862 254.633 102.606 253.547 116.4 260.306C123.128 263.602 129.811 268.766 137.209 267.595C137.89 263.441 133.861 259.519 134.804 255.395C135.495 252.396 138.637 250.488 139.504 247.535C140.619 243.765 137.719 240.125 136.433 236.43C135.867 234.585 135.484 232.688 135.288 230.767C134.209 222.918 132.766 215.048 129.816 207.694C126.865 200.339 122.306 193.474 115.9 188.81C112.027 185.989 107.599 184.07 103.095 182.506C99.5393 181.274 94.3646 178.816 90.5214 179.477C82.245 180.961 78.7498 192.197 77.0552 199.002Z" fill="#2F2E41"/>
        <path d="M471.636 186.912C469.861 196.942 462.583 204.968 455.618 212.398C446.726 221.883 438.364 231.267 429.472 240.756H315.433C314.344 240.756 312.871 240.544 311.817 240.847L310.107 241.352C301.639 235.118 295.082 226.713 288.642 218.385L276.981 203.343C271.03 195.66 264.74 186.781 266.188 177.17C266.279 176.143 266.649 175.161 267.257 174.328C267.853 173.709 268.564 173.214 269.35 172.869C285.489 164.667 303.646 161.512 321.046 156.399C323.74 155.606 326.594 154.667 328.415 152.542C330.876 149.71 330.937 145.597 331.698 141.942C332.46 138.287 334.094 134.693 335.007 130.988C336.061 126.683 336.142 122.21 336.212 117.773C336.293 113.002 336.372 108.232 336.449 103.463C336.527 98.6948 336.604 93.9583 336.681 89.2538C355.342 88.8904 373.761 87.4518 392.342 88.9005C394.243 89.0519 396.301 89.2791 397.683 90.5864C398.747 91.596 399.196 93.0699 399.584 94.4934C401.062 100.137 401.733 105.911 402.167 111.736C402.797 120.176 402.938 128.702 404.345 137.036C405.122 141.644 406.363 146.354 409.318 149.978C413.419 155.026 420.026 157.085 426.209 159.064C439.023 163.142 451.632 167.786 464.036 172.996C465.897 173.778 467.798 174.606 469.22 176.024C471.974 178.74 472.312 183.091 471.636 186.912Z" fill="#EADBD6"/>
        <path opacity="0.1" d="M402.167 111.706C398.404 115.8 390.95 118.233 386.718 120.555C382.487 122.877 378.144 125.219 373.393 125.698C367.78 126.269 362.272 124.184 357.012 122.165C354.182 121.065 351.338 119.954 348.776 118.329C343.228 114.795 339.642 109.324 336.449 103.453C336.527 98.7184 336.604 93.9819 336.681 89.2438C355.342 88.8804 373.761 87.4418 392.342 88.8905C394.243 89.0419 396.301 89.269 397.683 90.5764C398.747 91.586 399.196 93.0599 399.584 94.4833C401.082 100.107 401.733 105.881 402.167 111.706Z" fill="#2F2E41"/>
        <path d="M410.544 86.7351C411.885 85.7255 413.474 85.0491 414.77 83.9689C416.094 82.7703 417.183 81.336 417.983 79.7389C420.278 75.6099 421.988 70.9609 421.62 66.2514C421.251 61.5419 418.422 56.8071 413.953 55.2877C416.763 46.6057 414.458 37.1916 412.107 28.3682C411.356 25.5263 410.594 22.6542 409.233 20.0445C406.504 14.8201 401.612 11.0898 396.624 7.98045C390.879 4.40161 384.66 1.35783 377.963 0.363425C371.028 -0.64612 363.906 0.570385 357.309 2.93777C353.779 4.2098 350.248 5.86545 347.616 8.57103C345.694 10.5447 344.332 12.9928 342.638 15.1684C339.894 18.7018 336.263 21.5235 333.993 25.3699C331.471 29.6352 330.891 34.7233 330.352 39.6499L328.556 56.0096C327.366 54.3489 324.789 54.1974 323.008 55.2423C321.228 56.2872 320.209 58.2104 319.548 60.1437C318.606 62.9543 318.298 65.9392 318.647 68.8833C318.996 71.8274 319.993 74.6575 321.566 77.1696C322.963 79.3553 324.774 81.2431 326.372 83.2875C334.502 93.6555 337.614 108.349 348.735 115.421C351.297 117.047 354.142 118.157 356.971 119.258C362.232 121.277 367.739 123.382 373.353 122.791C378.124 122.286 382.472 119.949 386.678 117.642C391.827 114.821 401.768 111.822 403.992 105.871C406.474 99.3897 404.108 91.6112 410.544 86.7351Z" fill="#EADBD6"/>
        <path opacity="0.1" d="M357.506 91.0156C358.948 89.9455 360.325 88.7492 361.954 87.987C364.207 86.9614 366.77 86.8528 369.101 87.6841C369.558 87.8965 370.051 88.0231 370.554 88.0576C371.199 87.9608 371.819 87.7396 372.379 87.4065C374.614 86.4323 377.211 87.139 379.44 88.1233C382.394 89.521 385.233 91.1515 387.929 92.9994C386.853 93.337 385.809 93.766 384.807 94.2815C383.652 94.8771 382.552 95.5888 381.397 96.1895C378.48 97.6233 375.317 98.4917 372.077 98.7487C371.208 98.8436 370.334 98.8858 369.459 98.8749C365.893 98.8042 362.474 97.5171 359.14 96.245L356.195 95.1346L354.727 94.5793C354.43 94.4632 353.486 94.2865 353.32 94.0291C352.972 93.5243 354.566 92.9388 355.02 92.6662C355.882 92.1564 356.699 91.6011 357.506 91.0156Z" fill="#2F2E41"/>
        <path opacity="0.1" d="M386.456 51.0022C386.842 50.8285 387.238 50.6768 387.641 50.5479C389.985 49.8071 392.511 49.8801 394.808 50.755C397.106 51.6299 399.041 53.2555 400.3 55.3684C399.932 55.4492 399.615 55.1362 399.332 54.8889C398.54 54.3004 397.669 53.8263 396.745 53.4806C396.135 53.1929 395.544 52.8597 394.924 52.5972C392.714 51.7388 390.29 51.5958 387.994 52.1884C385.79 52.6931 383.959 53.8036 381.942 54.7678C381.942 54.0358 383.314 53.0313 383.848 52.5922C384.643 51.948 385.52 51.4132 386.456 51.0022Z" fill="#2F2E41"/>
        <path opacity="0.1" d="M392.004 58.4274C394.193 58.4981 396.543 58.2558 398.248 56.9131C397.209 56.8121 396.195 57.1806 395.181 57.4179C393.326 57.8569 391.395 57.8725 389.533 57.4633C388.605 57.2564 387.697 56.9585 386.754 56.792C385.98 56.614 385.173 56.6507 384.418 56.898C384.661 57.5996 387.238 57.8621 387.949 57.9933C389.288 58.2381 390.643 58.3832 392.004 58.4274Z" fill="#2F2E41"/>
        <path opacity="0.1" d="M354.127 51.0022C353.741 50.8277 353.345 50.676 352.942 50.5479C350.597 49.8071 348.072 49.8801 345.774 50.755C343.477 51.6299 341.542 53.2555 340.282 55.3684C340.651 55.4492 340.968 55.1362 341.256 54.8889C342.047 54.3022 342.916 53.8298 343.838 53.4856C344.448 53.1979 345.038 52.8648 345.659 52.6023C347.871 51.7438 350.296 51.6008 352.594 52.1934C354.793 52.6982 356.628 53.8087 358.621 54.7728C358.621 54.0409 357.244 53.0364 356.709 52.5972C355.924 51.9521 355.055 51.4156 354.127 51.0022Z" fill="#2F2E41"/>
        <path opacity="0.1" d="M348.569 58.4274C346.385 58.4981 344.03 58.2558 342.33 56.9131C343.369 56.8121 344.383 57.1806 345.397 57.4179C347.251 57.8568 349.179 57.8724 351.04 57.4633C351.973 57.2563 352.881 56.9585 353.819 56.792C354.594 56.6144 355.403 56.651 356.159 56.898C355.917 57.5996 353.335 57.8621 352.629 57.9933C351.288 58.2379 349.931 58.383 348.569 58.4274Z" fill="#2F2E41"/>
        <path opacity="0.1" d="M363.392 78.7041C365.163 78.7041 366.6 78.1278 366.6 77.4169C366.6 76.706 365.163 76.1298 363.392 76.1298C361.62 76.1298 360.184 76.706 360.184 77.4169C360.184 78.1278 361.62 78.7041 363.392 78.7041Z" fill="#2F2E41"/>
        <path opacity="0.1" d="M377.519 78.7041C379.29 78.7041 380.727 78.1278 380.727 77.4169C380.727 76.706 379.29 76.1298 377.519 76.1298C375.747 76.1298 374.311 76.706 374.311 77.4169C374.311 78.1278 375.747 78.7041 377.519 78.7041Z" fill="#2F2E41"/>
        <path opacity="0.1" d="M302.365 171.537C306.446 170.105 310.746 169.401 315.07 169.457C319.296 169.513 323.477 170.295 327.679 170.734C334.306 171.431 340.983 171.274 347.646 171.118" fill="#2F2E41"/>
        <path opacity="0.1" d="M429.24 171.537C425.16 170.105 420.86 169.401 416.536 169.457C412.309 169.513 408.128 170.295 403.927 170.734C397.3 171.431 390.622 171.274 383.964 171.118" fill="#2F2E41"/>
        <path opacity="0.1" d="M355.978 194.822C357.637 199.365 363.231 201.243 365.677 205.422C366.445 206.887 367.007 208.452 367.346 210.071L368.647 215.119C368.143 212.63 367.639 210.112 367.78 207.578C367.921 205.044 368.839 202.454 370.745 200.783C371.794 199.956 372.952 199.277 374.185 198.764L381.917 195.095" fill="#2F2E41"/>
        <g opacity="0.1">
            <path opacity="0.1" d="M158.054 88.8956C155.613 91.2932 155.533 95.1093 154.872 98.4862C153.863 103.463 153.081 106.255 149.521 109.304C150.171 110.066 150.938 110.762 151.911 110.818C152.631 110.77 153.334 110.58 153.979 110.258L158.226 108.521C162.548 105.174 163.38 102.348 164.455 96.9871C165.125 93.6303 165.196 89.8143 167.637 87.3964C167.849 87.191 168.075 87.0004 168.313 86.826C164.48 86.619 160.637 86.3616 158.054 88.8956Z" fill="#2F2E41"/>
            <path opacity="0.1" d="M244.228 63.5812C246.62 62.3177 249.095 61.2198 251.637 60.2951C250.971 58.2457 246.503 59.8812 246.276 57.7309C246.282 57.1719 246.489 56.6339 246.861 56.2166L251.219 49.9978C247.078 51.0578 242.897 48.1907 240.289 44.7986C237.682 41.4065 235.932 37.3431 232.87 34.3549C226.742 28.3834 217.19 28.2219 208.661 28.4339L192.86 28.8226C185.764 28.9992 178.597 29.191 171.712 30.877C175.55 30.5337 179.424 30.4328 183.277 30.3369L199.079 29.9482C207.627 29.7362 217.18 29.8977 223.288 35.8692C226.349 38.8574 228.099 42.936 230.707 46.3129C233.314 49.6898 237.495 52.5721 241.636 51.5121L237.278 57.7309C236.907 58.1483 236.699 58.6862 236.693 59.2452C236.92 61.3955 241.389 59.75 242.054 61.8094C239.513 62.7341 237.037 63.8321 234.646 65.0955C234.859 65.5412 235.188 65.9211 235.599 66.1947C236.01 66.4684 236.488 66.6258 236.981 66.6502C233.524 68.4109 229.95 69.9289 226.283 71.1931H227.09C233.95 71.1427 240.385 68.0939 246.563 65.1106C246.073 65.0886 245.597 64.935 245.187 64.6659C244.776 64.3969 244.445 64.0222 244.228 63.5812Z" fill="#2F2E41"/>
            <path opacity="0.1" d="M192.915 70.7844C189.733 70.9257 186.288 71.3901 184.044 73.6464C180.987 76.7104 181.154 82.0963 177.875 84.923C177.734 85.0477 177.586 85.164 177.432 85.2713C181.113 85.4581 184.831 85.6802 187.458 83.4087C190.737 80.582 190.57 75.1961 193.626 72.1321C194.2 71.5631 194.859 71.0863 195.578 70.7188C194.691 70.7288 193.793 70.744 192.915 70.7844Z" fill="#2F2E41"/>
        </g>
    </g>
    <defs>
        <clipPath id="clip0">
            <rect width="552" height="321" fill="white"/>
        </clipPath>
    </defs>
</svg>
