<svg width="500" height="322" viewBox="0 0 500 322" fill="none" xmlns="http://www.w3.org/2000/svg">
    <g clip-path="url(#clip0)">
        <path d="M377.661 256.422C376.292 247.245 375.931 237.948 376.583 228.694L377.661 213.378C371.718 225.146 373.061 240.635 377.661 256.422V256.422Z" fill="#CACACA"/>
        <path d="M382.295 258.984C381.636 253.508 381.463 247.985 381.776 242.479L382.295 233.362C379.436 240.367 380.082 249.587 382.295 258.984Z" fill="#CACACA"/>
        <path d="M402.894 270.258V275.383C402.892 275.79 402.728 276.18 402.439 276.467C402.15 276.755 401.758 276.918 401.349 276.92H398.775C398.707 276.92 398.64 276.933 398.577 276.959C398.515 276.984 398.458 277.022 398.41 277.07C398.362 277.117 398.324 277.174 398.299 277.236C398.273 277.298 398.26 277.365 398.26 277.432V319.452C398.258 319.859 398.094 320.248 397.805 320.536C397.516 320.824 397.124 320.987 396.715 320.989H365.306C364.896 320.988 364.504 320.826 364.214 320.538C363.924 320.25 363.761 319.859 363.761 319.452V277.432C363.761 277.297 363.706 277.167 363.61 277.071C363.513 276.975 363.383 276.92 363.246 276.92H360.157C359.747 276.92 359.355 276.758 359.065 276.469C358.775 276.181 358.612 275.79 358.612 275.383V270.258C358.612 270.057 358.652 269.856 358.729 269.67C358.807 269.483 358.92 269.314 359.064 269.171C359.207 269.028 359.378 268.915 359.565 268.838C359.753 268.76 359.954 268.721 360.157 268.721H401.349C401.759 268.722 402.151 268.885 402.44 269.173C402.73 269.461 402.893 269.851 402.894 270.258Z" fill="#EADBD6"/>
        <path d="M398.306 277.996H363.807V279.533H398.306V277.996Z" fill="#EADBD6"/>
        <path d="M398.26 300.617C386.716 305.371 375.046 305.424 363.246 300.617V289.787C374.606 285.99 386.9 285.99 398.26 289.787V300.617Z" fill="#EADBD6"/>
        <path d="M232.47 128.302C242.82 128.302 251.211 119.952 251.211 109.652C251.211 99.3518 242.82 91.0018 232.47 91.0018C222.12 91.0018 213.73 99.3518 213.73 109.652C213.73 119.952 222.12 128.302 232.47 128.302Z" fill="#2F2E41"/>
        <path d="M237.691 91.5152C240.935 91.5156 244.122 92.3536 246.943 93.9471C249.763 95.5407 252.12 97.8354 253.782 100.607C255.445 103.378 256.356 106.531 256.427 109.758C256.498 112.985 255.727 116.175 254.189 119.017C255.813 116.994 256.997 114.656 257.663 112.152C258.33 109.649 258.466 107.035 258.061 104.477C257.656 101.918 256.721 99.4719 255.314 97.2934C253.907 95.1148 252.059 93.2519 249.888 91.8232C247.718 90.3946 245.272 89.4316 242.707 88.9957C240.142 88.5597 237.513 88.6604 234.989 89.2912C232.465 89.922 230.101 91.0692 228.047 92.6596C225.993 94.25 224.295 96.2487 223.06 98.5284C224.812 96.3397 227.037 94.5724 229.571 93.3581C232.104 92.1439 234.88 91.5139 237.691 91.5152Z" fill="#2F2E41"/>
        <path d="M197.451 109.613C227.854 109.613 252.501 85.0845 252.501 54.8276C252.501 24.5708 227.854 0.0427246 197.451 0.0427246C167.048 0.0427246 142.401 24.5708 142.401 54.8276C142.401 85.0845 167.048 109.613 197.451 109.613Z" fill="#2F2E41"/>
        <path d="M154.246 20.8361C163.732 10.2197 176.991 3.68609 191.225 2.61434C205.459 1.54259 219.555 6.01649 230.538 15.0918C230.088 14.666 229.642 14.2367 229.175 13.8228C218.262 4.17652 203.946 -0.761893 189.376 0.0934365C174.805 0.948766 161.172 7.5278 151.474 18.384C141.777 29.2402 136.808 43.4848 137.661 57.9857C138.515 72.4867 145.12 86.0568 156.024 95.7124C156.492 96.1263 156.972 96.5162 157.45 96.9112C147.107 87.1197 140.992 73.7122 140.394 59.5183C139.796 45.3244 144.763 31.4546 154.246 20.8361Z" fill="#2F2E41"/>
        <path d="M196.985 109.148C216.566 109.148 232.44 93.3506 232.44 73.8631C232.44 54.3756 216.566 38.5779 196.985 38.5779C177.403 38.5779 161.529 54.3756 161.529 73.8631C161.529 93.3506 177.403 109.148 196.985 109.148Z" fill="#FFB8B8"/>
        <path d="M215.097 118.727L177.154 120.425C177.154 120.425 180.321 139.952 159.794 141.809C139.267 143.667 120.606 138.095 113.142 152.024C105.677 165.952 108.895 215.547 108.895 215.547C108.895 215.547 122.89 265.689 134.087 273.118C145.283 280.546 243.253 270.332 243.253 270.332L284.254 218.811L282.866 179.077C282.141 158.329 263.105 142.751 242.604 146.59C242.201 146.666 241.796 146.747 241.387 146.834C241.387 146.834 236.883 143.484 224.525 137.335C216.968 133.574 215.097 118.727 215.097 118.727Z" fill="#CACACA"/>
        <path d="M132.736 140.881C132.736 140.881 141.754 157.165 138.021 180.379C134.289 203.593 149.949 252.689 149.949 252.689L161.145 249.904C161.145 249.904 153.681 201.619 155.547 190.476C157.413 179.333 157.928 146.452 148.597 140.881C139.267 135.309 132.736 140.881 132.736 140.881Z" fill="#2F2E41"/>
        <path d="M240.731 149.419L244.653 252.225L252.117 256.868C252.117 256.868 262.847 144.048 257.249 144.048H245.858C245.184 144.048 244.516 144.18 243.894 144.437C243.271 144.694 242.705 145.07 242.228 145.545C241.751 146.019 241.373 146.582 241.115 147.202C240.857 147.822 240.724 148.486 240.724 149.157C240.724 149.245 240.727 149.332 240.731 149.419Z" fill="#2F2E41"/>
        <path d="M155.08 250.368C157.657 250.368 159.746 248.29 159.746 245.725C159.746 243.161 157.657 241.083 155.08 241.083C152.504 241.083 150.415 243.161 150.415 245.725C150.415 248.29 152.504 250.368 155.08 250.368Z" fill="#5DA2D5"/>
        <path d="M248.385 255.011C250.962 255.011 253.05 252.932 253.05 250.368C253.05 247.804 250.962 245.725 248.385 245.725C245.809 245.725 243.72 247.804 243.72 250.368C243.72 252.932 245.809 255.011 248.385 255.011Z" fill="#5DA2D5"/>
        <path d="M166.661 29.7561V65.0414H174.872L185.322 53.8986L183.922 65.0414H220.217L217.978 53.8986L222.457 65.0414H228.242V29.7561H166.661Z" fill="#2F2E41"/>
        <path d="M161.062 71.5416C162.608 71.5416 163.861 69.2551 163.861 66.4346C163.861 63.614 162.608 61.3275 161.062 61.3275C159.516 61.3275 158.263 63.614 158.263 66.4346C158.263 69.2551 159.516 71.5416 161.062 71.5416Z" fill="#FFB8B8"/>
        <path d="M232.907 71.5416C234.453 71.5416 235.706 69.2551 235.706 66.4346C235.706 63.614 234.453 61.3275 232.907 61.3275C231.361 61.3275 230.108 63.614 230.108 66.4346C230.108 69.2551 231.361 71.5416 232.907 71.5416Z" fill="#FFB8B8"/>
        <path d="M310.566 311.785V314.895C310.568 315.749 310.409 316.595 310.098 317.391C309.959 317.745 309.792 318.088 309.598 318.415C308.984 319.441 308.114 320.289 307.071 320.879C306.029 321.468 304.85 321.778 303.651 321.777H73.7199C72.521 321.778 71.3424 321.468 70.2998 320.879C69.2572 320.289 68.3864 319.441 67.7728 318.415C67.5787 318.088 67.4116 317.745 67.2733 317.391C66.9619 316.595 66.803 315.749 66.8048 314.895V311.785C66.8045 310.881 66.9831 309.986 67.3303 309.152C67.6775 308.317 68.1865 307.558 68.8283 306.919C69.4701 306.28 70.2321 305.773 71.0708 305.427C71.9094 305.081 72.8084 304.903 73.7163 304.903H86.9736V303.453C86.9735 303.415 86.9809 303.378 86.9953 303.343C87.0098 303.308 87.0309 303.277 87.0576 303.25C87.0843 303.223 87.116 303.202 87.1509 303.188C87.1858 303.173 87.2232 303.166 87.261 303.166H94.1771C94.2535 303.166 94.3268 303.196 94.3808 303.249C94.4349 303.303 94.4654 303.376 94.4655 303.452V304.903H98.7855V303.453C98.7855 303.415 98.7929 303.378 98.8073 303.343C98.8217 303.308 98.8428 303.277 98.8695 303.25C98.8962 303.223 98.9279 303.202 98.9628 303.188C98.9977 303.173 99.0351 303.166 99.0729 303.166H105.989C106.065 303.166 106.139 303.196 106.193 303.249C106.247 303.303 106.277 303.376 106.277 303.452V304.903H110.603V303.453C110.603 303.415 110.61 303.378 110.624 303.343C110.639 303.308 110.66 303.277 110.687 303.25C110.713 303.223 110.745 303.202 110.78 303.188C110.815 303.173 110.852 303.166 110.89 303.166H117.806C117.882 303.166 117.956 303.196 118.01 303.249C118.064 303.303 118.094 303.376 118.094 303.452V304.903H122.415V303.453C122.414 303.415 122.422 303.378 122.436 303.343C122.451 303.308 122.472 303.277 122.499 303.25C122.525 303.223 122.557 303.202 122.592 303.188C122.627 303.173 122.664 303.166 122.702 303.166H129.618C129.694 303.166 129.768 303.196 129.822 303.249C129.876 303.303 129.906 303.376 129.906 303.452V304.903H134.226V303.453C134.226 303.415 134.234 303.378 134.248 303.343C134.263 303.308 134.284 303.277 134.31 303.25C134.337 303.223 134.369 303.202 134.404 303.188C134.439 303.173 134.476 303.166 134.514 303.166H141.43C141.506 303.166 141.58 303.196 141.634 303.249C141.688 303.303 141.718 303.376 141.718 303.452V304.903H146.044V303.453C146.043 303.415 146.051 303.378 146.065 303.343C146.08 303.308 146.101 303.277 146.128 303.25C146.154 303.223 146.186 303.202 146.221 303.188C146.256 303.173 146.293 303.166 146.331 303.166H153.247C153.323 303.166 153.397 303.196 153.451 303.249C153.505 303.303 153.535 303.376 153.535 303.452V304.903H157.855V303.453C157.855 303.415 157.863 303.378 157.877 303.343C157.892 303.308 157.913 303.277 157.939 303.25C157.966 303.223 157.998 303.202 158.033 303.188C158.068 303.173 158.105 303.166 158.143 303.166H212.312C212.35 303.166 212.387 303.173 212.422 303.187C212.457 303.202 212.489 303.223 212.516 303.249C212.542 303.276 212.564 303.307 212.578 303.342C212.593 303.377 212.6 303.414 212.6 303.452V304.903H216.925V303.453C216.925 303.415 216.933 303.378 216.947 303.343C216.962 303.308 216.983 303.277 217.009 303.25C217.036 303.223 217.068 303.202 217.103 303.188C217.138 303.173 217.175 303.166 217.213 303.166H224.129C224.205 303.166 224.278 303.197 224.332 303.251C224.386 303.304 224.417 303.377 224.417 303.453V304.903H228.737V303.453C228.737 303.415 228.745 303.378 228.759 303.343C228.774 303.308 228.795 303.277 228.821 303.25C228.848 303.223 228.88 303.202 228.915 303.188C228.95 303.173 228.987 303.166 229.025 303.166H235.941C235.979 303.166 236.016 303.173 236.051 303.187C236.086 303.202 236.118 303.223 236.145 303.249C236.171 303.276 236.193 303.307 236.207 303.342C236.222 303.377 236.229 303.414 236.229 303.452V304.903H240.549V303.453C240.549 303.415 240.557 303.378 240.571 303.343C240.585 303.308 240.607 303.277 240.633 303.25C240.66 303.223 240.692 303.202 240.727 303.188C240.761 303.173 240.799 303.166 240.837 303.166H247.753C247.791 303.166 247.828 303.173 247.863 303.187C247.898 303.202 247.93 303.223 247.957 303.249C247.983 303.276 248.005 303.307 248.019 303.342C248.034 303.377 248.041 303.414 248.041 303.452V304.903H252.366V303.453C252.366 303.415 252.374 303.378 252.388 303.343C252.403 303.308 252.424 303.277 252.45 303.25C252.477 303.223 252.509 303.202 252.544 303.188C252.579 303.173 252.616 303.166 252.654 303.166H259.57C259.646 303.167 259.718 303.197 259.771 303.251C259.824 303.305 259.854 303.377 259.853 303.453V304.903H264.178V303.453C264.178 303.415 264.186 303.378 264.2 303.343C264.214 303.308 264.236 303.277 264.262 303.25C264.289 303.223 264.321 303.202 264.356 303.188C264.391 303.173 264.428 303.166 264.466 303.166H271.382C271.42 303.166 271.457 303.173 271.492 303.187C271.527 303.202 271.559 303.223 271.586 303.249C271.612 303.276 271.634 303.307 271.648 303.342C271.663 303.377 271.67 303.414 271.67 303.452V304.903H275.99V303.453C275.99 303.415 275.998 303.378 276.012 303.343C276.026 303.308 276.048 303.277 276.074 303.25C276.101 303.223 276.133 303.202 276.167 303.188C276.202 303.173 276.24 303.166 276.278 303.166H283.194C283.232 303.166 283.269 303.173 283.304 303.187C283.339 303.202 283.371 303.223 283.397 303.249C283.424 303.276 283.445 303.307 283.46 303.342C283.475 303.377 283.482 303.414 283.482 303.452V304.903H303.651C305.484 304.902 307.243 305.627 308.54 306.917C309.837 308.207 310.566 309.956 310.566 311.781L310.566 311.785Z" fill="#08375E"/>
        <path d="M500 320.975H0V322H500V320.975Z" fill="#08375E"/>
        <path d="M292.051 180.791H81.4327C80.6714 180.791 79.9176 180.94 79.2142 181.23C78.5109 181.52 77.8718 181.945 77.3335 182.48C76.7952 183.016 76.3682 183.652 76.0768 184.352C75.7855 185.052 75.6356 185.802 75.6356 186.56V303.348C75.6356 304.878 76.2463 306.345 77.3335 307.427C78.4207 308.509 79.8952 309.117 81.4327 309.117H292.051C293.589 309.117 295.063 308.509 296.151 307.427C297.238 306.345 297.849 304.878 297.849 303.348V186.56C297.849 185.03 297.238 183.562 296.151 182.48C295.063 181.398 293.589 180.791 292.051 180.791Z" fill="#08375E"/>
        <path d="M186.911 234.375C194.02 234.375 199.783 228.639 199.783 221.564C199.783 214.489 194.02 208.754 186.911 208.754C179.801 208.754 174.038 214.489 174.038 221.564C174.038 228.639 179.801 234.375 186.911 234.375Z" fill="#01A0DA"/>
        <path d="M266.599 136.93L331.583 71.748H362.263V70.7231H331.153L331.002 70.8753L265.867 136.21L266.599 136.93Z" fill="#08375E"/>
        <path d="M475.027 44.9872H399.736V51.664H475.027V44.9872Z" fill="#01A0DA"/>
        <path d="M390.559 55.8859H374.62V40.0234H390.559V55.8859ZM375.65 54.8611H389.53V41.0483H375.65L375.65 54.8611Z" fill="#08375E"/>
        <path d="M475.027 67.2434H399.736V73.9203H475.027V67.2434Z" fill="#01A0DA"/>
        <path d="M390.559 78.142H374.62V62.2798H390.559V78.142ZM375.65 77.1172H389.53V63.3046H375.65L375.65 77.1172Z" fill="#08375E"/>
        <path d="M475.027 89.4995H399.736V96.1764H475.027V89.4995Z" fill="#01A0DA"/>
        <path d="M390.559 100.398H374.62V84.5359H390.559V100.398ZM375.65 99.3732H389.53V85.5607H375.65L375.65 99.3732Z" fill="#08375E"/>
    </g>
    <defs>
        <clipPath id="clip0">
            <rect width="500" height="322" fill="white"/>
        </clipPath>
    </defs>
</svg>
