<svg width="66" height="66" viewBox="0 0 66 66" fill="none" xmlns="http://www.w3.org/2000/svg">
    <g clip-path="url(#clip0)">
        <path d="M64.2018 1.96362H13.5656C13.1105 1.96362 12.7383 2.33603 12.7383 2.79107V61.3703C12.7383 61.8254 13.1105 62.1978 13.5656 62.1978H64.2018C64.6568 62.1978 65.0292 61.8254 65.0292 61.3703V2.79107C65.0292 2.33603 64.6569 1.96362 64.2018 1.96362Z" fill="#E6E9ED"/>
        <path d="M22.5947 50.4846L20.6062 52.4732C20.3544 52.725 19.9426 52.725 19.6909 52.4732L17.5801 50.3624L18.5902 49.3523C18.842 49.1005 18.842 48.6888 18.5902 48.437L16.5701 46.4168C16.3184 46.1651 15.9066 46.1651 15.6549 46.4168L14.6448 47.4269L12.7381 45.5201V61.3703C12.7381 61.8254 13.1104 62.1978 13.5654 62.1978H26.9352L30.6214 58.5114L22.5947 50.4846Z" fill="#B1E8FF"/>
        <path d="M64.2018 1.96362H45.2012L13.5513 33.6136L34.5353 54.5977L65.0292 24.1038V2.79107C65.0292 2.33603 64.6569 1.96362 64.2018 1.96362Z" fill="#B1E8FF"/>
        <g opacity="0.1">
            <path opacity="0.1" d="M16.5563 36.6187V2.79107C16.5563 2.33603 16.9286 1.96362 17.3837 1.96362H13.5654C13.1104 1.96362 12.7381 2.33603 12.7381 2.79107V32.8003L16.5563 36.6187Z" fill="black"/>
            <path opacity="0.1" d="M16.5563 61.3705V51.3863L12.7381 55.2045V61.3705C12.7381 61.8255 13.1104 62.1979 13.5654 62.1979H17.3837C16.9286 62.1978 16.5563 61.8255 16.5563 61.3705Z" fill="black"/>
        </g>
        <path d="M35.5907 55.6531L9.35406 29.4164C9.10231 29.1646 8.69045 29.1646 8.43883 29.4164L5.44034 32.415C5.18859 32.6668 5.18859 33.0785 5.44034 33.3303L14.5226 42.4125L15.7772 41.1578C16.029 40.9061 16.4407 40.9061 16.6924 41.1578L23.8493 48.3147C24.1011 48.5665 24.1011 48.9782 23.8493 49.2299L22.5947 50.4846L31.6769 59.5668C31.9286 59.8186 32.3405 59.8186 32.5921 59.5668L35.5906 56.5683C35.8425 56.3167 35.8425 55.9048 35.5907 55.6531Z" fill="#08375E"/>
        <g opacity="0.1">
            <path opacity="0.1" d="M7.55634 35.425C7.30458 35.1732 7.30458 34.7615 7.55634 34.5097L10.5548 31.5111C10.7736 31.2924 11.113 31.2643 11.3633 31.4255L9.35406 29.4163C9.10231 29.1645 8.69045 29.1645 8.43883 29.4163L5.44034 32.4149C5.18859 32.6666 5.18859 33.0784 5.44034 33.3301L7.55634 35.425Z" fill="black"/>
        </g>
        <path d="M23.8495 48.3147L16.6926 41.1578C16.4408 40.9061 16.0291 40.9061 15.7774 41.1578L12.5342 44.401C12.2825 44.6527 12.2825 45.0645 12.5342 45.3162L14.6449 47.4271L15.655 46.417C15.9068 46.1652 16.3185 46.1652 16.5703 46.417L18.5904 48.4372C18.8421 48.6889 18.8421 49.1007 18.5904 49.3524L17.5803 50.3625L19.6911 52.4734C19.9428 52.7251 20.3546 52.7251 20.6063 52.4734L23.8495 49.2301C24.1011 48.9783 24.1011 48.5665 23.8495 48.3147Z" fill="#FFBB4A"/>
        <path d="M4.09495 63.8477C3.84319 64.0994 3.43147 64.0994 3.17971 63.8477L1.15937 61.8276C0.907612 61.5758 0.907612 61.1641 1.15937 60.9123L15.6547 46.4169C15.9065 46.1652 16.3182 46.1652 16.57 46.4169L18.5901 48.4372C18.8418 48.6889 18.8418 49.1006 18.5901 49.3524L4.09495 63.8477Z" fill="#FB8276"/>
        <g opacity="0.1">
            <path opacity="0.1" d="M2.56187 62.315L17.0572 47.8196C17.309 47.5678 17.7207 47.5678 17.9725 47.8196L18.5911 48.4383C18.5907 48.4379 18.5905 48.4374 18.5901 48.437L16.57 46.4168C16.3182 46.1651 15.9065 46.1651 15.6547 46.4168L1.15937 60.9122C0.907612 61.1639 0.907612 61.5757 1.15937 61.8274L2.56006 63.2281C2.31037 62.9762 2.31076 62.5659 2.56187 62.315Z" fill="black"/>
        </g>
        <path d="M43.762 17.6027C43.5303 17.6027 43.3251 17.452 43.2563 17.2304C42.4266 14.5654 41.8566 13.9956 39.1916 13.1657C38.9702 13.0969 38.8193 12.8916 38.8193 12.6597C38.8193 12.4278 38.9702 12.2231 39.1916 12.1542C41.8566 11.3241 42.4266 10.7543 43.2563 8.08938C43.3251 7.86792 43.5303 7.71722 43.762 7.71722C43.9941 7.71722 44.1989 7.86792 44.2678 8.08938C45.0978 10.7543 45.6676 11.3241 48.3325 12.1542C48.5539 12.223 48.7048 12.4278 48.7048 12.6597C48.7048 12.8916 48.5538 13.0969 48.3325 13.1657C45.6676 13.9956 45.0977 14.5654 44.2678 17.2304C44.1989 17.4521 43.9941 17.6027 43.762 17.6027Z" fill="#FCC96C"/>
        <path d="M5.00735 26.9511C4.82663 26.9511 4.66678 26.8336 4.61316 26.661C3.96643 24.5838 3.52235 24.1396 1.4449 23.4926C1.27242 23.4389 1.1546 23.279 1.1546 23.0983C1.1546 22.9176 1.27229 22.758 1.4449 22.7044C3.52209 22.0574 3.9663 21.6133 4.61316 19.5359C4.66691 19.3634 4.82675 19.2458 5.00735 19.2458C5.18834 19.2458 5.34779 19.3633 5.40155 19.5359C6.04853 21.6131 6.49248 22.0571 8.5698 22.7044C8.74241 22.7581 8.85997 22.9176 8.85997 23.0983C8.85997 23.279 8.74241 23.439 8.5698 23.4926C6.49261 24.1394 6.04866 24.5836 5.40155 26.661C5.34766 26.8335 5.18808 26.9511 5.00735 26.9511Z" fill="#FCC96C"/>
        <path d="M45.0018 36.2408C44.8574 36.2408 44.7298 36.1471 44.687 36.0092C44.1707 34.3507 43.8161 33.9961 42.1574 33.4795C42.0197 33.4367 41.9257 33.3091 41.9257 33.1646C41.9257 33.0202 42.0197 32.8929 42.1574 32.8501C43.8159 32.3336 44.1705 31.9789 44.687 30.3203C44.7298 30.1825 44.8574 30.0888 45.0018 30.0888C45.1463 30.0888 45.2737 30.1825 45.3166 30.3203C45.8331 31.9788 46.1876 32.3334 47.8463 32.8501C47.9841 32.8929 48.0779 33.0202 48.0779 33.1646C48.0779 33.3091 47.9841 33.4367 47.8463 33.4795C46.1877 33.9959 45.8333 34.3505 45.3166 36.0092C45.2737 36.1471 45.1463 36.2408 45.0018 36.2408Z" fill="#FCC96C"/>
        <path d="M64.2018 0.992966H13.5656C12.5742 0.992966 11.7675 1.79953 11.7675 2.79121V30.4571L10.0406 28.7302C9.73552 28.4251 9.32933 28.2572 8.89659 28.2572C8.46386 28.2572 8.05767 28.4251 7.75255 28.7302L4.75406 31.7286C4.44881 32.0337 4.28098 32.4399 4.28098 32.8726C4.28098 33.3054 4.44894 33.7116 4.75406 34.0167L11.7676 41.0302V43.803C11.5142 44.0961 11.3748 44.4661 11.3748 44.8585C11.3748 45.2509 11.5142 45.6208 11.7676 45.914V48.9315L0.473215 60.2258C0.167965 60.5309 0 60.9372 0 61.3699C0 61.8027 0.167965 62.2089 0.473086 62.514L2.4933 64.5341C2.80874 64.8495 3.22304 65.0072 3.63735 65.0072C4.05165 65.0072 4.46596 64.8495 4.78139 64.5341L5.98318 63.3323C6.3623 62.9532 6.3623 62.3385 5.98318 61.9596C5.60407 61.5805 4.98945 61.5805 4.61046 61.9596L3.63735 62.9327L2.07475 61.3701L16.1126 47.3323L17.6751 48.8949L7.97556 58.5943C7.59645 58.9734 7.59645 59.5881 7.97556 59.9671C8.35467 60.3462 8.9693 60.3462 9.34828 59.9671L11.7673 57.548V61.3703C11.7673 62.3617 12.5739 63.1686 13.5654 63.1686H48.7856C49.3217 63.1686 49.7564 62.7339 49.7564 62.1978C49.7564 61.6617 49.3217 61.227 48.7856 61.227H29.2787L30.6214 59.8843L30.9905 60.2532C31.2956 60.5585 31.7018 60.7263 32.1345 60.7263C32.5673 60.7263 32.9734 60.5584 33.2786 60.2532L36.2771 57.2547C36.9079 56.6239 36.9079 55.5975 36.2771 54.9667L35.908 54.5976L64.0584 26.4472V61.227H54.8689C54.3328 61.227 53.8982 61.6617 53.8982 62.1978C53.8982 62.7339 54.3328 63.1686 54.8689 63.1686H64.2019C65.1933 63.1686 66.0001 62.362 66.0001 61.3703V2.79108C66 1.79966 65.1933 0.992966 64.2018 0.992966ZM17.2566 45.7305C16.9514 45.4254 16.5452 45.2574 16.1125 45.2574C15.6798 45.2574 15.2736 45.4254 14.9685 45.7305L14.6448 46.0542L13.4492 44.8585L16.2348 42.0729L22.9342 48.7723L20.1487 51.5581L18.953 50.3624L19.2766 50.0388C19.9075 49.408 19.9075 48.3816 19.2766 47.7507L17.2566 45.7305ZM26.5333 61.227H13.7089V55.6064L17.5802 51.7351L19.0046 53.1595C19.3098 53.4646 19.716 53.6326 20.1487 53.6326C20.5814 53.6326 20.9876 53.4646 21.2927 53.1595L22.5948 51.8574L29.2488 58.5115L26.5333 61.227ZM32.1345 58.6517L23.9674 50.4846L24.5358 49.9162C24.8409 49.6111 25.0088 49.2049 25.0088 48.7722C25.0088 48.3395 24.8409 47.9333 24.5358 47.6282L17.3789 40.4713C17.0738 40.1662 16.6676 39.9982 16.2348 39.9982C15.8021 39.9982 15.3959 40.1662 15.0908 40.4713L14.5224 41.0396L6.35534 32.8725L8.89634 30.3315L34.6754 56.1106L32.1345 58.6517ZM64.0585 23.7017L34.5354 53.2249L31.7055 50.395L40.232 41.8686C40.6111 41.4895 40.6111 40.8749 40.232 40.4958C39.8529 40.1165 39.2383 40.1167 38.8592 40.4958L30.3327 49.0221L17.689 36.3786L22.3177 31.7499C22.6968 31.3708 22.6968 30.7561 22.3177 30.3771C21.9386 29.998 21.3239 29.998 20.9449 30.3771L16.3163 35.0059L14.9241 33.6136L30.5075 18.0302C30.8866 17.6511 30.8866 17.0365 30.5075 16.6575C30.1284 16.2784 29.5137 16.2784 29.1347 16.6575L13.7088 32.0833V2.93442H42.8576L32.9865 12.8055C32.6074 13.1847 32.6074 13.7993 32.9865 14.1783C33.3656 14.5574 33.9802 14.5574 34.3592 14.1783L45.603 2.93429H64.0582V23.7019H64.0585V23.7017Z" fill="black"/>
        <path d="M1.15618 24.4195C2.92322 24.9697 3.13592 25.1825 3.68609 26.9494C3.86708 27.531 4.39791 27.9219 5.00738 27.9219C5.61633 27.9219 6.1473 27.5313 6.32841 26.9497C6.87884 25.1825 7.09167 24.9698 8.85807 24.4197C9.43982 24.2389 9.83079 23.7079 9.83079 23.0983C9.83079 22.4891 9.43995 21.9581 8.85858 21.7774C7.09167 21.2271 6.87884 21.0142 6.32841 19.247C6.14717 18.6658 5.61646 18.275 5.00738 18.275C4.39817 18.275 3.86721 18.6658 3.68622 19.2472C3.13618 21.0142 2.92335 21.227 1.15669 21.7773C0.57481 21.9583 0.183838 22.489 0.183838 23.0983C0.183838 23.7077 0.57481 24.2386 1.15618 24.4195ZM5.00738 21.24C5.43844 22.1376 5.96799 22.6673 6.86556 23.0983C5.96812 23.5294 5.43831 24.0591 5.00738 24.9566C4.57645 24.0592 4.04664 23.5293 3.14907 23.0983C4.04664 22.6674 4.57632 22.1376 5.00738 21.24Z" fill="black"/>
        <path d="M43.762 6.74683C43.1014 6.74683 42.5255 7.17054 42.3295 7.80115C41.5921 10.1697 41.2719 10.49 38.9033 11.2276C38.2724 11.4239 37.8487 11.9995 37.8487 12.66C37.8487 13.3209 38.2725 13.8969 38.903 14.0927C41.2719 14.8303 41.5921 15.1505 42.3293 17.5187C42.5255 18.1496 43.1012 18.5735 43.762 18.5735C44.4227 18.5735 44.9983 18.1497 45.1945 17.5191C45.9323 15.1505 46.2525 14.8303 48.6206 14.0928C49.2516 13.8967 49.6754 13.3209 49.6754 12.6599C49.6754 11.9992 49.2516 11.4237 48.6211 11.2276C46.2525 10.4899 45.9323 10.1697 45.1945 7.80102C44.9983 7.17041 44.4227 6.74683 43.762 6.74683ZM46.8304 12.6601C45.1778 13.3156 44.4178 14.0757 43.7621 15.7284C43.1068 14.0757 42.3469 13.3158 40.6938 12.6603C42.3466 12.0047 43.1066 11.2446 43.762 9.59192C44.4176 11.2445 45.1777 12.0045 46.8304 12.6601Z" fill="black"/>
        <path d="M48.1349 31.9234C46.7871 31.5035 46.6633 31.3798 46.2435 30.0318C46.0733 29.4852 45.5743 29.118 45.0018 29.118C44.4294 29.118 43.9304 29.4852 43.7602 30.0318C43.3406 31.3796 43.2169 31.5034 41.8693 31.9232C41.3225 32.0933 40.9551 32.5923 40.9551 33.1647C40.9551 33.7375 41.3225 34.2366 41.8689 34.4065C43.2169 34.8262 43.3406 34.95 43.7602 36.2978C43.9302 36.8445 44.4292 37.2117 45.0018 37.2117C45.5743 37.2117 46.0734 36.8445 46.2433 36.2981C46.6632 34.9501 46.7869 34.8263 48.1343 34.4067C48.6811 34.2367 49.0485 33.7377 49.0485 33.1649C49.0487 32.5921 48.6812 32.0931 48.1349 31.9234ZM45.0018 34.2354C44.727 33.7721 44.3944 33.4396 43.9311 33.1647C44.3944 32.8899 44.7271 32.5572 45.0018 32.094C45.2767 32.5572 45.6092 32.8899 46.0725 33.1647C45.6094 33.4396 45.2768 33.7721 45.0018 34.2354Z" fill="black"/>
        <path d="M45.8583 20.9692C45.4792 20.5899 44.8645 20.5901 44.4855 20.9692L30.4197 35.0349C30.0406 35.414 30.0406 36.0286 30.4197 36.4076C30.6092 36.5973 30.8577 36.692 31.1061 36.692C31.3546 36.692 31.603 36.5973 31.7925 36.4076L45.8583 22.342C46.2374 21.9631 46.2374 21.3483 45.8583 20.9692Z" fill="black"/>
    </g>
    <defs>
        <clipPath id="clip0">
            <rect width="66" height="66" fill="white"/>
        </clipPath>
    </defs>
</svg>
