<svg width="21" height="22" viewBox="0 0 21 22" fill="none" xmlns="http://www.w3.org/2000/svg">
    <path d="M10.5 0.842957C4.88086 0.842957 0.328125 5.39361 0.328125 11.0102C0.328125 16.6268 4.88086 21.1774 10.5 21.1774C16.1191 21.1774 20.6719 16.6268 20.6719 11.0102C20.6719 5.39361 16.1191 0.842957 10.5 0.842957ZM15.4875 13.6791C15.6803 13.8718 15.6803 14.1834 15.4875 14.376L13.8633 15.9954C13.6705 16.1881 13.3588 16.1881 13.166 15.9954L10.5 13.306L7.82988 15.9954C7.63711 16.1881 7.32539 16.1881 7.13262 15.9954L5.5125 14.3719C5.31973 14.1793 5.31973 13.8677 5.5125 13.675L8.20312 11.0102L5.5125 8.34129C5.31973 8.14861 5.31973 7.83703 5.5125 7.64434L7.13672 6.02087C7.32949 5.82818 7.64121 5.82818 7.83398 6.02087L10.5 8.71436L13.1701 6.02497C13.3629 5.83228 13.6746 5.83228 13.8674 6.02497L15.4916 7.64844C15.6844 7.84113 15.6844 8.15271 15.4916 8.34539L12.7969 11.0102L15.4875 13.6791Z" fill="white"/>
</svg>
