<svg width="21" height="22" viewBox="0 0 21 22" fill="none" xmlns="http://www.w3.org/2000/svg">
    <path d="M20.6719 10.8815C20.6719 16.4967 16.1178 21.0488 10.5 21.0488C4.88221 21.0488 0.328125 16.4967 0.328125 10.8815C0.328125 5.2663 4.88221 0.714287 10.5 0.714287C16.1178 0.714287 20.6719 5.2663 20.6719 10.8815ZM9.32343 16.265L16.8703 8.72156C17.1266 8.46541 17.1266 8.05007 16.8703 7.79392L15.9422 6.86628C15.686 6.61009 15.2704 6.61009 15.0141 6.86628L8.85938 13.0182L5.98586 10.146C5.7296 9.88985 5.31407 9.88985 5.05776 10.146L4.1297 11.0736C3.87343 11.3298 3.87343 11.7451 4.1297 12.0013L8.39532 16.2649C8.65163 16.5211 9.06712 16.5211 9.32343 16.265Z" fill="white"/>
</svg>
