<svg width="21" height="21" viewBox="0 0 21 21" fill="none" xmlns="http://www.w3.org/2000/svg">
    <path d="M10.5 0.273376C4.88262 0.273376 0.328125 4.82744 0.328125 10.4406C0.328125 16.0571 4.88262 20.6078 10.5 20.6078C16.1174 20.6078 20.6719 16.0571 20.6719 10.4406C20.6719 4.82744 16.1174 0.273376 10.5 0.273376ZM10.5 4.78304C11.4514 4.78304 12.2227 5.55394 12.2227 6.50491C12.2227 7.45587 11.4514 8.22678 10.5 8.22678C9.5486 8.22678 8.77734 7.45587 8.77734 6.50491C8.77734 5.55394 9.5486 4.78304 10.5 4.78304ZM12.7969 15.1963C12.7969 15.4679 12.5765 15.6882 12.3047 15.6882H8.69531C8.4235 15.6882 8.20312 15.4679 8.20312 15.1963V14.2123C8.20312 13.9406 8.4235 13.7204 8.69531 13.7204H9.1875V11.0966H8.69531C8.4235 11.0966 8.20312 10.8763 8.20312 10.6046V9.62067C8.20312 9.34899 8.4235 9.12871 8.69531 9.12871H11.3203C11.5921 9.12871 11.8125 9.34899 11.8125 9.62067V13.7204H12.3047C12.5765 13.7204 12.7969 13.9406 12.7969 14.2123V15.1963Z" fill="white"/>
</svg>
