<svg width="21" height="21" viewBox="0 0 21 21" fill="none" xmlns="http://www.w3.org/2000/svg">
    <path d="M10.5 0C4.88225 0 0.328125 4.55201 0.328125 10.1672C0.328125 15.7825 4.88225 20.3345 10.5 20.3345C16.1177 20.3345 20.6719 15.7824 20.6719 10.1672C20.6719 4.55205 16.1178 0 10.5 0ZM15.8365 4.83321C18.5209 7.51637 18.7076 11.6174 16.6845 14.4936L6.17162 3.98556C9.05108 1.96211 13.1535 2.15156 15.8365 4.83321ZM5.16354 15.5013C2.47915 12.8181 2.29245 8.71705 4.31546 5.84087L14.8284 16.3489C11.949 18.3724 7.84645 18.1829 5.16354 15.5013Z" fill="white"/>
</svg>
