<svg width="65" height="65" viewBox="0 0 65 65" fill="none" xmlns="http://www.w3.org/2000/svg">
    <g clip-path="url(#clip0)">
        <path d="M64.5857 17.9697C65.1277 17.4086 65.1121 16.5142 64.551 15.9721C64.0035 15.4435 63.1356 15.4435 62.5883 15.9721L32.5071 46.0505L2.4287 15.9694C1.88663 15.4082 0.992416 15.3927 0.431152 15.9347C-0.12999 16.4767 -0.145477 17.3709 0.396454 17.9322C0.407845 17.944 0.419365 17.9555 0.431152 17.9669L31.5097 49.0455C32.0613 49.5969 32.9555 49.5969 33.5072 49.0455L64.5857 17.9697Z" fill="#B8B0C8"/>
        <path d="M0.0158997 16.9695C0.0144425 16.1894 0.645897 15.5558 1.42608 15.5543C1.8022 15.5537 2.16309 15.7031 2.42876 15.9694L32.5072 46.0506L62.5854 15.9694C63.1378 15.417 64.0333 15.417 64.5857 15.9694C65.1381 16.5218 65.1381 17.4173 64.5857 17.9697L33.5072 49.0483C32.9556 49.5997 32.0614 49.5997 31.5096 49.0483L0.431213 17.9697C0.165413 17.7048 0.0158997 17.3449 0.0158997 16.9695Z" fill="#2F2E41"/>
    </g>
    <defs>
        <clipPath id="clip0">
            <rect width="65" height="65" fill="white" transform="translate(65) rotate(90)"/>
        </clipPath>
    </defs>
</svg>
