<svg width="21" height="22" viewBox="0 0 21 22" fill="none" xmlns="http://www.w3.org/2000/svg">
    <path d="M9.08109 14.2308C8.85404 14.2308 8.62705 14.1456 8.48517 13.9752L5.30681 10.7086C4.96629 10.3678 4.99464 9.82806 5.33516 9.5156C5.67568 9.17476 6.2149 9.20315 6.52706 9.54398L9.1095 12.214L14.5581 7.04433C14.8987 6.73187 15.4379 6.73187 15.75 7.07271C16.0622 7.41354 16.0622 7.95326 15.7217 8.26572L9.67701 14.0036C9.50673 14.1456 9.27973 14.2308 9.08109 14.2308Z" fill="#3A2C51"/>
    <path d="M10.5 21.0196C4.71084 21.0196 0 16.3044 0 10.5098C0 4.71518 4.71084 0 10.5 0C16.2892 0 21 4.71523 21 10.5098C21 16.3043 16.2892 21.0196 10.5 21.0196ZM10.5 1.70429C5.64728 1.70429 1.70271 5.65255 1.70271 10.5098C1.70271 15.367 5.64728 19.3153 10.5 19.3153C15.3527 19.3153 19.2973 15.367 19.2973 10.5098C19.2973 5.65255 15.3527 1.70429 10.5 1.70429Z" fill="#3A2C51"/>
</svg>
