<svg width="27" height="26" viewBox="0 0 27 26" fill="none" xmlns="http://www.w3.org/2000/svg">
    <g clip-path="url(#clip0_16_59)">
        <path d="M23.135 21.0432C23.134 21.036 23.1372 21.0292 23.1359 21.022C22.8725 19.5818 22.1112 18.2796 20.9848 17.3425C19.8585 16.4054 18.4385 15.8928 16.9724 15.8941H9.25804C8.22338 15.893 7.20461 16.1483 6.29302 16.6371C5.38143 17.1258 4.60547 17.8328 4.03467 18.6945C3.99784 18.7472 3.97193 18.8066 3.95845 18.8694C3.94497 18.9322 3.94421 18.997 3.95619 19.0601C3.96818 19.1232 3.99267 19.1832 4.02824 19.2367C4.06381 19.2902 4.10973 19.336 4.1633 19.3715C4.21688 19.407 4.27702 19.4315 4.34019 19.4434C4.40336 19.4554 4.46828 19.4546 4.53114 19.4411C4.594 19.4276 4.65352 19.4017 4.70621 19.3649C4.7589 19.3281 4.80368 19.2812 4.83793 19.2268C5.32102 18.4976 5.97767 17.8995 6.74906 17.4859C7.52045 17.0723 8.38251 16.8563 9.25804 16.857H16.9724C18.1729 16.8559 19.3382 17.2621 20.2772 18.009C21.2162 18.7559 21.8732 19.7993 22.1405 20.9681C22.088 21.0277 22.035 21.0868 21.9814 21.1454C21.9152 21.2177 21.8491 21.2902 21.7813 21.3606C21.6989 21.4463 21.6143 21.5294 21.5297 21.6124C21.4595 21.6811 21.3896 21.7501 21.3179 21.817C21.2318 21.8973 21.1437 21.9748 21.0555 22.0523C20.9815 22.1173 20.9079 22.1828 20.8325 22.2459C20.7433 22.3204 20.6521 22.392 20.561 22.4639C20.4832 22.5252 20.4058 22.5872 20.3266 22.6465C20.235 22.7152 20.1409 22.7808 20.0473 22.8468C19.9656 22.9046 19.8844 22.9628 19.8014 23.0182C19.707 23.0813 19.6107 23.141 19.5146 23.2012C19.4295 23.2546 19.3451 23.3089 19.2588 23.3601C19.1617 23.4178 19.0627 23.4717 18.9641 23.5265C18.876 23.5754 18.7885 23.6255 18.6989 23.6722C18.5993 23.7243 18.4979 23.7727 18.3968 23.8219C18.3062 23.8661 18.2161 23.9117 18.1244 23.9536C18.0217 24.0005 17.9173 24.0434 17.8134 24.0874C17.7208 24.1265 17.6289 24.1672 17.5353 24.204C17.4297 24.2456 17.3223 24.283 17.2155 24.3216C17.1216 24.3553 17.0283 24.3912 16.9335 24.4227C16.8245 24.4591 16.7138 24.4909 16.6037 24.5241C16.509 24.5527 16.4149 24.5833 16.3194 24.6095C16.2069 24.6405 16.0928 24.6666 15.9793 24.6943C15.8845 24.7174 15.7905 24.7427 15.6951 24.7635C15.5775 24.7892 15.4585 24.8097 15.3399 24.8319C15.2469 24.8492 15.1546 24.8692 15.0611 24.8844C14.9355 24.9048 14.8086 24.9198 14.682 24.9362C14.5943 24.9476 14.5073 24.9619 14.4192 24.9714C14.2745 24.987 14.1287 24.9967 13.9831 25.0071C13.912 25.0122 13.8415 25.0202 13.7702 25.0241C13.5529 25.0362 13.3346 25.0422 13.1152 25.0422C12.8952 25.0422 12.6759 25.0362 12.4574 25.0243C12.3219 25.0169 12.1874 25.0033 12.0524 24.9914C11.9711 24.9842 11.8891 24.9802 11.808 24.9714C11.6229 24.9513 11.4391 24.9251 11.2559 24.8965C11.2262 24.8917 11.196 24.8891 11.1663 24.8843C10.9655 24.8515 10.7662 24.8129 10.568 24.7701C10.5562 24.7676 10.5443 24.7659 10.5326 24.7633C10.3237 24.7176 10.1164 24.6665 9.91063 24.6098L9.90832 24.6093C9.70206 24.5524 9.49759 24.4902 9.29493 24.4225L9.29377 24.4222C9.0959 24.3561 8.9 24.2848 8.70608 24.2084L8.69002 24.2025C8.5028 24.1287 8.31785 24.0493 8.13468 23.9663C8.12277 23.9609 8.11057 23.9563 8.09871 23.9508C7.92726 23.8724 7.75836 23.7884 7.59077 23.702C7.56734 23.6899 7.54328 23.6791 7.51989 23.6669C7.36469 23.5855 7.21223 23.4988 7.0606 23.4106C7.02603 23.3905 6.99054 23.3721 6.95616 23.3516C6.81832 23.2698 6.68351 23.1825 6.54889 23.0949C6.50217 23.0646 6.45439 23.0361 6.4081 23.0051C6.28703 22.9239 6.16905 22.8379 6.05083 22.7522C5.99345 22.7106 5.93482 22.671 5.87812 22.6283C5.77176 22.5483 5.66848 22.4638 5.56472 22.3801C5.49925 22.3272 5.43242 22.2764 5.36801 22.2221C5.27437 22.1434 5.18383 22.0605 5.09246 21.9788C5.02125 21.915 4.94873 21.8529 4.87891 21.7873C4.79512 21.7086 4.71441 21.6261 4.63268 21.5449C4.55935 21.4719 4.4849 21.4004 4.4133 21.3255C4.33558 21.244 4.26094 21.1591 4.18529 21.0751C4.10154 20.9823 4.01611 20.8914 3.93496 20.7958C2.12617 18.6694 1.11335 15.9815 1.06971 13.1917C1.02608 10.402 1.95433 7.68383 3.69574 5.50201C5.43714 3.32019 7.8835 1.81029 10.6165 1.23054C13.3494 0.650792 16.1992 1.0372 18.6783 2.32369C18.7346 2.35443 18.7965 2.37365 18.8603 2.38022C18.9241 2.38679 18.9885 2.38058 19.0499 2.36196C19.1113 2.34333 19.1683 2.31267 19.2177 2.27176C19.267 2.23085 19.3077 2.18052 19.3373 2.12372C19.367 2.06691 19.385 2.00477 19.3902 1.94094C19.3955 1.87711 19.388 1.81286 19.3681 1.75197C19.3482 1.69108 19.3164 1.63476 19.2744 1.58631C19.2324 1.53787 19.1812 1.49827 19.1238 1.46983C16.4461 0.0771263 13.367 -0.342649 10.4135 0.282395C7.46009 0.907439 4.81612 2.53842 2.93442 4.89602C1.05271 7.25363 0.0503212 10.1912 0.0989163 13.2056C0.147511 16.2201 1.24406 19.1239 3.20079 21.4198C3.22268 21.4456 3.24626 21.4695 3.26829 21.4952C3.27065 21.498 3.27114 21.5016 3.27355 21.5044C3.33343 21.5739 3.39703 21.6392 3.45821 21.7071C3.545 21.8034 3.63034 21.9005 3.71944 21.9937C3.78911 22.0666 3.86158 22.136 3.93274 22.207C4.02917 22.3033 4.12435 22.4002 4.22324 22.493C4.28876 22.5544 4.35684 22.6126 4.42352 22.6725C4.5322 22.7704 4.64049 22.8688 4.75201 22.9627C4.80924 23.0108 4.8686 23.0559 4.9266 23.1029C5.05128 23.204 5.17582 23.3051 5.30388 23.4014C5.35041 23.4363 5.39858 23.4688 5.44554 23.5031C5.58748 23.6068 5.73001 23.7098 5.87566 23.8075C5.91149 23.8316 5.94856 23.8535 5.98468 23.8771C6.14379 23.9814 6.30372 24.0841 6.46683 24.1811C6.48992 24.1948 6.51384 24.2071 6.53703 24.2207C6.71456 24.3248 6.89358 24.4259 7.07569 24.5213C7.08572 24.5265 7.09603 24.5309 7.10606 24.5363C8.12288 25.0661 9.20566 25.4587 10.326 25.7038C10.3363 25.706 10.3467 25.7075 10.357 25.7097C10.5733 25.7564 10.7907 25.7986 11.0098 25.8343C11.0476 25.8405 11.0861 25.8439 11.124 25.8499C11.3163 25.8795 11.509 25.9077 11.7032 25.9285C11.7876 25.9377 11.8731 25.9418 11.9579 25.9494C12.1068 25.9626 12.2554 25.9776 12.4052 25.9857C12.641 25.9987 12.8777 26.0052 13.1152 26.0052C15.0024 26.0074 16.8674 25.5982 18.5798 24.8062C20.2923 24.0143 21.811 22.8586 23.0299 21.4198C23.0736 21.3674 23.1055 21.3063 23.1234 21.2405C23.1264 21.2229 23.1283 21.2053 23.1292 21.1875C23.1385 21.14 23.1405 21.0913 23.135 21.0432Z" fill="#000000"/>
        <path d="M23.9792 6.73652C23.9232 6.76606 23.8736 6.80633 23.8332 6.85504C23.7928 6.90374 23.7624 6.95992 23.7438 7.02036C23.7252 7.08079 23.7186 7.14431 23.7246 7.20726C23.7306 7.27022 23.7489 7.33138 23.7786 7.38725C24.7286 9.18772 25.2062 11.1993 25.1668 13.234C25.1273 15.2687 24.5721 17.2603 23.5531 19.0227C23.4889 19.1332 23.4712 19.2646 23.5041 19.388C23.5369 19.5115 23.6175 19.6168 23.7281 19.6809C23.8387 19.745 23.9703 19.7626 24.0939 19.7298C24.2175 19.6971 24.323 19.6166 24.3872 19.5061C25.4882 17.6023 26.0881 15.4509 26.1307 13.2528C26.1732 11.0547 25.6571 8.88171 24.6306 6.93682C24.6011 6.88089 24.5608 6.83133 24.512 6.79098C24.4633 6.75062 24.407 6.72028 24.3465 6.70167C24.286 6.68306 24.2224 6.67656 24.1594 6.68254C24.0963 6.68853 24.0351 6.70687 23.9792 6.73652Z" fill="#000000"/>
        <path d="M13.1152 3.37555C11.9709 3.37555 10.8523 3.71441 9.90079 4.34928C8.94932 4.98415 8.20774 5.88652 7.76983 6.94227C7.33191 7.99802 7.21734 9.15974 7.44058 10.2805C7.66383 11.4013 8.21487 12.4308 9.02403 13.2388C9.83319 14.0469 10.8641 14.5971 11.9865 14.8201C13.1088 15.043 14.2721 14.9286 15.3293 14.4913C16.3866 14.054 17.2902 13.3134 17.9259 12.3633C18.5617 11.4131 18.901 10.2961 18.901 9.15333C18.8993 7.62149 18.2892 6.15288 17.2045 5.06971C16.1198 3.98653 14.6492 3.37726 13.1152 3.37555ZM13.1152 13.9681C12.1616 13.9681 11.2294 13.6858 10.4365 13.1567C9.64364 12.6276 9.02565 11.8757 8.66072 10.9959C8.2958 10.1161 8.20031 9.14798 8.38635 8.214C8.57239 7.28002 9.0316 6.4221 9.7059 5.74874C10.3802 5.07537 11.2393 4.61681 12.1746 4.43103C13.1099 4.24525 14.0793 4.3406 14.9603 4.70502C15.8413 5.06944 16.5944 5.68657 17.1241 6.47836C17.6539 7.27015 17.9367 8.20105 17.9367 9.15333C17.9353 10.4298 17.4268 11.6537 16.5229 12.5563C15.619 13.4589 14.3935 13.9667 13.1152 13.9681Z" fill="#000000"/>
        <path d="M18.901 3.37553C18.7732 3.37553 18.6505 3.42626 18.5601 3.51655C18.4697 3.60685 18.4189 3.72931 18.4189 3.85701C18.4189 3.98471 18.4697 4.10717 18.5601 4.19747C18.6505 4.28776 18.7732 4.33849 18.901 4.33849H21.7939V7.22738C21.7939 7.35508 21.8447 7.47754 21.9352 7.56784C22.0256 7.65813 22.1482 7.70886 22.2761 7.70886C22.404 7.70886 22.5266 7.65813 22.617 7.56784C22.7074 7.47754 22.7582 7.35508 22.7582 7.22738V4.33849H25.6511C25.779 4.33849 25.9016 4.28776 25.9921 4.19747C26.0825 4.10717 26.1333 3.98471 26.1333 3.85701C26.1333 3.72931 26.0825 3.60685 25.9921 3.51655C25.9016 3.42626 25.779 3.37553 25.6511 3.37553H22.7582V0.486639C22.7582 0.358942 22.7074 0.236476 22.617 0.14618C22.5266 0.0558849 22.404 0.00515747 22.2761 0.00515747C22.1482 0.00515747 22.0256 0.0558849 21.9352 0.14618C21.8447 0.236476 21.7939 0.358942 21.7939 0.486639V3.37553H18.901Z" fill="#000000"/>
    </g>
    <defs>
        <clipPath id="clip0_16_59">
            <rect width="26.0361" height="26" fill="white" transform="translate(0.097229)"/>
        </clipPath>
    </defs>
</svg>
