<svg width="29" height="28" viewBox="0 0 29 28" fill="none" xmlns="http://www.w3.org/2000/svg">
    <path d="M14 0C6.2795 0 0 6.2805 0 14C0 21.7204 6.2796 28 14 28C21.7195 28 28 21.7205 28 14C28 13.363 27.956 12.7352 27.8731 12.1211C27.8605 11.9869 27.821 11.8566 27.7568 11.738C27.6927 11.6194 27.6052 11.5151 27.4997 11.4312C27.3942 11.3473 27.2728 11.2856 27.1428 11.2498C27.0128 11.214 26.877 11.2048 26.7434 11.2229C26.6098 11.2409 26.4812 11.2858 26.3654 11.3548C26.2496 11.4238 26.1489 11.5155 26.0694 11.6244C25.99 11.7333 25.9333 11.8571 25.9029 11.9885C25.8725 12.1198 25.869 12.2559 25.8925 12.3887C25.9636 12.9146 26 13.4531 26 14C26 20.6395 20.6385 26 14 26C7.36037 26 1.99997 20.6396 1.99997 14C1.99997 7.36148 7.36047 1.99998 14 1.99998C16.048 1.99998 17.9689 2.51136 19.6543 3.41408C19.7703 3.48088 19.8985 3.52372 20.0314 3.54005C20.1642 3.55638 20.299 3.54587 20.4277 3.50915C20.5565 3.47242 20.6765 3.41023 20.7807 3.32626C20.885 3.24229 20.9713 3.13824 21.0346 3.02029C21.0979 2.90233 21.1369 2.77288 21.1492 2.63958C21.1615 2.50629 21.147 2.37188 21.1064 2.24432C21.0659 2.11675 21.0001 1.99863 20.913 1.89695C20.826 1.79527 20.7194 1.7121 20.5996 1.65238C18.633 0.59908 16.382 8.01086e-05 14 8.01086e-05L14 0Z" fill="black"/>
    <path d="M26.98 2.99021C26.7202 2.99795 26.4736 3.10653 26.2925 3.29294L12.9995 16.5859L7.70651 11.2929C7.61431 11.1972 7.50395 11.1208 7.38187 11.0681C7.2598 11.0155 7.12845 10.9878 6.99553 10.9865C6.8626 10.9852 6.73075 11.0105 6.6077 11.0608C6.48465 11.1111 6.37285 11.1854 6.27885 11.2794C6.18486 11.3734 6.11054 11.4852 6.06025 11.6082C6.00996 11.7313 5.98471 11.8631 5.98598 11.9961C5.98724 12.129 6.01499 12.2603 6.0676 12.3824C6.12022 12.5045 6.19664 12.6148 6.29241 12.707L12.2924 18.707C12.48 18.8945 12.7343 18.9998 12.9995 18.9998C13.2646 18.9998 13.519 18.8945 13.7065 18.707L27.7065 4.70704C27.851 4.56658 27.9497 4.38574 27.9897 4.18822C28.0296 3.9907 28.009 3.78571 27.9304 3.60013C27.8519 3.41454 27.7191 3.25701 27.5495 3.14818C27.3799 3.03935 27.1814 2.9843 26.9799 2.99024L26.98 2.99021Z" fill="black"/>
</svg>
