<svg width="21" height="21" viewBox="0 0 21 21" fill="none" xmlns="http://www.w3.org/2000/svg">
    <path d="M15.3818 11.3203H0.820312C0.367218 11.3203 0 10.9531 0 10.5C0 10.0469 0.367218 9.67969 0.820312 9.67969H15.3818L12.4249 6.19048C12.132 5.84489 12.1748 5.32722 12.5203 5.03435C12.8659 4.74147 13.3836 4.78425 13.6765 5.12984L17.778 9.96968C18.0366 10.2746 18.0361 10.7261 17.778 11.0303L13.6765 15.8702C13.3847 16.2145 12.8672 16.2597 12.5203 15.9657C12.1748 15.6728 12.132 15.1551 12.4249 14.8095L15.3818 11.3203ZM20.1797 0H13.0507C12.5977 0 12.2303 0.367218 12.2303 0.820312C12.2303 1.27341 12.5977 1.64062 13.0507 1.64062H19.3594V19.3594H13.0507C12.5977 19.3594 12.2303 19.7266 12.2303 20.1797C12.2303 20.6328 12.5977 21 13.0507 21H20.1797C20.6328 21 21 20.6328 21 20.1797V0.820312C21 0.367218 20.6328 0 20.1797 0Z" fill="black"/>
</svg>
