<svg width="20" height="21" viewBox="0 0 20 21" fill="none" xmlns="http://www.w3.org/2000/svg">
    <path d="M14.3585 10.5373C13.9742 10.3455 13.5821 10.1802 13.183 10.0418C14.4753 9.02327 15.3128 7.40147 15.3128 5.57812C15.3128 2.50236 12.9297 0 10.0003 0C7.07101 0 4.68785 2.50236 4.68785 5.57812C4.68785 7.40348 5.52722 9.02688 6.82195 10.0452C5.6357 10.4553 4.52261 11.0933 3.5484 11.9347C1.76199 13.4776 0.519921 15.6297 0.0510543 17.9945C-0.0958988 18.7355 0.0801558 19.4966 0.533984 20.0825C0.985585 20.6656 1.65523 21 2.37117 21H11.9925C12.424 21 12.7738 20.6327 12.7738 20.1797C12.7738 19.7266 12.424 19.3594 11.9925 19.3594H2.37117C2.03765 19.3594 1.83644 19.1639 1.74621 19.0474C1.59039 18.8462 1.53008 18.5843 1.58074 18.3289C2.39148 14.2398 5.82648 11.2528 9.79323 11.1521C9.86195 11.1549 9.93097 11.1562 10.0003 11.1562C10.0704 11.1562 10.1401 11.1548 10.2095 11.152C11.4251 11.1819 12.5942 11.4732 13.6878 12.0191C14.0775 12.2135 14.5435 12.0395 14.7287 11.6303C14.914 11.2211 14.7483 10.7318 14.3585 10.5373ZM10.1909 9.51058C10.1275 9.50939 10.064 9.50877 10.0003 9.50877C9.9373 9.50877 9.87425 9.50943 9.81128 9.51066C7.83101 9.40693 6.25035 7.68272 6.25035 5.57812C6.25035 3.40696 7.93257 1.64062 10.0003 1.64062C12.0681 1.64062 13.7503 3.40696 13.7503 5.57812C13.7503 7.68219 12.1705 9.40607 10.1909 9.51058Z" fill="#2F2E41"/>
    <path d="M19.2188 16.2832H17.0703V14.0273C17.0703 13.5743 16.7205 13.207 16.2891 13.207C15.8576 13.207 15.5078 13.5743 15.5078 14.0273V16.2832H13.3594C12.9279 16.2832 12.5781 16.6505 12.5781 17.1035C12.5781 17.5566 12.9279 17.9238 13.3594 17.9238H15.5078V20.1797C15.5078 20.6327 15.8576 21 16.2891 21C16.7205 21 17.0703 20.6327 17.0703 20.1797V17.9238H19.2188C19.6502 17.9238 20 17.5566 20 17.1035C20 16.6505 19.6502 16.2832 19.2188 16.2832Z" fill="#2F2E41"/>
</svg>
