<svg width="27" height="25" viewBox="0 0 27 25" fill="none" xmlns="http://www.w3.org/2000/svg">
    <g clip-path="url(#clip0_16_72)">
        <path d="M13.989 24.5177C9.38617 24.5177 5.06231 21.8039 3.01662 17.5461C2.92363 17.3121 3.01662 17.0314 3.24909 16.9378C3.48155 16.8442 3.76051 16.9378 3.8535 17.1717C5.75971 21.0553 9.71162 23.5819 13.989 23.5819C20.1726 23.5819 25.2403 18.4818 25.2403 12.2588C25.2403 6.03584 20.1726 0.93579 13.989 0.93579C9.61864 0.93579 5.75971 3.41563 3.8535 7.34595C3.76051 7.57989 3.48155 7.67347 3.24909 7.57989C3.01662 7.48632 2.92363 7.20558 3.01662 6.97163C5.06231 2.667 9.29318 0 13.989 0C20.684 0 26.1702 5.52116 26.1702 12.2588C26.1702 18.9965 20.684 24.5177 13.989 24.5177Z" fill="#000000"/>
        <path d="M10.4555 16.0956C10.316 16.0956 10.223 16.0488 10.13 15.9552C9.94405 15.7681 9.94405 15.4873 10.13 15.3002L13.2451 12.2121L10.13 9.12396C9.94405 8.9368 9.94405 8.65606 10.13 8.46891C10.316 8.28175 10.5949 8.28175 10.7809 8.46891L14.2214 11.8845C14.3144 11.9781 14.3609 12.0717 14.3609 12.2121C14.3609 12.3524 14.3144 12.446 14.2214 12.5396L10.7809 15.9552C10.6879 16.0488 10.5949 16.0956 10.4555 16.0956Z" fill="#000000"/>
        <path d="M13.896 12.68H0.552455C0.273497 12.68 0.0875244 12.4928 0.0875244 12.2121C0.0875244 11.9313 0.273497 11.7442 0.552455 11.7442H13.896C14.1749 11.7442 14.3609 11.9313 14.3609 12.2121C14.3609 12.4928 14.1749 12.68 13.896 12.68Z" fill="#000000"/>
    </g>
    <defs>
        <clipPath id="clip0_16_72">
            <rect width="26.0361" height="24.6316" fill="white" transform="translate(0.0875244)"/>
        </clipPath>
    </defs>
</svg>
