<svg width="26" height="25" viewBox="0 0 26 25" fill="none" xmlns="http://www.w3.org/2000/svg">
    <g clip-path="url(#clip0_18_120)">
        <path d="M12.1178 0.113905C16.7143 0.113905 21.0321 2.8277 23.075 7.08554C23.1678 7.31948 23.075 7.60022 22.8428 7.6938C22.6107 7.78738 22.3321 7.6938 22.2393 7.45986C20.3357 3.57633 16.3893 1.0497 12.1178 1.0497C5.94284 1.0497 0.88212 6.14975 0.88212 12.3727C0.88212 18.5957 5.94284 23.6958 12.1178 23.6958C16.4821 23.6958 20.3357 21.216 22.2393 17.2856C22.3321 17.0517 22.6107 16.9581 22.8428 17.0517C23.075 17.1453 23.1678 17.426 23.075 17.66C21.0321 21.9646 16.8071 24.6316 12.1178 24.6316C5.43212 24.6316 -0.0464516 19.1104 -0.0464516 12.3727C-0.0464516 5.63507 5.43212 0.113905 12.1178 0.113905Z" fill="#000000"/>
        <path d="M15.6464 8.53599C15.7857 8.53599 15.8786 8.58277 15.9714 8.67635C16.1571 8.86351 16.1571 9.14425 15.9714 9.33141L12.8607 12.4195L15.9714 15.5076C16.1571 15.6948 16.1571 15.9755 15.9714 16.1627C15.7857 16.3498 15.5071 16.3498 15.3214 16.1627L11.8857 12.747C11.7929 12.6535 11.7464 12.5599 11.7464 12.4195C11.7464 12.2791 11.7929 12.1856 11.8857 12.092L15.3214 8.67635C15.4143 8.58277 15.5071 8.53599 15.6464 8.53599Z" fill="#000000"/>
        <path d="M12.2107 11.9516L25.5357 11.9516C25.8143 11.9516 26 12.1388 26 12.4195C26 12.7003 25.8143 12.8874 25.5357 12.8874L12.2107 12.8874C11.9321 12.8874 11.7464 12.7003 11.7464 12.4195C11.7464 12.1388 11.9321 11.9516 12.2107 11.9516Z" fill="#000000"/>
    </g>
    <defs>
        <clipPath id="clip0_18_120">
            <rect width="26" height="24.6316" fill="white" transform="translate(26 24.6316) rotate(-180)"/>
        </clipPath>
    </defs>
</svg>
