<svg width="117" height="117" viewBox="0 0 117 117" fill="none" xmlns="http://www.w3.org/2000/svg">
    <path d="M77.7693 55.152C78.6466 53.613 80.2926 52.5734 82.1822 52.5734C83.0168 52.5734 83.8035 52.7771 84.4984 53.1351C84.8131 52.6265 85.1902 52.1459 85.6301 51.7042C86.5784 50.7519 87.7075 50.0931 88.9061 49.7241C88.3231 45.8944 85.0286 42.9609 81.0511 42.9609C76.7463 42.9609 73.2434 46.398 73.1111 50.6882C75.4022 51.1247 77.225 52.8858 77.7693 55.152Z" fill="#EADBD6"/>
    <path d="M102.89 57.2579C101.795 56.158 100.383 55.5698 98.9495 55.4907C98.6223 54.1039 97.921 52.7867 96.8429 51.7045C93.746 48.5957 88.7264 48.5957 85.6301 51.7045C85.1902 52.1462 84.8131 52.6268 84.4984 53.1354C86.1447 53.9841 87.2719 55.7076 87.2719 57.6964H89.8162C92.2865 57.6964 94.2901 59.689 94.3363 62.1634H104.628C104.805 60.4123 104.226 58.5992 102.89 57.2579Z" fill="#D7F7FF"/>
    <path d="M65.3431 57.3575C65.9716 57.3575 66.4857 57.8716 66.4857 58.5V62.1629H94.3363C94.2901 59.6886 92.2865 57.6959 89.8162 57.6959H87.2719C87.2719 54.8676 84.9937 52.5733 82.1822 52.5733C80.2926 52.5733 78.6466 53.6128 77.7694 55.1518C77.1398 52.5305 74.8007 50.5811 72.0035 50.5811C71.8021 50.5811 71.604 50.5918 71.4075 50.6117C71.4269 50.4145 71.4376 50.2152 71.4376 50.0125C71.4376 46.7116 68.7798 44.0361 65.4999 44.0361C62.2207 44.0361 59.5621 46.7116 59.5621 50.0125C59.5621 50.507 59.6284 50.9846 59.7411 51.4442C59.681 51.4426 59.6222 51.4352 59.5621 51.4352C56.3012 51.4352 53.6548 54.0819 53.6258 57.3575H65.3431Z" fill="#B1E8FF"/>
    <path d="M97.5453 102.693L67.0248 86.4339C65.589 85.6689 65.0451 83.8853 65.8102 82.4495C66.5753 81.0135 68.3593 80.4699 69.7946 81.2347L99.1125 96.8529L104.287 68.8055H34.1679V89.2113L34.5422 91.2682H36.1729C36.8013 91.2682 37.3155 91.7823 37.3155 92.4108V99.9844H45.1309C45.7593 99.9844 46.2735 100.499 46.2735 101.127V105.621C46.2735 105.768 46.2431 105.908 46.1919 106.037H52.7135C54.5261 106.037 55.9955 107.507 55.9955 109.319C55.9955 109.531 55.9735 109.737 55.9354 109.938H94.4135C95.6703 109.938 96.8851 108.926 97.1132 107.69L97.9998 102.884C97.846 102.832 97.6934 102.772 97.5453 102.693Z" fill="#EADBD6"/>
    <path opacity="0.1" d="M34.1679 68.8054V89.2112L34.5422 91.268H36.1729C36.8013 91.268 37.3155 91.7822 37.3155 92.4106V99.9843H42.3871L36.7149 68.8057H34.1679V68.8054Z" fill="#2F2E41"/>
    <path d="M25.7539 63.0814C25.7393 63.1539 25.7311 63.2288 25.7311 63.3054V67.6625C25.7311 68.2909 26.2452 68.805 26.8737 68.805H29.8099V63.9998H26.8737C26.322 63.9998 25.8588 63.6034 25.7539 63.0814Z" fill="#5DA2D5"/>
    <path d="M107.875 62.1628H66.4857V62.8573C66.4857 63.4857 65.9716 63.9999 65.3431 63.9999H34.1679V68.8051H107.875C108.503 68.8051 109.018 68.291 109.018 67.6625V63.3054C109.017 62.677 108.503 62.1628 107.875 62.1628Z" fill="#08375E"/>
    <path d="M29.8099 57.3574H26.8737C26.2452 57.3574 25.7311 57.8716 25.7311 58.5V62.8573C25.7311 63.4858 26.2452 63.9999 26.8737 63.9999H29.8099V57.3574Z" fill="#5DA2D5"/>
    <path d="M65.3431 57.3574H34.1679V63.9999H65.3433C65.9718 63.9999 66.4859 63.4858 66.4859 62.8573V58.5C66.4857 57.8716 65.9715 57.3574 65.3431 57.3574Z" fill="#5DA2D5"/>
    <path d="M33.0253 17.451H30.9527C30.3243 17.451 29.8101 16.9369 29.8101 16.3085V91.2678H34.1679V16.3085C34.1679 16.9369 33.6537 17.451 33.0253 17.451Z" fill="#ABCCD3"/>
    <path d="M67.025 86.4337C65.5892 85.6686 65.0454 83.885 65.8104 82.4493C66.5755 81.0133 68.3595 80.4697 69.7948 81.2345L74.7546 83.8768C74.7726 83.6664 74.7836 83.4541 74.7836 83.239C74.7836 79.1477 71.4664 75.8303 67.3746 75.8303C63.2828 75.8303 59.9657 79.1477 59.9657 83.239C59.9657 87.3308 63.2828 90.648 67.3746 90.648C69.1043 90.648 70.6943 90.0534 71.955 89.0602L67.025 86.4337Z" fill="#CB7C52"/>
    <path d="M98.9276 103.04C98.4605 103.04 97.9866 102.928 97.5453 102.693L67.0248 86.4337C65.589 85.6687 65.0452 83.8851 65.8102 82.4493C66.5753 81.0133 68.3593 80.4697 69.7946 81.2346L100.315 97.4934C101.751 98.2585 102.295 100.042 101.53 101.478C101 102.473 99.9809 103.04 98.9276 103.04Z" fill="#08375E"/>
    <path d="M34.1679 16.3085C34.1679 16.9369 33.6537 17.4511 33.0253 17.4511H30.9527C30.3243 17.4511 29.8101 16.9369 29.8101 16.3085V2.85645C29.8101 2.22803 30.3243 1.71387 30.9527 1.71387H33.0253C33.6537 1.71387 34.1679 2.22803 34.1679 2.85645V16.3085Z" fill="#5DA2D5"/>
    <path d="M37.3152 99.9841V92.4104C37.3152 91.782 36.8011 91.2678 36.1727 91.2678H27.8051C27.1767 91.2678 26.6625 91.782 26.6625 92.4104V99.9841H37.3152Z" fill="#5DA2D5"/>
    <path opacity="0.1" d="M30.3926 99.9841V92.4104C30.3926 91.782 30.9068 91.2678 31.5352 91.2678H27.8051C27.1767 91.2678 26.6625 91.782 26.6625 92.4104V99.9841H30.3926Z" fill="#2F2E41"/>
    <path d="M46.1917 106.037C46.2429 105.907 46.2733 105.768 46.2733 105.621V101.127C46.2733 100.498 45.7591 99.984 45.1307 99.984H18.8468C18.2184 99.984 17.7042 100.498 17.7042 101.127V105.621C17.7042 105.768 17.7346 105.907 17.7858 106.037H46.1917Z" fill="#5DA2D5"/>
    <path opacity="0.1" d="M24.0709 106.037C24.0197 105.907 23.9893 105.768 23.9893 105.621V101.127C23.9893 100.498 24.5035 99.984 25.1319 99.984H18.8468C18.2184 99.984 17.7042 100.498 17.7042 101.127V105.621C17.7042 105.768 17.7346 105.907 17.7858 106.037H24.0709Z" fill="#2F2E41"/>
    <path d="M55.9952 109.319C55.9952 111.132 54.5256 112.601 52.7133 112.601H11.2647C9.45185 112.601 7.98273 111.131 7.98273 109.319C7.98273 107.506 9.45208 106.037 11.2647 106.037H52.7133C54.5256 106.037 55.9952 107.506 55.9952 109.319Z" fill="#5DA2D5"/>
    <g opacity="0.1">
        <path opacity="0.1" d="M15.5148 109.319C15.5148 107.506 16.9842 106.037 18.7968 106.037H11.2647C9.45185 106.037 7.98273 107.507 7.98273 109.319C7.98273 111.132 9.45208 112.601 11.2647 112.601H18.7968C16.984 112.601 15.5148 111.131 15.5148 109.319Z" fill="#2F2E41"/>
    </g>
    <path d="M80.666 31.5539C85.9631 31.5539 90.2573 27.1912 90.2573 21.8096C90.2573 16.4279 85.9631 12.0652 80.666 12.0652C75.3689 12.0652 71.0748 16.4279 71.0748 21.8096C71.0748 27.1912 75.3689 31.5539 80.666 31.5539Z" fill="#B1E8FF"/>
    <g opacity="0.1">
        <path opacity="0.1" d="M74.7374 21.8087C74.7374 17.0633 78.076 13.1121 82.4971 12.2437C81.9041 12.1269 81.2924 12.0641 80.6658 12.0641C75.3683 12.0641 71.0748 16.4271 71.0748 21.8089C71.0748 27.1907 75.3683 31.5533 80.6658 31.5533C81.2924 31.5533 81.9041 31.4904 82.4971 31.3737C78.076 30.5046 74.7374 26.5538 74.7374 21.8087Z" fill="#2F2E41"/>
    </g>
    <path d="M97.5762 42.5051C100.379 42.5051 102.652 40.1964 102.652 37.3486C102.652 34.5008 100.379 32.1921 97.5762 32.1921C94.7732 32.1921 92.5009 34.5008 92.5009 37.3486C92.5009 40.1964 94.7732 42.5051 97.5762 42.5051Z" fill="#EADBD6"/>
    <path d="M107.875 60.449H106.289C106.063 58.8377 105.336 57.2845 104.104 56.048C103.046 54.9852 101.714 54.2606 100.269 53.9452C99.7884 52.655 99.0364 51.4779 98.0567 50.4944C96.235 48.6656 93.8127 47.6585 91.236 47.6585C90.8743 47.6585 90.5162 47.6807 90.1615 47.7198C88.8359 43.9534 85.253 41.2471 81.0506 41.2471C77.2534 41.2471 73.963 43.4577 72.3857 46.6629C71.1447 44.0962 68.5245 42.3222 65.4994 42.3222C61.3126 42.3222 57.9004 45.7196 57.8485 49.9158C55.0183 50.5689 52.7869 52.8058 52.1194 55.6436H35.8813V41.1326C35.8813 40.1858 35.1139 39.4187 34.1674 39.4187C33.2209 39.4187 32.4536 40.1858 32.4536 41.1326V89.5541H31.5235V19.1649H32.4536V33.3631C32.4536 34.3098 33.2209 35.0769 34.1674 35.0769C35.1139 35.0769 35.8813 34.3098 35.8813 33.3631V2.85645C35.8813 1.28129 34.6 0 33.0248 0H30.9522C29.377 0 28.0958 1.28129 28.0958 2.85645V55.6436H26.8734C25.2983 55.6436 24.017 56.9248 24.017 58.5V67.6628C24.017 69.2379 25.2983 70.5192 26.8734 70.5192H28.0958V89.5541H27.8049C26.2297 89.5541 24.9484 90.8356 24.9484 92.4106V98.2704H18.8468C17.2717 98.2704 15.9904 99.5517 15.9904 101.127V104.323H11.2647C8.50991 104.323 6.26886 106.564 6.26886 109.319C6.26886 111.006 7.11003 112.498 8.39383 113.404L7.72313 114.074C7.05381 114.744 7.05381 115.829 7.72313 116.498C8.05768 116.833 8.4962 117 8.93495 117C9.37347 117 9.81222 116.833 10.1468 116.498L12.3305 114.314H13.3352C12.8741 114.982 12.9395 115.904 13.5338 116.498C13.8684 116.833 14.3071 117 14.7456 117C15.1844 117 15.6229 116.833 15.9575 116.498L18.1412 114.314H19.1457C18.6848 114.982 18.7502 115.904 19.3443 116.498C19.6791 116.833 20.1176 117 20.5563 117C20.9949 117 21.4336 116.833 21.7682 116.498L23.9519 114.314H24.9564C24.4955 114.982 24.5609 115.904 25.155 116.498C25.4898 116.833 25.9283 117 26.367 117C26.8056 117 27.2443 116.833 27.5789 116.498L29.7626 114.314H30.6453V115.286C30.6453 116.233 31.4127 117 32.3592 117C33.3057 117 34.073 116.233 34.073 115.286V114.314H34.9558L37.1395 116.498C37.4743 116.833 37.9128 117 38.3513 117C38.7898 117 39.2286 116.833 39.5634 116.498C40.1575 115.904 40.2229 114.982 39.7619 114.314H40.7667L42.9504 116.498C43.285 116.833 43.7237 117 44.1622 117C44.6008 117 45.0395 116.833 45.3741 116.498C45.9684 115.904 46.0338 114.982 45.5726 114.314H46.5772L48.7609 116.498C49.0954 116.833 49.5342 117 49.9727 117C50.4112 117 50.85 116.833 51.1845 116.498C51.7789 115.904 51.8442 114.982 51.3831 114.314H52.3877L54.5714 116.498C54.9059 116.833 55.3447 117 55.7832 117C56.2219 117 56.6604 116.833 56.995 116.498C57.6643 115.829 57.6643 114.744 56.995 114.074L55.9984 113.078C56.4568 112.677 56.8414 112.194 57.1291 111.652H78.1523C79.0988 111.652 79.8662 110.884 79.8662 109.938C79.8662 108.991 79.0988 108.224 78.1523 108.224H57.5866C57.0857 105.994 55.0915 104.323 52.7131 104.323H47.9869V101.127C47.9869 99.5519 46.7056 98.2706 45.1305 98.2706H39.0289V92.4108C39.0289 90.8359 37.7476 89.5544 36.1724 89.5544H35.8815V70.5195H102.227L97.8515 94.2396L76.4874 82.8584C76.2867 78.0045 72.277 74.1168 67.3744 74.1168C62.3441 74.1168 58.2516 78.209 58.2516 83.2393C58.2516 88.2696 62.3441 92.3621 67.3744 92.3621C69.0878 92.3621 70.6906 91.8845 72.0615 91.0591L96.0782 103.853L95.4279 107.38C95.3493 107.806 94.847 108.224 94.4137 108.224H87.293C86.3465 108.224 85.5791 108.991 85.5791 109.938C85.5791 110.884 86.3465 111.652 87.293 111.652H94.4135C96.4948 111.652 98.4212 110.048 98.7985 108.001L99.4025 104.727C100.939 104.571 102.306 103.666 103.042 102.285C104.25 100.017 103.388 97.1895 101.121 95.9814L101.025 95.9304L105.713 70.5195H107.875C109.45 70.5195 110.731 69.2382 110.731 67.663V63.3059C110.731 61.7305 109.45 60.449 107.875 60.449ZM31.5237 3.42773H32.4538V15.7372H31.5237V3.42773ZM27.4452 59.0713H28.0962V62.286H27.4452V59.0713ZM27.4452 67.0915V65.714H28.0962V67.0915H27.4452ZM44.5594 104.323H42.5039C41.5574 104.323 40.79 105.09 40.79 106.037C40.79 106.983 41.5574 107.751 42.5039 107.751H52.7133C53.578 107.751 54.2814 108.454 54.2814 109.319C54.2814 110.183 53.5778 110.887 52.7133 110.887H11.2647C10.4 110.887 9.69659 110.183 9.69659 109.319C9.69659 108.454 10.4002 107.751 11.2647 107.751H33.5918C34.5383 107.751 35.3057 106.983 35.3057 106.037C35.3057 105.09 34.5383 104.323 33.5918 104.323H19.4181V101.698H44.5596V104.323H44.5594ZM28.3764 98.2702V92.9816H35.6014V98.2702H28.3764ZM67.3744 88.9342C64.2341 88.9342 61.6793 86.3794 61.6793 83.2391C61.6793 80.0991 64.2341 77.5443 67.3744 77.5443C69.6118 77.5443 71.5503 78.8422 72.4808 80.7236L70.6006 79.722C69.9281 79.3637 69.1714 79.1745 68.4125 79.1745C66.6859 79.1745 65.1091 80.1208 64.2979 81.6436C63.7124 82.7421 63.59 84.0026 63.9531 85.1931C64.3159 86.3835 65.1208 87.3613 66.2192 87.9465L68.0026 88.8965C67.796 88.9193 67.5869 88.9342 67.3744 88.9342ZM100.017 100.673C99.8026 101.075 99.3851 101.326 98.9276 101.326C98.7261 101.326 98.5323 101.277 98.3513 101.18L67.831 84.9212C67.5405 84.7665 67.3278 84.5078 67.2318 84.1932C67.1358 83.8787 67.1683 83.5455 67.323 83.2553C67.5376 82.8522 67.9553 82.6022 68.4125 82.6022C68.6141 82.6022 68.8079 82.6509 68.9889 82.7473L99.5094 99.0062C100.109 99.3255 100.336 100.073 100.017 100.673ZM91.2362 51.0865C92.8948 51.0865 94.4549 51.7355 95.6285 52.9137C96.4448 53.7332 97.0163 54.7603 97.2814 55.884C97.456 56.6234 98.0963 57.16 98.8549 57.2018C99.9201 57.2608 100.922 57.7102 101.676 58.4673C102.242 59.0352 102.617 59.7226 102.803 60.4492H95.7889C95.0172 57.8684 92.6331 55.9822 89.8162 55.9822H88.7692C88.455 54.7629 87.8094 53.6781 86.9406 52.8216C88.1028 51.7026 89.6222 51.0865 91.2362 51.0865ZM81.0511 44.6748C83.7046 44.6748 85.9747 46.3507 86.8716 48.7042C85.9758 49.1617 85.1467 49.7607 84.4157 50.4946C84.2286 50.6825 84.054 50.8779 83.8858 51.0771C83.341 50.9354 82.7704 50.8596 82.1822 50.8596C80.7551 50.8596 79.3863 51.3146 78.2543 52.121C77.4341 50.9487 76.303 50.0321 74.9927 49.4748C75.6503 46.7248 78.1162 44.6748 81.0511 44.6748ZM59.0825 53.179C59.1177 53.1749 59.4269 53.1502 59.5482 53.1498C59.5973 53.1532 59.7152 53.1564 59.7248 53.1566C60.707 53.1946 61.6439 53.5711 62.3779 54.2345C63.0804 54.8693 64.164 54.8147 64.7986 54.112C65.4332 53.4098 65.3783 52.3262 64.6761 51.6914C63.7038 50.8125 62.5349 50.2076 61.2806 49.9176C61.3311 47.6115 63.2024 45.75 65.4997 45.75C67.8287 45.75 69.7235 47.6622 69.7235 50.0125C69.7235 50.1539 69.7164 50.2947 69.7018 50.443C69.6511 50.9544 69.8328 51.4617 70.1966 51.8248C70.5604 52.1882 71.0677 52.3694 71.5795 52.3168C71.7253 52.3022 71.8638 52.2949 72.003 52.2949C73.7642 52.2949 75.3046 53.3858 75.9289 55.006C75.5754 55.8319 75.3786 56.7411 75.3786 57.6956C75.3786 58.6424 76.146 59.4095 77.0925 59.4095C78.039 59.4095 78.8064 58.6424 78.8064 57.6956C78.8064 57.037 78.996 56.4244 79.318 55.9027C79.3363 55.873 79.4658 55.6781 79.5157 55.6129C80.1502 54.7855 81.1354 54.2866 82.182 54.2866C84.0435 54.2866 85.5578 55.8156 85.5578 57.6954C85.5578 58.6421 86.3252 59.4093 87.2717 59.4093H89.816C90.6892 59.4093 91.4682 59.8151 91.9832 60.4486H68.1993V58.5C68.1993 56.9248 66.9181 55.6436 65.3429 55.6436H55.7288C56.3314 54.3154 57.5866 53.3506 59.0825 53.179ZM64.7718 59.0713V62.286H35.8817V59.0713H64.7718ZM107.303 67.0915H35.8817V65.714H65.3433C66.5588 65.714 67.5967 64.9494 68.0085 63.877H107.304V67.0915H107.303Z" fill="#2F2E41"/>
    <path d="M80.6658 33.2666C86.8997 33.2666 91.9714 28.1266 91.9714 21.8084C91.9714 15.4902 86.8997 10.3497 80.6658 10.3497C74.4323 10.3497 69.3609 15.49 69.3609 21.8084C69.3609 28.1266 74.4321 33.2666 80.6658 33.2666ZM80.6658 13.7777C85.0096 13.7777 88.5436 17.3805 88.5436 21.8086C88.5436 26.2366 85.0096 29.8391 80.6658 29.8391C76.3224 29.8391 72.7886 26.2366 72.7886 21.8086C72.7886 17.3805 76.3222 13.7777 80.6658 13.7777Z" fill="#2F2E41"/>
    <path d="M97.5764 44.2178C101.32 44.2178 104.365 41.1358 104.365 37.3475C104.365 33.5591 101.32 30.4769 97.5764 30.4769C93.8328 30.4769 90.787 33.5589 90.787 37.3475C90.787 41.1358 93.8328 44.2178 97.5764 44.2178ZM97.5764 33.9047C99.4297 33.9047 100.937 35.4492 100.937 37.3475C100.937 39.2458 99.4297 40.7901 97.5764 40.7901C95.7229 40.7901 94.2147 39.2455 94.2147 37.3475C94.2147 35.4492 95.7229 33.9047 97.5764 33.9047Z" fill="#2F2E41"/>
</svg>
