<svg width="246" height="187" viewBox="0 0 246 187" fill="none" xmlns="http://www.w3.org/2000/svg">
    <g clip-path="url(#clip0)">
        <path d="M98.4369 38.7795H97.5395V14.2164C97.5395 12.3495 97.1714 10.5009 96.4564 8.77605C95.7413 7.05123 94.6932 5.48402 93.3719 4.16391C92.0507 2.84379 90.4821 1.79661 88.7558 1.08217C87.0294 0.367723 85.1792 1.58181e-06 83.3106 0H31.2248C27.4511 -7.18773e-06 23.8319 1.49778 21.1635 4.16387C18.495 6.82996 16.9959 10.446 16.9959 14.2164V148.971C16.9959 150.838 17.3639 152.687 18.079 154.412C18.7941 156.136 19.8422 157.704 21.1634 159.024C22.4847 160.344 24.0533 161.391 25.7796 162.106C27.506 162.82 29.3562 163.188 31.2248 163.188H83.3105C87.0843 163.188 90.7034 161.69 93.3719 159.024C96.0403 156.358 97.5394 152.742 97.5395 148.971V56.2639H98.4369V38.7795Z" fill="#08375E"/>
        <path d="M83.8847 3.69855H77.0858C77.3984 4.46443 77.5178 5.29538 77.4333 6.11821C77.3489 6.94103 77.0631 7.73047 76.6014 8.41699C76.1396 9.1035 75.5159 9.66601 74.7853 10.055C74.0547 10.4439 73.2396 10.6474 72.4117 10.6475H42.5724C41.7445 10.6474 40.9294 10.4439 40.1988 10.055C39.4682 9.66602 38.8445 9.1035 38.3827 8.41699C37.9209 7.73048 37.6352 6.94104 37.5508 6.11821C37.4663 5.29539 37.5856 4.46443 37.8983 3.69855H31.5481C30.1527 3.69855 28.7709 3.97316 27.4817 4.50669C26.1925 5.04023 25.0211 5.82225 24.0344 6.80809C23.0477 7.79394 22.265 8.96431 21.731 10.2524C21.197 11.5405 20.9221 12.921 20.9221 14.3152V148.872C20.9221 150.267 21.197 151.647 21.731 152.935C22.265 154.223 23.0477 155.394 24.0344 156.379C25.0211 157.365 26.1925 158.147 27.4817 158.681C28.7709 159.214 30.1527 159.489 31.5481 159.489H83.8847C85.2801 159.489 86.6619 159.214 87.9511 158.681C89.2403 158.147 90.4117 157.365 91.3984 156.379C92.3851 155.394 93.1678 154.223 93.7018 152.935C94.2358 151.647 94.5107 150.267 94.5107 148.872V14.3152C94.5107 12.921 94.2358 11.5405 93.7018 10.2524C93.1678 8.96431 92.3851 7.79394 91.3984 6.80809C90.4117 5.82225 89.2403 5.04023 87.9511 4.50669C86.6619 3.97316 85.2801 3.69855 83.8847 3.69855Z" fill="white"/>
        <path d="M115.131 163.211H0.301391C0.221457 163.211 0.144797 163.179 0.0882752 163.123C0.0317534 163.066 0 162.99 0 162.91C0 162.83 0.0317534 162.753 0.0882752 162.697C0.144797 162.64 0.221457 162.609 0.301391 162.609H115.131C115.211 162.609 115.288 162.64 115.344 162.697C115.401 162.753 115.433 162.83 115.433 162.91C115.433 162.99 115.401 163.066 115.344 163.123C115.288 163.179 115.211 163.211 115.131 163.211Z" fill="#CBCBCB"/>
        <path d="M57.7164 104.094C71.7728 104.094 83.1677 92.7087 83.1677 78.6646C83.1677 64.6205 71.7728 53.2355 57.7164 53.2355C43.66 53.2355 32.2651 64.6205 32.2651 78.6646C32.2651 92.7087 43.66 104.094 57.7164 104.094Z" fill="#97CEED"/>
        <path d="M55.1943 88.365C54.6217 88.3659 54.0644 88.1809 53.6063 87.8377L53.5779 87.8164L47.5965 83.2448C47.3194 83.0326 47.087 82.768 46.9123 82.466C46.7376 82.1641 46.6242 81.8307 46.5785 81.4849C46.5328 81.1392 46.5557 80.7878 46.6459 80.4509C46.7361 80.114 46.8918 79.7981 47.1042 79.5213C47.3166 79.2445 47.5814 79.0123 47.8837 78.8378C48.1859 78.6632 48.5195 78.5499 48.8656 78.5043C49.2117 78.4586 49.5633 78.4815 49.9006 78.5716C50.2378 78.6617 50.5539 78.8173 50.8309 79.0295L54.7052 81.9979L63.8603 70.0645C64.0726 69.7878 64.3374 69.5556 64.6395 69.3812C64.9416 69.2067 65.2751 69.0935 65.621 69.0478C65.9669 69.0022 66.3184 69.025 66.6555 69.1151C66.9926 69.2052 67.3086 69.3607 67.5855 69.5729L67.5863 69.5734L67.5295 69.6523L67.5878 69.5734C68.1465 70.0024 68.512 70.6353 68.6041 71.3332C68.6962 72.0311 68.5075 72.7371 68.0793 73.2961L57.3109 87.3261C57.0618 87.6494 56.7414 87.911 56.3748 88.0906C56.0081 88.2702 55.605 88.363 55.1967 88.3618L55.1943 88.365Z" fill="white"/>
        <path d="M209.239 165.71C209.549 165.21 209.913 164.746 210.326 164.327C210.496 164.15 210.676 163.984 210.861 163.822C211.986 162.822 213.358 162.138 214.835 161.843C216.312 161.548 217.842 161.651 219.266 162.141C220.69 162.632 221.958 163.493 222.938 164.636C223.919 165.779 224.577 167.162 224.846 168.643C226.089 164.05 222.853 159.526 219.6 156.051C216.345 152.577 212.625 148.766 212.643 144.006C212.652 141.358 213.949 138.995 215.907 137.243C215.968 137.19 216.028 137.137 216.09 137.086C218.456 135.059 221.501 133.999 224.615 134.117C230.402 134.427 235.454 138.312 238.963 142.921C244.611 150.337 247.086 160.747 243.132 169.189C239.654 176.614 232.237 181.023 224.667 184.567C223.61 185.062 222.555 185.542 221.502 186.008C221.495 186.009 221.488 186.014 221.481 186.016C221.43 186.038 221.379 186.061 221.332 186.084C221.114 186.179 220.897 186.275 220.682 186.37L220.781 186.435L221.093 186.636C220.985 186.571 220.878 186.508 220.77 186.442C220.738 186.423 220.704 186.404 220.672 186.384C216.954 184.155 213.184 181.797 210.616 178.318C207.952 174.705 206.881 169.53 209.239 165.71Z" fill="#EADBD6"/>
        <path d="M234.045 157.32C234.868 159.191 235.414 161.172 235.665 163.201C235.862 165.01 235.788 166.838 235.444 168.625C234.706 172.297 233.096 175.738 230.749 178.659C228.979 180.877 226.935 182.862 224.667 184.567C223.61 185.062 222.555 185.542 221.502 186.008C221.495 186.01 221.488 186.014 221.481 186.016C221.43 186.039 221.379 186.061 221.332 186.084C221.114 186.18 220.897 186.275 220.682 186.37L220.781 186.435L221.093 186.636C220.985 186.571 220.878 186.508 220.77 186.443C220.738 186.423 220.704 186.404 220.672 186.384C221.49 183.525 221.611 180.511 221.023 177.596C220.435 174.68 219.157 171.948 217.294 169.628C215.422 167.337 213.034 165.52 210.326 164.327C210.496 164.15 210.676 163.984 210.861 163.823C211.904 164.301 212.903 164.871 213.845 165.525C217.217 167.854 219.749 171.205 221.066 175.083C222.242 178.601 222.389 182.382 221.49 185.98C221.676 185.859 221.864 185.733 222.046 185.609C225.509 183.275 228.701 180.473 231.106 177.036C233.18 174.131 234.507 170.761 234.97 167.224C235.431 163.359 234.463 159.559 232.736 156.11C230.829 152.421 228.427 149.01 225.595 145.971C222.75 142.849 219.534 140.086 216.018 137.744C215.938 137.691 215.883 137.609 215.862 137.516C215.842 137.422 215.858 137.325 215.907 137.243C215.945 137.169 216.01 137.112 216.09 137.086C216.13 137.076 216.172 137.074 216.213 137.083C216.253 137.091 216.291 137.108 216.325 137.133C216.759 137.423 217.189 137.715 217.614 138.015C221.155 140.52 224.371 143.455 227.188 146.753C229.91 149.931 232.387 153.462 234.045 157.32Z" fill="white"/>
        <path d="M158.243 11.8074C161.228 11.8074 163.648 9.38954 163.648 6.40696C163.648 3.42439 161.228 1.00653 158.243 1.00653C155.258 1.00653 152.838 3.42439 152.838 6.40696C152.838 9.38954 155.258 11.8074 158.243 11.8074Z" fill="#EADBD6"/>
        <path d="M225.453 84.0779C227.273 84.0779 228.748 82.6038 228.748 80.7853C228.748 78.9669 227.273 77.4928 225.453 77.4928C223.633 77.4928 222.158 78.9669 222.158 80.7853C222.158 82.6038 223.633 84.0779 225.453 84.0779Z" fill="#EADBD6"/>
        <path d="M129.008 93.1118C130.828 93.1118 132.303 91.6376 132.303 89.8192C132.303 88.0008 130.828 86.5267 129.008 86.5267C127.188 86.5267 125.713 88.0008 125.713 89.8192C125.713 91.6376 127.188 93.1118 129.008 93.1118Z" fill="#EADBD6"/>
        <path d="M130.869 187H245.699C245.779 187 245.855 186.968 245.912 186.912C245.968 186.855 246 186.779 246 186.699C246 186.619 245.968 186.542 245.912 186.486C245.855 186.429 245.779 186.398 245.699 186.398H130.869C130.789 186.398 130.712 186.429 130.655 186.486C130.599 186.542 130.567 186.619 130.567 186.699C130.567 186.779 130.599 186.855 130.655 186.912C130.712 186.968 130.789 187 130.869 187Z" fill="#CBCBCB"/>
        <path d="M233.026 29.0994C233.177 28.0298 232.93 26.9422 232.332 26.0425C231.734 25.1428 230.826 24.4936 229.781 24.218C228.735 23.9423 227.625 24.0594 226.66 24.5469C225.696 25.0344 224.943 25.8586 224.546 26.8632L215.228 37.5364L217.962 45.166L227.333 32.6947C227.945 32.8905 228.592 32.9498 229.229 32.8687C229.866 32.7875 230.477 32.5678 231.02 32.225C231.563 31.8823 232.024 31.4247 232.37 30.8847C232.717 30.3447 232.941 29.7353 233.026 29.0994Z" fill="#FFB7B7"/>
        <path d="M194.401 70.6291L225.333 37.6469L221.16 31.0197L182.365 63.8016L194.401 70.6291Z" fill="#08375E"/>
        <path d="M187.498 50.5894C193.49 50.5894 198.348 45.7359 198.348 39.7488C198.348 33.7617 193.49 28.9082 187.498 28.9082C181.505 28.9082 176.648 33.7617 176.648 39.7488C176.648 45.7359 181.505 50.5894 187.498 50.5894Z" fill="#2F2E41"/>
        <path d="M188.37 33.6248C190.705 31.2593 193.53 29.4338 196.647 28.277C198.648 27.5364 200.826 27.0788 202.917 27.4994C205.009 27.92 206.987 29.3658 207.571 31.4164C208.048 33.0932 207.555 34.8986 206.815 36.477C206.074 38.0555 205.086 39.5192 204.487 41.1565C203.876 42.8272 203.692 44.6239 203.952 46.3835C204.212 48.1431 204.908 49.8099 205.977 51.2327C207.045 52.6554 208.453 53.789 210.071 54.5305C211.689 55.272 213.467 55.598 215.243 55.4788C213.188 55.7542 211.293 56.7192 209.284 57.2328C207.275 57.7465 204.904 57.7116 203.411 56.2737C201.832 54.7522 201.8 52.2786 201.877 50.0878C201.99 46.8311 202.104 43.5744 202.217 40.3177C202.275 38.6569 202.325 36.9428 201.725 35.3926C201.126 33.8424 199.701 32.485 198.038 32.4991C196.777 32.5098 195.661 33.2728 194.65 34.0252C193.639 34.7777 192.569 35.5805 191.314 35.6924C190.058 35.8043 188.624 34.8759 188.718 33.6199L188.37 33.6248Z" fill="#2F2E41"/>
        <path d="M146.288 112.538C145.247 112.827 144.135 112.724 143.164 112.249C142.193 111.774 141.43 110.96 141.02 109.961C140.61 108.961 140.581 107.846 140.939 106.827C141.297 105.808 142.016 104.955 142.961 104.43L152.335 93.8054L160.263 95.5167L149.112 106.429C149.386 107.009 149.53 107.642 149.532 108.284C149.535 108.925 149.397 109.56 149.128 110.142C148.858 110.725 148.465 111.241 147.974 111.655C147.484 112.069 146.908 112.37 146.288 112.538H146.288Z" fill="#FFB7B7"/>
        <path d="M177.127 74.5003L153.765 103.8L146.643 100.533L174.103 57.82L177.127 74.5003Z" fill="#08375E"/>
        <path d="M158.486 162.973L152.918 162.886L153.588 181.847H158.485L158.486 162.973Z" fill="#FFB7B7"/>
        <path d="M159.734 180.249L150.089 180.249H150.089C148.459 180.249 146.896 180.896 145.743 182.048C144.59 183.199 143.943 184.761 143.943 186.39V186.589L159.734 186.59L159.734 180.249Z" fill="#2F2E41"/>
        <path d="M195.351 157.945L189.269 161.846L201.435 176.47L205.557 173.827L195.351 157.945Z" fill="#FFB7B7"/>
        <path d="M205.744 171.808L197.628 177.014L197.627 177.014C196.256 177.894 195.29 179.283 194.943 180.874C194.596 182.465 194.895 184.129 195.776 185.5L195.884 185.668L209.172 177.144L205.744 171.808Z" fill="#2F2E41"/>
        <path d="M197.518 100.047C197.518 100.047 184.004 55.2005 179.661 54.5945C175.318 53.9884 168.32 66.1014 168.32 66.1014C159.247 77.6672 149.892 115.131 149.892 115.131C149.892 115.131 165.488 116.106 176.888 122.167C188.289 128.227 201.743 121.86 201.743 121.86L197.518 100.047Z" fill="#08375E"/>
        <path opacity="0.1" d="M197.518 100.047C197.518 100.047 184.004 55.2005 179.661 54.5944C175.318 53.9884 170.097 66.2243 170.097 66.2243C165.576 84.8942 149.892 115.131 149.892 115.131C149.892 115.131 165.488 116.106 176.888 122.167C188.289 128.227 201.743 121.86 201.743 121.86L197.518 100.047Z" fill="#2F2E41"/>
        <path d="M186.431 86.6289V109.164L189.085 141.807L202.346 166.5L196.017 171.016L177.933 147.529L170.781 124.207L159.549 175.834L151.11 175.232L156.97 103.651L168.092 83.5026L186.431 86.6289Z" fill="#2F2E41"/>
        <path d="M172.805 64.8325C168.585 69.0483 172.503 73.5652 172.503 73.5652L167.681 84.4058L186.669 89.5249L193.304 59.9006L188.783 55.0825C179.742 54.7814 179.737 54.5942 179.737 54.5942C178.153 56.1431 172.805 64.8325 172.805 64.8325Z" fill="#97CEED"/>
        <path d="M194.069 56.8316C193.207 56.1956 192.226 55.7369 191.185 55.482C190.144 55.2271 189.063 55.1812 188.004 55.3468C186.945 55.5124 185.929 55.8863 185.016 56.4468C184.103 57.0073 183.31 57.7434 182.683 58.6122C177.91 65.2528 173.496 75.9756 179.577 89.3488C189.342 110.822 197.84 121.815 201.294 121.814C201.445 121.815 201.595 121.791 201.738 121.744C203.865 121.023 206.939 117.428 207.496 114.26C207.695 113.126 207.647 111.547 206.29 110.462C202.392 107.347 195.393 97.6457 193.209 84.8772C192.003 77.8219 194.343 71.3951 196.518 67.2463C197.437 65.5296 197.706 63.5395 197.275 61.6409C196.845 59.7422 195.744 58.0622 194.174 56.9088L194.069 56.8316Z" fill="#08375E"/>
        <path d="M188.056 49.5244C191.926 47.4104 193.349 42.5618 191.233 38.6947C189.117 34.8276 184.264 33.4064 180.394 35.5204C176.523 37.6343 175.101 42.4829 177.217 46.35C179.332 50.2171 184.185 51.6383 188.056 49.5244Z" fill="#FFB7B7"/>
        <path d="M172.992 41.9191H184.525L184.644 40.2647L185.235 41.9191H187.011L187.245 38.6402L188.417 41.9191H191.853V41.7566C191.851 39.4739 190.942 37.2855 189.326 35.6714C187.711 34.0572 185.52 33.1493 183.236 33.1467H181.61C179.325 33.1493 177.135 34.0572 175.519 35.6713C173.904 37.2855 172.995 39.4739 172.992 41.7566V41.9191Z" fill="#2F2E41"/>
        <path d="M190.111 47.8655L195.032 46.2699V34.3286H185.736L185.966 34.5581C189.169 37.7534 192.73 49.0896 190.111 47.8655Z" fill="#2F2E41"/>
    </g>
    <defs>
        <clipPath id="clip0">
            <rect width="246" height="187" fill="white"/>
        </clipPath>
    </defs>
</svg>
