<svg width="65" height="65" viewBox="0 0 65 65" fill="none" xmlns="http://www.w3.org/2000/svg">
    <g clip-path="url(#clip0)">
        <path d="M17.9697 0.414327C17.4086 -0.127737 16.5142 -0.11211 15.9721 0.449025C15.4435 0.996519 15.4435 1.86438 15.9721 2.41174L46.0505 32.4929L15.9694 62.5713C15.4082 63.1134 15.3927 64.0076 15.9347 64.5688C16.4767 65.13 17.3709 65.1455 17.9322 64.6035C17.944 64.5922 17.9555 64.5806 17.9669 64.5688L49.0455 33.4903C49.5969 32.9387 49.5969 32.0445 49.0455 31.4928L17.9697 0.414327Z" fill="#B8B0C8"/>
        <path d="M16.9695 64.9841C16.1893 64.9855 15.5558 64.3541 15.5543 63.5739C15.5536 63.1978 15.703 62.8369 15.9694 62.5712L46.0505 32.4928L15.9694 2.41456C15.417 1.86217 15.417 0.966628 15.9694 0.414234C16.5218 -0.13816 17.4173 -0.13816 17.9697 0.414234L49.0482 31.4928C49.5997 32.0444 49.5997 32.9386 49.0482 33.4903L17.9697 64.5688C17.7048 64.8346 17.3449 64.9841 16.9695 64.9841Z" fill="#C4C4C4"/>
    </g>
    <defs>
        <clipPath id="clip0">
            <rect width="65" height="65" fill="white"/>
        </clipPath>
    </defs>
</svg>
