<svg width="289" height="219" viewBox="0 0 289 219" fill="none" xmlns="http://www.w3.org/2000/svg">
    <g clip-path="url(#clip0)">
        <path d="M174.374 202.634C178.557 205.24 183.324 218.413 183.324 218.413C183.324 218.413 168.402 219.317 164.22 216.713C163.224 216.093 162.37 215.298 161.706 214.372C161.042 213.445 160.58 212.406 160.348 211.314C160.116 210.222 160.118 209.098 160.353 208.007C160.588 206.916 161.053 205.878 161.719 204.953C162.386 204.029 163.243 203.235 164.24 202.618C165.237 202.001 166.354 201.573 167.53 201.357C168.705 201.142 169.914 201.144 171.088 201.363C172.263 201.582 173.379 202.014 174.374 202.634V202.634Z" fill="#EADBD6"/>
        <path d="M183.494 218.314L183.26 218.488C174.733 208.545 161.865 205.111 161.737 205.078L161.817 204.81C161.947 204.844 174.905 208.3 183.494 218.314Z" fill="white"/>
        <path d="M196.749 197.379C196.482 203.853 183.241 218.636 183.241 218.636C183.241 218.636 171.262 202.95 171.528 196.479C171.656 193.371 173.108 190.437 175.564 188.324C178.02 186.21 181.278 185.09 184.623 185.209C187.967 185.328 191.124 186.678 193.398 188.96C195.672 191.242 196.877 194.271 196.749 197.379Z" fill="#EADBD6"/>
        <path d="M183.49 218.75L183.101 218.62C189.516 202.064 184.528 185.479 184.477 185.313L184.875 185.207C184.927 185.374 189.952 202.074 183.49 218.75Z" fill="white"/>
        <path d="M149.203 160.545H35.719C33.6972 160.543 31.7589 159.795 30.3293 158.467C28.8996 157.138 28.0955 155.336 28.0932 153.457V32.924C28.0955 31.0449 28.8996 29.2435 30.3293 27.9148C31.7589 26.5861 33.6972 25.8387 35.719 25.8365H149.203C151.225 25.8387 153.164 26.5861 154.593 27.9148C156.023 29.2435 156.827 31.0449 156.829 32.924V153.457C156.827 155.336 156.023 157.138 154.593 158.467C153.164 159.795 151.225 160.543 149.203 160.545Z" fill="#EADBD6"/>
        <path d="M143.901 154.638H41.0219C39.2267 154.636 37.5057 153.972 36.2364 152.793C34.967 151.613 34.253 150.013 34.2509 148.345V38.0364C34.253 36.368 34.967 34.7685 36.2364 33.5888C37.5057 32.409 39.2267 31.7454 41.0219 31.7435H143.901C145.696 31.7454 147.417 32.409 148.686 33.5888C149.955 34.7685 150.67 36.368 150.672 38.0364V148.345C150.67 150.013 149.955 151.613 148.686 152.793C147.417 153.972 145.696 154.636 143.901 154.638Z" fill="white"/>
        <path d="M139.808 47.4435H87.9086C87.6861 47.4438 87.4658 47.4033 87.2601 47.3244C87.0545 47.2454 86.8676 47.1296 86.7102 46.9835C86.5527 46.8374 86.4279 46.6639 86.3426 46.4729C86.2574 46.2819 86.2136 46.0771 86.2136 45.8703C86.2136 45.6636 86.2574 45.4588 86.3426 45.2678C86.4279 45.0768 86.5527 44.9033 86.7102 44.7572C86.8676 44.6111 87.0545 44.4953 87.2601 44.4163C87.4658 44.3374 87.6861 44.2969 87.9086 44.2972H139.808C140.03 44.2969 140.251 44.3374 140.456 44.4163C140.662 44.4953 140.849 44.6111 141.006 44.7572C141.164 44.9033 141.289 45.0768 141.374 45.2678C141.459 45.4588 141.503 45.6636 141.503 45.8703C141.503 46.0771 141.459 46.2819 141.374 46.4729C141.289 46.6639 141.164 46.8374 141.006 46.9835C140.849 47.1296 140.662 47.2454 140.456 47.3244C140.251 47.4033 140.03 47.4438 139.808 47.4435Z" fill="#EADBD6"/>
        <path d="M139.808 53.6595H87.9086C87.4596 53.6595 87.0291 53.4938 86.7117 53.1988C86.3942 52.9037 86.2159 52.5036 86.2159 52.0864C86.2159 51.6691 86.3942 51.269 86.7117 50.974C87.0291 50.6789 87.4596 50.5132 87.9086 50.5132H139.808C140.257 50.5132 140.687 50.6789 141.005 50.974C141.322 51.269 141.501 51.6691 141.501 52.0864C141.501 52.5036 141.322 52.9037 141.005 53.1988C140.687 53.4938 140.257 53.6595 139.808 53.6595Z" fill="#EADBD6"/>
        <path d="M110.406 59.8756H87.9085C87.4596 59.8756 87.0291 59.7099 86.7116 59.4148C86.3942 59.1198 86.2159 58.7197 86.2159 58.3024C86.2159 57.8852 86.3942 57.4851 86.7116 57.19C87.0291 56.895 87.4596 56.7292 87.9085 56.7292H110.406C110.855 56.7292 111.285 56.895 111.603 57.19C111.92 57.4851 112.098 57.8852 112.098 58.3024C112.098 58.7197 111.92 59.1198 111.603 59.4148C111.285 59.7099 110.855 59.8756 110.406 59.8756Z" fill="#EADBD6"/>
        <path d="M133.549 84.9817H51.6165C51.394 84.982 51.1737 84.9415 50.968 84.8626C50.7624 84.7836 50.5755 84.6678 50.4181 84.5217C50.2607 84.3756 50.1358 84.2021 50.0506 84.0111C49.9653 83.8201 49.9215 83.6153 49.9215 83.4086C49.9215 83.2018 49.9653 82.997 50.0506 82.806C50.1358 82.615 50.2607 82.4415 50.4181 82.2954C50.5755 82.1493 50.7624 82.0335 50.968 81.9546C51.1737 81.8756 51.394 81.8352 51.6165 81.8355H133.549C133.772 81.8352 133.992 81.8756 134.198 81.9546C134.404 82.0335 134.59 82.1493 134.748 82.2954C134.905 82.4415 135.03 82.615 135.115 82.806C135.201 82.997 135.244 83.2018 135.244 83.4086C135.244 83.6153 135.201 83.8201 135.115 84.0111C135.03 84.2021 134.905 84.3756 134.748 84.5217C134.59 84.6678 134.404 84.7836 134.198 84.8626C133.992 84.9415 133.772 84.982 133.549 84.9817Z" fill="#EADBD6"/>
        <path d="M133.549 91.1977H51.6165C51.1676 91.1977 50.7371 91.0319 50.4196 90.7369C50.1022 90.4419 49.9238 90.0417 49.9238 89.6245C49.9238 89.2073 50.1022 88.8071 50.4196 88.5121C50.7371 88.2171 51.1676 88.0513 51.6165 88.0513H133.549C133.998 88.0513 134.429 88.2171 134.746 88.5121C135.064 88.8071 135.242 89.2073 135.242 89.6245C135.242 90.0417 135.064 90.4419 134.746 90.7369C134.429 91.0319 133.998 91.1977 133.549 91.1977Z" fill="#EADBD6"/>
        <path d="M133.549 105.308H51.6165C51.1676 105.308 50.7371 105.142 50.4197 104.847C50.1022 104.552 49.9239 104.152 49.9239 103.735C49.9239 103.318 50.1022 102.918 50.4197 102.623C50.7371 102.328 51.1676 102.162 51.6165 102.162H133.549C133.998 102.162 134.429 102.328 134.746 102.623C135.064 102.918 135.242 103.318 135.242 103.735C135.242 104.152 135.064 104.552 134.746 104.847C134.429 105.142 133.998 105.308 133.549 105.308Z" fill="#EADBD6"/>
        <path d="M133.549 111.524H51.6165C51.1676 111.524 50.7371 111.358 50.4196 111.063C50.1022 110.768 49.9238 110.368 49.9238 109.951C49.9238 109.534 50.1022 109.134 50.4196 108.839C50.7371 108.544 51.1676 108.378 51.6165 108.378H133.549C133.998 108.378 134.429 108.544 134.746 108.839C135.064 109.134 135.242 109.534 135.242 109.951C135.242 110.368 135.064 110.768 134.746 111.063C134.429 111.358 133.998 111.524 133.549 111.524Z" fill="#EADBD6"/>
        <path d="M133.549 125.634H51.6165C51.1676 125.634 50.7371 125.469 50.4197 125.174C50.1022 124.879 49.9239 124.479 49.9239 124.061C49.9239 123.644 50.1022 123.244 50.4197 122.949C50.7371 122.654 51.1676 122.488 51.6165 122.488H133.549C133.998 122.488 134.429 122.654 134.746 122.949C135.064 123.244 135.242 123.644 135.242 124.061C135.242 124.479 135.064 124.879 134.746 125.174C134.429 125.469 133.998 125.634 133.549 125.634Z" fill="#EADBD6"/>
        <path d="M133.549 131.851H51.6165C51.1676 131.851 50.7371 131.685 50.4196 131.39C50.1022 131.095 49.9238 130.695 49.9238 130.278C49.9238 129.86 50.1022 129.46 50.4196 129.165C50.7371 128.87 51.1676 128.704 51.6165 128.704H133.549C133.998 128.704 134.429 128.87 134.746 129.165C135.064 129.46 135.242 129.86 135.242 130.278C135.242 130.695 135.064 131.095 134.746 131.39C134.429 131.685 133.998 131.851 133.549 131.851Z" fill="#EADBD6"/>
        <path d="M133.535 149.069H111.038C110.589 149.069 110.158 148.903 109.841 148.608C109.523 148.313 109.345 147.913 109.345 147.496C109.345 147.079 109.523 146.678 109.841 146.383C110.158 146.088 110.589 145.923 111.038 145.923H133.535C133.984 145.923 134.414 146.088 134.732 146.383C135.049 146.678 135.228 147.079 135.228 147.496C135.228 147.913 135.049 148.313 134.732 148.608C134.414 148.903 133.984 149.069 133.535 149.069Z" fill="#97CEED"/>
        <path d="M73.5419 52.2705C73.5465 55.6489 72.3159 58.9285 70.0518 61.5716C69.3195 62.4319 68.4858 63.2132 67.5662 63.9009C65.0568 65.7928 61.9908 66.9358 58.7702 67.1799C58.3318 67.2152 57.8898 67.2312 57.4445 67.2312C56.562 67.2314 55.681 67.1638 54.8105 67.0291C54.5034 66.9842 54.203 66.9296 53.9026 66.8655C53.3799 66.7573 52.8636 66.6235 52.3561 66.4644C50.7102 65.9553 49.1642 65.2012 47.7785 64.2314C47.4092 63.9747 47.0537 63.702 46.7084 63.4133C46.2862 63.0652 45.8862 62.6945 45.5105 62.3031C45.4104 62.2005 45.3102 62.0946 45.2136 61.9887C43.5292 60.1565 42.3461 57.973 41.7651 55.6243C41.1841 53.2756 41.2223 50.8312 41.8766 48.4992C42.5309 46.1672 43.7818 44.0166 45.5229 42.2307C47.2639 40.4447 49.4435 39.0762 51.8762 38.2417C54.3088 37.4071 56.9224 37.1313 59.4944 37.4376C62.0665 37.7439 64.5208 38.6234 66.6484 40.001C68.776 41.3787 70.5139 43.2138 71.7142 45.35C72.9144 47.4863 73.5414 49.8605 73.5419 52.2705L73.5419 52.2705Z" fill="#EADBD6"/>
        <path d="M56.8842 57.3765C60.5274 57.3765 63.4809 54.6316 63.4809 51.2456C63.4809 47.8596 60.5274 45.1147 56.8842 45.1147C53.241 45.1147 50.2876 47.8596 50.2876 51.2456C50.2876 54.6316 53.241 57.3765 56.8842 57.3765Z" fill="#9E616A"/>
        <path d="M64.2281 48.2569C64.258 47.709 64.0916 47.1674 63.7551 46.7168L63.5169 46.4024C62.6572 44.8624 61.2385 43.4764 60.1995 42.4625C59.4192 41.7021 58.6391 41.3364 57.8898 41.3717C57.3446 41.4078 56.837 41.6432 56.478 42.0262C55.4914 41.9702 54.5086 42.1829 53.6502 42.6382C52.7918 43.0935 52.0949 43.7717 51.645 44.5897C48.4863 46.1393 49.4287 50.7145 49.439 50.7626L50.2021 51.9529L50.2884 51.8021C50.2884 51.7989 50.2987 51.7861 50.3125 51.7604C50.461 51.5134 51.2687 50.1402 51.8142 49.2707C52.0133 48.9741 52.2781 48.7204 52.5909 48.5264C53.1018 48.2019 53.689 47.9962 54.3032 47.9264L55.9809 47.7243L55.3457 48.6098H59.9163L61.6734 48.4173C61.8495 49.0878 63.2442 51.6898 63.4132 52.0043L63.427 52.0299L63.5203 52.2064L64.0416 50.8749C64.346 50.0318 64.4102 49.1299 64.2281 48.2569Z" fill="#2F2E41"/>
        <path d="M47.8269 64.2637C48.11 63.9172 49.5771 62.3001 52.9533 61.4435L54.7415 59.5922L61.9116 58.5303L65.5605 60.404L70.0518 61.5718C69.3195 62.4321 68.4858 63.2134 67.5662 63.9011C65.0568 65.793 61.9908 66.936 58.7702 67.1801C58.3318 67.2154 57.8899 67.2314 57.4446 67.2314C56.5621 67.2316 55.6811 67.164 54.8106 67.0293C54.5033 66.9844 54.203 66.9298 53.9027 66.8657C53.3799 66.7576 52.8636 66.6237 52.3561 66.4646C50.7288 65.9621 49.1995 65.2189 47.8269 64.2637C47.8097 64.254 47.7958 64.2412 47.7786 64.2316L47.8269 64.2637Z" fill="#97CEED"/>
        <path d="M183.898 7.504H1.02434C0.752757 7.50373 0.492386 7.40334 0.30035 7.22486C0.108314 7.04638 0.000296059 6.8044 0 6.55199V0.95201C0.000296059 0.699605 0.108314 0.457618 0.30035 0.279141C0.492386 0.100664 0.752757 0.000275155 1.02434 0H183.898C184.17 0.000275155 184.43 0.100664 184.622 0.279141C184.814 0.457618 184.922 0.699605 184.923 0.95201V6.55199C184.922 6.8044 184.814 7.04638 184.622 7.22486C184.43 7.40334 184.17 7.50373 183.898 7.504Z" fill="#97CEED"/>
        <path d="M5.94467 4.83055C6.74786 4.83055 7.39897 4.22541 7.39897 3.47894C7.39897 2.73246 6.74786 2.12732 5.94467 2.12732C5.14148 2.12732 4.49037 2.73246 4.49037 3.47894C4.49037 4.22541 5.14148 4.83055 5.94467 4.83055Z" fill="white"/>
        <path d="M11.4647 4.83055C12.2679 4.83055 12.919 4.22541 12.919 3.47894C12.919 2.73246 12.2679 2.12732 11.4647 2.12732C10.6615 2.12732 10.0104 2.73246 10.0104 3.47894C10.0104 4.22541 10.6615 4.83055 11.4647 4.83055Z" fill="white"/>
        <path d="M16.985 4.83055C17.7882 4.83055 18.4393 4.22541 18.4393 3.47894C18.4393 2.73246 17.7882 2.12732 16.985 2.12732C16.1818 2.12732 15.5307 2.73246 15.5307 3.47894C15.5307 4.22541 16.1818 4.83055 16.985 4.83055Z" fill="white"/>
        <path d="M178.49 2.54863H172.133C172.009 2.54765 171.89 2.50111 171.803 2.41914C171.715 2.33718 171.666 2.22644 171.666 2.11103C171.666 1.99561 171.715 1.88487 171.803 1.80291C171.89 1.72095 172.009 1.67441 172.133 1.67342H178.49C178.552 1.67292 178.614 1.68388 178.671 1.70565C178.729 1.72742 178.781 1.75957 178.825 1.80026C178.869 1.84094 178.905 1.88935 178.928 1.94269C178.952 1.99603 178.965 2.05324 178.965 2.11103C178.965 2.16881 178.952 2.22602 178.928 2.27936C178.905 2.3327 178.869 2.38111 178.825 2.4218C178.781 2.46248 178.729 2.49464 178.671 2.51641C178.614 2.53818 178.552 2.54913 178.49 2.54863Z" fill="white"/>
        <path d="M178.49 4.1895H172.133C172.008 4.1895 171.889 4.1434 171.8 4.06133C171.712 3.97926 171.662 3.86795 171.662 3.75189C171.662 3.63583 171.712 3.52453 171.8 3.44246C171.889 3.36039 172.008 3.31429 172.133 3.31429H178.49C178.552 3.31379 178.614 3.32474 178.671 3.34651C178.729 3.36828 178.781 3.40044 178.825 3.44112C178.869 3.48181 178.905 3.53022 178.928 3.58356C178.952 3.6369 178.965 3.69411 178.965 3.75189C178.965 3.80968 178.952 3.86689 178.928 3.92023C178.905 3.97357 178.869 4.02198 178.825 4.06266C178.781 4.10335 178.729 4.13551 178.671 4.15728C178.614 4.17905 178.552 4.19 178.49 4.1895Z" fill="white"/>
        <path d="M178.49 5.83067H172.133C172.009 5.82973 171.89 5.78321 171.803 5.70124C171.715 5.61928 171.666 5.5085 171.666 5.39305C171.666 5.2776 171.715 5.16683 171.803 5.08487C171.89 5.0029 172.009 4.95638 172.133 4.95544H178.49C178.614 4.95638 178.733 5.0029 178.82 5.08487C178.908 5.16683 178.957 5.2776 178.957 5.39305C178.957 5.5085 178.908 5.61928 178.82 5.70124C178.733 5.78321 178.614 5.82973 178.49 5.83067Z" fill="white"/>
        <path d="M228.696 150.593C228.403 150.297 228.184 149.945 228.054 149.562C227.923 149.179 227.885 148.774 227.941 148.376C227.997 147.978 228.147 147.595 228.379 147.257C228.612 146.918 228.921 146.63 229.286 146.415L226.862 136.911L231.992 138.653L233.507 147.41C233.856 148.004 233.959 148.696 233.796 149.355C233.633 150.014 233.215 150.595 232.622 150.988C232.029 151.38 231.302 151.556 230.579 151.484C229.855 151.411 229.185 151.094 228.696 150.593Z" fill="#9E616A"/>
        <path d="M216.361 110.768L218.42 115.688C218.42 115.688 217.537 120.607 219.008 121.701C220.478 122.794 219.89 122.794 219.89 123.614C219.941 124.202 220.124 124.774 220.428 125.292C220.732 125.81 221.15 126.262 221.654 126.62C222.831 127.44 228.124 144.113 228.124 144.113H233.418C233.247 142.842 233.247 141.557 233.418 140.286C233.712 138.373 232.535 133.453 231.947 132.633C231.359 131.813 231.947 130.72 231.947 129.08C231.947 127.44 230.771 126.62 230.771 123.887C230.771 121.154 227.242 99.8356 227.536 97.3757C227.83 94.9159 224.595 92.7294 224.595 92.7294H221.654L216.361 110.768Z" fill="#EADBD6"/>
        <path d="M229.898 214.713H225.986L224.125 200.689L229.899 200.689L229.898 214.713Z" fill="#9E616A"/>
        <path d="M230.896 218.238L218.282 218.237V218.089C218.282 216.879 218.799 215.718 219.72 214.862C220.641 214.007 221.89 213.526 223.192 213.526H223.192L225.496 211.901L229.795 213.526L230.897 213.526L230.896 218.238Z" fill="#2F2E41"/>
        <path d="M194.11 214.609L190.436 213.36L193.872 199.595L199.295 201.439L194.11 214.609Z" fill="#9E616A"/>
        <path d="M193.744 218.238L181.897 214.209L181.952 214.07C182.4 212.934 183.315 212.009 184.496 211.499C185.677 210.99 187.027 210.937 188.25 211.352L188.25 211.353L191.015 210.562L194.452 213.461L195.486 213.813L193.744 218.238Z" fill="#2F2E41"/>
        <path d="M221.279 149.133C221.279 149.133 218.633 161.159 223.044 160.066C227.455 158.973 225.69 148.587 225.69 148.587L221.279 149.133Z" fill="#A0616A"/>
        <path d="M201.87 139.157C201.87 139.157 198.341 143.53 198.341 145.99C198.341 148.45 197.165 170.315 197.165 170.315C197.165 170.315 188.236 202.875 190.001 204.515C191.765 206.155 197.941 207.795 198.823 206.975C199.705 206.155 207.458 172.502 207.458 172.502L214.81 154.19L221.573 180.428L222.162 208.306C222.162 208.306 229.514 209.946 230.984 208.852C232.454 207.759 232.748 181.248 230.984 171.955C229.22 162.662 231.278 141.344 231.278 141.344L201.87 139.157Z" fill="#2F2E41"/>
        <path d="M213.664 80.8046C218.536 80.8046 222.486 77.1336 222.486 72.6052C222.486 68.0768 218.536 64.4058 213.664 64.4058C208.791 64.4058 204.841 68.0768 204.841 72.6052C204.841 77.1336 208.791 80.8046 213.664 80.8046Z" fill="#9E616A"/>
        <path d="M202.458 92.6938C202.458 92.6938 204.999 89.1761 209.998 84.5298C212.645 83.7098 217.23 84.1877 218.82 84.5298C226.172 93.5491 226.635 92.9498 228.549 97.9892C229.045 99.296 229.293 100.552 229.072 101.576C228.19 105.676 230.984 138.884 231.278 139.977C231.572 141.07 233.631 142.437 231.572 142.437C229.514 142.437 198.341 141.344 198.929 140.524C199.518 139.704 202.458 92.6938 202.458 92.6938Z" fill="#EADBD6"/>
        <path opacity="0.1" d="M201.112 140.163L209.957 122.075L205.535 141.312L201.112 140.163Z" fill="#2F2E41"/>
        <path d="M210.995 80.2015C211.821 79.6302 212.581 78.9815 213.264 78.2655C213.95 77.5431 214.38 76.6417 214.494 75.6843C214.544 75.2069 214.463 74.7255 214.259 74.2848C214.055 73.8442 213.735 73.4587 213.328 73.1642C212.487 72.6125 211.206 72.6446 210.508 73.3475C210.845 72.3352 211.153 71.1411 210.471 70.2922C209.85 69.5197 208.691 69.3884 207.69 69.1337C205.76 68.6342 204.099 67.4844 203.032 65.9084L204.731 66.2353L204.542 65.1092L205.95 65.5644L205.963 63.996L207.416 64.7519C209.196 63.2355 211.541 62.4234 213.954 62.4878C215.172 62.5067 216.364 62.8109 217.421 63.3723C218.48 63.9418 219.283 64.8477 219.68 65.9234C220.428 65.2016 221.762 65.2574 222.654 65.8215C223.545 66.3856 224.069 67.3293 224.428 68.2743C225.14 70.0864 225.306 72.0448 224.907 73.9381C224.497 75.8358 223.397 77.5446 221.791 78.7775C220.317 79.8234 218.561 80.4725 216.717 80.6536C214.88 80.8306 213.025 80.7569 211.211 80.4348" fill="#2F2E41"/>
        <path d="M198.358 150.557C198.65 150.262 198.869 149.91 199 149.527C199.13 149.144 199.169 148.739 199.112 148.34C199.056 147.942 198.907 147.56 198.674 147.221C198.442 146.882 198.133 146.595 197.768 146.379L200.192 136.875L195.062 138.617L193.547 147.375C193.198 147.968 193.095 148.66 193.258 149.32C193.421 149.979 193.838 150.56 194.431 150.952C195.024 151.344 195.751 151.521 196.475 151.448C197.199 151.375 197.869 151.059 198.358 150.558V150.557Z" fill="#9E616A"/>
        <path d="M205.399 92.6938H202.458C202.458 92.6938 199.224 94.8804 199.518 97.3402C199.812 99.8 196.283 121.119 196.283 123.852C196.283 126.585 195.106 127.405 195.106 129.045C195.106 130.685 195.695 131.778 195.106 132.598C194.518 133.418 193.342 138.337 193.636 140.251C193.807 141.521 193.807 142.806 193.636 144.077H198.929C198.929 144.077 204.223 127.405 205.399 126.585C205.904 126.227 206.322 125.774 206.626 125.256C206.93 124.738 207.113 124.167 207.164 123.578C207.164 122.758 206.575 122.758 208.046 121.665C209.516 120.572 208.634 115.652 208.634 115.652L210.693 110.733L205.399 92.6938Z" fill="#EADBD6"/>
    </g>
    <defs>
        <clipPath id="clip0">
            <rect width="289" height="219" fill="white"/>
        </clipPath>
    </defs>
</svg>
