<svg width="242" height="180" viewBox="0 0 242 180" fill="none" xmlns="http://www.w3.org/2000/svg">
    <g clip-path="url(#clip0)">
        <path d="M20.71 177.048C32.1478 177.048 41.42 176.342 41.42 175.472C41.42 174.601 32.1478 173.896 20.71 173.896C9.27218 173.896 0 174.601 0 175.472C0 176.342 9.27218 177.048 20.71 177.048Z" fill="#EADBD6"/>
        <path d="M65.3844 180C76.8222 180 86.0944 179.294 86.0944 178.424C86.0944 177.553 76.8222 176.848 65.3844 176.848C53.9466 176.848 44.6744 177.553 44.6744 178.424C44.6744 179.294 53.9466 180 65.3844 180Z" fill="#EADBD6"/>
        <path d="M222.861 0H118.357C117.748 0.000740625 117.163 0.242617 116.732 0.672577C116.302 1.10254 116.059 1.68548 116.058 2.29353V176.907C116.059 177.516 116.301 178.099 116.732 178.529C117.163 178.959 117.747 179.201 118.357 179.201H222.861C223.409 179.201 223.938 179.007 224.354 178.652C224.77 178.297 225.045 177.805 225.129 177.265C225.15 177.147 225.16 177.027 225.16 176.907V2.29353C225.159 1.68548 224.917 1.10254 224.486 0.672577C224.055 0.242617 223.471 0.000739844 222.861 0ZM224.24 176.907C224.24 177.272 224.095 177.622 223.836 177.881C223.578 178.139 223.227 178.284 222.861 178.284H118.357C117.991 178.284 117.64 178.139 117.382 177.881C117.123 177.622 116.978 177.272 116.978 176.907V2.29353C116.978 1.92873 117.124 1.57903 117.382 1.32107C117.641 1.06312 117.991 0.917959 118.357 0.917411H222.861C223.227 0.917959 223.577 1.06312 223.836 1.32107C224.094 1.57903 224.24 1.92873 224.24 2.29353V176.907Z" fill="#EADBD6"/>
        <path d="M126.631 12.8804C126.388 12.8807 126.154 12.9775 125.982 13.1494C125.809 13.3214 125.712 13.5546 125.712 13.7979V51.7175C125.712 51.9607 125.809 52.1939 125.982 52.3659C126.154 52.5379 126.388 52.6347 126.631 52.6349H214.587C214.831 52.6347 215.064 52.5379 215.237 52.3659C215.409 52.1939 215.506 51.9607 215.506 51.7175V13.7978C215.506 13.5546 215.409 13.3214 215.237 13.1494C215.064 12.9774 214.831 12.8807 214.587 12.8804L126.631 12.8804Z" fill="#EADBD6"/>
        <path d="M89.8933 42.55C89.658 42.5502 89.4324 42.6436 89.266 42.8097C89.0996 42.9757 89.006 43.2008 89.0057 43.4356V80.0428C89.006 80.2776 89.0996 80.5028 89.266 80.6688C89.4324 80.8348 89.658 80.9282 89.8933 80.9285H174.804C175.04 80.9282 175.265 80.8348 175.432 80.6688C175.598 80.5028 175.692 80.2776 175.692 80.0428V43.4356C175.692 43.2008 175.598 42.9757 175.432 42.8097C175.265 42.6436 175.04 42.5502 174.804 42.55H89.8933Z" fill="#97CEED"/>
        <path d="M46.6739 127.579C46.7856 130.321 45.0305 132.751 43.3871 134.935C42.6377 135.958 35.6731 142.892 33.5696 145.922C33.0601 146.657 20.554 161.061 19.9131 162.396C19.7624 162.712 19.6382 163.04 19.5417 163.376C19.167 164.656 19.1506 166.033 19.1835 167.397V168.352C19.2492 170.434 19.3445 172.527 19.8408 174.544C19.9131 174.839 19.9953 175.137 20.038 175.436C19.9053 175.349 19.78 175.251 19.6633 175.144L12.8663 170.11L12.4423 169.795C12.0085 168.542 11.5976 167.276 11.1342 166.04C10.8581 165.305 11.1539 164.465 11.6404 163.852C12.1674 163.271 12.7485 162.742 13.3758 162.271C13.8574 161.774 14.2869 161.229 14.6576 160.645C19.3478 153.833 32.5572 129.389 33.5203 124.47C34.7898 124.234 36.0906 124.217 37.3658 124.421L44.1463 125.319C44.8793 125.418 45.6812 125.552 46.1578 126.113C46.4833 126.534 46.6642 127.048 46.6739 127.579Z" fill="#EFB7B9"/>
        <path d="M75.617 133.167C75.4725 134.19 75.1106 135.169 74.5554 136.04C73.8586 137.1 65.8553 157.64 63.3673 166.122C62.9104 167.679 63.1503 169.185 63.101 169.706C63.0616 170.139 63.0255 170.572 62.9926 171.002C62.9466 171.536 62.9104 172.071 62.871 172.602C62.7691 174.009 62.6803 175.488 63.2752 176.767C63.5086 177.272 63.8603 177.709 64.0148 178.214C63.7829 178.095 63.5684 177.945 63.3771 177.768L56.5801 172.733C56.0259 171.166 55.5984 169.557 55.3016 167.922C55.1307 166.994 55.0485 165.928 55.6303 165.216C55.6637 165.173 55.6999 165.131 55.7387 165.092C55.9284 164.914 56.1406 164.762 56.3698 164.639C56.58 164.524 56.782 164.395 56.9745 164.252C57.119 164.139 57.2492 164.009 57.3624 163.865C57.9211 163.176 58.1216 162.209 58.2892 161.3C58.9466 157.581 64.5143 134.761 64.4092 134.197C64.2941 133.643 61.1323 128.327 58.963 127.146C61.2138 125.265 63.781 123.797 66.5456 122.81C67.0327 122.584 67.5719 122.492 68.1068 122.545C68.393 122.607 68.6664 122.718 68.9153 122.873C70.4042 123.706 71.5447 125.017 72.6359 126.329C74.2628 128.304 75.8898 130.626 75.617 133.167Z" fill="#EFB7B9"/>
        <path d="M72.6511 125.266C72.4405 127.249 66.8558 129.005 59.7937 130.097C57.9699 130.379 53.4887 119.364 51.535 119.55C49.1856 119.774 49.3496 131.175 47.0261 131.237C39.1162 131.445 34.0046 130.636 32.3522 128.296C31.4582 128.08 30.3801 127.568 30.4229 126.657C30.4524 126.135 30.8666 125.673 30.8633 125.161C30.8633 124.269 33.4565 114.502 34.9849 109.868C35.3661 108.717 35.6422 107.536 36.0728 106.398C37.9331 101.269 38.7318 97.333 42.1303 93.0629C42.6503 92.4638 43.0779 91.7906 43.399 91.0656C43.6907 90.1952 43.8426 89.2842 43.8493 88.3665L44.0366 85.1557C49.0752 84.9195 53.9692 85.0146 58.8993 86.0773C59.1668 86.0694 59.4265 86.1678 59.6212 86.351C59.816 86.5341 59.9298 86.787 59.9377 87.0539L59.9379 87.0612C60.1285 88.2353 60.2622 89.4149 60.3389 90.5999C60.3412 90.8617 60.3788 91.1221 60.4506 91.3739C60.58 91.6923 60.7598 91.988 60.9831 92.2496C63.836 95.9818 65.5846 100.449 66.965 104.922C68.3454 109.396 69.4432 113.994 71.1786 118.369C71.7768 119.877 72.559 121.573 72.7168 123.19C73.3413 123.652 73.2032 124.699 72.6511 125.266Z" fill="#2F2E41"/>
        <path d="M77.4399 71.4859C78.3076 70.7545 79.1753 70.0199 79.9707 69.2131C81.093 68.0261 82.1298 66.7613 83.0733 65.4284C84.0791 64.0607 85.0783 62.6603 85.7027 61.0795C86.4094 59.2691 86.6263 57.2095 87.8556 55.7074C87.9945 55.5122 88.1876 55.3618 88.411 55.2745C89.1111 55.0547 89.6337 55.9304 89.7685 56.6552C90.4258 60.2038 88.858 63.7459 87.333 67.019C86.8301 68.098 86.3042 69.2065 85.4332 70.0231C84.9553 70.4307 84.4561 70.8128 83.9377 71.1677C83.1677 71.7923 82.459 72.4886 81.8211 73.247C80.7255 74.489 79.6836 75.7757 78.6954 77.1072C77.4694 78.747 76.3191 80.4656 74.8663 81.9119C73.4136 83.3583 71.596 84.5357 69.5615 84.821C70.1432 84.7423 69.9526 81.3347 69.8902 80.9051C69.8014 80.2819 69.3741 79.5473 69.361 78.9373C69.3446 78.1895 69.6502 78.0813 70.2682 77.5565L77.4399 71.4859Z" fill="#EFB7B9"/>
        <path d="M53.0456 50.0237C53.0456 50.0237 51.0735 59.8627 48.7728 61.5026C46.4721 63.1424 61.2625 65.1102 61.2625 65.1102C61.2625 65.1102 61.5911 57.239 65.5352 53.6314C69.4793 50.0238 53.0456 50.0237 53.0456 50.0237Z" fill="#EFB7B9"/>
        <path d="M66.2978 89.0945C66.7854 89.2469 67.2959 89.3135 67.8064 89.2912C69.532 89.2725 71.2327 88.8774 72.7891 88.1335C72.9349 88.0772 73.0639 87.9846 73.1638 87.8646C73.2219 87.739 73.2533 87.6028 73.2561 87.4645C73.259 87.3262 73.2331 87.1889 73.1802 87.061C72.2534 83.3222 74.0414 79.0816 72.2665 75.6642C70.3372 76.2906 68.2205 76.9761 66.2912 77.5861C65.9953 77.706 65.6767 77.7597 65.3578 77.7435C64.9756 77.6643 64.6256 77.4737 64.352 77.1958C62.2616 75.392 60.9437 72.8798 59.7506 70.3971C58.5575 67.9144 57.3874 65.3529 55.5074 63.3327C53.6274 61.3124 51.8689 60.2433 49.1212 60.5351C48.1459 60.6682 47.2505 61.1452 46.597 61.8798C45.0456 63.5459 44.7367 66.0811 45.2823 68.2915C45.8279 70.502 47.0801 72.46 48.3817 74.3261C50.0777 76.7596 51.9018 79.1571 54.2584 80.9642C55.5332 81.8855 56.8564 82.7383 58.2222 83.519" fill="#EADBD6"/>
        <path d="M60.7694 57.403C66.2151 57.403 70.6297 52.998 70.6297 47.564C70.6297 42.1301 66.2151 37.725 60.7694 37.725C55.3238 37.725 50.9092 42.1301 50.9092 47.564C50.9092 52.998 55.3238 57.403 60.7694 57.403Z" fill="#EFB7B9"/>
        <path d="M64.7135 75.8807C61.7494 79.3685 61.1229 83.8243 60.5164 88.2221C57.5386 87.2152 54.2387 88.9042 51.1557 88.2877C49.6073 87.7733 47.9692 87.5835 46.3439 87.7304C45.2034 87.6219 44.0728 86.9069 42.9848 87.271C41.1762 88.4141 42.9375 81.333 42.83 79.275C41.8821 44.5592 70.1009 61.4476 64.7135 75.8807Z" fill="#EADBD6"/>
        <path d="M81.3839 72.7978C82.2516 72.0664 83.1193 71.3318 83.9147 70.525C85.0371 69.3379 86.0739 68.0732 87.0174 66.7402C88.0232 65.3726 89.0223 63.9722 89.6468 62.3914C90.3535 60.581 90.5704 58.5214 91.7996 57.0193C91.9386 56.8241 92.1317 56.6737 92.3551 56.5864C93.0552 56.3666 93.5778 57.2423 93.7125 57.9671C94.3699 61.5157 92.8021 65.0578 91.277 68.3309C90.7742 69.4099 90.2483 70.5184 89.3773 71.335C88.8994 71.7426 88.4002 72.1247 87.8818 72.4796C87.1118 73.1042 86.4031 73.8005 85.7652 74.5589C84.6696 75.8008 83.6277 77.0876 82.6395 78.4191C81.4135 80.0589 80.2631 81.7775 78.8104 83.2238C77.3577 84.6702 75.5401 85.8476 73.5056 86.1329C74.0873 86.0542 73.8967 82.6466 73.8343 82.217C73.7455 81.5938 73.3182 80.8592 73.3051 80.2492C73.2887 79.5014 73.5943 79.3932 74.2122 78.8684L81.3839 72.7978Z" fill="#EFB7B9"/>
        <path opacity="0.1" d="M63.7275 76.2087L63.7045 76.2513C63.1359 77.3041 62.2846 78.1896 61.6996 79.2391C61.0422 80.4263 60.7366 81.7808 60.4736 83.1156C60.2918 84.0121 60.1241 84.9096 59.9708 85.8082C58.7905 85.1327 57.6493 84.3914 56.5525 83.5879C54.1959 81.7808 52.3718 79.3834 50.6758 76.9466C49.3611 75.0804 48.1122 73.1225 47.5764 70.9153C47.0407 68.708 47.3529 66.1696 48.8911 64.5035C49.5445 63.7681 50.4397 63.2901 51.4154 63.1556C54.1631 62.8637 55.8985 63.923 57.7785 65.94C59.6585 67.957 60.822 70.5316 62.0217 73.0044C62.5541 74.0769 63.0997 75.1756 63.7275 76.2087Z" fill="#2F2E41"/>
        <path d="M53.0653 61.8469C52.09 61.98 51.1946 62.4569 50.5411 63.1916C48.9897 64.8576 48.6808 67.3928 49.2264 69.6033C49.772 71.8138 51.0242 73.7718 52.3258 75.6379C54.0218 78.0714 55.8459 80.4688 58.2025 82.2759C59.4773 83.1972 60.8005 84.05 62.1663 84.8308C64.4359 86.2257 66.617 85.7913 68.6971 87.4545C69.1531 87.8665 69.6753 88.1992 70.2419 88.4384C70.7295 88.5908 71.24 88.6574 71.7505 88.6352C73.4761 88.6165 75.1768 87.5654 76.7332 86.8215C76.879 86.7652 77.008 86.6726 77.1079 86.5526C77.166 86.427 77.1974 86.2908 77.2003 86.1525C77.2031 86.0143 77.1772 85.8769 77.1243 85.7491C76.1975 82.0102 77.9855 80.3934 76.2106 76.976C74.2813 77.6024 72.1646 78.2878 70.2353 78.8978C69.9394 79.0177 69.6208 79.0714 69.3019 79.0552C68.9197 78.976 68.5697 78.7854 68.2961 78.5075C66.2058 76.7037 64.8878 74.1915 63.6947 71.7088C62.5016 69.2261 61.3315 66.6647 59.4515 64.6444C57.5714 62.6241 55.813 61.555 53.0653 61.8469Z" fill="#EADBD6"/>
        <path d="M66.7953 178.332C66.3559 178.777 65.7844 179.07 65.1654 179.167C64.5463 179.264 63.9125 179.16 63.3574 178.87C63.1255 178.751 62.911 178.6 62.7198 178.424L55.9228 173.389L53.2276 171.392C52.9441 171.129 52.7173 170.811 52.5608 170.458C52.4044 170.104 52.3216 169.723 52.3176 169.337C52.3136 168.95 52.3884 168.567 52.5376 168.211C52.6867 167.854 52.9069 167.532 53.1849 167.263L54.9729 165.872L55.7124 165.295L56.705 164.521L57.5727 163.845L63.1405 166.961L63.2358 167.145L67.4494 175.252C67.6462 175.774 67.6892 176.342 67.5733 176.887C67.4574 177.433 67.1875 177.934 66.7953 178.332Z" fill="#2F2E41"/>
        <path d="M23.0816 175.708C22.6421 176.154 22.0707 176.447 21.4516 176.543C20.8325 176.64 20.1987 176.536 19.6436 176.246C19.5549 176.2 19.4661 176.147 19.3807 176.092C19.2479 176.005 19.1226 175.907 19.006 175.8L12.209 170.766L11.785 170.451L9.51385 168.768C9.23035 168.505 9.00346 168.187 8.84701 167.834C8.69056 167.481 8.60782 167.099 8.60382 166.713C8.59982 166.327 8.67465 165.944 8.82376 165.587C8.97286 165.23 9.19312 164.908 9.47112 164.639L11.2591 163.249L11.9986 162.671L12.9912 161.897L13.8589 161.222L14.0003 161.3L18.8844 164.032L19.4267 164.337L19.522 164.521L23.7356 172.628C23.9324 173.15 23.9755 173.718 23.8596 174.264C23.7437 174.809 23.4737 175.31 23.0816 175.708Z" fill="#2F2E41"/>
        <path d="M70.0533 39.1769C66.2353 34.8603 61.9302 32.7958 56.7686 34.6914C48.4871 31.9177 37.6009 50.9796 44.3041 57.8926L55.6564 58.8371L59.1325 52.5914L57.9025 59.0608L66.9829 59.9652C62.3506 52.7783 63.8365 45.8699 70.0533 39.1769Z" fill="#2F2E41"/>
        <path d="M112.821 70.3364C117.579 70.3364 121.436 66.4873 121.436 61.7393C121.436 56.9912 117.579 53.1422 112.821 53.1422C108.062 53.1422 104.205 56.9912 104.205 61.7393C104.205 66.4873 108.062 70.3364 112.821 70.3364Z" fill="white"/>
        <path d="M132.266 60.5954C132.002 60.5997 131.75 60.7075 131.564 60.8955C131.379 61.0835 131.275 61.3368 131.275 61.6005C131.275 61.8643 131.379 62.1175 131.564 62.3056C131.75 62.4936 132.002 62.6014 132.266 62.6057H159.469C159.736 62.6101 159.994 62.5084 160.186 62.323C160.378 62.1376 160.488 61.8836 160.493 61.617C160.497 61.3504 160.395 61.093 160.209 60.9014C160.023 60.7098 159.769 60.5997 159.502 60.5954C159.491 60.5952 159.48 60.5952 159.469 60.5954H132.266Z" fill="white"/>
        <path d="M132.266 54.7715C132.002 54.7758 131.75 54.8836 131.564 55.0717C131.379 55.2597 131.275 55.5129 131.275 55.7767C131.275 56.0404 131.379 56.2936 131.564 56.4817C131.75 56.6697 132.002 56.7775 132.266 56.7819H145.85C146.117 56.786 146.375 56.6842 146.567 56.4988C146.759 56.3134 146.869 56.0596 146.873 55.7932C146.878 55.5267 146.776 55.2694 146.59 55.0779C146.405 54.8863 146.15 54.7761 145.883 54.7715C145.872 54.7713 145.861 54.7713 145.85 54.7715H132.266Z" fill="white"/>
        <path d="M132.266 66.6964C132.002 66.7008 131.75 66.8086 131.564 66.9966C131.379 67.1846 131.275 67.4378 131.275 67.7016C131.275 67.9654 131.379 68.2186 131.564 68.4066C131.75 68.5946 132.002 68.7024 132.266 68.7068H159.469C159.601 68.709 159.733 68.6853 159.856 68.6368C159.979 68.5883 160.091 68.5161 160.186 68.4243C160.281 68.3325 160.358 68.2229 160.41 68.1017C160.463 67.9805 160.491 67.8502 160.493 67.7181C160.496 67.586 160.472 67.4548 160.423 67.332C160.374 67.2092 160.302 67.0971 160.21 67.0022C160.118 66.9074 160.008 66.8315 159.886 66.779C159.765 66.7266 159.634 66.6985 159.502 66.6964C159.491 66.6962 159.48 66.6962 159.469 66.6964H132.266Z" fill="white"/>
        <path d="M140.513 95.1417C141.697 95.1417 142.658 94.1833 142.658 93.0011C142.658 91.8189 141.697 90.8605 140.513 90.8605C139.328 90.8605 138.367 91.8189 138.367 93.0011C138.367 94.1833 139.328 95.1417 140.513 95.1417Z" fill="#EADBD6"/>
        <path d="M149.354 91.8927C149.062 91.8977 148.784 92.0166 148.58 92.2239C148.376 92.4313 148.261 92.7104 148.261 93.0011C148.261 93.2919 148.376 93.571 148.58 93.7783C148.784 93.9856 149.062 94.1046 149.354 94.1095H201.722C202.015 94.1131 202.299 94.0003 202.509 93.796C202.72 93.5917 202.841 93.3124 202.846 93.0192C202.851 92.7261 202.739 92.443 202.535 92.2318C202.331 92.0207 202.052 91.8988 201.758 91.8927C201.746 91.8925 201.734 91.8925 201.722 91.8927H149.354Z" fill="#EADBD6"/>
        <path d="M140.513 105.539C141.697 105.539 142.658 104.581 142.658 103.398C142.658 102.216 141.697 101.258 140.513 101.258C139.328 101.258 138.367 102.216 138.367 103.398C138.367 104.581 139.328 105.539 140.513 105.539Z" fill="#EADBD6"/>
        <path d="M149.354 102.29C149.062 102.295 148.784 102.414 148.58 102.621C148.376 102.828 148.261 103.108 148.261 103.398C148.261 103.689 148.376 103.968 148.58 104.176C148.784 104.383 149.062 104.502 149.354 104.507H201.722C202.015 104.51 202.299 104.398 202.51 104.193C202.72 103.989 202.841 103.71 202.846 103.416C202.851 103.123 202.739 102.84 202.535 102.629C202.331 102.418 202.052 102.296 201.758 102.29C201.746 102.29 201.734 102.29 201.722 102.29H149.354Z" fill="#EADBD6"/>
        <path d="M140.513 115.936C141.697 115.936 142.658 114.978 142.658 113.796C142.658 112.614 141.697 111.655 140.513 111.655C139.328 111.655 138.367 112.614 138.367 113.796C138.367 114.978 139.328 115.936 140.513 115.936Z" fill="#EADBD6"/>
        <path d="M149.354 112.687C149.062 112.692 148.784 112.811 148.58 113.019C148.376 113.226 148.261 113.505 148.261 113.796C148.261 114.086 148.376 114.366 148.58 114.573C148.784 114.78 149.062 114.899 149.354 114.904H201.722C202.015 114.908 202.299 114.795 202.51 114.591C202.72 114.386 202.841 114.107 202.846 113.814C202.851 113.521 202.739 113.237 202.535 113.026C202.331 112.815 202.052 112.693 201.758 112.687C201.746 112.687 201.734 112.687 201.722 112.687H149.354Z" fill="#EADBD6"/>
        <path d="M140.513 126.334C141.697 126.334 142.658 125.375 142.658 124.193C142.658 123.011 141.697 122.052 140.513 122.052C139.328 122.052 138.367 123.011 138.367 124.193C138.367 125.375 139.328 126.334 140.513 126.334Z" fill="#EADBD6"/>
        <path d="M149.354 123.085C149.062 123.09 148.784 123.208 148.58 123.416C148.376 123.623 148.261 123.902 148.261 124.193C148.261 124.484 148.376 124.763 148.58 124.97C148.784 125.178 149.062 125.296 149.354 125.301H201.722C201.868 125.304 202.013 125.279 202.149 125.225C202.286 125.172 202.41 125.093 202.515 124.991C202.621 124.89 202.705 124.769 202.763 124.635C202.822 124.501 202.853 124.357 202.855 124.211C202.858 124.065 202.831 123.92 202.777 123.785C202.723 123.649 202.643 123.525 202.541 123.421C202.439 123.316 202.318 123.232 202.183 123.175C202.049 123.117 201.904 123.086 201.758 123.085C201.746 123.084 201.734 123.084 201.722 123.085H149.354Z" fill="#EADBD6"/>
        <path d="M140.513 136.731C141.697 136.731 142.658 135.773 142.658 134.59C142.658 133.408 141.697 132.45 140.513 132.45C139.328 132.45 138.367 133.408 138.367 134.59C138.367 135.773 139.328 136.731 140.513 136.731Z" fill="#EADBD6"/>
        <path d="M149.354 133.482C149.062 133.487 148.784 133.606 148.58 133.813C148.376 134.02 148.261 134.3 148.261 134.59C148.261 134.881 148.376 135.16 148.58 135.368C148.784 135.575 149.062 135.694 149.354 135.699H201.722C202.015 135.702 202.299 135.59 202.509 135.385C202.72 135.181 202.841 134.902 202.846 134.608C202.851 134.315 202.739 134.032 202.535 133.821C202.331 133.61 202.052 133.488 201.758 133.482C201.746 133.482 201.734 133.482 201.722 133.482H149.354Z" fill="#EADBD6"/>
        <path d="M140.513 147.128C141.697 147.128 142.658 146.17 142.658 144.988C142.658 143.805 141.697 142.847 140.513 142.847C139.328 142.847 138.367 143.805 138.367 144.988C138.367 146.17 139.328 147.128 140.513 147.128Z" fill="#EADBD6"/>
        <path d="M149.354 143.879C149.062 143.884 148.784 144.003 148.58 144.211C148.376 144.418 148.261 144.697 148.261 144.988C148.261 145.278 148.376 145.558 148.58 145.765C148.784 145.972 149.062 146.091 149.354 146.096H201.722C202.015 146.1 202.299 145.987 202.509 145.783C202.72 145.578 202.841 145.299 202.846 145.006C202.851 144.713 202.739 144.43 202.535 144.218C202.331 144.007 202.052 143.885 201.758 143.879C201.746 143.879 201.734 143.879 201.722 143.879H149.354Z" fill="#EADBD6"/>
        <path d="M140.513 157.526C141.697 157.526 142.658 156.567 142.658 155.385C142.658 154.203 141.697 153.244 140.513 153.244C139.328 153.244 138.367 154.203 138.367 155.385C138.367 156.567 139.328 157.526 140.513 157.526Z" fill="#EADBD6"/>
        <path d="M149.354 154.277C149.062 154.282 148.784 154.4 148.58 154.608C148.376 154.815 148.261 155.094 148.261 155.385C148.261 155.676 148.376 155.955 148.58 156.162C148.784 156.37 149.062 156.489 149.354 156.493H201.722C202.015 156.497 202.299 156.384 202.51 156.18C202.72 155.976 202.841 155.696 202.846 155.403C202.851 155.11 202.739 154.827 202.535 154.616C202.331 154.404 202.052 154.283 201.758 154.277C201.746 154.276 201.734 154.276 201.722 154.277H149.354Z" fill="#EADBD6"/>
        <path d="M242 140.116C241.954 141.245 240.811 164.538 225.129 177.265C224.473 177.797 223.792 178.31 223.085 178.803L222.552 178.284H222.861C223.227 178.284 223.578 178.139 223.836 177.88C224.095 177.622 224.24 177.272 224.24 176.907V130.994C224.568 129.233 224.878 127.502 225.16 125.817C226.689 116.658 227.397 108.921 226.251 105.707C226.747 106.949 236.713 132.343 231.301 158.217C236.661 150.893 241.749 143.205 242 140.116Z" fill="#EADBD6"/>
    </g>
    <defs>
        <clipPath id="clip0">
            <rect width="242" height="180" rx="15" fill="white"/>
        </clipPath>
    </defs>
</svg>
