<svg width="117" height="117" viewBox="0 0 117 117" fill="none" xmlns="http://www.w3.org/2000/svg">
    <path d="M72.8846 76.4118V70.793H53.2197V79.4003L72.8846 76.4118Z" fill="#78A7AF"/>
    <path opacity="0.1" d="M53.2197 70.793V79.4003L58.043 78.6672V70.793H53.2197Z" fill="#2F2E41"/>
    <path d="M79.7195 65.4295V63.9739C79.7195 59.5302 76.1169 55.9276 71.673 55.9276H54.4313C49.9873 55.9276 46.3846 59.5302 46.3846 63.9739V65.4295H79.7195Z" fill="#B8B0C8"/>
    <path d="M79.7195 63.9739C79.7195 59.5302 76.1169 55.9276 71.673 55.9276H54.4313C49.9873 55.9276 46.3846 59.5302 46.3846 63.9739V65.4295H79.7195V63.9739Z" fill="#B8B0C8"/>
    <g opacity="0.1">
        <path opacity="0.1" d="M59.2625 55.9276H54.4313C49.9873 55.9276 46.3846 59.5302 46.3846 63.9739V65.4295H51.2158V63.9739C51.2158 59.5302 54.8186 55.9276 59.2625 55.9276Z" fill="#2F2E41"/>
    </g>
    <path d="M82.44 69.6504C82.44 70.2788 81.9258 70.793 81.2974 70.793H44.8071C44.1787 70.793 43.6645 70.2788 43.6645 69.6504V66.5721C43.6645 65.9437 44.1787 65.4295 44.8071 65.4295H81.2974C81.9258 65.4295 82.44 65.9437 82.44 66.5721V69.6504Z" fill="#ABCCD3"/>
    <g opacity="0.1">
        <path opacity="0.1" d="M48.6738 69.6504V66.5721C48.6738 65.9437 49.188 65.4295 49.8164 65.4295H44.8071C44.1787 65.4295 43.6645 65.9437 43.6645 66.5721V69.6504C43.6645 70.2788 44.1787 70.793 44.8071 70.793H49.8164C49.188 70.793 48.6738 70.2788 48.6738 69.6504Z" fill="#2F2E41"/>
    </g>
    <path d="M88.0905 74.101L34.1135 82.3036C38.4692 82.8774 41.8437 86.5553 41.9443 91.0436H70.9959C70.9701 90.7477 70.9541 90.4488 70.9541 90.146C70.9541 84.5524 75.4888 80.0182 81.0821 80.0182C83.8026 80.0182 86.2715 81.0918 88.0905 82.8374V74.101Z" fill="#B8B0C8"/>
    <path d="M32.9245 100.274C37.909 100.274 41.9498 96.2333 41.9498 91.2488C41.9498 86.2643 37.909 82.2236 32.9245 82.2236C27.94 82.2236 23.8993 86.2643 23.8993 91.2488C23.8993 96.2333 27.94 100.274 32.9245 100.274Z" fill="#08375E"/>
    <path d="M32.9245 94.6333C34.7938 94.6333 36.3091 93.118 36.3091 91.2488C36.3091 89.3796 34.7938 87.8643 32.9245 87.8643C31.0553 87.8643 29.54 89.3796 29.54 91.2488C29.54 93.118 31.0553 94.6333 32.9245 94.6333Z" fill="white"/>
    <path d="M102.466 20.9743C102.466 21.6028 101.952 22.1169 101.323 22.1169H89.2331C88.6046 22.1169 88.0905 21.6028 88.0905 20.9743V17.8693C88.0905 17.2408 88.6046 16.7267 89.2331 16.7267H101.323C101.952 16.7267 102.466 17.2408 102.466 17.8693V20.9743Z" fill="#B8B0C8"/>
    <g opacity="0.1">
        <path opacity="0.1" d="M93.0269 20.9743V17.8693C93.0269 17.2408 93.541 16.7267 94.1695 16.7267H89.2331C88.6046 16.7267 88.0905 17.2408 88.0905 17.8693V20.9741C88.0905 21.6025 88.6046 22.1167 89.2331 22.1167H94.1695C93.541 22.1169 93.0269 21.6028 93.0269 20.9743Z" fill="#2F2E41"/>
    </g>
    <path d="M88.0905 73.9881V82.8385C90.0118 84.6817 91.2097 87.2731 91.2097 90.146C91.2097 90.4488 91.194 90.7477 91.1679 91.0436H113.001C114.258 91.0436 115.286 90.0153 115.286 88.7584V73.9881H88.0905Z" fill="#B8B0C8"/>
    <path d="M113.066 59.4876L90.311 65.0228C89.0898 65.3198 88.0905 66.5911 88.0905 67.8479V73.9881H115.286V61.2328C115.286 59.9758 114.287 59.1906 113.066 59.4876Z" fill="#01A0DA"/>
    <path opacity="0.1" d="M91.21 90.1459C91.21 90.4487 91.1942 90.7476 91.1681 91.0435H95.4062C94.0861 91.0435 93.0059 89.9634 93.0059 88.6432V66.6785C93.0059 65.5789 93.7351 64.4708 94.7197 63.9505L90.311 65.0229C89.0898 65.32 88.0905 66.5912 88.0905 67.8481V82.8387C90.0118 84.6817 91.21 87.2733 91.21 90.1459Z" fill="#2F2E41"/>
    <path d="M81.0819 100.273C86.6753 100.273 91.2097 95.7385 91.2097 90.1451C91.2097 84.5516 86.6753 80.0173 81.0819 80.0173C75.4885 80.0173 70.9541 84.5516 70.9541 90.1451C70.9541 95.7385 75.4885 100.273 81.0819 100.273Z" fill="#08375E"/>
    <path d="M81.0819 93.943C83.1795 93.943 84.8798 92.2426 84.8798 90.1451C84.8798 88.0476 83.1795 86.3472 81.0819 86.3472C78.9844 86.3472 77.284 88.0476 77.284 90.1451C77.284 92.2426 78.9844 93.943 81.0819 93.943Z" fill="white"/>
    <path d="M32.9241 86.1501C30.1129 86.1501 27.8261 88.4374 27.8261 91.2486C27.8261 94.0598 30.1131 96.3467 32.9241 96.3467C35.7355 96.3467 38.0227 94.0598 38.0227 91.2486C38.0227 88.4371 35.7355 86.1501 32.9241 86.1501ZM32.9241 92.919C32.0032 92.919 31.2539 92.1697 31.2539 91.2486C31.2539 90.3272 32.0032 89.5779 32.9241 89.5779C33.8452 89.5779 34.595 90.3274 34.595 91.2486C34.595 92.1695 33.8452 92.919 32.9241 92.919Z" fill="#2F2E41"/>
    <path d="M115.693 58.4299C114.862 57.7768 113.757 57.5556 112.66 57.8222L108.597 58.8108C107.677 59.0345 107.113 59.9616 107.337 60.8812C107.56 61.8009 108.487 62.3647 109.407 62.1414L113.471 61.1529C113.51 61.1433 113.541 61.1396 113.564 61.1389C113.568 61.1609 113.572 61.1919 113.572 61.2328V72.2743H89.8044V67.8479C89.8044 67.3831 90.2646 66.7979 90.7159 66.688L101.409 64.087C102.329 63.8633 102.893 62.9362 102.669 62.0167C102.445 61.0969 101.519 60.5329 100.599 60.7564L95.3596 62.0308V23.8308H101.323C102.899 23.8308 104.18 22.5495 104.18 20.9743V17.8693C104.18 16.2941 102.899 15.0128 101.323 15.0128H89.2331C87.6579 15.0128 86.3766 16.2941 86.3766 17.8693V67.8477V72.6275L74.5985 74.4175V72.5069H81.2972C82.8723 72.5069 84.1536 71.2256 84.1536 69.6504V66.5721C84.1536 65.0408 82.9416 63.7908 81.4268 63.7223C81.2924 58.4566 76.9705 54.2138 71.6728 54.2138H54.431C49.1334 54.2138 44.8112 58.4566 44.6769 63.7223C43.1623 63.7908 41.9502 65.0408 41.9502 66.5721V69.6504C41.9502 71.2256 43.2315 72.5069 44.8067 72.5069H51.5051V77.9268L34.089 80.5735C33.7058 80.5319 33.3173 80.509 32.9234 80.509C27.0019 80.509 22.1845 85.3268 22.1845 91.2484C22.1845 92.6229 22.4469 93.9366 22.9197 95.1457V98.5597H21.2021V93.1686C21.2021 92.2221 20.4348 91.4547 19.4883 91.4547C18.5415 91.4547 17.7744 92.2221 17.7744 93.1686V98.5597H16.0567V92.4334C16.0567 91.4869 15.2895 90.7196 14.3428 90.7196C13.396 90.7196 12.6289 91.4869 12.6289 92.4334V98.5597H10.9116V93.9318C10.9116 92.9853 10.1445 92.218 9.19775 92.218C8.25101 92.218 7.48389 92.9853 7.48389 93.9318V98.5597H5.76636V91.0685C5.76636 90.122 4.99924 89.3547 4.0525 89.3547C3.10576 89.3547 2.33863 90.122 2.33863 91.0685V98.5597H1.71387C0.767127 98.5597 0 99.3271 0 100.274C0 101.22 0.767127 101.987 1.71387 101.987H46.3887C47.3354 101.987 48.1025 101.22 48.1025 100.274C48.1025 99.3271 47.3354 98.5597 46.3887 98.5597H40.7802C42.2427 96.9894 43.2409 94.9821 43.5551 92.7573H69.5341C70.0405 94.9969 71.181 96.9983 72.7594 98.5597H56.4434C55.4966 98.5597 54.7295 99.3271 54.7295 100.274C54.7295 101.22 55.4966 101.987 56.4434 101.987H115.286C116.233 101.987 117 101.22 117 100.274C117 99.3271 116.233 98.5597 115.286 98.5597H89.4049C90.9833 96.9983 92.1236 94.9969 92.63 92.7573H113.001C115.206 92.7573 117 90.9632 117 88.7582V80.3863V69.8746V61.2326C117 60.1044 116.524 59.0827 115.693 58.4299ZM89.906 63.3574C89.8718 63.3658 89.8386 63.3779 89.8046 63.3871V41.2261H91.9323V62.8642L89.906 63.3574ZM89.8044 18.4406H100.752V20.4028H89.8044V18.4406ZM89.8044 23.8308H91.9321V27.2633H89.8044V23.8308ZM91.9321 30.6908V37.7986H89.8044V30.6908H91.9321ZM45.3784 67.1434H56.6716C57.6184 67.1434 58.3855 66.376 58.3855 65.4295C58.3855 64.483 57.6184 63.7157 56.6716 63.7157H48.1051C48.2412 60.3435 51.0259 57.6415 54.4315 57.6415H71.6732C75.0784 57.6415 77.8633 60.3435 77.9995 63.7157H65.3555C64.4087 63.7157 63.6416 64.483 63.6416 65.4295C63.6416 66.376 64.4087 67.1434 65.3555 67.1434H80.7261V69.0792H45.3784V67.1434ZM54.9336 72.5069H71.171V74.9385L54.9336 77.406V72.5069ZM86.3766 76.095V79.5587C84.782 78.7579 82.9845 78.3043 81.0821 78.3043C74.8272 78.3043 69.6927 83.1799 69.2713 89.3298H43.4879C43.0443 86.8805 41.7683 84.7192 39.9628 83.1484L86.3766 76.095ZM25.6129 91.2486C25.6129 87.2169 28.8928 83.937 32.9241 83.937C36.9558 83.937 40.2354 87.2171 40.2354 91.2486C40.2354 95.2801 36.9558 98.56 32.9241 98.56C28.8928 98.56 25.6129 95.2801 25.6129 91.2486ZM81.0821 98.56C76.4424 98.56 72.668 94.7856 72.668 90.146C72.668 85.5065 76.4426 81.7321 81.0821 81.7321C85.7217 81.7321 89.4959 85.5067 89.4959 90.146C89.4959 94.7853 85.7217 98.56 81.0821 98.56ZM113.572 88.7585C113.572 89.0681 113.311 89.3298 113.001 89.3298H92.8925C92.7035 86.5702 91.5674 84.0675 89.8044 82.1466V82.1432V75.7018H101.004V79.2438C101.004 80.8189 102.285 82.1002 103.86 82.1002H113.572V88.7585ZM113.572 78.6727H104.432V75.702H113.572V78.6727Z" fill="#2F2E41"/>
    <path d="M81.0821 84.6342C78.0429 84.6342 75.5703 87.1068 75.5703 90.146C75.5703 93.1853 78.0429 95.6578 81.0821 95.6578C84.1214 95.6578 86.5939 93.1853 86.5939 90.146C86.5939 87.1068 84.1214 84.6342 81.0821 84.6342ZM81.0821 92.2298C79.9329 92.2298 78.9981 91.295 78.9981 90.1458C78.9981 88.9966 79.9329 88.0617 81.0821 88.0617C82.2314 88.0617 83.1662 88.9966 83.1662 90.1458C83.1662 91.2952 82.2316 92.2298 81.0821 92.2298Z" fill="#2F2E41"/>
    <path d="M35.3345 76.507C35.7732 76.507 36.212 76.3398 36.5465 76.005L37.6742 74.877C38.3436 74.2075 38.3433 73.1225 37.674 72.4532C37.004 71.7838 35.9188 71.7841 35.2504 72.4534L34.1226 73.5814C33.4533 74.2509 33.4535 75.3359 34.1229 76.0052C34.4574 76.3398 34.8959 76.507 35.3345 76.507Z" fill="#2F2E41"/>
    <path d="M24.6511 79.6916C25.0897 79.6916 25.5284 79.5244 25.863 79.1898L26.9909 78.0621C27.6605 77.3928 27.6605 76.3078 26.9911 75.6385C26.3216 74.9691 25.2364 74.9689 24.5673 75.6382L23.4395 76.766C22.77 77.4353 22.77 78.5203 23.4393 79.1896C23.7739 79.5241 24.2124 79.6916 24.6511 79.6916Z" fill="#2F2E41"/>
    <path d="M28.4004 71.9884C28.8389 71.9884 29.2777 71.8211 29.6124 71.4863L30.7404 70.3584C31.4097 69.6891 31.4097 68.6038 30.7402 67.9345C30.0711 67.2652 28.9858 67.2654 28.3165 67.9345L27.1886 69.0625C26.5192 69.7318 26.5192 70.817 27.1888 71.4863C27.5231 71.8211 27.9619 71.9884 28.4004 71.9884Z" fill="#2F2E41"/>
    <path d="M36.3413 67.3479C37.288 67.3479 38.0552 66.5805 38.0552 65.634V64.039C38.0552 63.0925 37.288 62.3251 36.3413 62.3251C35.3946 62.3251 34.6274 63.0925 34.6274 64.039V65.634C34.6274 66.5805 35.3948 67.3479 36.3413 67.3479Z" fill="#2F2E41"/>
</svg>
