<svg width="26" height="26" viewBox="0 0 26 26" fill="none" xmlns="http://www.w3.org/2000/svg">
    <g clip-path="url(#clip0_18_112)">
        <path d="M23.0058 21.0432C23.0049 21.036 23.008 21.0292 23.0067 21.022C22.7436 19.5818 21.9834 18.2796 20.8587 17.3425C19.7339 16.4054 18.3158 15.8928 16.8518 15.8941H9.14811C8.11488 15.893 7.09753 16.1483 6.1872 16.6371C5.27687 17.1258 4.50199 17.8328 3.93198 18.6945C3.8952 18.7472 3.86933 18.8066 3.85587 18.8694C3.84241 18.9322 3.84164 18.997 3.85361 19.0601C3.86558 19.1232 3.89004 19.1832 3.92556 19.2367C3.96108 19.2902 4.00694 19.336 4.06044 19.3715C4.11393 19.407 4.17399 19.4315 4.23707 19.4434C4.30015 19.4554 4.36499 19.4546 4.42776 19.4411C4.49053 19.4276 4.54997 19.4017 4.60259 19.3649C4.6552 19.3281 4.69993 19.2812 4.73413 19.2268C5.21655 18.4976 5.87228 17.8995 6.6426 17.4859C7.41292 17.0723 8.27379 16.8563 9.14811 16.857H16.8518C18.0506 16.8559 19.2143 17.2621 20.152 18.009C21.0897 18.7559 21.7458 19.7993 22.0127 20.9681C21.9603 21.0277 21.9073 21.0868 21.8538 21.1454C21.7877 21.2177 21.7217 21.2902 21.654 21.3606C21.5717 21.4463 21.4873 21.5294 21.4027 21.6124C21.3326 21.6811 21.2628 21.7501 21.1913 21.817C21.1053 21.8973 21.0173 21.9748 20.9292 22.0523C20.8553 22.1173 20.7818 22.1828 20.7065 22.2459C20.6175 22.3204 20.5264 22.392 20.4354 22.4639C20.3577 22.5252 20.2804 22.5872 20.2013 22.6465C20.1098 22.7152 20.0159 22.7808 19.9224 22.8468C19.8409 22.9046 19.7598 22.9628 19.6769 23.0182C19.5826 23.0813 19.4864 23.141 19.3904 23.2012C19.3055 23.2546 19.2211 23.3089 19.135 23.3601C19.038 23.4178 18.9392 23.4717 18.8407 23.5265C18.7527 23.5754 18.6653 23.6255 18.5759 23.6722C18.4764 23.7243 18.3751 23.7727 18.2742 23.8219C18.1837 23.8661 18.0937 23.9117 18.0021 23.9536C17.8996 24.0005 17.7954 24.0434 17.6916 24.0874C17.5991 24.1265 17.5074 24.1672 17.4139 24.204C17.3084 24.2456 17.2012 24.283 17.0945 24.3216C17.0007 24.3553 16.9076 24.3912 16.8129 24.4227C16.704 24.4591 16.5935 24.4909 16.4835 24.5241C16.389 24.5527 16.2951 24.5833 16.1997 24.6095C16.0873 24.6405 15.9734 24.6666 15.86 24.6943C15.7654 24.7174 15.6715 24.7427 15.5762 24.7635C15.4588 24.7892 15.34 24.8097 15.2216 24.8319C15.1287 24.8492 15.0365 24.8692 14.9431 24.8844C14.8177 24.9048 14.6909 24.9198 14.5645 24.9362C14.477 24.9476 14.39 24.9619 14.3021 24.9714C14.1576 24.987 14.012 24.9967 13.8666 25.0071C13.7956 25.0122 13.7252 25.0202 13.6541 25.0241C13.437 25.0362 13.219 25.0422 13 25.0422C12.7802 25.0422 12.5612 25.0362 12.3431 25.0243C12.2077 25.0169 12.0734 25.0033 11.9386 24.9914C11.8574 24.9842 11.7755 24.9802 11.6945 24.9714C11.5097 24.9513 11.3262 24.9251 11.1432 24.8965C11.1135 24.8917 11.0834 24.8891 11.0538 24.8843C10.8532 24.8515 10.6541 24.8129 10.4562 24.7701C10.4445 24.7676 10.4326 24.7659 10.4209 24.7633C10.2123 24.7176 10.0052 24.6665 9.79979 24.6098L9.79748 24.6093C9.59151 24.5524 9.38733 24.4902 9.18494 24.4225L9.18379 24.4222C8.98619 24.3561 8.79056 24.2848 8.59691 24.2084L8.58088 24.2025C8.39392 24.1287 8.20922 24.0493 8.02631 23.9663C8.01441 23.9609 8.00223 23.9563 7.99039 23.9508C7.81917 23.8724 7.65051 23.7884 7.48315 23.702C7.45975 23.6899 7.43572 23.6791 7.41237 23.6669C7.25738 23.5855 7.10513 23.4988 6.95371 23.4106C6.91919 23.3905 6.88375 23.3721 6.84942 23.3516C6.71176 23.2698 6.57714 23.1825 6.44271 23.0949C6.39606 23.0646 6.34834 23.0361 6.30212 23.0051C6.18122 22.9239 6.0634 22.8379 5.94534 22.7522C5.88805 22.7106 5.8295 22.671 5.77288 22.6283C5.66666 22.5483 5.56353 22.4638 5.45991 22.3801C5.39453 22.3272 5.32779 22.2764 5.26347 22.2221C5.16996 22.1434 5.07954 22.0605 4.9883 21.9788C4.91719 21.915 4.84477 21.8529 4.77505 21.7873C4.69137 21.7086 4.61077 21.6261 4.52916 21.5449C4.45593 21.4719 4.38159 21.4004 4.31009 21.3255C4.23247 21.244 4.15794 21.1591 4.08239 21.0751C3.99876 20.9823 3.91344 20.8914 3.83241 20.7958C2.02613 18.6694 1.01471 15.9815 0.971135 13.1917C0.927559 10.402 1.85453 7.68383 3.59352 5.50201C5.3325 3.32019 7.77547 1.81029 10.5046 1.23054C13.2338 0.650792 16.0796 1.0372 18.5553 2.32369C18.6115 2.35443 18.6733 2.37365 18.737 2.38022C18.8007 2.38679 18.8651 2.38058 18.9264 2.36196C18.9877 2.34333 19.0446 2.31267 19.0939 2.27176C19.1432 2.23085 19.1838 2.18052 19.2134 2.12372C19.243 2.06691 19.261 2.00477 19.2662 1.94094C19.2715 1.87711 19.264 1.81286 19.2441 1.75197C19.2243 1.69108 19.1925 1.63476 19.1506 1.58631C19.1087 1.53787 19.0575 1.49827 19.0001 1.46983C16.3262 0.0771263 13.2513 -0.342649 10.302 0.282395C7.35265 0.907439 4.71235 2.53842 2.83325 4.89602C0.954153 7.25363 -0.0468427 10.1912 0.00168499 13.2056C0.0502127 16.2201 1.14524 19.1239 3.09926 21.4198C3.12112 21.4456 3.14466 21.4695 3.16666 21.4952C3.16902 21.498 3.16951 21.5016 3.17191 21.5044C3.23171 21.5739 3.29522 21.6392 3.35632 21.7071C3.44299 21.8034 3.52821 21.9005 3.61719 21.9937C3.68676 22.0666 3.75913 22.136 3.83019 22.207C3.92649 22.3033 4.02153 22.4002 4.12029 22.493C4.18572 22.5544 4.25371 22.6126 4.32029 22.6725C4.42882 22.7704 4.53696 22.8688 4.64833 22.9627C4.70548 23.0108 4.76475 23.0559 4.82267 23.1029C4.94718 23.204 5.07155 23.3051 5.19943 23.4014C5.24589 23.4363 5.29399 23.4688 5.34089 23.5031C5.48264 23.6068 5.62497 23.7098 5.77042 23.8075C5.80619 23.8316 5.84322 23.8535 5.87928 23.8771C6.03817 23.9814 6.19788 24.0841 6.36076 24.1811C6.38383 24.1948 6.40771 24.2071 6.43087 24.2207C6.60815 24.3248 6.78692 24.4259 6.96878 24.5213C6.97879 24.5265 6.9891 24.5309 6.99911 24.5363C8.01452 25.0661 9.0958 25.4587 10.2146 25.7038C10.2248 25.706 10.2353 25.7075 10.2456 25.7097C10.4615 25.7564 10.6786 25.7986 10.8974 25.8343C10.9352 25.8405 10.9736 25.8439 11.0115 25.8499C11.2035 25.8795 11.396 25.9077 11.5898 25.9285C11.6742 25.9377 11.7595 25.9418 11.8442 25.9494C11.9929 25.9626 12.1413 25.9776 12.2909 25.9857C12.5264 25.9987 12.7628 26.0052 13 26.0052C14.8845 26.0074 16.7469 25.5982 18.457 24.8062C20.1671 24.0143 21.6837 22.8586 22.9009 21.4198C22.9445 21.3674 22.9763 21.3063 22.9943 21.2405C22.9972 21.2229 22.9991 21.2053 23 21.1875C23.0093 21.14 23.0113 21.0913 23.0058 21.0432Z" fill="#000000"/>
        <path d="M23.8488 6.73652C23.7929 6.76606 23.7433 6.80633 23.703 6.85504C23.6627 6.90374 23.6323 6.95992 23.6137 7.02036C23.5951 7.08079 23.5886 7.14431 23.5946 7.20726C23.6006 7.27022 23.6189 7.33138 23.6485 7.38725C24.5972 9.18772 25.0741 11.1993 25.0348 13.234C24.9954 15.2687 24.4409 17.2603 23.4233 19.0227C23.3592 19.1332 23.3416 19.2646 23.3743 19.388C23.4071 19.5115 23.4876 19.6168 23.598 19.6809C23.7085 19.745 23.8399 19.7626 23.9633 19.7298C24.0868 19.6971 24.1921 19.6166 24.2562 19.5061C25.3558 17.6023 25.9548 15.4509 25.9973 13.2528C26.0398 11.0547 25.5244 8.88171 24.4993 6.93682C24.4698 6.88089 24.4296 6.83133 24.3809 6.79098C24.3322 6.75062 24.2761 6.72028 24.2156 6.70167C24.1552 6.68306 24.0917 6.67656 24.0287 6.68254C23.9658 6.68853 23.9047 6.70687 23.8488 6.73652Z" fill="#000000"/>
        <path d="M12.9999 3.37555C11.8572 3.37555 10.7401 3.71441 9.78999 4.34928C8.83984 4.98415 8.09928 5.88652 7.66198 6.94227C7.22467 7.99802 7.11025 9.15974 7.33319 10.2805C7.55613 11.4013 8.10641 12.4308 8.91444 13.2388C9.72248 14.0469 10.752 14.5971 11.8728 14.8201C12.9935 15.043 14.1553 14.9286 15.211 14.4913C16.2668 14.054 17.1691 13.3134 17.804 12.3633C18.4389 11.4131 18.7777 10.2961 18.7777 9.15333C18.776 7.62149 18.1667 6.15288 17.0836 5.06971C16.0004 3.98653 14.5318 3.37726 12.9999 3.37555ZM12.9999 13.9681C12.0477 13.9681 11.1168 13.6858 10.325 13.1567C9.53319 12.6276 8.91606 11.8757 8.55164 10.9959C8.18722 10.1161 8.09187 9.14798 8.27765 8.214C8.46343 7.28002 8.922 6.4221 9.59536 5.74874C10.2687 5.07537 11.1266 4.61681 12.0606 4.43103C12.9946 4.24525 13.9627 4.3406 14.8425 4.70502C15.7223 5.06944 16.4743 5.68657 17.0033 6.47836C17.5324 7.27015 17.8148 8.20105 17.8148 9.15333C17.8133 10.4298 17.3056 11.6537 16.4029 12.5563C15.5003 13.4589 14.2765 13.9667 12.9999 13.9681Z" fill="#000000"/>
    </g>
    <defs>
        <clipPath id="clip0_18_112">
            <rect width="26" height="26" fill="white"/>
        </clipPath>
    </defs>
</svg>
