<svg width="117" height="117" viewBox="0 0 117 117" fill="none" xmlns="http://www.w3.org/2000/svg">
    <path d="M81.0233 49.8096V60.3089C81.0233 61.7511 79.9281 63.3866 78.5894 63.943L50.9076 75.4494C49.5692 76.0056 48.4737 77.6413 48.4737 79.0835V112.663C48.4737 114.106 49.6611 115.286 51.1121 115.286H91.9971C93.4479 115.286 94.635 114.106 94.635 112.663V49.8096H81.0233Z" fill="#B1E8FF"/>
    <path d="M81.0233 60.0845V60.3089C81.0233 61.751 79.9281 63.3865 78.5894 63.9429L50.9076 75.4493C49.5692 76.0056 48.4737 77.6413 48.4737 79.0834V112.663C48.4737 114.106 49.6611 115.286 51.1121 115.286H91.9971C93.4479 115.286 94.635 114.106 94.635 112.663V60.0845H81.0233Z" fill="#5DA2D5"/>
    <g opacity="0.1">
        <path opacity="0.1" d="M54.729 112.663V73.861L50.9074 75.4494C49.5689 76.0056 48.4734 77.6413 48.4734 79.0834V112.663C48.4734 114.106 49.6608 115.286 51.1119 115.286H57.3675C55.9166 115.286 54.729 114.106 54.729 112.663Z" fill="#2F2E41"/>
    </g>
    <path d="M62.4972 18.4042H58.6682C58.0398 18.4042 57.5256 18.9183 57.5256 19.5467V23.8757C57.5256 24.5042 58.0398 25.0183 58.6682 25.0183H62.4972V18.4042Z" fill="#78A7AF"/>
    <path d="M96.9263 21.5369L93.4125 16.9243C93.0318 16.4243 92.2062 16.0153 91.5777 16.0153H63.6398C63.0114 16.0153 62.4972 16.5294 62.4972 17.1578V27.0987C62.4972 27.7271 63.0114 28.2413 63.6398 28.2413H73.6704C74.2988 28.2413 75.0447 28.7003 75.3278 29.2613L81.6472 41.7833H92.54L97.3283 23.551C97.488 22.9429 97.3071 22.0369 96.9263 21.5369Z" fill="#EADBD6"/>
    <path opacity="0.1" d="M87.156 41.7833L78.9868 25.5859C78.7037 25.0249 77.9578 24.5658 77.3294 24.5658H67.2987C66.6703 24.5658 66.1562 24.0517 66.1562 23.4232V16.0153H63.6398C63.0114 16.0153 62.4972 16.5294 62.4972 17.1578V27.0987C62.4972 27.7271 63.0114 28.2413 63.6398 28.2413H73.6704C74.2988 28.2413 75.0447 28.7003 75.3278 29.2613L81.6472 41.7833H87.156Z" fill="#2F2E41"/>
    <path d="M96.2993 48.667C96.2993 49.2954 95.7852 49.8095 95.1567 49.8095H78.9555C78.3271 49.8095 77.8129 49.2954 77.8129 48.667V42.9258C77.8129 42.2974 78.3271 41.7832 78.9555 41.7832H95.1567C95.7852 41.7832 96.2993 42.2974 96.2993 42.9258V48.667Z" fill="#B8B0C8"/>
    <g opacity="0.1">
        <path opacity="0.1" d="M82.8377 48.667V42.9258C82.8377 42.2974 83.3519 41.7832 83.9803 41.7832H78.9555C78.3271 41.7832 77.8129 42.2974 77.8129 42.9258V48.667C77.8129 49.2954 78.3271 49.8095 78.9555 49.8095H83.9803C83.3519 49.8095 82.8377 49.2954 82.8377 48.667Z" fill="#2F2E41"/>
    </g>
    <path d="M85.4012 71.6234H81.9465C81.221 71.6234 80.0796 71.851 79.4103 72.1291L57.6054 81.1927C56.9358 81.471 56.3883 82.2887 56.3883 83.0098V106.108C56.3883 106.829 56.982 107.419 57.7075 107.419H85.401C86.1265 107.419 86.7202 106.829 86.7202 106.108V72.9344C86.7204 72.2134 86.1268 71.6234 85.4012 71.6234Z" fill="white"/>
    <path d="M83.4721 86.1242C82.9136 86.2933 82.1963 86.034 81.8775 85.5477L80.0115 82.6993C79.6931 82.2132 79.1717 82.2132 78.8534 82.6993L76.9871 85.5477C76.6685 86.0342 75.9512 86.2936 75.3925 86.1242L72.1213 85.135C71.5633 84.9661 71.1638 85.2988 71.2342 85.8749L71.6462 89.249C71.7168 89.8253 71.3348 90.4825 70.798 90.7096L67.652 92.0419C67.115 92.269 67.0248 92.7795 67.4507 93.1757L69.9484 95.4972C70.3745 95.8932 70.5071 96.6407 70.2429 97.1578L68.953 99.6834H86.7204V85.1421L83.4721 86.1242Z" fill="#08375E"/>
    <path d="M56.3883 99.6832V106.108C56.3883 106.829 56.982 107.419 57.7075 107.419H85.401C86.1265 107.419 86.7202 106.829 86.7202 106.108V99.6832H56.3883Z" fill="#B8B0C8"/>
    <path d="M39.6477 36.8239C39.321 36.8239 39.0312 36.6123 38.9336 36.3009C37.7625 32.5553 36.9579 31.7543 33.1959 30.5878C32.8828 30.4906 32.6694 30.2027 32.6694 29.8766C32.6694 29.5505 32.8828 29.2628 33.1959 29.1662C36.9581 27.9996 37.7625 27.1989 38.9336 23.4528C39.0312 23.1414 39.321 22.9293 39.6477 22.9293C39.9757 22.9293 40.265 23.1414 40.3619 23.4528C41.5339 27.1989 42.3383 27.9994 46.1008 29.1662C46.4134 29.2631 46.6266 29.5508 46.6266 29.8766C46.6266 30.2029 46.4134 30.4909 46.1008 30.5878C42.3383 31.7541 41.5339 32.5553 40.3619 36.3009C40.265 36.6123 39.9759 36.8239 39.6477 36.8239Z" fill="#EADBD6"/>
    <path d="M44.9902 13.5802C44.7112 13.5802 44.4633 13.3999 44.3801 13.1339C43.3799 9.93468 42.693 9.25074 39.4801 8.25464C39.2127 8.17169 39.0303 7.92581 39.0303 7.64725C39.0303 7.36869 39.2127 7.12281 39.4801 7.04032C42.6932 6.04399 43.3799 5.36028 44.3801 2.16107C44.4633 1.89508 44.7112 1.71387 44.9902 1.71387C45.2704 1.71387 45.5172 1.89508 45.6001 2.16107C46.601 5.36005 47.2882 6.04376 50.5013 7.04032C50.7682 7.12281 50.9501 7.36892 50.9501 7.64725C50.9501 7.92581 50.7682 8.17169 50.5013 8.25464C47.2879 9.25051 46.601 9.93468 45.6001 13.1339C45.5172 13.3999 45.2704 13.5802 44.9902 13.5802Z" fill="#EADBD6"/>
    <path d="M98.2897 20.4982L94.7756 15.8854C94.0651 14.9526 92.75 14.3011 91.5775 14.3011H87.8648C86.9183 14.3011 86.151 15.0683 86.151 16.015C86.151 16.9617 86.9183 17.7289 87.8648 17.7289L91.5663 17.7286C91.695 17.7389 91.9696 17.8751 92.0489 17.9624L95.5573 22.5672C95.6304 22.6799 95.693 22.9922 95.6707 23.115L91.2183 40.0687H82.702L76.8577 28.4883C76.2839 27.3516 74.9435 26.5267 73.6704 26.5267H64.211V17.7291H79.1815C80.128 17.7291 80.8953 16.962 80.8953 16.0152C80.8953 15.0685 80.128 14.3014 79.1815 14.3014H63.6398C62.2243 14.3014 61.0491 15.3372 60.8251 16.6903H58.6684C57.0933 16.6903 55.812 17.9716 55.812 19.5467V23.8757C55.812 25.4508 57.0935 26.7321 58.6684 26.7321H60.7835V27.0987C60.7835 28.6738 62.0648 29.9551 63.64 29.9551H68.309C68.1079 32.2622 67.136 35.4577 63.5769 37.2721C62.7337 37.702 62.3985 38.7339 62.8283 39.5774C63.1311 40.1715 63.7328 40.5134 64.3566 40.5134C64.6182 40.5134 64.8842 40.4531 65.1333 40.326C67.516 39.1117 69.1024 37.4095 70.1289 35.5752H76.5942L78.865 40.0744C77.3321 40.1229 76.0991 41.3817 76.0991 42.926V48.6673C76.0991 50.2424 77.3806 51.5237 78.9555 51.5237H79.3095V60.3092C79.3095 61.0555 78.6269 62.0717 77.9315 62.3608L50.2497 73.8672C48.26 74.6942 46.7598 76.937 46.7598 79.0839V112.664C46.7598 115.055 48.7123 117 51.1121 117H91.997C94.3967 117 96.3489 115.055 96.3489 112.664V100.318C96.3489 99.3712 95.5815 98.6041 94.635 98.6041C93.6883 98.6041 92.9212 99.3712 92.9212 100.318V112.663C92.9212 113.156 92.498 113.572 91.997 113.572H51.1119C50.6108 113.572 50.1873 113.156 50.1873 112.663V79.0835C50.1873 78.3371 50.8697 77.3209 51.5653 77.0319L79.2471 65.5255C80.7754 64.8902 82.0119 63.419 82.5045 61.7982H92.9209V90.9489C92.9209 91.8956 93.6881 92.6627 94.6348 92.6627C95.5813 92.6627 96.3487 91.8956 96.3487 90.9489V51.2593C97.3294 50.8066 98.0132 49.8162 98.0132 48.6668V42.9256C98.0132 41.3504 96.7319 40.0692 95.1567 40.0692H94.7618L98.9857 23.9861C99.2821 22.8593 98.9955 21.4251 98.2897 20.4982ZM59.2397 23.3044V20.118H60.7835V23.3044H59.2397ZM94.5854 48.0957H79.5268V43.4971H94.5854V48.0957ZM71.4348 32.1472C71.6069 31.395 71.7104 30.6571 71.7609 29.9551H73.6366C73.6896 29.9713 73.7746 30.0236 73.813 30.0639L74.8644 32.1472H71.4348ZM85.8463 51.5235V58.3709H82.7372V51.5235H85.8463ZM89.2741 58.3709V51.5235H92.9209V58.3709H89.2741Z" fill="#2F2E41"/>
    <path d="M48.3404 29.8764C48.3404 28.7932 47.6442 27.8497 46.6083 27.5291C43.3876 26.5303 42.9998 26.1443 41.9985 22.9439C41.677 21.9101 40.7323 21.2155 39.6477 21.2155C38.5655 21.2155 37.621 21.9088 37.2979 22.9414C36.2963 26.1447 35.9088 26.5305 32.6892 27.5289C31.6522 27.8495 30.9555 28.7932 30.9555 29.8766C30.9555 30.9598 31.6518 31.9035 32.6881 32.2248C35.9086 33.2232 36.2961 33.6092 37.2979 36.8127C37.621 37.8447 38.5653 38.5378 39.6477 38.5378C40.7323 38.5378 41.677 37.8433 41.9973 36.8127C42.9998 33.609 43.3876 33.2232 46.609 32.2246C47.6446 31.9029 48.3404 30.9591 48.3404 29.8764ZM39.648 33.329C38.853 31.6442 37.8781 30.6696 36.1921 29.8768C37.8781 29.0839 38.8532 28.1097 39.648 26.4251C40.443 28.1097 41.4185 29.0841 43.1045 29.8768C41.419 30.6693 40.4437 31.644 39.648 33.329Z" fill="#2F2E41"/>
    <path d="M38.9725 9.89172C41.6345 10.7167 41.9165 10.9975 42.7444 13.6458C43.0531 14.6316 43.9555 15.294 44.9902 15.294C46.0256 15.294 46.928 14.6311 47.2356 13.6455C48.0642 10.9975 48.3462 10.7169 51.0104 9.89103C51.9994 9.58345 52.664 8.68173 52.664 7.64724C52.664 6.61139 51.9983 5.70944 51.0088 5.40346C48.3462 4.57784 48.064 4.29699 47.2361 1.65056C46.9282 0.66315 46.0254 0 44.9902 0C43.9557 0 43.0529 0.662693 42.7444 1.64965C41.9165 4.29699 41.6347 4.57761 38.9741 5.40277C37.9826 5.70898 37.3165 6.61093 37.3165 7.64724C37.3165 8.68196 37.9817 9.58391 38.9725 9.89172ZM44.9902 5.24304C45.583 6.32894 46.3103 7.05608 47.3972 7.64724C46.3106 8.23841 45.583 8.96577 44.9904 10.0514C44.3979 8.96555 43.6705 8.23818 42.5842 7.64724C43.6708 7.05608 44.3979 6.32894 44.9902 5.24304Z" fill="#2F2E41"/>
    <path d="M26.5431 11.6062C26.0909 11.6062 25.6497 11.789 25.332 12.1089C25.0121 12.4266 24.8293 12.8697 24.8293 13.3201C24.8293 13.7723 25.0121 14.2136 25.332 14.5335C25.6497 14.8513 26.093 15.0339 26.5431 15.0339C26.9933 15.0339 27.4344 14.8511 27.7543 14.5335C28.0742 14.2138 28.257 13.7725 28.257 13.3201C28.257 12.8697 28.0742 12.4266 27.7543 12.1089C27.4366 11.789 26.9931 11.6062 26.5431 11.6062Z" fill="#2F2E41"/>
    <path d="M19.6121 17.84C19.1598 17.84 18.7186 18.023 18.3986 18.3406C18.0808 18.6606 17.8982 19.1016 17.8982 19.5538C17.8982 20.0042 18.081 20.4473 18.3986 20.7652C18.7183 21.0849 19.1619 21.2677 19.6121 21.2677C20.0625 21.2677 20.5033 21.0849 20.8232 20.7652C21.1431 20.4453 21.3259 20.0042 21.3259 19.5538C21.3259 19.1016 21.1431 18.6606 20.8232 18.3406C20.5035 18.023 20.0625 17.84 19.6121 17.84Z" fill="#2F2E41"/>
    <path d="M34.3126 19.5449C34.7628 19.5449 35.2061 19.3619 35.5237 19.0422C35.8437 18.7243 36.0265 18.2812 36.0265 17.831C36.0265 17.3786 35.8437 16.9376 35.5237 16.6197C35.2061 16.3 34.7628 16.1172 34.3126 16.1172C33.8624 16.1172 33.4191 16.3 33.1015 16.6197C32.7816 16.9376 32.5988 17.3784 32.5988 17.831C32.5988 18.2812 32.7816 18.7243 33.1015 19.0422C33.4189 19.3619 33.8624 19.5449 34.3126 19.5449Z" fill="#2F2E41"/>
    <path d="M50.4275 20.436C49.9771 20.436 49.534 20.6188 49.2161 20.9388C48.8964 21.2564 48.7136 21.6997 48.7136 22.1499C48.7136 22.6001 48.8964 23.0434 49.2161 23.3633C49.536 23.6809 49.9771 23.8638 50.4275 23.8638C50.8777 23.8638 51.3207 23.6809 51.6386 23.3633C51.9583 23.0434 52.1413 22.5998 52.1413 22.1499C52.1413 21.6997 51.9583 21.2589 51.6386 20.9388C51.3207 20.6186 50.8777 20.436 50.4275 20.436Z" fill="#2F2E41"/>
    <path d="M58.263 82.7751L62.2435 81.1209C63.1176 80.7576 63.5317 79.7546 63.1686 78.8806C62.8052 78.0065 61.8025 77.5929 60.928 77.9556L56.9475 79.6098C55.6303 80.1573 54.6744 81.5871 54.6744 83.0096V106.107C54.6744 107.776 56.035 109.132 57.7075 109.132H85.401C87.0733 109.132 88.4341 107.776 88.4341 106.107V72.9344C88.4341 71.2665 87.0733 69.9095 85.401 69.9095H81.9463C80.9996 69.9095 79.6264 70.1833 78.7524 70.5464L69.8401 74.2511C68.966 74.6144 68.5519 75.6174 68.9153 76.4917C69.2786 77.3658 70.2813 77.7791 71.1558 77.4165L80.0677 73.7118C80.5311 73.5194 81.444 73.3373 81.9465 73.3373H85.0068V83.8697L83.1876 84.4198L81.4452 81.7599C80.9708 81.0359 80.2372 80.6207 79.4324 80.6207C78.6276 80.6207 77.8938 81.0359 77.4197 81.7599L75.6768 84.4198L72.6176 83.4945C71.7854 83.2427 70.9543 83.3963 70.3368 83.9154C69.7208 84.4339 69.4276 85.2239 69.5327 86.0827L69.9161 89.2216L66.9841 90.4633C66.1824 90.8024 65.6425 91.453 65.5024 92.248C65.3623 93.0428 65.647 93.8382 66.2839 94.4308L68.6079 96.5909L67.9041 97.9691H58.1024V83.0274C58.12 82.947 58.2157 82.8067 58.263 82.7751ZM71.1149 94.2418L69.7806 93.0014L71.4657 92.2878C72.7008 91.7649 73.5095 90.3689 73.3471 89.041L73.1259 87.2291L74.8955 87.7643C76.1747 88.1519 77.6898 87.6023 78.4203 86.4867L79.4322 84.9424L80.4436 86.4865C81.1746 87.6023 82.6897 88.1523 83.968 87.7645L85.0066 87.4506V97.9691H71.7527L71.7689 97.9373C72.3791 96.7438 72.0978 95.1549 71.1149 94.2418ZM85.0066 101.397V105.705H58.1022V101.397H85.0066Z" fill="#2F2E41"/>
</svg>
