<svg width="601" height="448" viewBox="0 0 601 448" fill="none" xmlns="http://www.w3.org/2000/svg">
    <g clip-path="url(#clip0)">
        <path d="M242.816 258.478C225.378 323.21 188.46 379.863 121.408 379.863C54.3563 379.863 0 325.517 0 258.478C0 191.439 70.6729 180.924 121.408 137.093C224.436 48.0853 296.972 57.454 242.816 258.478Z" fill="#97CEED"/>
        <path d="M278.385 98.5897C299.791 98.5897 317.144 81.2398 317.144 59.8377C317.144 38.4356 299.791 21.0857 278.385 21.0857C256.979 21.0857 239.626 38.4356 239.626 59.8377C239.626 81.2398 256.979 98.5897 278.385 98.5897Z" fill="#B8B0C8"/>
        <path d="M348.494 5.69873H327.974V26.2145H348.494V5.69873Z" fill="#B8B0C8"/>
        <path d="M122.889 393.291C176.404 393.291 219.787 387.39 219.787 380.111C219.787 372.832 176.404 366.932 122.889 366.932C69.3732 366.932 25.9903 372.832 25.9903 380.111C25.9903 387.39 69.3732 393.291 122.889 393.291Z" fill="#2F2E41"/>
        <path d="M281.235 73.5149H150.137V140.191H281.235V73.5149Z" fill="#01A0DA"/>
        <path d="M117.647 360.736C142.516 360.736 162.677 340.579 162.677 315.715C162.677 290.851 142.516 270.694 117.647 270.694C92.7785 270.694 72.6182 290.851 72.6182 315.715C72.6182 340.579 92.7785 360.736 117.647 360.736Z" fill="#2F2E41"/>
        <path d="M110.808 351.048H97.1278V375.553H110.808V351.048Z" fill="#2F2E41"/>
        <path d="M138.167 351.048H124.487V375.553H138.167V351.048Z" fill="#2F2E41"/>
        <path d="M108.528 380.111C114.824 380.111 119.927 378.198 119.927 375.837C119.927 373.477 114.824 371.563 108.528 371.563C102.232 371.563 97.1278 373.477 97.1278 375.837C97.1278 378.198 102.232 380.111 108.528 380.111Z" fill="#2F2E41"/>
        <path d="M135.887 379.542C142.183 379.542 147.287 377.628 147.287 375.268C147.287 372.907 142.183 370.993 135.887 370.993C129.591 370.993 124.487 372.907 124.487 375.268C124.487 377.628 129.591 379.542 135.887 379.542Z" fill="#2F2E41"/>
        <path d="M118.787 319.704C127.287 319.704 134.177 312.815 134.177 304.317C134.177 295.819 127.287 288.93 118.787 288.93C110.288 288.93 103.398 295.819 103.398 304.317C103.398 312.815 110.288 319.704 118.787 319.704Z" fill="white"/>
        <path d="M118.787 309.446C121.621 309.446 123.917 307.15 123.917 304.317C123.917 301.485 121.621 299.188 118.787 299.188C115.954 299.188 113.658 301.485 113.658 304.317C113.658 307.15 115.954 309.446 118.787 309.446Z" fill="#2F2E41"/>
        <path d="M73.9675 273.847C70.3316 257.567 81.9542 241.116 99.9272 237.104C117.9 233.091 135.418 243.036 139.054 259.316C142.69 275.597 130.778 281.601 112.805 285.613C94.8321 289.626 77.6034 290.127 73.9675 273.847Z" fill="#01A0DA"/>
        <path d="M102.258 231.372C127.127 231.372 147.287 211.216 147.287 186.352C147.287 161.487 127.127 141.331 102.258 141.331C77.3887 141.331 57.2284 161.487 57.2284 186.352C57.2284 211.216 77.3887 231.372 102.258 231.372Z" fill="#2F2E41"/>
        <path d="M95.4178 221.684H81.738V246.189H95.4178V221.684Z" fill="#2F2E41"/>
        <path d="M122.777 221.684H109.098V246.189H122.777V221.684Z" fill="#2F2E41"/>
        <path d="M93.1379 250.748C99.4338 250.748 104.538 248.835 104.538 246.474C104.538 244.114 99.4338 242.2 93.1379 242.2C86.8419 242.2 81.738 244.114 81.738 246.474C81.738 248.835 86.8419 250.748 93.1379 250.748Z" fill="#2F2E41"/>
        <path d="M120.497 250.178C126.793 250.178 131.897 248.265 131.897 245.904C131.897 243.544 126.793 241.63 120.497 241.63C114.201 241.63 109.098 243.544 109.098 245.904C109.098 248.265 114.201 250.178 120.497 250.178Z" fill="#2F2E41"/>
        <path d="M103.398 190.341C111.897 190.341 118.787 183.452 118.787 174.954C118.787 166.456 111.897 159.567 103.398 159.567C94.8982 159.567 88.0079 166.456 88.0079 174.954C88.0079 183.452 94.8982 190.341 103.398 190.341Z" fill="white"/>
        <path d="M103.398 180.083C106.231 180.083 108.528 177.787 108.528 174.954C108.528 172.121 106.231 169.825 103.398 169.825C100.565 169.825 98.2678 172.121 98.2678 174.954C98.2678 177.787 100.565 180.083 103.398 180.083Z" fill="#2F2E41"/>
        <path d="M58.5778 144.484C54.9419 128.203 66.5644 111.753 84.5375 107.741C102.511 103.728 120.028 113.673 123.664 129.953C127.3 146.233 115.388 152.238 97.4154 156.25C79.4424 160.263 62.2137 160.764 58.5778 144.484Z" fill="#01A0DA"/>
        <path d="M150.48 154.877C154.92 143.265 155.563 132.721 151.917 131.328C148.27 129.934 141.716 138.219 137.276 149.831C132.837 161.444 132.194 171.988 135.84 173.381C139.486 174.775 146.041 166.49 150.48 154.877Z" fill="#2F2E41"/>
        <path d="M71.8823 175.108C73.5551 171.582 65.8035 164.404 54.5686 159.077C43.3336 153.749 32.8699 152.289 31.1971 155.815C29.5243 159.342 37.2759 166.519 48.5108 171.847C59.7457 177.174 70.2095 178.634 71.8823 175.108Z" fill="#2F2E41"/>
        <path d="M80.1395 202.593C80.1395 206.999 91.4872 215.7 104.079 215.7C116.671 215.7 128.477 203.295 128.477 198.889C128.477 194.482 116.671 199.744 104.079 199.744C91.4872 199.744 80.1395 198.187 80.1395 202.593Z" fill="white"/>
        <path d="M293.775 63.8269H162.677V130.503H293.775V63.8269Z" stroke="#2F2E41" stroke-width="2" stroke-miterlimit="10"/>
        <path d="M355.334 0.569824H334.814V21.0856H355.334V0.569824Z" stroke="#2F2E41" stroke-width="2" stroke-miterlimit="10"/>
        <path d="M601 307.906C601 354.538 573.273 370.82 539.069 370.82C504.866 370.82 477.139 354.538 477.139 307.906C477.139 261.274 539.069 201.95 539.069 201.95C539.069 201.95 601 261.274 601 307.906Z" fill="#97CEED"/>
        <path d="M536.813 363.687L537.448 324.66L563.844 276.378L537.547 318.538L537.832 300.99L556.024 266.058L537.908 296.346V296.346L538.421 264.785L557.901 236.975L538.501 259.822L538.821 201.95L536.808 278.562L536.973 275.401L517.167 245.091L536.656 281.468L534.81 316.717L534.756 315.781L511.922 283.884L534.686 319.086L534.455 323.494L534.414 323.56L534.433 323.922L529.751 413.35H536.007L536.757 367.159L559.465 332.043L536.813 363.687Z" fill="#2F2E41"/>
        <path d="M532.411 419.727C544.304 419.727 553.945 416.871 553.945 413.348C553.945 409.825 544.304 406.969 532.411 406.969C520.519 406.969 510.878 409.825 510.878 413.348C510.878 416.871 520.519 419.727 532.411 419.727Z" fill="#2F2E41"/>
        <path d="M435.814 448C489.33 448 532.713 442.099 532.713 434.82C532.713 427.541 489.33 421.64 435.814 421.64C382.298 421.64 338.915 427.541 338.915 434.82C338.915 442.099 382.298 448 435.814 448Z" fill="#2F2E41"/>
        <path d="M436.954 412.31C461.823 412.31 481.983 392.154 481.983 367.289C481.983 342.425 461.823 322.269 436.954 322.269C412.085 322.269 391.925 342.425 391.925 367.289C391.925 392.154 412.085 412.31 436.954 412.31Z" fill="#2F2E41"/>
        <path d="M443.794 427.127H457.474V402.622H443.794V427.127Z" fill="#2F2E41"/>
        <path d="M416.434 427.127H430.114V402.622H416.434V427.127Z" fill="#2F2E41"/>
        <path d="M422.562 433.393C428.014 430.246 431.477 426.037 430.297 423.993C429.116 421.948 423.739 422.843 418.287 425.99C412.834 429.137 409.371 433.346 410.552 435.39C411.732 437.435 417.109 436.54 422.562 433.393Z" fill="#2F2E41"/>
        <path d="M449.351 433.393C454.804 430.245 458.267 426.037 457.086 423.992C455.906 421.948 450.529 422.842 445.076 425.99C439.624 429.137 436.161 433.346 437.341 435.39C438.522 437.434 443.899 436.54 449.351 433.393Z" fill="#2F2E41"/>
        <path d="M435.814 371.278C444.313 371.278 451.204 364.389 451.204 355.891C451.204 347.394 444.313 340.505 435.814 340.505C427.314 340.505 420.424 347.394 420.424 355.891C420.424 364.389 427.314 371.278 435.814 371.278Z" fill="white"/>
        <path d="M430.573 354.467C433.406 354.467 435.703 352.171 435.703 349.338C435.703 346.505 433.406 344.209 430.573 344.209C427.739 344.209 425.443 346.505 425.443 349.338C425.443 352.171 427.739 354.467 430.573 354.467Z" fill="#2F2E41"/>
        <path d="M480.634 325.421C484.27 309.141 472.647 292.691 454.674 288.678C436.701 284.666 419.184 294.611 415.548 310.891C411.912 327.171 423.823 333.175 441.796 337.188C459.769 341.2 476.998 341.701 480.634 325.421Z" fill="#01A0DA"/>
        <path d="M418.2 360.671C419.736 357.083 411.715 350.208 400.283 345.317C388.852 340.425 378.339 339.368 376.803 342.956C375.267 346.544 383.289 353.418 394.721 358.31C406.152 363.202 416.664 364.259 418.2 360.671Z" fill="#2F2E41"/>
        <path d="M502.559 390.874C504.095 387.286 496.073 380.412 484.642 375.52C473.21 370.629 462.698 369.572 461.162 373.16C459.626 376.748 467.648 383.622 479.08 388.514C490.511 393.405 501.023 394.462 502.559 390.874Z" fill="#2F2E41"/>
        <path d="M381.553 324.833H361.034V345.349H381.553V324.833Z" fill="#B8B0C8"/>
        <path d="M359.894 288.36H339.374V308.876H359.894V288.36Z" stroke="#2F2E41" stroke-width="2" stroke-miterlimit="10"/>
        <path d="M445.962 386.95C445.962 389.671 444.881 392.28 442.957 394.204C441.033 396.127 438.424 397.208 435.703 397.208C432.981 397.208 430.372 396.127 428.448 394.204C426.524 392.28 425.443 389.671 425.443 386.95C425.443 381.285 430.036 380.112 435.703 380.112C441.369 380.112 445.962 381.285 445.962 386.95Z" fill="white"/>
    </g>
    <defs>
        <clipPath id="clip0">
            <rect width="601" height="448" fill="white"/>
        </clipPath>
    </defs>
</svg>
