<svg width="572" height="397" viewBox="0 0 572 397" fill="none" xmlns="http://www.w3.org/2000/svg">
    <g clip-path="url(#clip0_124:113)">
        <path d="M108.517 85.2264C126.559 85.2264 141.185 70.6033 141.185 52.5648C141.185 34.5263 126.559 19.9032 108.517 19.9032C90.4742 19.9032 75.8481 34.5263 75.8481 52.5648C75.8481 70.6033 90.4742 85.2264 108.517 85.2264Z" fill="#FF6584"/>
        <path d="M267.461 175.108C267.461 252.175 221.636 279.084 165.109 279.084C108.581 279.084 62.7567 252.175 62.7567 175.108C62.7567 98.0412 165.109 0 165.109 0C165.109 0 267.461 98.0412 267.461 175.108Z" fill="#F2F2F2"/>
        <path d="M161.38 267.295L162.428 202.797L206.053 123.004L162.593 192.679L163.064 163.678L193.13 105.949L163.189 156.004L164.036 103.844L196.232 57.8841L164.17 95.6419L164.699 0L161.371 126.613L161.644 121.39L128.911 71.2963L161.12 131.416L158.07 189.669L157.979 188.123L120.243 135.407L157.865 193.585L157.483 200.871L157.415 200.98L157.446 201.578L149.708 349.372H160.047L161.287 273.033L198.816 214.998L161.38 267.295Z" fill="#3F3D56"/>
        <path d="M572 206.672C572 269.755 534.49 291.781 488.22 291.781C441.95 291.781 404.44 269.755 404.44 206.672C404.44 143.59 488.22 63.3381 488.22 63.3381C488.22 63.3381 572 143.589 572 206.672Z" fill="#F2F2F2"/>
        <path d="M485.168 282.132L486.026 229.337L521.735 164.023L486.16 221.055L486.546 197.317L511.157 150.062L486.648 191.034L487.342 148.339L513.695 110.719L487.451 141.626L487.885 63.3381L485.16 166.976L485.385 162.701L458.59 121.697L484.955 170.909L482.458 218.592L482.384 217.326L451.495 174.175L482.29 221.797L481.978 227.76L481.922 227.85L481.948 228.339L475.614 349.315H484.076L485.092 286.829L515.811 239.324L485.168 282.132Z" fill="#3F3D56"/>
        <path d="M283.089 361.581C439.434 361.581 566.177 355.176 566.177 347.274C566.177 339.373 439.434 332.967 283.089 332.967C126.743 332.967 0 339.373 0 347.274C0 355.176 126.743 361.581 283.089 361.581Z" fill="#3F3D56"/>
        <path d="M455.543 373.362C482.322 373.362 504.03 372.265 504.03 370.912C504.03 369.559 482.322 368.461 455.543 368.461C428.765 368.461 407.057 369.559 407.057 370.912C407.057 372.265 428.765 373.362 455.543 373.362Z" fill="#3F3D56"/>
        <path d="M280.091 397C306.869 397 328.577 395.903 328.577 394.55C328.577 393.196 306.869 392.099 280.091 392.099C253.313 392.099 231.604 393.196 231.604 394.55C231.604 395.903 253.313 397 280.091 397Z" fill="#3F3D56"/>
        <path d="M146.98 380.329C208.158 380.329 257.753 377.822 257.753 374.73C257.753 371.639 208.158 369.132 146.98 369.132C85.8009 369.132 36.2058 371.639 36.2058 374.73C36.2058 377.822 85.8009 380.329 146.98 380.329Z" fill="#3F3D56"/>
        <path d="M49.5559 329.306C71.8268 329.306 89.881 311.255 89.881 288.989C89.881 266.723 71.8268 248.672 49.5559 248.672C27.2849 248.672 9.23075 266.723 9.23075 288.989C9.23075 311.255 27.2849 329.306 49.5559 329.306Z" fill="#2F2E41"/>
        <path d="M43.0581 320.556L30.8083 320.411L30.5496 342.354L42.7995 342.499L43.0581 320.556Z" fill="#2F2E41"/>
        <path d="M67.5577 320.844L55.3079 320.7L55.0493 342.643L67.2991 342.787L67.5577 320.844Z" fill="#2F2E41"/>
        <path d="M50.963 342.85C50.9879 340.736 46.4377 338.969 40.7999 338.902C35.1621 338.836 30.5716 340.496 30.5466 342.609C30.5217 344.723 35.0719 346.491 40.7097 346.557C46.3475 346.623 50.9381 344.964 50.963 342.85Z" fill="#2F2E41"/>
        <path d="M75.4686 342.628C75.4936 340.515 70.9434 338.747 65.3056 338.681C59.6678 338.614 55.0772 340.274 55.0523 342.388C55.0274 344.502 59.5775 346.269 65.2154 346.335C70.8532 346.402 75.4437 344.742 75.4686 342.628Z" fill="#2F2E41"/>
        <path d="M50.697 292.574C58.3085 292.574 64.479 286.405 64.479 278.795C64.479 271.185 58.3085 265.016 50.697 265.016C43.0854 265.016 36.915 271.185 36.915 278.795C36.915 286.405 43.0854 292.574 50.697 292.574Z" fill="white"/>
        <path d="M50.697 283.388C53.2342 283.388 55.291 281.332 55.291 278.795C55.291 276.258 53.2342 274.202 50.697 274.202C48.1598 274.202 46.103 276.258 46.103 278.795C46.103 281.332 48.1598 283.388 50.697 283.388Z" fill="#3F3D56"/>
        <path d="M10.8837 251.037C7.79968 236.421 18.3809 221.813 34.5175 218.41C50.6542 215.006 66.2356 224.096 69.3196 238.713C72.4037 253.329 61.674 258.58 45.5374 261.984C29.4008 265.387 13.9677 265.654 10.8837 251.037Z" fill="#01A0DA"/>
        <path d="M111.069 311.481C111.069 339.588 94.3569 349.402 73.7399 349.402C73.2623 349.402 72.7855 349.397 72.3094 349.386C71.3542 349.366 70.408 349.32 69.4733 349.257C50.8669 347.94 36.4111 337.621 36.4111 311.481C36.4111 284.429 70.988 250.293 73.5853 247.767L73.5898 247.762C73.6899 247.665 73.7399 247.617 73.7399 247.617C73.7399 247.617 111.069 283.373 111.069 311.481Z" fill="#01A0DA"/>
        <path d="M72.3799 345.102L86.0327 326.029L72.3458 347.196L72.3094 349.386C71.3542 349.366 70.408 349.32 69.4733 349.256L70.9448 321.136L70.9334 320.917L70.9584 320.876L71.0972 318.22L57.376 297.001L71.1403 316.229L71.1722 316.792L72.2843 295.545L60.5374 273.619L72.4276 291.816L73.5853 247.767L73.5898 247.617V247.762L73.3965 282.498L85.0912 268.727L73.3487 285.49L73.0394 304.514L83.9586 286.257L72.994 307.313L72.8211 317.888L88.6733 292.478L72.762 321.579L72.3799 345.102Z" fill="#3F3D56"/>
        <path d="M363.684 328.87C385.955 328.87 404.009 310.819 404.009 288.553C404.009 266.287 385.955 248.236 363.684 248.236C341.413 248.236 323.359 266.287 323.359 288.553C323.359 310.819 341.413 328.87 363.684 328.87Z" fill="#2F2E41"/>
        <path d="M367.126 320.597L355.416 324.195L361.864 345.171L373.574 341.573L367.126 320.597Z" fill="#2F2E41"/>
        <path d="M390.545 313.403L378.835 317.001L385.283 337.978L396.993 334.38L390.545 313.403Z" fill="#2F2E41"/>
        <path d="M372.822 346.075C378.211 344.419 382.077 341.439 381.455 339.418C380.834 337.398 375.962 337.102 370.572 338.758C365.183 340.414 361.317 343.394 361.939 345.415C362.56 347.436 367.432 347.731 372.822 346.075Z" fill="#2F2E41"/>
        <path d="M396.092 338.391C401.481 336.735 405.347 333.755 404.726 331.734C404.105 329.714 399.232 329.418 393.843 331.074C388.453 332.73 384.588 335.711 385.209 337.731C385.83 339.752 390.702 340.047 396.092 338.391Z" fill="#2F2E41"/>
        <path d="M361.661 292.276C369.272 292.276 375.443 286.107 375.443 278.497C375.443 270.887 369.272 264.718 361.661 264.718C354.049 264.718 347.879 270.887 347.879 278.497C347.879 286.107 354.049 292.276 361.661 292.276Z" fill="white"/>
        <path d="M361.661 283.09C364.198 283.09 366.255 281.033 366.255 278.497C366.255 275.96 364.198 273.904 361.661 273.904C359.124 273.904 357.067 275.96 357.067 278.497C357.067 281.033 359.124 283.09 361.661 283.09Z" fill="#3F3D56"/>
        <path d="M315.277 264.203C307.881 251.223 313.501 234.084 327.831 225.922C342.16 217.761 359.772 221.666 367.168 234.646C374.564 247.625 365.948 255.898 351.618 264.06C337.289 272.222 322.673 277.182 315.277 264.203Z" fill="#01A0DA"/>
        <path d="M291.766 306.334C291.766 332.135 276.425 341.144 257.5 341.144C257.062 341.144 256.624 341.139 256.187 341.129C255.31 341.11 254.441 341.069 253.583 341.01C236.503 339.802 223.234 330.329 223.234 306.334C223.234 281.501 254.974 250.166 257.358 247.847L257.362 247.843C257.454 247.753 257.5 247.71 257.5 247.71C257.5 247.71 291.766 280.533 291.766 306.334Z" fill="#01A0DA"/>
        <path d="M256.251 337.197L268.784 319.688L256.22 339.119L256.187 341.129C255.31 341.11 254.441 341.069 253.583 341.01L254.934 315.197L254.924 314.996L254.947 314.959L255.074 312.521L242.479 293.042L255.114 310.692L255.143 311.21L256.164 291.706L245.381 271.578L256.295 288.283L257.358 247.847L257.362 247.71V247.843L257.185 279.729L267.92 267.088L257.141 282.476L256.857 299.938L266.88 283.179L256.815 302.508L256.656 312.216L271.208 288.89L256.602 315.604L256.251 337.197Z" fill="#3F3D56"/>
        <path d="M426.523 317.094C426.523 345.202 409.811 355.016 389.195 355.016C388.717 355.016 388.24 355.01 387.764 355C386.809 354.979 385.863 354.934 384.928 354.87C366.321 353.554 351.866 343.235 351.866 317.094C351.866 290.042 386.443 255.907 389.04 253.381L389.044 253.376C389.145 253.278 389.195 253.231 389.195 253.231C389.195 253.231 426.523 288.987 426.523 317.094Z" fill="#01A0DA"/>
        <path d="M387.835 350.716L401.487 331.643L387.8 352.81L387.764 355C386.809 354.979 385.863 354.934 384.928 354.87L386.399 326.749L386.388 326.531L386.413 326.49L386.552 323.834L372.831 302.614L386.595 321.842L386.627 322.406L387.739 301.159L375.992 279.232L387.882 297.43L389.04 253.381L389.044 253.231V253.376L388.851 288.112L400.546 274.341L388.803 291.104L388.494 310.127L399.413 291.87L388.449 312.926L388.276 323.502L404.128 298.092L388.217 327.193L387.835 350.716Z" fill="#3F3D56"/>
        <path d="M366.245 312.688C367.743 309.53 360.801 303.102 350.74 298.331C340.679 293.56 331.308 292.253 329.81 295.411C328.312 298.569 335.254 304.996 345.315 309.767C355.376 314.538 364.747 315.845 366.245 312.688Z" fill="#2F2E41"/>
        <path d="M55.8822 308.997C57.1828 305.753 49.8581 299.765 39.5219 295.623C29.1858 291.481 19.7524 290.754 18.4518 293.998C17.1513 297.242 24.476 303.23 34.8121 307.372C45.1482 311.514 54.5816 312.241 55.8822 308.997Z" fill="#2F2E41"/>
    </g>
    <defs>
        <clipPath id="clip0_124:113">
            <rect width="572" height="397" fill="white"/>
        </clipPath>
    </defs>
</svg>
